M48
;DRILL file {KiCad (5.0.1)-4} date 2018-11-24 11:15:07 PM
;FORMAT={-:-/ absolute / inch / decimal}
FMAT,2
INCH,TZ
T1C0.0079
T2C0.0157
T3C0.0394
T4C0.0500
T5C0.0600
%
G90
G05
M72
T1
X5.1821Y-5.4872
X5.1821Y-5.5659
X5.2608Y-5.4872
X5.2608Y-5.5659
T2
X3.8583Y-3.8189
X3.8583Y-4.5276
X3.967Y-4.3967
X4.0106Y-3.476
X4.0157Y-4.5276
X4.0341Y-4.1006
X4.1339Y-3.9764
X4.252Y-3.189
X4.252Y-3.4252
X4.3701Y-4.2913
X4.4295Y-5.5423
X4.4368Y-5.4624
X4.4598Y-5.3241
X4.6457Y-4.3307
X4.6457Y-4.5276
X4.8484Y-5.6296
X4.8815Y-5.6649
X4.8956Y-4.2483
X4.8956Y-5.5463
X4.9606Y-4.6063
X5.0394Y-4.685
X5.0394Y-4.7638
X5.0787Y-2.2441
X5.1038Y-4.173
X5.1038Y-5.372
X5.1624Y-5.6967
X5.1819Y-5.7992
X5.1969Y-2.4803
X5.2119Y-5.7261
X5.2121Y-5.406
X5.2301Y-5.3367
X5.2362Y-4.7638
X5.2676Y-5.4113
X5.2752Y-5.6686
X5.3937Y-1.9685
X5.4724Y-2.2835
X5.5049Y-6.0338
X5.5512Y-4.685
X5.5906Y-2.4016
X5.6299Y-2.0866
X5.6299Y-2.5197
X5.6503Y-3.5462
X5.6697Y-2.1351
X5.6846Y-4.0632
X5.7067Y-3.6181
X5.7377Y-3.395
X5.786Y-4.9498
X5.8533Y-3.5799
X6.0076Y-5.9539
X6.0076Y-6.4316
X6.0696Y-2.1752
X6.0696Y-3.4857
X6.1024Y-4.4488
X6.2205Y-2.3228
X6.2205Y-5.1181
X6.2205Y-5.3937
X6.2598Y-4.685
X6.2992Y-2.4803
X6.4567Y-2.4409
X6.6535Y-2.5197
X6.7717Y-2.3228
X6.8898Y-2.7165
X7.1416Y-4.7866
X7.1416Y-5.4988
X7.3353Y-5.3067
X7.3845Y-5.1887
X7.4445Y-4.5302
X7.5197Y-3.8583
X7.6464Y-3.8285
X7.6801Y-3.9137
X7.701Y-4.3254
X7.7165Y-3.7402
X7.7551Y-4.2217
X7.7701Y-4.0292
X7.7947Y-3.9771
T3
X4.8819Y-6.1024
X4.9819Y-6.1024
X5.0819Y-6.1024
X5.1819Y-6.1024
X5.2819Y-6.1024
X5.3819Y-6.1024
T4
X6.6211Y-5.7805
T5
X6.4961Y-5.6555
X6.4961Y-5.9055
X6.7461Y-5.6555
X6.7461Y-5.9055
T0
M30
