G04 #@! TF.GenerationSoftware,KiCad,Pcbnew,(5.0.1)-4*
G04 #@! TF.CreationDate,2018-11-24T23:14:57-05:00*
G04 #@! TF.ProjectId,geodesic,67656F64657369632E6B696361645F70,rev?*
G04 #@! TF.SameCoordinates,Original*
G04 #@! TF.FileFunction,Soldermask,Bot*
G04 #@! TF.FilePolarity,Negative*
%FSLAX46Y46*%
G04 Gerber Fmt 4.6, Leading zero omitted, Abs format (unit mm)*
G04 Created by KiCad (PCBNEW (5.0.1)-4) date 2018-11-24 11:14:57 PM*
%MOMM*%
%LPD*%
G01*
G04 APERTURE LIST*
%ADD10C,0.100000*%
G04 APERTURE END LIST*
D10*
G36*
X150851000Y-165051000D02*
X148749000Y-165051000D01*
X148749000Y-154949000D01*
X150851000Y-154949000D01*
X150851000Y-165051000D01*
X150851000Y-165051000D01*
G37*
G36*
X147251000Y-165051000D02*
X145149000Y-165051000D01*
X145149000Y-154949000D01*
X147251000Y-154949000D01*
X147251000Y-165051000D01*
X147251000Y-165051000D01*
G37*
G36*
X131730442Y-154105518D02*
X131796627Y-154112037D01*
X131909853Y-154146384D01*
X131966467Y-154163557D01*
X132105087Y-154237652D01*
X132122991Y-154247222D01*
X132158729Y-154276552D01*
X132260186Y-154359814D01*
X132343448Y-154461271D01*
X132372778Y-154497009D01*
X132372779Y-154497011D01*
X132456443Y-154653533D01*
X132456443Y-154653534D01*
X132507963Y-154823373D01*
X132525359Y-155000000D01*
X132507963Y-155176627D01*
X132473616Y-155289853D01*
X132456443Y-155346467D01*
X132382348Y-155485087D01*
X132372778Y-155502991D01*
X132343448Y-155538729D01*
X132260186Y-155640186D01*
X132158729Y-155723448D01*
X132122991Y-155752778D01*
X132122989Y-155752779D01*
X131966467Y-155836443D01*
X131909853Y-155853616D01*
X131796627Y-155887963D01*
X131730442Y-155894482D01*
X131664260Y-155901000D01*
X131575740Y-155901000D01*
X131509558Y-155894482D01*
X131443373Y-155887963D01*
X131330147Y-155853616D01*
X131273533Y-155836443D01*
X131117011Y-155752779D01*
X131117009Y-155752778D01*
X131081271Y-155723448D01*
X130979814Y-155640186D01*
X130896552Y-155538729D01*
X130867222Y-155502991D01*
X130857652Y-155485087D01*
X130783557Y-155346467D01*
X130766384Y-155289853D01*
X130732037Y-155176627D01*
X130714641Y-155000000D01*
X130732037Y-154823373D01*
X130783557Y-154653534D01*
X130783557Y-154653533D01*
X130867221Y-154497011D01*
X130867222Y-154497009D01*
X130896552Y-154461271D01*
X130979814Y-154359814D01*
X131081271Y-154276552D01*
X131117009Y-154247222D01*
X131134913Y-154237652D01*
X131273533Y-154163557D01*
X131330147Y-154146384D01*
X131443373Y-154112037D01*
X131509558Y-154105518D01*
X131575740Y-154099000D01*
X131664260Y-154099000D01*
X131730442Y-154105518D01*
X131730442Y-154105518D01*
G37*
G36*
X136810442Y-154105518D02*
X136876627Y-154112037D01*
X136989853Y-154146384D01*
X137046467Y-154163557D01*
X137185087Y-154237652D01*
X137202991Y-154247222D01*
X137238729Y-154276552D01*
X137340186Y-154359814D01*
X137423448Y-154461271D01*
X137452778Y-154497009D01*
X137452779Y-154497011D01*
X137536443Y-154653533D01*
X137536443Y-154653534D01*
X137587963Y-154823373D01*
X137605359Y-155000000D01*
X137587963Y-155176627D01*
X137553616Y-155289853D01*
X137536443Y-155346467D01*
X137462348Y-155485087D01*
X137452778Y-155502991D01*
X137423448Y-155538729D01*
X137340186Y-155640186D01*
X137238729Y-155723448D01*
X137202991Y-155752778D01*
X137202989Y-155752779D01*
X137046467Y-155836443D01*
X136989853Y-155853616D01*
X136876627Y-155887963D01*
X136810442Y-155894482D01*
X136744260Y-155901000D01*
X136655740Y-155901000D01*
X136589558Y-155894482D01*
X136523373Y-155887963D01*
X136410147Y-155853616D01*
X136353533Y-155836443D01*
X136197011Y-155752779D01*
X136197009Y-155752778D01*
X136161271Y-155723448D01*
X136059814Y-155640186D01*
X135976552Y-155538729D01*
X135947222Y-155502991D01*
X135937652Y-155485087D01*
X135863557Y-155346467D01*
X135846384Y-155289853D01*
X135812037Y-155176627D01*
X135794641Y-155000000D01*
X135812037Y-154823373D01*
X135863557Y-154653534D01*
X135863557Y-154653533D01*
X135947221Y-154497011D01*
X135947222Y-154497009D01*
X135976552Y-154461271D01*
X136059814Y-154359814D01*
X136161271Y-154276552D01*
X136197009Y-154247222D01*
X136214913Y-154237652D01*
X136353533Y-154163557D01*
X136410147Y-154146384D01*
X136523373Y-154112037D01*
X136589558Y-154105518D01*
X136655740Y-154099000D01*
X136744260Y-154099000D01*
X136810442Y-154105518D01*
X136810442Y-154105518D01*
G37*
G36*
X134270442Y-154105518D02*
X134336627Y-154112037D01*
X134449853Y-154146384D01*
X134506467Y-154163557D01*
X134645087Y-154237652D01*
X134662991Y-154247222D01*
X134698729Y-154276552D01*
X134800186Y-154359814D01*
X134883448Y-154461271D01*
X134912778Y-154497009D01*
X134912779Y-154497011D01*
X134996443Y-154653533D01*
X134996443Y-154653534D01*
X135047963Y-154823373D01*
X135065359Y-155000000D01*
X135047963Y-155176627D01*
X135013616Y-155289853D01*
X134996443Y-155346467D01*
X134922348Y-155485087D01*
X134912778Y-155502991D01*
X134883448Y-155538729D01*
X134800186Y-155640186D01*
X134698729Y-155723448D01*
X134662991Y-155752778D01*
X134662989Y-155752779D01*
X134506467Y-155836443D01*
X134449853Y-155853616D01*
X134336627Y-155887963D01*
X134270442Y-155894482D01*
X134204260Y-155901000D01*
X134115740Y-155901000D01*
X134049558Y-155894482D01*
X133983373Y-155887963D01*
X133870147Y-155853616D01*
X133813533Y-155836443D01*
X133657011Y-155752779D01*
X133657009Y-155752778D01*
X133621271Y-155723448D01*
X133519814Y-155640186D01*
X133436552Y-155538729D01*
X133407222Y-155502991D01*
X133397652Y-155485087D01*
X133323557Y-155346467D01*
X133306384Y-155289853D01*
X133272037Y-155176627D01*
X133254641Y-155000000D01*
X133272037Y-154823373D01*
X133323557Y-154653534D01*
X133323557Y-154653533D01*
X133407221Y-154497011D01*
X133407222Y-154497009D01*
X133436552Y-154461271D01*
X133519814Y-154359814D01*
X133621271Y-154276552D01*
X133657009Y-154247222D01*
X133674913Y-154237652D01*
X133813533Y-154163557D01*
X133870147Y-154146384D01*
X133983373Y-154112037D01*
X134049558Y-154105518D01*
X134115740Y-154099000D01*
X134204260Y-154099000D01*
X134270442Y-154105518D01*
X134270442Y-154105518D01*
G37*
G36*
X129190442Y-154105518D02*
X129256627Y-154112037D01*
X129369853Y-154146384D01*
X129426467Y-154163557D01*
X129565087Y-154237652D01*
X129582991Y-154247222D01*
X129618729Y-154276552D01*
X129720186Y-154359814D01*
X129803448Y-154461271D01*
X129832778Y-154497009D01*
X129832779Y-154497011D01*
X129916443Y-154653533D01*
X129916443Y-154653534D01*
X129967963Y-154823373D01*
X129985359Y-155000000D01*
X129967963Y-155176627D01*
X129933616Y-155289853D01*
X129916443Y-155346467D01*
X129842348Y-155485087D01*
X129832778Y-155502991D01*
X129803448Y-155538729D01*
X129720186Y-155640186D01*
X129618729Y-155723448D01*
X129582991Y-155752778D01*
X129582989Y-155752779D01*
X129426467Y-155836443D01*
X129369853Y-155853616D01*
X129256627Y-155887963D01*
X129190442Y-155894482D01*
X129124260Y-155901000D01*
X129035740Y-155901000D01*
X128969558Y-155894482D01*
X128903373Y-155887963D01*
X128790147Y-155853616D01*
X128733533Y-155836443D01*
X128577011Y-155752779D01*
X128577009Y-155752778D01*
X128541271Y-155723448D01*
X128439814Y-155640186D01*
X128356552Y-155538729D01*
X128327222Y-155502991D01*
X128317652Y-155485087D01*
X128243557Y-155346467D01*
X128226384Y-155289853D01*
X128192037Y-155176627D01*
X128174641Y-155000000D01*
X128192037Y-154823373D01*
X128243557Y-154653534D01*
X128243557Y-154653533D01*
X128327221Y-154497011D01*
X128327222Y-154497009D01*
X128356552Y-154461271D01*
X128439814Y-154359814D01*
X128541271Y-154276552D01*
X128577009Y-154247222D01*
X128594913Y-154237652D01*
X128733533Y-154163557D01*
X128790147Y-154146384D01*
X128903373Y-154112037D01*
X128969558Y-154105518D01*
X129035740Y-154099000D01*
X129124260Y-154099000D01*
X129190442Y-154105518D01*
X129190442Y-154105518D01*
G37*
G36*
X126650442Y-154105518D02*
X126716627Y-154112037D01*
X126829853Y-154146384D01*
X126886467Y-154163557D01*
X127025087Y-154237652D01*
X127042991Y-154247222D01*
X127078729Y-154276552D01*
X127180186Y-154359814D01*
X127263448Y-154461271D01*
X127292778Y-154497009D01*
X127292779Y-154497011D01*
X127376443Y-154653533D01*
X127376443Y-154653534D01*
X127427963Y-154823373D01*
X127445359Y-155000000D01*
X127427963Y-155176627D01*
X127393616Y-155289853D01*
X127376443Y-155346467D01*
X127302348Y-155485087D01*
X127292778Y-155502991D01*
X127263448Y-155538729D01*
X127180186Y-155640186D01*
X127078729Y-155723448D01*
X127042991Y-155752778D01*
X127042989Y-155752779D01*
X126886467Y-155836443D01*
X126829853Y-155853616D01*
X126716627Y-155887963D01*
X126650442Y-155894482D01*
X126584260Y-155901000D01*
X126495740Y-155901000D01*
X126429558Y-155894482D01*
X126363373Y-155887963D01*
X126250147Y-155853616D01*
X126193533Y-155836443D01*
X126037011Y-155752779D01*
X126037009Y-155752778D01*
X126001271Y-155723448D01*
X125899814Y-155640186D01*
X125816552Y-155538729D01*
X125787222Y-155502991D01*
X125777652Y-155485087D01*
X125703557Y-155346467D01*
X125686384Y-155289853D01*
X125652037Y-155176627D01*
X125634641Y-155000000D01*
X125652037Y-154823373D01*
X125703557Y-154653534D01*
X125703557Y-154653533D01*
X125787221Y-154497011D01*
X125787222Y-154497009D01*
X125816552Y-154461271D01*
X125899814Y-154359814D01*
X126001271Y-154276552D01*
X126037009Y-154247222D01*
X126054913Y-154237652D01*
X126193533Y-154163557D01*
X126250147Y-154146384D01*
X126363373Y-154112037D01*
X126429558Y-154105518D01*
X126495740Y-154099000D01*
X126584260Y-154099000D01*
X126650442Y-154105518D01*
X126650442Y-154105518D01*
G37*
G36*
X124901000Y-155901000D02*
X123099000Y-155901000D01*
X123099000Y-154099000D01*
X124901000Y-154099000D01*
X124901000Y-155901000D01*
X124901000Y-155901000D01*
G37*
G36*
X171794579Y-148094112D02*
X171920544Y-148119168D01*
X172067991Y-148180243D01*
X172276512Y-148266615D01*
X172596880Y-148480678D01*
X172869322Y-148753120D01*
X173083385Y-149073488D01*
X173230832Y-149429457D01*
X173306000Y-149807349D01*
X173306000Y-150192651D01*
X173230832Y-150570543D01*
X173083385Y-150926512D01*
X172869322Y-151246880D01*
X172596880Y-151519322D01*
X172276512Y-151733385D01*
X172067991Y-151819757D01*
X171920544Y-151880832D01*
X171794579Y-151905888D01*
X171542651Y-151956000D01*
X171157349Y-151956000D01*
X170905421Y-151905888D01*
X170779456Y-151880832D01*
X170632009Y-151819757D01*
X170423488Y-151733385D01*
X170103120Y-151519322D01*
X169830678Y-151246880D01*
X169616615Y-150926512D01*
X169469168Y-150570543D01*
X169394000Y-150192651D01*
X169394000Y-149807349D01*
X169469168Y-149429457D01*
X169616615Y-149073488D01*
X169830678Y-148753120D01*
X170103120Y-148480678D01*
X170423488Y-148266615D01*
X170632009Y-148180243D01*
X170779456Y-148119168D01*
X170905421Y-148094112D01*
X171157349Y-148044000D01*
X171542651Y-148044000D01*
X171794579Y-148094112D01*
X171794579Y-148094112D01*
G37*
G36*
X165444579Y-148094112D02*
X165570544Y-148119168D01*
X165717991Y-148180243D01*
X165926512Y-148266615D01*
X166246880Y-148480678D01*
X166519322Y-148753120D01*
X166733385Y-149073488D01*
X166880832Y-149429457D01*
X166956000Y-149807349D01*
X166956000Y-150192651D01*
X166880832Y-150570543D01*
X166733385Y-150926512D01*
X166519322Y-151246880D01*
X166246880Y-151519322D01*
X165926512Y-151733385D01*
X165717991Y-151819757D01*
X165570544Y-151880832D01*
X165444579Y-151905888D01*
X165192651Y-151956000D01*
X164807349Y-151956000D01*
X164555421Y-151905888D01*
X164429456Y-151880832D01*
X164282009Y-151819757D01*
X164073488Y-151733385D01*
X163753120Y-151519322D01*
X163480678Y-151246880D01*
X163266615Y-150926512D01*
X163119168Y-150570543D01*
X163044000Y-150192651D01*
X163044000Y-149807349D01*
X163119168Y-149429457D01*
X163266615Y-149073488D01*
X163480678Y-148753120D01*
X163753120Y-148480678D01*
X164073488Y-148266615D01*
X164282009Y-148180243D01*
X164429456Y-148119168D01*
X164555421Y-148094112D01*
X164807349Y-148044000D01*
X165192651Y-148044000D01*
X165444579Y-148094112D01*
X165444579Y-148094112D01*
G37*
G36*
X168531821Y-145031144D02*
X168708500Y-145066287D01*
X168846373Y-145123396D01*
X169041355Y-145204160D01*
X169340923Y-145404325D01*
X169595675Y-145659077D01*
X169795840Y-145958645D01*
X169933713Y-146291501D01*
X170004000Y-146644858D01*
X170004000Y-147005142D01*
X169933713Y-147358499D01*
X169795840Y-147691355D01*
X169595675Y-147990923D01*
X169340923Y-148245675D01*
X169041355Y-148445840D01*
X168957248Y-148480678D01*
X168708500Y-148583713D01*
X168531821Y-148618856D01*
X168355142Y-148654000D01*
X167994858Y-148654000D01*
X167818179Y-148618856D01*
X167641500Y-148583713D01*
X167392752Y-148480678D01*
X167308645Y-148445840D01*
X167009077Y-148245675D01*
X166754325Y-147990923D01*
X166554160Y-147691355D01*
X166416287Y-147358499D01*
X166346000Y-147005142D01*
X166346000Y-146644858D01*
X166416287Y-146291501D01*
X166554160Y-145958645D01*
X166754325Y-145659077D01*
X167009077Y-145404325D01*
X167308645Y-145204160D01*
X167503627Y-145123396D01*
X167641500Y-145066287D01*
X167818179Y-145031144D01*
X167994858Y-144996000D01*
X168355142Y-144996000D01*
X168531821Y-145031144D01*
X168531821Y-145031144D01*
G37*
G36*
X112026010Y-139757628D02*
X104401934Y-146385136D01*
X103022898Y-144798736D01*
X110646974Y-138171228D01*
X112026010Y-139757628D01*
X112026010Y-139757628D01*
G37*
G36*
X192977102Y-144798736D02*
X191598066Y-146385136D01*
X183973990Y-139757628D01*
X185353026Y-138171228D01*
X192977102Y-144798736D01*
X192977102Y-144798736D01*
G37*
G36*
X165444579Y-141744112D02*
X165570544Y-141769168D01*
X165717991Y-141830243D01*
X165926512Y-141916615D01*
X166246880Y-142130678D01*
X166519322Y-142403120D01*
X166733385Y-142723488D01*
X166880832Y-143079457D01*
X166956000Y-143457349D01*
X166956000Y-143842651D01*
X166880832Y-144220543D01*
X166733385Y-144576512D01*
X166519322Y-144896880D01*
X166246880Y-145169322D01*
X165926512Y-145383385D01*
X165717991Y-145469757D01*
X165570544Y-145530832D01*
X165444579Y-145555888D01*
X165192651Y-145606000D01*
X164807349Y-145606000D01*
X164555421Y-145555888D01*
X164429456Y-145530832D01*
X164282009Y-145469757D01*
X164073488Y-145383385D01*
X163753120Y-145169322D01*
X163480678Y-144896880D01*
X163266615Y-144576512D01*
X163119168Y-144220543D01*
X163044000Y-143842651D01*
X163044000Y-143457349D01*
X163119168Y-143079457D01*
X163266615Y-142723488D01*
X163480678Y-142403120D01*
X163753120Y-142130678D01*
X164073488Y-141916615D01*
X164282009Y-141830243D01*
X164429456Y-141769168D01*
X164555421Y-141744112D01*
X164807349Y-141694000D01*
X165192651Y-141694000D01*
X165444579Y-141744112D01*
X165444579Y-141744112D01*
G37*
G36*
X171794579Y-141744112D02*
X171920544Y-141769168D01*
X172067991Y-141830243D01*
X172276512Y-141916615D01*
X172596880Y-142130678D01*
X172869322Y-142403120D01*
X173083385Y-142723488D01*
X173230832Y-143079457D01*
X173306000Y-143457349D01*
X173306000Y-143842651D01*
X173230832Y-144220543D01*
X173083385Y-144576512D01*
X172869322Y-144896880D01*
X172596880Y-145169322D01*
X172276512Y-145383385D01*
X172067991Y-145469757D01*
X171920544Y-145530832D01*
X171794579Y-145555888D01*
X171542651Y-145606000D01*
X171157349Y-145606000D01*
X170905421Y-145555888D01*
X170779456Y-145530832D01*
X170632009Y-145469757D01*
X170423488Y-145383385D01*
X170103120Y-145169322D01*
X169830678Y-144896880D01*
X169616615Y-144576512D01*
X169469168Y-144220543D01*
X169394000Y-143842651D01*
X169394000Y-143457349D01*
X169469168Y-143079457D01*
X169616615Y-142723488D01*
X169830678Y-142403120D01*
X170103120Y-142130678D01*
X170423488Y-141916615D01*
X170632009Y-141830243D01*
X170779456Y-141769168D01*
X170905421Y-141744112D01*
X171157349Y-141694000D01*
X171542651Y-141694000D01*
X171794579Y-141744112D01*
X171794579Y-141744112D01*
G37*
G36*
X109664198Y-137040674D02*
X102040122Y-143668182D01*
X100661086Y-142081782D01*
X108285162Y-135454274D01*
X109664198Y-137040674D01*
X109664198Y-137040674D01*
G37*
G36*
X195338914Y-142081782D02*
X193959878Y-143668182D01*
X186335802Y-137040674D01*
X187714838Y-135454274D01*
X195338914Y-142081782D01*
X195338914Y-142081782D01*
G37*
G36*
X208051000Y-107851000D02*
X197949000Y-107851000D01*
X197949000Y-105749000D01*
X208051000Y-105749000D01*
X208051000Y-107851000D01*
X208051000Y-107851000D01*
G37*
G36*
X98051000Y-107851000D02*
X87949000Y-107851000D01*
X87949000Y-105749000D01*
X98051000Y-105749000D01*
X98051000Y-107851000D01*
X98051000Y-107851000D01*
G37*
G36*
X208051000Y-104251000D02*
X197949000Y-104251000D01*
X197949000Y-102149000D01*
X208051000Y-102149000D01*
X208051000Y-104251000D01*
X208051000Y-104251000D01*
G37*
G36*
X98051000Y-104251000D02*
X87949000Y-104251000D01*
X87949000Y-102149000D01*
X98051000Y-102149000D01*
X98051000Y-104251000D01*
X98051000Y-104251000D01*
G37*
G36*
X207797286Y-99026156D02*
X197793598Y-100432083D01*
X197501056Y-98350540D01*
X207504744Y-96944613D01*
X207797286Y-99026156D01*
X207797286Y-99026156D01*
G37*
G36*
X207296263Y-95461191D02*
X197292575Y-96867118D01*
X197000033Y-94785575D01*
X207003721Y-93379648D01*
X207296263Y-95461191D01*
X207296263Y-95461191D01*
G37*
G36*
X102047401Y-85412354D02*
X101192440Y-87332627D01*
X91963803Y-83223774D01*
X92818764Y-81303501D01*
X102047401Y-85412354D01*
X102047401Y-85412354D01*
G37*
G36*
X103511652Y-82123591D02*
X102656691Y-84043864D01*
X93428054Y-79935011D01*
X94283015Y-78014738D01*
X103511652Y-82123591D01*
X103511652Y-82123591D01*
G37*
G36*
X182564811Y-55787549D02*
X177211566Y-64354531D01*
X175428969Y-63240641D01*
X180782214Y-54673659D01*
X182564811Y-55787549D01*
X182564811Y-55787549D01*
G37*
G36*
X179511838Y-53879840D02*
X174158593Y-62446822D01*
X172375996Y-61332932D01*
X177729241Y-52765950D01*
X179511838Y-53879840D01*
X179511838Y-53879840D01*
G37*
G36*
X132520563Y-56348267D02*
X132842356Y-57400807D01*
X130832203Y-58015372D01*
X130151089Y-55787549D01*
X127878664Y-48354782D01*
X127878664Y-48354781D01*
X129888817Y-47740216D01*
X132520563Y-56348267D01*
X132520563Y-56348267D01*
G37*
G36*
X135888439Y-55051000D02*
X136285053Y-56348268D01*
X134274900Y-56962833D01*
X132991784Y-52765950D01*
X131321361Y-47302243D01*
X131321361Y-47302242D01*
X133331514Y-46687677D01*
X135888439Y-55051000D01*
X135888439Y-55051000D01*
G37*
G36*
X150851000Y-55051000D02*
X148749000Y-55051000D01*
X148749000Y-44949000D01*
X150851000Y-44949000D01*
X150851000Y-55051000D01*
X150851000Y-55051000D01*
G37*
G36*
X147251000Y-55051000D02*
X145149000Y-55051000D01*
X145149000Y-44949000D01*
X147251000Y-44949000D01*
X147251000Y-55051000D01*
X147251000Y-55051000D01*
G37*
M02*
