G04 #@! TF.GenerationSoftware,KiCad,Pcbnew,(5.0.1)-4*
G04 #@! TF.CreationDate,2018-11-24T23:14:57-05:00*
G04 #@! TF.ProjectId,geodesic,67656F64657369632E6B696361645F70,rev?*
G04 #@! TF.SameCoordinates,Original*
G04 #@! TF.FileFunction,Legend,Top*
G04 #@! TF.FilePolarity,Positive*
%FSLAX46Y46*%
G04 Gerber Fmt 4.6, Leading zero omitted, Abs format (unit mm)*
G04 Created by KiCad (PCBNEW (5.0.1)-4) date 2018-11-24 11:14:57 PM*
%MOMM*%
%LPD*%
G01*
G04 APERTURE LIST*
%ADD10C,0.120000*%
%ADD11C,0.150000*%
G04 APERTURE END LIST*
D10*
G04 #@! TO.C,R1*
X123290000Y-151286252D02*
X123290000Y-150763748D01*
X124710000Y-151286252D02*
X124710000Y-150763748D01*
G04 #@! TO.C,J11*
X138030000Y-156330000D02*
X138030000Y-153670000D01*
X125270000Y-156330000D02*
X138030000Y-156330000D01*
X125270000Y-153670000D02*
X138030000Y-153670000D01*
X125270000Y-156330000D02*
X125270000Y-153670000D01*
X124000000Y-156330000D02*
X122670000Y-156330000D01*
X122670000Y-156330000D02*
X122670000Y-155000000D01*
G04 #@! TO.C,U1*
X134735000Y-141760000D02*
X134735000Y-142485000D01*
X134735000Y-142485000D02*
X134010000Y-142485000D01*
X130515000Y-138990000D02*
X130515000Y-138265000D01*
X130515000Y-138265000D02*
X131240000Y-138265000D01*
X130515000Y-141760000D02*
X130515000Y-142485000D01*
X130515000Y-142485000D02*
X131240000Y-142485000D01*
X134735000Y-138990000D02*
X134735000Y-138265000D01*
G04 #@! TO.C,C1*
X147236252Y-88210000D02*
X146713748Y-88210000D01*
X147236252Y-86790000D02*
X146713748Y-86790000D01*
G04 #@! TO.C,C2*
X146713748Y-126290000D02*
X147236252Y-126290000D01*
X146713748Y-127710000D02*
X147236252Y-127710000D01*
G04 #@! TO.C,C3*
X130736252Y-100290000D02*
X130213748Y-100290000D01*
X130736252Y-101710000D02*
X130213748Y-101710000D01*
G04 #@! TO.C,C4*
X165763748Y-102710000D02*
X166286252Y-102710000D01*
X165763748Y-101290000D02*
X166286252Y-101290000D01*
G04 #@! TO.C,C5*
X168790000Y-105786252D02*
X168790000Y-105263748D01*
X170210000Y-105786252D02*
X170210000Y-105263748D01*
G04 #@! TO.C,C6*
X127710000Y-103713748D02*
X127710000Y-104236252D01*
X126290000Y-103713748D02*
X126290000Y-104236252D01*
G04 #@! TO.C,C7*
X126290000Y-110738748D02*
X126290000Y-111261252D01*
X127710000Y-110738748D02*
X127710000Y-111261252D01*
G04 #@! TO.C,C8*
X150710000Y-90761252D02*
X150710000Y-90238748D01*
X149290000Y-90761252D02*
X149290000Y-90238748D01*
G04 #@! TO.C,C9*
X131286252Y-113790000D02*
X130763748Y-113790000D01*
X131286252Y-115210000D02*
X130763748Y-115210000D01*
G04 #@! TO.C,C10*
X150710000Y-123213748D02*
X150710000Y-123736252D01*
X149290000Y-123213748D02*
X149290000Y-123736252D01*
G04 #@! TO.C,D1*
X167975000Y-84040000D02*
X165115000Y-84040000D01*
X165115000Y-84040000D02*
X165115000Y-85960000D01*
X165115000Y-85960000D02*
X167975000Y-85960000D01*
G04 #@! TO.C,D2*
X125165000Y-125960000D02*
X128025000Y-125960000D01*
X125165000Y-124040000D02*
X125165000Y-125960000D01*
X128025000Y-124040000D02*
X125165000Y-124040000D01*
G04 #@! TO.C,D5*
X146225000Y-102000000D02*
X146225000Y-101600000D01*
X147425000Y-102000000D02*
X146225000Y-102000000D01*
X146225000Y-100000000D02*
X146225000Y-100400000D01*
X147425000Y-100000000D02*
X146225000Y-100000000D01*
G04 #@! TO.C,J12*
X163411411Y-145112337D02*
G75*
G03X163425000Y-148575000I4763589J-1712663D01*
G01*
X166462337Y-151588589D02*
G75*
G03X169925000Y-151575000I1712663J4763589D01*
G01*
X172938589Y-148537663D02*
G75*
G03X172925000Y-145075000I-4763589J1712663D01*
G01*
X169887663Y-142061411D02*
G75*
G03X166425000Y-142075000I-1712663J-4763589D01*
G01*
G04 #@! TO.C,R2*
X166713748Y-88790000D02*
X167236252Y-88790000D01*
X166713748Y-90210000D02*
X167236252Y-90210000D01*
G04 #@! TO.C,R3*
X126713748Y-128790000D02*
X127236252Y-128790000D01*
X126713748Y-130210000D02*
X127236252Y-130210000D01*
G04 #@! TO.C,R4*
X137286252Y-104290000D02*
X136763748Y-104290000D01*
X137286252Y-105710000D02*
X136763748Y-105710000D01*
G04 #@! TO.C,R5*
X136763748Y-107290000D02*
X137286252Y-107290000D01*
X136763748Y-108710000D02*
X137286252Y-108710000D01*
G04 #@! TO.C,R6*
X160713748Y-105710000D02*
X161236252Y-105710000D01*
X160713748Y-104290000D02*
X161236252Y-104290000D01*
G04 #@! TO.C,R7*
X161236252Y-108710000D02*
X160713748Y-108710000D01*
X161236252Y-107290000D02*
X160713748Y-107290000D01*
G04 #@! TO.C,R8*
X137286252Y-101290000D02*
X136763748Y-101290000D01*
X137286252Y-102710000D02*
X136763748Y-102710000D01*
G04 #@! TO.C,R9*
X160713748Y-111710000D02*
X161236252Y-111710000D01*
X160713748Y-110290000D02*
X161236252Y-110290000D01*
G04 #@! TO.C,R10*
X151710000Y-97286252D02*
X151710000Y-96763748D01*
X150290000Y-97286252D02*
X150290000Y-96763748D01*
G04 #@! TO.C,R11*
X148710000Y-96763748D02*
X148710000Y-97286252D01*
X147290000Y-96763748D02*
X147290000Y-97286252D01*
G04 #@! TO.C,R12*
X138710000Y-110713748D02*
X138710000Y-111236252D01*
X137290000Y-110713748D02*
X137290000Y-111236252D01*
G04 #@! TO.C,R13*
X144710000Y-111236252D02*
X144710000Y-110713748D01*
X143290000Y-111236252D02*
X143290000Y-110713748D01*
G04 #@! TO.C,R14*
X149710000Y-118213748D02*
X149710000Y-118736252D01*
X148290000Y-118213748D02*
X148290000Y-118736252D01*
G04 #@! TO.C,R15*
X152710000Y-118786252D02*
X152710000Y-118263748D01*
X151290000Y-118786252D02*
X151290000Y-118263748D01*
G04 #@! TO.C,R16*
X145710000Y-97286252D02*
X145710000Y-96763748D01*
X144290000Y-97286252D02*
X144290000Y-96763748D01*
G04 #@! TO.C,R17*
X141710000Y-110713748D02*
X141710000Y-111236252D01*
X140290000Y-110713748D02*
X140290000Y-111236252D01*
G04 #@! TO.C,R18*
X146710000Y-118263748D02*
X146710000Y-118786252D01*
X145290000Y-118263748D02*
X145290000Y-118786252D01*
G04 #@! TO.C,U2*
X129950000Y-105660000D02*
X131750000Y-105660000D01*
X131750000Y-102440000D02*
X129300000Y-102440000D01*
G04 #@! TO.C,U3*
X164600000Y-107610000D02*
X167050000Y-107610000D01*
X166400000Y-104390000D02*
X164600000Y-104390000D01*
G04 #@! TO.C,U4*
X145390000Y-90100000D02*
X145390000Y-91900000D01*
X148610000Y-91900000D02*
X148610000Y-89450000D01*
G04 #@! TO.C,U5*
X132250000Y-109340000D02*
X129800000Y-109340000D01*
X130450000Y-112560000D02*
X132250000Y-112560000D01*
G04 #@! TO.C,U6*
X148610000Y-123900000D02*
X148610000Y-122100000D01*
X145390000Y-122100000D02*
X145390000Y-124550000D01*
G04 #@! TO.C,J1*
D11*
X154866666Y-156852380D02*
X154866666Y-157566666D01*
X154819047Y-157709523D01*
X154723809Y-157804761D01*
X154580952Y-157852380D01*
X154485714Y-157852380D01*
X155866666Y-157852380D02*
X155295238Y-157852380D01*
X155580952Y-157852380D02*
X155580952Y-156852380D01*
X155485714Y-156995238D01*
X155390476Y-157090476D01*
X155295238Y-157138095D01*
X145071428Y-152452380D02*
X145071428Y-151452380D01*
X145071428Y-151928571D02*
X145642857Y-151928571D01*
X145642857Y-152452380D02*
X145642857Y-151452380D01*
X146500000Y-152404761D02*
X146404761Y-152452380D01*
X146214285Y-152452380D01*
X146119047Y-152404761D01*
X146071428Y-152309523D01*
X146071428Y-151928571D01*
X146119047Y-151833333D01*
X146214285Y-151785714D01*
X146404761Y-151785714D01*
X146500000Y-151833333D01*
X146547619Y-151928571D01*
X146547619Y-152023809D01*
X146071428Y-152119047D01*
X146880952Y-152452380D02*
X147404761Y-151785714D01*
X146880952Y-151785714D02*
X147404761Y-152452380D01*
X148214285Y-152452380D02*
X148214285Y-151928571D01*
X148166666Y-151833333D01*
X148071428Y-151785714D01*
X147880952Y-151785714D01*
X147785714Y-151833333D01*
X148214285Y-152404761D02*
X148119047Y-152452380D01*
X147880952Y-152452380D01*
X147785714Y-152404761D01*
X147738095Y-152309523D01*
X147738095Y-152214285D01*
X147785714Y-152119047D01*
X147880952Y-152071428D01*
X148119047Y-152071428D01*
X148214285Y-152023809D01*
X149119047Y-151785714D02*
X149119047Y-152595238D01*
X149071428Y-152690476D01*
X149023809Y-152738095D01*
X148928571Y-152785714D01*
X148785714Y-152785714D01*
X148690476Y-152738095D01*
X149119047Y-152404761D02*
X149023809Y-152452380D01*
X148833333Y-152452380D01*
X148738095Y-152404761D01*
X148690476Y-152357142D01*
X148642857Y-152261904D01*
X148642857Y-151976190D01*
X148690476Y-151880952D01*
X148738095Y-151833333D01*
X148833333Y-151785714D01*
X149023809Y-151785714D01*
X149119047Y-151833333D01*
X149738095Y-152452380D02*
X149642857Y-152404761D01*
X149595238Y-152357142D01*
X149547619Y-152261904D01*
X149547619Y-151976190D01*
X149595238Y-151880952D01*
X149642857Y-151833333D01*
X149738095Y-151785714D01*
X149880952Y-151785714D01*
X149976190Y-151833333D01*
X150023809Y-151880952D01*
X150071428Y-151976190D01*
X150071428Y-152261904D01*
X150023809Y-152357142D01*
X149976190Y-152404761D01*
X149880952Y-152452380D01*
X149738095Y-152452380D01*
X150500000Y-151785714D02*
X150500000Y-152452380D01*
X150500000Y-151880952D02*
X150547619Y-151833333D01*
X150642857Y-151785714D01*
X150785714Y-151785714D01*
X150880952Y-151833333D01*
X150928571Y-151928571D01*
X150928571Y-152452380D01*
X152052380Y-164323809D02*
X151052380Y-164323809D01*
X152052380Y-163847619D02*
X151052380Y-163847619D01*
X152052380Y-163276190D01*
X151052380Y-163276190D01*
X151052380Y-158000000D02*
X151052380Y-157809523D01*
X151100000Y-157714285D01*
X151195238Y-157619047D01*
X151385714Y-157571428D01*
X151719047Y-157571428D01*
X151909523Y-157619047D01*
X152004761Y-157714285D01*
X152052380Y-157809523D01*
X152052380Y-158000000D01*
X152004761Y-158095238D01*
X151909523Y-158190476D01*
X151719047Y-158238095D01*
X151385714Y-158238095D01*
X151195238Y-158190476D01*
X151100000Y-158095238D01*
X151052380Y-158000000D01*
X151052380Y-157142857D02*
X151861904Y-157142857D01*
X151957142Y-157095238D01*
X152004761Y-157047619D01*
X152052380Y-156952380D01*
X152052380Y-156761904D01*
X152004761Y-156666666D01*
X151957142Y-156619047D01*
X151861904Y-156571428D01*
X151052380Y-156571428D01*
X151052380Y-156238095D02*
X151052380Y-155666666D01*
X152052380Y-155952380D02*
X151052380Y-155952380D01*
X143852380Y-164833333D02*
X144852380Y-164500000D01*
X143852380Y-164166666D01*
X144757142Y-163261904D02*
X144804761Y-163309523D01*
X144852380Y-163452380D01*
X144852380Y-163547619D01*
X144804761Y-163690476D01*
X144709523Y-163785714D01*
X144614285Y-163833333D01*
X144423809Y-163880952D01*
X144280952Y-163880952D01*
X144090476Y-163833333D01*
X143995238Y-163785714D01*
X143900000Y-163690476D01*
X143852380Y-163547619D01*
X143852380Y-163452380D01*
X143900000Y-163309523D01*
X143947619Y-163261904D01*
X144757142Y-162261904D02*
X144804761Y-162309523D01*
X144852380Y-162452380D01*
X144852380Y-162547619D01*
X144804761Y-162690476D01*
X144709523Y-162785714D01*
X144614285Y-162833333D01*
X144423809Y-162880952D01*
X144280952Y-162880952D01*
X144090476Y-162833333D01*
X143995238Y-162785714D01*
X143900000Y-162690476D01*
X143852380Y-162547619D01*
X143852380Y-162452380D01*
X143900000Y-162309523D01*
X143947619Y-162261904D01*
G04 #@! TO.C,J2*
X95052380Y-112533333D02*
X95766666Y-112533333D01*
X95909523Y-112580952D01*
X96004761Y-112676190D01*
X96052380Y-112819047D01*
X96052380Y-112914285D01*
X95147619Y-112104761D02*
X95100000Y-112057142D01*
X95052380Y-111961904D01*
X95052380Y-111723809D01*
X95100000Y-111628571D01*
X95147619Y-111580952D01*
X95242857Y-111533333D01*
X95338095Y-111533333D01*
X95480952Y-111580952D01*
X96052380Y-112152380D01*
X96052380Y-111533333D01*
X101452380Y-107928571D02*
X100452380Y-107928571D01*
X100928571Y-107928571D02*
X100928571Y-107357142D01*
X101452380Y-107357142D02*
X100452380Y-107357142D01*
X101404761Y-106500000D02*
X101452380Y-106595238D01*
X101452380Y-106785714D01*
X101404761Y-106880952D01*
X101309523Y-106928571D01*
X100928571Y-106928571D01*
X100833333Y-106880952D01*
X100785714Y-106785714D01*
X100785714Y-106595238D01*
X100833333Y-106500000D01*
X100928571Y-106452380D01*
X101023809Y-106452380D01*
X101119047Y-106928571D01*
X101452380Y-106119047D02*
X100785714Y-105595238D01*
X100785714Y-106119047D02*
X101452380Y-105595238D01*
X101452380Y-104785714D02*
X100928571Y-104785714D01*
X100833333Y-104833333D01*
X100785714Y-104928571D01*
X100785714Y-105119047D01*
X100833333Y-105214285D01*
X101404761Y-104785714D02*
X101452380Y-104880952D01*
X101452380Y-105119047D01*
X101404761Y-105214285D01*
X101309523Y-105261904D01*
X101214285Y-105261904D01*
X101119047Y-105214285D01*
X101071428Y-105119047D01*
X101071428Y-104880952D01*
X101023809Y-104785714D01*
X100785714Y-103880952D02*
X101595238Y-103880952D01*
X101690476Y-103928571D01*
X101738095Y-103976190D01*
X101785714Y-104071428D01*
X101785714Y-104214285D01*
X101738095Y-104309523D01*
X101404761Y-103880952D02*
X101452380Y-103976190D01*
X101452380Y-104166666D01*
X101404761Y-104261904D01*
X101357142Y-104309523D01*
X101261904Y-104357142D01*
X100976190Y-104357142D01*
X100880952Y-104309523D01*
X100833333Y-104261904D01*
X100785714Y-104166666D01*
X100785714Y-103976190D01*
X100833333Y-103880952D01*
X101452380Y-103261904D02*
X101404761Y-103357142D01*
X101357142Y-103404761D01*
X101261904Y-103452380D01*
X100976190Y-103452380D01*
X100880952Y-103404761D01*
X100833333Y-103357142D01*
X100785714Y-103261904D01*
X100785714Y-103119047D01*
X100833333Y-103023809D01*
X100880952Y-102976190D01*
X100976190Y-102928571D01*
X101261904Y-102928571D01*
X101357142Y-102976190D01*
X101404761Y-103023809D01*
X101452380Y-103119047D01*
X101452380Y-103261904D01*
X100785714Y-102500000D02*
X101452380Y-102500000D01*
X100880952Y-102500000D02*
X100833333Y-102452380D01*
X100785714Y-102357142D01*
X100785714Y-102214285D01*
X100833333Y-102119047D01*
X100928571Y-102071428D01*
X101452380Y-102071428D01*
X88676190Y-109052380D02*
X88676190Y-108052380D01*
X89152380Y-109052380D02*
X89152380Y-108052380D01*
X89723809Y-109052380D01*
X89723809Y-108052380D01*
X95000000Y-108052380D02*
X95190476Y-108052380D01*
X95285714Y-108100000D01*
X95380952Y-108195238D01*
X95428571Y-108385714D01*
X95428571Y-108719047D01*
X95380952Y-108909523D01*
X95285714Y-109004761D01*
X95190476Y-109052380D01*
X95000000Y-109052380D01*
X94904761Y-109004761D01*
X94809523Y-108909523D01*
X94761904Y-108719047D01*
X94761904Y-108385714D01*
X94809523Y-108195238D01*
X94904761Y-108100000D01*
X95000000Y-108052380D01*
X95857142Y-108052380D02*
X95857142Y-108861904D01*
X95904761Y-108957142D01*
X95952380Y-109004761D01*
X96047619Y-109052380D01*
X96238095Y-109052380D01*
X96333333Y-109004761D01*
X96380952Y-108957142D01*
X96428571Y-108861904D01*
X96428571Y-108052380D01*
X96761904Y-108052380D02*
X97333333Y-108052380D01*
X97047619Y-109052380D02*
X97047619Y-108052380D01*
X88166666Y-100852380D02*
X88500000Y-101852380D01*
X88833333Y-100852380D01*
X89738095Y-101757142D02*
X89690476Y-101804761D01*
X89547619Y-101852380D01*
X89452380Y-101852380D01*
X89309523Y-101804761D01*
X89214285Y-101709523D01*
X89166666Y-101614285D01*
X89119047Y-101423809D01*
X89119047Y-101280952D01*
X89166666Y-101090476D01*
X89214285Y-100995238D01*
X89309523Y-100900000D01*
X89452380Y-100852380D01*
X89547619Y-100852380D01*
X89690476Y-100900000D01*
X89738095Y-100947619D01*
X90738095Y-101757142D02*
X90690476Y-101804761D01*
X90547619Y-101852380D01*
X90452380Y-101852380D01*
X90309523Y-101804761D01*
X90214285Y-101709523D01*
X90166666Y-101614285D01*
X90119047Y-101423809D01*
X90119047Y-101280952D01*
X90166666Y-101090476D01*
X90214285Y-100995238D01*
X90309523Y-100900000D01*
X90452380Y-100852380D01*
X90547619Y-100852380D01*
X90690476Y-100900000D01*
X90738095Y-100947619D01*
G04 #@! TO.C,J3*
X140466666Y-52052380D02*
X140466666Y-52766666D01*
X140419047Y-52909523D01*
X140323809Y-53004761D01*
X140180952Y-53052380D01*
X140085714Y-53052380D01*
X140847619Y-52052380D02*
X141466666Y-52052380D01*
X141133333Y-52433333D01*
X141276190Y-52433333D01*
X141371428Y-52480952D01*
X141419047Y-52528571D01*
X141466666Y-52623809D01*
X141466666Y-52861904D01*
X141419047Y-52957142D01*
X141371428Y-53004761D01*
X141276190Y-53052380D01*
X140990476Y-53052380D01*
X140895238Y-53004761D01*
X140847619Y-52957142D01*
X145071428Y-58452380D02*
X145071428Y-57452380D01*
X145071428Y-57928571D02*
X145642857Y-57928571D01*
X145642857Y-58452380D02*
X145642857Y-57452380D01*
X146500000Y-58404761D02*
X146404761Y-58452380D01*
X146214285Y-58452380D01*
X146119047Y-58404761D01*
X146071428Y-58309523D01*
X146071428Y-57928571D01*
X146119047Y-57833333D01*
X146214285Y-57785714D01*
X146404761Y-57785714D01*
X146500000Y-57833333D01*
X146547619Y-57928571D01*
X146547619Y-58023809D01*
X146071428Y-58119047D01*
X146880952Y-58452380D02*
X147404761Y-57785714D01*
X146880952Y-57785714D02*
X147404761Y-58452380D01*
X148214285Y-58452380D02*
X148214285Y-57928571D01*
X148166666Y-57833333D01*
X148071428Y-57785714D01*
X147880952Y-57785714D01*
X147785714Y-57833333D01*
X148214285Y-58404761D02*
X148119047Y-58452380D01*
X147880952Y-58452380D01*
X147785714Y-58404761D01*
X147738095Y-58309523D01*
X147738095Y-58214285D01*
X147785714Y-58119047D01*
X147880952Y-58071428D01*
X148119047Y-58071428D01*
X148214285Y-58023809D01*
X149119047Y-57785714D02*
X149119047Y-58595238D01*
X149071428Y-58690476D01*
X149023809Y-58738095D01*
X148928571Y-58785714D01*
X148785714Y-58785714D01*
X148690476Y-58738095D01*
X149119047Y-58404761D02*
X149023809Y-58452380D01*
X148833333Y-58452380D01*
X148738095Y-58404761D01*
X148690476Y-58357142D01*
X148642857Y-58261904D01*
X148642857Y-57976190D01*
X148690476Y-57880952D01*
X148738095Y-57833333D01*
X148833333Y-57785714D01*
X149023809Y-57785714D01*
X149119047Y-57833333D01*
X149738095Y-58452380D02*
X149642857Y-58404761D01*
X149595238Y-58357142D01*
X149547619Y-58261904D01*
X149547619Y-57976190D01*
X149595238Y-57880952D01*
X149642857Y-57833333D01*
X149738095Y-57785714D01*
X149880952Y-57785714D01*
X149976190Y-57833333D01*
X150023809Y-57880952D01*
X150071428Y-57976190D01*
X150071428Y-58261904D01*
X150023809Y-58357142D01*
X149976190Y-58404761D01*
X149880952Y-58452380D01*
X149738095Y-58452380D01*
X150500000Y-57785714D02*
X150500000Y-58452380D01*
X150500000Y-57880952D02*
X150547619Y-57833333D01*
X150642857Y-57785714D01*
X150785714Y-57785714D01*
X150880952Y-57833333D01*
X150928571Y-57928571D01*
X150928571Y-58452380D01*
X144852380Y-46723809D02*
X143852380Y-46723809D01*
X144852380Y-46247619D02*
X143852380Y-46247619D01*
X144852380Y-45676190D01*
X143852380Y-45676190D01*
X143852380Y-54000000D02*
X143852380Y-53809523D01*
X143900000Y-53714285D01*
X143995238Y-53619047D01*
X144185714Y-53571428D01*
X144519047Y-53571428D01*
X144709523Y-53619047D01*
X144804761Y-53714285D01*
X144852380Y-53809523D01*
X144852380Y-54000000D01*
X144804761Y-54095238D01*
X144709523Y-54190476D01*
X144519047Y-54238095D01*
X144185714Y-54238095D01*
X143995238Y-54190476D01*
X143900000Y-54095238D01*
X143852380Y-54000000D01*
X143852380Y-53142857D02*
X144661904Y-53142857D01*
X144757142Y-53095238D01*
X144804761Y-53047619D01*
X144852380Y-52952380D01*
X144852380Y-52761904D01*
X144804761Y-52666666D01*
X144757142Y-52619047D01*
X144661904Y-52571428D01*
X143852380Y-52571428D01*
X143852380Y-52238095D02*
X143852380Y-51666666D01*
X144852380Y-51952380D02*
X143852380Y-51952380D01*
X151052380Y-47833333D02*
X152052380Y-47500000D01*
X151052380Y-47166666D01*
X151957142Y-46261904D02*
X152004761Y-46309523D01*
X152052380Y-46452380D01*
X152052380Y-46547619D01*
X152004761Y-46690476D01*
X151909523Y-46785714D01*
X151814285Y-46833333D01*
X151623809Y-46880952D01*
X151480952Y-46880952D01*
X151290476Y-46833333D01*
X151195238Y-46785714D01*
X151100000Y-46690476D01*
X151052380Y-46547619D01*
X151052380Y-46452380D01*
X151100000Y-46309523D01*
X151147619Y-46261904D01*
X151957142Y-45261904D02*
X152004761Y-45309523D01*
X152052380Y-45452380D01*
X152052380Y-45547619D01*
X152004761Y-45690476D01*
X151909523Y-45785714D01*
X151814285Y-45833333D01*
X151623809Y-45880952D01*
X151480952Y-45880952D01*
X151290476Y-45833333D01*
X151195238Y-45785714D01*
X151100000Y-45690476D01*
X151052380Y-45547619D01*
X151052380Y-45452380D01*
X151100000Y-45309523D01*
X151147619Y-45261904D01*
G04 #@! TO.C,J4*
X199852380Y-98133333D02*
X200566666Y-98133333D01*
X200709523Y-98180952D01*
X200804761Y-98276190D01*
X200852380Y-98419047D01*
X200852380Y-98514285D01*
X200185714Y-97228571D02*
X200852380Y-97228571D01*
X199804761Y-97466666D02*
X200519047Y-97704761D01*
X200519047Y-97085714D01*
X195452380Y-107928571D02*
X194452380Y-107928571D01*
X194928571Y-107928571D02*
X194928571Y-107357142D01*
X195452380Y-107357142D02*
X194452380Y-107357142D01*
X195404761Y-106500000D02*
X195452380Y-106595238D01*
X195452380Y-106785714D01*
X195404761Y-106880952D01*
X195309523Y-106928571D01*
X194928571Y-106928571D01*
X194833333Y-106880952D01*
X194785714Y-106785714D01*
X194785714Y-106595238D01*
X194833333Y-106500000D01*
X194928571Y-106452380D01*
X195023809Y-106452380D01*
X195119047Y-106928571D01*
X195452380Y-106119047D02*
X194785714Y-105595238D01*
X194785714Y-106119047D02*
X195452380Y-105595238D01*
X195452380Y-104785714D02*
X194928571Y-104785714D01*
X194833333Y-104833333D01*
X194785714Y-104928571D01*
X194785714Y-105119047D01*
X194833333Y-105214285D01*
X195404761Y-104785714D02*
X195452380Y-104880952D01*
X195452380Y-105119047D01*
X195404761Y-105214285D01*
X195309523Y-105261904D01*
X195214285Y-105261904D01*
X195119047Y-105214285D01*
X195071428Y-105119047D01*
X195071428Y-104880952D01*
X195023809Y-104785714D01*
X194785714Y-103880952D02*
X195595238Y-103880952D01*
X195690476Y-103928571D01*
X195738095Y-103976190D01*
X195785714Y-104071428D01*
X195785714Y-104214285D01*
X195738095Y-104309523D01*
X195404761Y-103880952D02*
X195452380Y-103976190D01*
X195452380Y-104166666D01*
X195404761Y-104261904D01*
X195357142Y-104309523D01*
X195261904Y-104357142D01*
X194976190Y-104357142D01*
X194880952Y-104309523D01*
X194833333Y-104261904D01*
X194785714Y-104166666D01*
X194785714Y-103976190D01*
X194833333Y-103880952D01*
X195452380Y-103261904D02*
X195404761Y-103357142D01*
X195357142Y-103404761D01*
X195261904Y-103452380D01*
X194976190Y-103452380D01*
X194880952Y-103404761D01*
X194833333Y-103357142D01*
X194785714Y-103261904D01*
X194785714Y-103119047D01*
X194833333Y-103023809D01*
X194880952Y-102976190D01*
X194976190Y-102928571D01*
X195261904Y-102928571D01*
X195357142Y-102976190D01*
X195404761Y-103023809D01*
X195452380Y-103119047D01*
X195452380Y-103261904D01*
X194785714Y-102500000D02*
X195452380Y-102500000D01*
X194880952Y-102500000D02*
X194833333Y-102452380D01*
X194785714Y-102357142D01*
X194785714Y-102214285D01*
X194833333Y-102119047D01*
X194928571Y-102071428D01*
X195452380Y-102071428D01*
X206276190Y-101852380D02*
X206276190Y-100852380D01*
X206752380Y-101852380D02*
X206752380Y-100852380D01*
X207323809Y-101852380D01*
X207323809Y-100852380D01*
X199000000Y-100852380D02*
X199190476Y-100852380D01*
X199285714Y-100900000D01*
X199380952Y-100995238D01*
X199428571Y-101185714D01*
X199428571Y-101519047D01*
X199380952Y-101709523D01*
X199285714Y-101804761D01*
X199190476Y-101852380D01*
X199000000Y-101852380D01*
X198904761Y-101804761D01*
X198809523Y-101709523D01*
X198761904Y-101519047D01*
X198761904Y-101185714D01*
X198809523Y-100995238D01*
X198904761Y-100900000D01*
X199000000Y-100852380D01*
X199857142Y-100852380D02*
X199857142Y-101661904D01*
X199904761Y-101757142D01*
X199952380Y-101804761D01*
X200047619Y-101852380D01*
X200238095Y-101852380D01*
X200333333Y-101804761D01*
X200380952Y-101757142D01*
X200428571Y-101661904D01*
X200428571Y-100852380D01*
X200761904Y-100852380D02*
X201333333Y-100852380D01*
X201047619Y-101852380D02*
X201047619Y-100852380D01*
X205166666Y-108052380D02*
X205500000Y-109052380D01*
X205833333Y-108052380D01*
X206738095Y-108957142D02*
X206690476Y-109004761D01*
X206547619Y-109052380D01*
X206452380Y-109052380D01*
X206309523Y-109004761D01*
X206214285Y-108909523D01*
X206166666Y-108814285D01*
X206119047Y-108623809D01*
X206119047Y-108480952D01*
X206166666Y-108290476D01*
X206214285Y-108195238D01*
X206309523Y-108100000D01*
X206452380Y-108052380D01*
X206547619Y-108052380D01*
X206690476Y-108100000D01*
X206738095Y-108147619D01*
X207738095Y-108957142D02*
X207690476Y-109004761D01*
X207547619Y-109052380D01*
X207452380Y-109052380D01*
X207309523Y-109004761D01*
X207214285Y-108909523D01*
X207166666Y-108814285D01*
X207119047Y-108623809D01*
X207119047Y-108480952D01*
X207166666Y-108290476D01*
X207214285Y-108195238D01*
X207309523Y-108100000D01*
X207452380Y-108052380D01*
X207547619Y-108052380D01*
X207690476Y-108100000D01*
X207738095Y-108147619D01*
G04 #@! TO.C,J5*
X113224024Y-144037019D02*
X112684946Y-144505633D01*
X112545890Y-144563417D01*
X112411531Y-144554022D01*
X112281869Y-144477447D01*
X112219388Y-144405570D01*
X113848843Y-144755790D02*
X113536434Y-144396405D01*
X113145807Y-144672875D01*
X113212987Y-144677573D01*
X113311407Y-144718209D01*
X113467611Y-144897902D01*
X113494155Y-145001020D01*
X113489457Y-145068199D01*
X113448821Y-145166620D01*
X113269128Y-145322824D01*
X113166010Y-145349367D01*
X113098831Y-145344670D01*
X113000410Y-145304034D01*
X112844206Y-145124341D01*
X112817663Y-145021223D01*
X112822360Y-144954043D01*
X110118493Y-133757800D02*
X110873202Y-133101741D01*
X110513817Y-133414150D02*
X110888707Y-133845413D01*
X110493383Y-134189063D02*
X111248093Y-133533004D01*
X111091658Y-134804716D02*
X110993238Y-134764080D01*
X110868274Y-134620325D01*
X110841731Y-134517207D01*
X110882367Y-134418787D01*
X111169876Y-134168860D01*
X111272994Y-134142317D01*
X111371414Y-134182953D01*
X111496378Y-134326707D01*
X111522921Y-134429825D01*
X111482285Y-134528245D01*
X111410408Y-134590727D01*
X111026121Y-134293823D01*
X111305647Y-135123465D02*
X112152437Y-135081417D01*
X111808787Y-134686092D02*
X111649297Y-135518789D01*
X112180392Y-136129745D02*
X112575716Y-135786095D01*
X112616353Y-135687674D01*
X112589809Y-135584556D01*
X112464846Y-135440802D01*
X112366425Y-135400166D01*
X112216331Y-136098504D02*
X112117911Y-136057867D01*
X111961706Y-135878175D01*
X111935163Y-135775057D01*
X111975799Y-135676636D01*
X112047676Y-135614155D01*
X112150794Y-135587611D01*
X112249214Y-135628247D01*
X112405419Y-135807940D01*
X112503839Y-135848576D01*
X113277109Y-136375204D02*
X112666154Y-136906300D01*
X112563036Y-136932843D01*
X112495856Y-136928145D01*
X112397436Y-136887509D01*
X112303713Y-136779694D01*
X112277170Y-136676576D01*
X112809908Y-136781336D02*
X112711488Y-136740700D01*
X112586524Y-136596946D01*
X112559981Y-136493828D01*
X112564679Y-136426648D01*
X112605315Y-136328228D01*
X112820946Y-136140782D01*
X112924064Y-136114239D01*
X112991243Y-136118937D01*
X113089664Y-136159573D01*
X113214627Y-136303327D01*
X113241171Y-136406445D01*
X113180101Y-137279778D02*
X113153558Y-137176660D01*
X113158256Y-137109481D01*
X113198892Y-137011060D01*
X113414523Y-136823615D01*
X113517641Y-136797072D01*
X113584821Y-136801769D01*
X113683241Y-136842406D01*
X113776964Y-136950221D01*
X113803507Y-137053339D01*
X113798809Y-137120519D01*
X113758173Y-137218939D01*
X113542542Y-137406384D01*
X113439424Y-137432928D01*
X113372244Y-137428230D01*
X113273824Y-137387594D01*
X113180101Y-137279778D01*
X114183096Y-137417422D02*
X113679956Y-137854795D01*
X114111218Y-137479904D02*
X114178398Y-137484602D01*
X114276818Y-137525238D01*
X114370541Y-137633054D01*
X114397084Y-137736172D01*
X114356448Y-137834592D01*
X113961124Y-138178242D01*
X105738928Y-146814750D02*
X105082869Y-146060040D01*
X106098314Y-146502341D02*
X105442255Y-145747631D01*
X106529576Y-146127450D01*
X105873517Y-145372740D01*
X109855508Y-141911247D02*
X109999263Y-141786284D01*
X110102381Y-141759740D01*
X110236740Y-141769136D01*
X110397642Y-141881649D01*
X110616328Y-142133219D01*
X110705353Y-142308214D01*
X110695958Y-142442573D01*
X110655322Y-142540993D01*
X110511568Y-142665957D01*
X110408450Y-142692500D01*
X110274091Y-142683105D01*
X110113188Y-142570591D01*
X109894502Y-142319022D01*
X109805477Y-142144026D01*
X109814872Y-142009668D01*
X109855508Y-141911247D01*
X110502402Y-141348911D02*
X111033498Y-141959866D01*
X111131918Y-142000502D01*
X111199098Y-142005200D01*
X111302216Y-141978657D01*
X111445970Y-141853693D01*
X111486606Y-141755273D01*
X111491304Y-141688093D01*
X111464760Y-141584975D01*
X110933665Y-140974020D01*
X111185235Y-140755334D02*
X111616498Y-140380443D01*
X112056925Y-141322598D02*
X111400866Y-140567888D01*
X99974702Y-140960409D02*
X100882331Y-141496432D01*
X100477841Y-140523036D01*
X101754251Y-140612291D02*
X101749553Y-140679471D01*
X101672979Y-140809132D01*
X101601102Y-140871614D01*
X101462045Y-140929398D01*
X101327686Y-140920003D01*
X101229266Y-140879366D01*
X101068364Y-140766853D01*
X100974641Y-140659037D01*
X100885616Y-140484042D01*
X100859072Y-140380924D01*
X100868468Y-140246565D01*
X100945043Y-140116904D01*
X101016920Y-140054422D01*
X101155976Y-139996638D01*
X101223156Y-140001336D01*
X102508961Y-139956232D02*
X102504263Y-140023412D01*
X102427688Y-140153073D01*
X102355811Y-140215555D01*
X102216755Y-140273339D01*
X102082396Y-140263943D01*
X101983975Y-140223307D01*
X101823073Y-140110794D01*
X101729350Y-140002978D01*
X101640325Y-139827983D01*
X101613782Y-139724865D01*
X101623177Y-139590506D01*
X101699752Y-139460845D01*
X101771629Y-139398363D01*
X101910686Y-139340579D01*
X101977865Y-139345277D01*
G04 #@! TO.C,J6*
X96548588Y-90390504D02*
X97201120Y-90681030D01*
X97312258Y-90782637D01*
X97360526Y-90908379D01*
X97345923Y-91058254D01*
X97307186Y-91145258D01*
X96916588Y-89563963D02*
X96839114Y-89737971D01*
X96843879Y-89844344D01*
X96868013Y-89907215D01*
X96959783Y-90052324D01*
X97114423Y-90173300D01*
X97462440Y-90328247D01*
X97568813Y-90323482D01*
X97631684Y-90299348D01*
X97713923Y-90231712D01*
X97791396Y-90057704D01*
X97786631Y-89951331D01*
X97762497Y-89888460D01*
X97694861Y-89806221D01*
X97477350Y-89709379D01*
X97370978Y-89714145D01*
X97308107Y-89738278D01*
X97225868Y-89805914D01*
X97148394Y-89979923D01*
X97153160Y-90086296D01*
X97177293Y-90149166D01*
X97244929Y-90231405D01*
X104268204Y-88786959D02*
X103354658Y-88380222D01*
X103789680Y-88573906D02*
X104022101Y-88051880D01*
X104500625Y-88264933D02*
X103587079Y-87858196D01*
X104805754Y-87462525D02*
X104810519Y-87568898D01*
X104733046Y-87742907D01*
X104650807Y-87810543D01*
X104544434Y-87815308D01*
X104196417Y-87660361D01*
X104128781Y-87578122D01*
X104124015Y-87471749D01*
X104201489Y-87297740D01*
X104283728Y-87230104D01*
X104390101Y-87225339D01*
X104477105Y-87264076D01*
X104370425Y-87737834D01*
X105004203Y-87133876D02*
X104608226Y-86384195D01*
X104395173Y-86862719D02*
X105217256Y-86655352D01*
X105546519Y-85915816D02*
X105067995Y-85702763D01*
X104961622Y-85707528D01*
X104879383Y-85775164D01*
X104801910Y-85949173D01*
X104806675Y-86055546D01*
X105503017Y-85896447D02*
X105507782Y-86002820D01*
X105410940Y-86220331D01*
X105328701Y-86287967D01*
X105222328Y-86292732D01*
X105135324Y-86253995D01*
X105067688Y-86171756D01*
X105062923Y-86065384D01*
X105159765Y-85847873D01*
X105154999Y-85741500D01*
X105305488Y-84818117D02*
X106045025Y-85147380D01*
X106112661Y-85229619D01*
X106136795Y-85292489D01*
X106141560Y-85398862D01*
X106083455Y-85529369D01*
X106001216Y-85597004D01*
X105871017Y-85069906D02*
X105875782Y-85176279D01*
X105798308Y-85350288D01*
X105716069Y-85417923D01*
X105653199Y-85442057D01*
X105546826Y-85446823D01*
X105285813Y-85330612D01*
X105218177Y-85248373D01*
X105194043Y-85185503D01*
X105189278Y-85079130D01*
X105266752Y-84905121D01*
X105348991Y-84837485D01*
X106166308Y-84523746D02*
X106084069Y-84591382D01*
X106021199Y-84615516D01*
X105914826Y-84620281D01*
X105653813Y-84504071D01*
X105586177Y-84421832D01*
X105562043Y-84358961D01*
X105557278Y-84252589D01*
X105615383Y-84122082D01*
X105697622Y-84054446D01*
X105760493Y-84030312D01*
X105866865Y-84025547D01*
X106127878Y-84141758D01*
X106195514Y-84223997D01*
X106219648Y-84286867D01*
X106224413Y-84393240D01*
X106166308Y-84523746D01*
X105867172Y-83556554D02*
X106476203Y-83827712D01*
X105954177Y-83595291D02*
X105930043Y-83532420D01*
X105925278Y-83426048D01*
X105983383Y-83295541D01*
X106065622Y-83227905D01*
X106171995Y-83223140D01*
X106650518Y-83436192D01*
X92139479Y-84617066D02*
X92546215Y-83703520D01*
X92574500Y-84810750D02*
X92981237Y-83897204D01*
X93096526Y-85043171D01*
X93503263Y-84129625D01*
X98323303Y-86275645D02*
X98497311Y-86353119D01*
X98564947Y-86435358D01*
X98613215Y-86561099D01*
X98579243Y-86754476D01*
X98443664Y-87058991D01*
X98322689Y-87213631D01*
X98196948Y-87261899D01*
X98090575Y-87266664D01*
X97916566Y-87189190D01*
X97848930Y-87106951D01*
X97800663Y-86981210D01*
X97834634Y-86787833D01*
X97970213Y-86483318D01*
X98091189Y-86328678D01*
X98216930Y-86280410D01*
X98323303Y-86275645D01*
X99106342Y-86624276D02*
X98777079Y-87363813D01*
X98781844Y-87470186D01*
X98805978Y-87533056D01*
X98873614Y-87615295D01*
X99047622Y-87692769D01*
X99153995Y-87688004D01*
X99216866Y-87663870D01*
X99299105Y-87596234D01*
X99628368Y-86856697D01*
X99932883Y-86992276D02*
X100454909Y-87224697D01*
X99787159Y-88022032D02*
X100193896Y-87108487D01*
X95009246Y-76918750D02*
X94907024Y-77967874D01*
X95618276Y-77189908D01*
X96076817Y-78384449D02*
X96013947Y-78408583D01*
X95864072Y-78393979D01*
X95777067Y-78355243D01*
X95665929Y-78253635D01*
X95617662Y-78127894D01*
X95612896Y-78021521D01*
X95646868Y-77828144D01*
X95704973Y-77697638D01*
X95825949Y-77542998D01*
X95908188Y-77475362D01*
X96033929Y-77427094D01*
X96183804Y-77441697D01*
X96270808Y-77480434D01*
X96381946Y-77582041D01*
X96406080Y-77644912D01*
X96990363Y-78791185D02*
X96927492Y-78815319D01*
X96777617Y-78800716D01*
X96690613Y-78761979D01*
X96579475Y-78660372D01*
X96531207Y-78534631D01*
X96526442Y-78428258D01*
X96560413Y-78234881D01*
X96618519Y-78104374D01*
X96739494Y-77949734D01*
X96821733Y-77882098D01*
X96947475Y-77833831D01*
X97097350Y-77848434D01*
X97184354Y-77887171D01*
X97295492Y-77988778D01*
X97319626Y-78051649D01*
G04 #@! TO.C,J7*
X125477754Y-56516758D02*
X125686591Y-57199833D01*
X125682820Y-57350370D01*
X125619588Y-57469292D01*
X125496896Y-57556598D01*
X125405819Y-57584442D01*
X125842061Y-56405378D02*
X126479597Y-56210464D01*
X126362124Y-57292071D01*
X131752488Y-61290807D02*
X131460116Y-60334502D01*
X131599341Y-60789885D02*
X132145801Y-60622816D01*
X132298948Y-61123737D02*
X132006576Y-60167433D01*
X133104715Y-60827595D02*
X133027561Y-60900978D01*
X132845408Y-60956668D01*
X132740409Y-60938974D01*
X132667025Y-60861820D01*
X132555646Y-60497514D01*
X132573339Y-60392515D01*
X132650493Y-60319131D01*
X132832647Y-60263442D01*
X132937646Y-60281135D01*
X133011029Y-60358289D01*
X133038874Y-60449366D01*
X132611336Y-60679667D01*
X133482944Y-60761753D02*
X133788951Y-59971070D01*
X133288030Y-60124217D02*
X133983866Y-60608606D01*
X134758017Y-60371924D02*
X134604870Y-59871003D01*
X134531487Y-59793849D01*
X134426488Y-59776155D01*
X134244335Y-59831845D01*
X134167180Y-59905228D01*
X134744095Y-60326386D02*
X134666941Y-60399769D01*
X134439249Y-60469382D01*
X134334250Y-60451688D01*
X134260867Y-60374534D01*
X134233022Y-60283457D01*
X134250715Y-60178458D01*
X134327869Y-60105075D01*
X134555561Y-60035463D01*
X134632715Y-59962080D01*
X135428331Y-59469861D02*
X135665013Y-60244013D01*
X135647319Y-60349012D01*
X135615704Y-60408473D01*
X135538549Y-60481856D01*
X135401934Y-60523623D01*
X135296935Y-60505930D01*
X135609323Y-60061859D02*
X135532169Y-60135243D01*
X135350016Y-60190932D01*
X135245016Y-60173239D01*
X135185556Y-60141623D01*
X135112172Y-60064469D01*
X135028638Y-59791239D01*
X135046331Y-59686240D01*
X135077947Y-59626779D01*
X135155101Y-59553396D01*
X135337254Y-59497706D01*
X135442253Y-59515400D01*
X136215244Y-59926406D02*
X136110245Y-59908712D01*
X136050784Y-59877096D01*
X135977400Y-59799942D01*
X135893866Y-59526712D01*
X135911559Y-59421713D01*
X135943175Y-59362252D01*
X136020329Y-59288869D01*
X136156944Y-59247102D01*
X136261943Y-59264795D01*
X136321404Y-59296411D01*
X136394787Y-59373565D01*
X136478322Y-59646795D01*
X136460629Y-59751794D01*
X136429013Y-59811255D01*
X136351859Y-59884638D01*
X136215244Y-59926406D01*
X136748942Y-59066110D02*
X136943857Y-59703646D01*
X136776787Y-59157186D02*
X136808403Y-59097726D01*
X136885557Y-59024342D01*
X137022172Y-58982575D01*
X137127171Y-59000268D01*
X137200555Y-59077423D01*
X137353702Y-59578344D01*
X126942387Y-49401445D02*
X127898692Y-49109074D01*
X127081612Y-49856829D02*
X128037917Y-49564457D01*
X127248682Y-50403288D01*
X128204986Y-50110917D01*
X129747595Y-55156562D02*
X129803285Y-55338716D01*
X129785592Y-55443715D01*
X129722360Y-55562636D01*
X129554129Y-55663865D01*
X129235361Y-55761322D01*
X129039285Y-55771473D01*
X128920364Y-55708242D01*
X128846981Y-55631087D01*
X128791291Y-55448934D01*
X128808984Y-55343935D01*
X128872216Y-55225013D01*
X129040447Y-55123785D01*
X129359215Y-55026328D01*
X129555291Y-55016177D01*
X129674212Y-55079408D01*
X129747595Y-55156562D01*
X129998200Y-55976252D02*
X129224048Y-56212934D01*
X129146894Y-56286317D01*
X129115278Y-56345778D01*
X129097585Y-56450777D01*
X129153275Y-56632930D01*
X129226658Y-56710085D01*
X129286119Y-56741701D01*
X129391118Y-56759394D01*
X130165269Y-56522712D01*
X130262727Y-56841480D02*
X130429796Y-57387940D01*
X129389957Y-57407082D02*
X130346261Y-57114710D01*
X134635116Y-46516737D02*
X133776269Y-47127877D01*
X134830031Y-47154274D01*
X134229329Y-48284029D02*
X134169869Y-48252413D01*
X134082563Y-48129720D01*
X134054718Y-48038644D01*
X134058489Y-47888106D01*
X134121721Y-47769185D01*
X134198875Y-47695801D01*
X134367106Y-47594573D01*
X134503721Y-47552806D01*
X134699796Y-47542654D01*
X134804795Y-47560348D01*
X134923717Y-47623579D01*
X135011023Y-47746272D01*
X135038868Y-47837349D01*
X135035097Y-47987886D01*
X135003481Y-48047347D01*
X134521701Y-49240333D02*
X134462240Y-49208717D01*
X134374935Y-49086025D01*
X134347090Y-48994948D01*
X134350861Y-48844411D01*
X134414092Y-48725489D01*
X134491247Y-48652106D01*
X134659477Y-48550878D01*
X134796092Y-48509111D01*
X134992168Y-48498959D01*
X135097167Y-48516652D01*
X135216089Y-48579884D01*
X135303394Y-48702577D01*
X135331239Y-48793653D01*
X135327468Y-48944191D01*
X135295853Y-49003651D01*
G04 #@! TO.C,J8*
X169994178Y-56308699D02*
X169615664Y-56914448D01*
X169499578Y-57010364D01*
X169368343Y-57040662D01*
X169221959Y-57005342D01*
X169141192Y-56954874D01*
X170292052Y-57000194D02*
X170236519Y-56909342D01*
X170221370Y-56843725D01*
X170231456Y-56737724D01*
X170256690Y-56697341D01*
X170347542Y-56641808D01*
X170413159Y-56626659D01*
X170519160Y-56636745D01*
X170680693Y-56737682D01*
X170736225Y-56828533D01*
X170751374Y-56894151D01*
X170741289Y-57000152D01*
X170716055Y-57040535D01*
X170625203Y-57096067D01*
X170559585Y-57111216D01*
X170453585Y-57101131D01*
X170292052Y-57000194D01*
X170186051Y-56990109D01*
X170120433Y-57005258D01*
X170029582Y-57060790D01*
X169928645Y-57222323D01*
X169918559Y-57328324D01*
X169933708Y-57393941D01*
X169989241Y-57484793D01*
X170150774Y-57585730D01*
X170256774Y-57595815D01*
X170322392Y-57580666D01*
X170413244Y-57525134D01*
X170514181Y-57363601D01*
X170524266Y-57257600D01*
X170509117Y-57191983D01*
X170453585Y-57101131D01*
X170507755Y-64176359D02*
X171037674Y-63328311D01*
X170785331Y-63732143D02*
X171269930Y-64034954D01*
X170992354Y-64479170D02*
X171522273Y-63631122D01*
X171744486Y-64893003D02*
X171638485Y-64882918D01*
X171476953Y-64781981D01*
X171421420Y-64691129D01*
X171431506Y-64585128D01*
X171633380Y-64262062D01*
X171724231Y-64206530D01*
X171830232Y-64216616D01*
X171991765Y-64317553D01*
X172047297Y-64408404D01*
X172037212Y-64514405D01*
X171986743Y-64595171D01*
X171532443Y-64423595D01*
X172042318Y-65135260D02*
X172839813Y-64847472D01*
X172395597Y-64569895D02*
X172486534Y-65412837D01*
X173173049Y-65841819D02*
X173450625Y-65397604D01*
X173460711Y-65291603D01*
X173405178Y-65200751D01*
X173243646Y-65099814D01*
X173137645Y-65089729D01*
X173198283Y-65801436D02*
X173092282Y-65791351D01*
X172890366Y-65665180D01*
X172834834Y-65574328D01*
X172844919Y-65468327D01*
X172895388Y-65387561D01*
X172986239Y-65332028D01*
X173092240Y-65342114D01*
X173294156Y-65468285D01*
X173400157Y-65478370D01*
X174293610Y-65755905D02*
X173864628Y-66442420D01*
X173773776Y-66497952D01*
X173708158Y-66513101D01*
X173602158Y-66503016D01*
X173481008Y-66427313D01*
X173425476Y-66336461D01*
X173965565Y-66280887D02*
X173859564Y-66270802D01*
X173698031Y-66169865D01*
X173642499Y-66079013D01*
X173627350Y-66013395D01*
X173637435Y-65907395D01*
X173788840Y-65665095D01*
X173879692Y-65609563D01*
X173945310Y-65594414D01*
X174051310Y-65604499D01*
X174212843Y-65705436D01*
X174268376Y-65796288D01*
X174465312Y-66649315D02*
X174409780Y-66558464D01*
X174394631Y-66492846D01*
X174404717Y-66386845D01*
X174556122Y-66144546D01*
X174646974Y-66089014D01*
X174712591Y-66073865D01*
X174818592Y-66083950D01*
X174939742Y-66159653D01*
X174995274Y-66250505D01*
X175010423Y-66316122D01*
X175000338Y-66422123D01*
X174848932Y-66664422D01*
X174758080Y-66719954D01*
X174692463Y-66735103D01*
X174586462Y-66725018D01*
X174465312Y-66649315D01*
X175464724Y-66487698D02*
X175111444Y-67053063D01*
X175414255Y-66568465D02*
X175479873Y-66553316D01*
X175585874Y-66563401D01*
X175707023Y-66639104D01*
X175762556Y-66729955D01*
X175752470Y-66835956D01*
X175474894Y-67280172D01*
X176537188Y-54113889D02*
X175689139Y-53583969D01*
X176789530Y-53710056D02*
X175941482Y-53180137D01*
X177092341Y-53225457D01*
X176244293Y-52695538D01*
X171833346Y-59754529D02*
X171934283Y-59592996D01*
X172025135Y-59537464D01*
X172156370Y-59507166D01*
X172343137Y-59567719D01*
X172625820Y-59744359D01*
X172762118Y-59885679D01*
X172792416Y-60016914D01*
X172782331Y-60122915D01*
X172681394Y-60284448D01*
X172590542Y-60339980D01*
X172459307Y-60370278D01*
X172272540Y-60309724D01*
X171989857Y-60133085D01*
X171853559Y-59991764D01*
X171823261Y-59860529D01*
X171833346Y-59754529D01*
X172287562Y-59027630D02*
X172974078Y-59456613D01*
X173080078Y-59466698D01*
X173145696Y-59451549D01*
X173236548Y-59396017D01*
X173337485Y-59234484D01*
X173347570Y-59128483D01*
X173332421Y-59062865D01*
X173276889Y-58972014D01*
X172590373Y-58543031D01*
X172767013Y-58260349D02*
X173069824Y-57775750D01*
X173766467Y-58547969D02*
X172918419Y-58018049D01*
X181207127Y-58340317D02*
X182231815Y-58587554D01*
X181560407Y-57774952D01*
X182807139Y-57487121D02*
X182822288Y-57552739D01*
X182786969Y-57699123D01*
X182736500Y-57779889D01*
X182620414Y-57875805D01*
X182489179Y-57906103D01*
X182383178Y-57896017D01*
X182196411Y-57835464D01*
X182075261Y-57759761D01*
X181938963Y-57618441D01*
X181883430Y-57527589D01*
X181853132Y-57396354D01*
X181888452Y-57249970D01*
X181938920Y-57169203D01*
X182055006Y-57073288D01*
X182120624Y-57058139D01*
X183337058Y-56639073D02*
X183352207Y-56704691D01*
X183316888Y-56851075D01*
X183266419Y-56931841D01*
X183150333Y-57027757D01*
X183019098Y-57058054D01*
X182913098Y-57047969D01*
X182726330Y-56987415D01*
X182605181Y-56911713D01*
X182468882Y-56770392D01*
X182413350Y-56679541D01*
X182383052Y-56548306D01*
X182418371Y-56401922D01*
X182468840Y-56321155D01*
X182584926Y-56225240D01*
X182650543Y-56210091D01*
G04 #@! TO.C,J9*
X199317814Y-89731481D02*
X198610480Y-89830891D01*
X198462386Y-89803617D01*
X198354820Y-89722560D01*
X198287782Y-89587721D01*
X198274528Y-89493409D01*
X198400446Y-90389366D02*
X198426955Y-90577989D01*
X198487366Y-90665673D01*
X198541149Y-90706201D01*
X198695870Y-90780630D01*
X198891120Y-90801277D01*
X199268365Y-90748259D01*
X199356049Y-90687848D01*
X199396577Y-90634065D01*
X199430478Y-90533127D01*
X199403969Y-90344504D01*
X199343559Y-90256820D01*
X199289776Y-90216292D01*
X199188837Y-90182391D01*
X198953059Y-90215528D01*
X198865375Y-90275938D01*
X198824847Y-90329721D01*
X198790946Y-90430659D01*
X198817455Y-90619282D01*
X198877865Y-90706966D01*
X198931648Y-90747494D01*
X199032587Y-90781395D01*
X193620958Y-95182138D02*
X194611226Y-95042965D01*
X194139670Y-95109238D02*
X194219197Y-95675105D01*
X193700485Y-95748005D02*
X194690753Y-95608832D01*
X193866932Y-96590179D02*
X193806522Y-96502495D01*
X193780013Y-96313873D01*
X193813914Y-96212934D01*
X193901598Y-96152524D01*
X194278843Y-96099506D01*
X194379781Y-96133407D01*
X194440191Y-96221091D01*
X194466701Y-96409713D01*
X194432800Y-96510652D01*
X194345116Y-96571062D01*
X194250804Y-96584317D01*
X194090220Y-96126015D01*
X193872795Y-96974052D02*
X194605874Y-97399981D01*
X194532973Y-96881270D02*
X193945695Y-97492763D01*
X194058359Y-98294409D02*
X194577071Y-98221509D01*
X194664755Y-98161099D01*
X194698656Y-98060160D01*
X194672147Y-97871538D01*
X194611736Y-97783854D01*
X194105515Y-98287782D02*
X194045104Y-98200098D01*
X194011968Y-97964320D01*
X194045869Y-97863381D01*
X194133553Y-97802971D01*
X194227864Y-97789716D01*
X194328803Y-97823617D01*
X194389213Y-97911301D01*
X194422349Y-98147079D01*
X194482759Y-98234763D01*
X194844456Y-99097584D02*
X194042811Y-99210248D01*
X193941872Y-99176347D01*
X193888089Y-99135818D01*
X193827679Y-99048134D01*
X193807797Y-98906668D01*
X193841698Y-98805729D01*
X194231433Y-99183739D02*
X194171023Y-99096055D01*
X194144514Y-98907432D01*
X194178415Y-98806494D01*
X194218943Y-98752711D01*
X194306627Y-98692300D01*
X194589561Y-98652537D01*
X194690499Y-98686438D01*
X194744282Y-98726966D01*
X194804692Y-98814650D01*
X194831202Y-99003273D01*
X194797301Y-99104211D01*
X194270432Y-99803389D02*
X194304333Y-99702450D01*
X194344862Y-99648668D01*
X194432546Y-99588257D01*
X194715479Y-99548494D01*
X194816418Y-99582395D01*
X194870201Y-99622923D01*
X194930611Y-99710607D01*
X194950493Y-99852074D01*
X194916592Y-99953012D01*
X194876063Y-100006795D01*
X194788379Y-100067205D01*
X194505446Y-100106969D01*
X194404507Y-100073068D01*
X194350724Y-100032540D01*
X194290314Y-99944856D01*
X194270432Y-99803389D01*
X195036648Y-100465097D02*
X194376469Y-100557879D01*
X194942336Y-100478351D02*
X194996119Y-100518880D01*
X195056529Y-100606564D01*
X195076411Y-100748031D01*
X195042510Y-100848969D01*
X194954826Y-100909379D01*
X194436114Y-100982280D01*
X205204902Y-93332921D02*
X205065729Y-92342653D01*
X205676458Y-93266648D02*
X205537285Y-92276380D01*
X206242326Y-93187121D01*
X206103153Y-92196853D01*
X197860350Y-93355303D02*
X198048972Y-93328794D01*
X198149911Y-93362695D01*
X198257476Y-93443751D01*
X198331141Y-93625747D01*
X198377532Y-93955836D01*
X198356886Y-94151086D01*
X198275829Y-94258652D01*
X198188145Y-94319062D01*
X197999523Y-94345571D01*
X197898584Y-94311670D01*
X197791018Y-94230613D01*
X197717354Y-94048618D01*
X197670963Y-93718529D01*
X197691609Y-93523279D01*
X197772666Y-93415713D01*
X197860350Y-93355303D01*
X198709151Y-93236012D02*
X198821815Y-94037657D01*
X198882225Y-94125341D01*
X198936008Y-94165870D01*
X199036946Y-94199771D01*
X199225569Y-94173261D01*
X199313253Y-94112851D01*
X199353781Y-94059068D01*
X199387682Y-93958130D01*
X199275018Y-93156484D01*
X199605108Y-93110093D02*
X200170975Y-93030566D01*
X200027214Y-94060598D02*
X199888041Y-93070329D01*
X204969049Y-99626999D02*
X205438312Y-100570876D01*
X205629228Y-99534217D01*
X206651103Y-100304255D02*
X206610575Y-100358038D01*
X206475735Y-100425076D01*
X206381424Y-100438330D01*
X206233330Y-100411056D01*
X206125764Y-100330000D01*
X206065354Y-100242316D01*
X205991689Y-100060321D01*
X205971807Y-99918854D01*
X205992454Y-99723604D01*
X206026355Y-99622665D01*
X206107411Y-99515100D01*
X206242251Y-99448062D01*
X206336562Y-99434808D01*
X206484656Y-99462081D01*
X206538439Y-99502610D01*
X207641371Y-100165082D02*
X207600843Y-100218865D01*
X207466003Y-100285903D01*
X207371692Y-100299157D01*
X207223598Y-100271883D01*
X207116032Y-100190827D01*
X207055622Y-100103143D01*
X206981957Y-99921148D01*
X206962075Y-99779681D01*
X206982722Y-99584431D01*
X207016623Y-99483492D01*
X207097680Y-99375927D01*
X207232519Y-99308889D01*
X207326830Y-99295634D01*
X207474925Y-99322908D01*
X207528707Y-99363437D01*
G04 #@! TO.C,J10*
X191473443Y-134031726D02*
X192012521Y-134500340D01*
X192089096Y-134630001D01*
X192098491Y-134764360D01*
X192040707Y-134903417D01*
X191978225Y-134975294D01*
X192884211Y-133933076D02*
X192509320Y-134364339D01*
X192696766Y-134148707D02*
X191942056Y-133492648D01*
X191987390Y-133658248D01*
X191996785Y-133792607D01*
X191970242Y-133895725D01*
X192535634Y-132809816D02*
X192598115Y-132737939D01*
X192696536Y-132697302D01*
X192763715Y-132692605D01*
X192866833Y-132719148D01*
X193041828Y-132808173D01*
X193221521Y-132964378D01*
X193334034Y-133125280D01*
X193374671Y-133223700D01*
X193379368Y-133290880D01*
X193352825Y-133393998D01*
X193290343Y-133465875D01*
X193191923Y-133506511D01*
X193124743Y-133511209D01*
X193021625Y-133484665D01*
X192846630Y-133395640D01*
X192666937Y-133239436D01*
X192554424Y-133078534D01*
X192513788Y-132980113D01*
X192509090Y-132912934D01*
X192535634Y-132809816D01*
X182038875Y-138178242D02*
X181284165Y-137522183D01*
X181643551Y-137834592D02*
X182018442Y-137403329D01*
X182413766Y-137746979D02*
X181659056Y-137090920D01*
X182940164Y-137068845D02*
X182913620Y-137171963D01*
X182788657Y-137315717D01*
X182690236Y-137356353D01*
X182587118Y-137329810D01*
X182299610Y-137079882D01*
X182258974Y-136981462D01*
X182285517Y-136878344D01*
X182410481Y-136734590D01*
X182508901Y-136693954D01*
X182612019Y-136720497D01*
X182683896Y-136782979D01*
X182443364Y-137204846D01*
X183226029Y-136812577D02*
X183066540Y-135979880D01*
X182722890Y-136375204D02*
X183569679Y-136417253D01*
X184100775Y-135806298D02*
X183705451Y-135462648D01*
X183602333Y-135436104D01*
X183503912Y-135476741D01*
X183378949Y-135620495D01*
X183352405Y-135723613D01*
X184064836Y-135775057D02*
X184038293Y-135878175D01*
X183882088Y-136057867D01*
X183783668Y-136098504D01*
X183680550Y-136071960D01*
X183608673Y-136009479D01*
X183568037Y-135911058D01*
X183594580Y-135807940D01*
X183750785Y-135628247D01*
X183777328Y-135525129D01*
X184191212Y-134686092D02*
X184802168Y-135217188D01*
X184842804Y-135315608D01*
X184847502Y-135382788D01*
X184820958Y-135485906D01*
X184727236Y-135593721D01*
X184628815Y-135634358D01*
X184658413Y-135092224D02*
X184631870Y-135195342D01*
X184506907Y-135339096D01*
X184408486Y-135379733D01*
X184341307Y-135384430D01*
X184238189Y-135357887D01*
X184022557Y-135170442D01*
X183981921Y-135072021D01*
X183977224Y-135004842D01*
X184003767Y-134901724D01*
X184128731Y-134757970D01*
X184227151Y-134717333D01*
X185100484Y-134656264D02*
X185002063Y-134696900D01*
X184934884Y-134701598D01*
X184831766Y-134675055D01*
X184616135Y-134487609D01*
X184575498Y-134389189D01*
X184570801Y-134322009D01*
X184597344Y-134218891D01*
X184691067Y-134111076D01*
X184789487Y-134070439D01*
X184856667Y-134065742D01*
X184959785Y-134092285D01*
X185175416Y-134279730D01*
X185216052Y-134378151D01*
X185220750Y-134445330D01*
X185194207Y-134548448D01*
X185100484Y-134656264D01*
X185097199Y-133643874D02*
X185600338Y-134081247D01*
X185169076Y-133706356D02*
X185164378Y-133639177D01*
X185190921Y-133536059D01*
X185284644Y-133428243D01*
X185383064Y-133387607D01*
X185486182Y-133414150D01*
X185881506Y-133757800D01*
X194194048Y-140693541D02*
X194850107Y-139938831D01*
X194553433Y-141005950D02*
X195209492Y-140251240D01*
X194984696Y-141380841D01*
X195640755Y-140626131D01*
X189358696Y-135165220D02*
X189502451Y-135290184D01*
X189543087Y-135388604D01*
X189552482Y-135522963D01*
X189463457Y-135697958D01*
X189244771Y-135949528D01*
X189083868Y-136062041D01*
X188949510Y-136071437D01*
X188846392Y-136044893D01*
X188702637Y-135919930D01*
X188662001Y-135821509D01*
X188652606Y-135687150D01*
X188741631Y-135512155D01*
X188960317Y-135260585D01*
X189121219Y-135148072D01*
X189255578Y-135138677D01*
X189358696Y-135165220D01*
X190005590Y-135727556D02*
X189474495Y-136338512D01*
X189447952Y-136441630D01*
X189452649Y-136508809D01*
X189493285Y-136607230D01*
X189637040Y-136732193D01*
X189740158Y-136758737D01*
X189807337Y-136754039D01*
X189905757Y-136713403D01*
X190436853Y-136102447D01*
X190688423Y-136321134D02*
X191119685Y-136696025D01*
X190247995Y-137263289D02*
X190904054Y-136508579D01*
X189289113Y-144644827D02*
X188884624Y-145618223D01*
X189792253Y-145082199D01*
X189881508Y-146358609D02*
X189814329Y-146363307D01*
X189675272Y-146305523D01*
X189603395Y-146243041D01*
X189526821Y-146113380D01*
X189517425Y-145979021D01*
X189543969Y-145875903D01*
X189632994Y-145700908D01*
X189726716Y-145593092D01*
X189887619Y-145480579D01*
X189986039Y-145439942D01*
X190120398Y-145430547D01*
X190259454Y-145488331D01*
X190331331Y-145550813D01*
X190407906Y-145680474D01*
X190412604Y-145747654D01*
X190636218Y-147014668D02*
X190569039Y-147019366D01*
X190429982Y-146961582D01*
X190358105Y-146899100D01*
X190281530Y-146769439D01*
X190272135Y-146635080D01*
X190298678Y-146531962D01*
X190387703Y-146356967D01*
X190481426Y-146249151D01*
X190642328Y-146136638D01*
X190740748Y-146096001D01*
X190875107Y-146086606D01*
X191014164Y-146144390D01*
X191086041Y-146206872D01*
X191162616Y-146336533D01*
X191167313Y-146403713D01*
G04 #@! TO.C,R1*
X122802380Y-151191666D02*
X122326190Y-151525000D01*
X122802380Y-151763095D02*
X121802380Y-151763095D01*
X121802380Y-151382142D01*
X121850000Y-151286904D01*
X121897619Y-151239285D01*
X121992857Y-151191666D01*
X122135714Y-151191666D01*
X122230952Y-151239285D01*
X122278571Y-151286904D01*
X122326190Y-151382142D01*
X122326190Y-151763095D01*
X122802380Y-150239285D02*
X122802380Y-150810714D01*
X122802380Y-150525000D02*
X121802380Y-150525000D01*
X121945238Y-150620238D01*
X122040476Y-150715476D01*
X122088095Y-150810714D01*
G04 #@! TO.C,J11*
X121122380Y-155809523D02*
X121836666Y-155809523D01*
X121979523Y-155857142D01*
X122074761Y-155952380D01*
X122122380Y-156095238D01*
X122122380Y-156190476D01*
X122122380Y-154809523D02*
X122122380Y-155380952D01*
X122122380Y-155095238D02*
X121122380Y-155095238D01*
X121265238Y-155190476D01*
X121360476Y-155285714D01*
X121408095Y-155380952D01*
X122122380Y-153857142D02*
X122122380Y-154428571D01*
X122122380Y-154142857D02*
X121122380Y-154142857D01*
X121265238Y-154238095D01*
X121360476Y-154333333D01*
X121408095Y-154428571D01*
G04 #@! TO.C,U1*
X135377380Y-141136904D02*
X136186904Y-141136904D01*
X136282142Y-141089285D01*
X136329761Y-141041666D01*
X136377380Y-140946428D01*
X136377380Y-140755952D01*
X136329761Y-140660714D01*
X136282142Y-140613095D01*
X136186904Y-140565476D01*
X135377380Y-140565476D01*
X136377380Y-139565476D02*
X136377380Y-140136904D01*
X136377380Y-139851190D02*
X135377380Y-139851190D01*
X135520238Y-139946428D01*
X135615476Y-140041666D01*
X135663095Y-140136904D01*
G04 #@! TO.C,C1*
X146808333Y-89507142D02*
X146760714Y-89554761D01*
X146617857Y-89602380D01*
X146522619Y-89602380D01*
X146379761Y-89554761D01*
X146284523Y-89459523D01*
X146236904Y-89364285D01*
X146189285Y-89173809D01*
X146189285Y-89030952D01*
X146236904Y-88840476D01*
X146284523Y-88745238D01*
X146379761Y-88650000D01*
X146522619Y-88602380D01*
X146617857Y-88602380D01*
X146760714Y-88650000D01*
X146808333Y-88697619D01*
X147760714Y-89602380D02*
X147189285Y-89602380D01*
X147475000Y-89602380D02*
X147475000Y-88602380D01*
X147379761Y-88745238D01*
X147284523Y-88840476D01*
X147189285Y-88888095D01*
G04 #@! TO.C,C2*
X146808333Y-125707142D02*
X146760714Y-125754761D01*
X146617857Y-125802380D01*
X146522619Y-125802380D01*
X146379761Y-125754761D01*
X146284523Y-125659523D01*
X146236904Y-125564285D01*
X146189285Y-125373809D01*
X146189285Y-125230952D01*
X146236904Y-125040476D01*
X146284523Y-124945238D01*
X146379761Y-124850000D01*
X146522619Y-124802380D01*
X146617857Y-124802380D01*
X146760714Y-124850000D01*
X146808333Y-124897619D01*
X147189285Y-124897619D02*
X147236904Y-124850000D01*
X147332142Y-124802380D01*
X147570238Y-124802380D01*
X147665476Y-124850000D01*
X147713095Y-124897619D01*
X147760714Y-124992857D01*
X147760714Y-125088095D01*
X147713095Y-125230952D01*
X147141666Y-125802380D01*
X147760714Y-125802380D01*
G04 #@! TO.C,C3*
X130308333Y-103007142D02*
X130260714Y-103054761D01*
X130117857Y-103102380D01*
X130022619Y-103102380D01*
X129879761Y-103054761D01*
X129784523Y-102959523D01*
X129736904Y-102864285D01*
X129689285Y-102673809D01*
X129689285Y-102530952D01*
X129736904Y-102340476D01*
X129784523Y-102245238D01*
X129879761Y-102150000D01*
X130022619Y-102102380D01*
X130117857Y-102102380D01*
X130260714Y-102150000D01*
X130308333Y-102197619D01*
X130641666Y-102102380D02*
X131260714Y-102102380D01*
X130927380Y-102483333D01*
X131070238Y-102483333D01*
X131165476Y-102530952D01*
X131213095Y-102578571D01*
X131260714Y-102673809D01*
X131260714Y-102911904D01*
X131213095Y-103007142D01*
X131165476Y-103054761D01*
X131070238Y-103102380D01*
X130784523Y-103102380D01*
X130689285Y-103054761D01*
X130641666Y-103007142D01*
G04 #@! TO.C,C4*
X165858333Y-100707142D02*
X165810714Y-100754761D01*
X165667857Y-100802380D01*
X165572619Y-100802380D01*
X165429761Y-100754761D01*
X165334523Y-100659523D01*
X165286904Y-100564285D01*
X165239285Y-100373809D01*
X165239285Y-100230952D01*
X165286904Y-100040476D01*
X165334523Y-99945238D01*
X165429761Y-99850000D01*
X165572619Y-99802380D01*
X165667857Y-99802380D01*
X165810714Y-99850000D01*
X165858333Y-99897619D01*
X166715476Y-100135714D02*
X166715476Y-100802380D01*
X166477380Y-99754761D02*
X166239285Y-100469047D01*
X166858333Y-100469047D01*
G04 #@! TO.C,C5*
X168207142Y-105691666D02*
X168254761Y-105739285D01*
X168302380Y-105882142D01*
X168302380Y-105977380D01*
X168254761Y-106120238D01*
X168159523Y-106215476D01*
X168064285Y-106263095D01*
X167873809Y-106310714D01*
X167730952Y-106310714D01*
X167540476Y-106263095D01*
X167445238Y-106215476D01*
X167350000Y-106120238D01*
X167302380Y-105977380D01*
X167302380Y-105882142D01*
X167350000Y-105739285D01*
X167397619Y-105691666D01*
X167302380Y-104786904D02*
X167302380Y-105263095D01*
X167778571Y-105310714D01*
X167730952Y-105263095D01*
X167683333Y-105167857D01*
X167683333Y-104929761D01*
X167730952Y-104834523D01*
X167778571Y-104786904D01*
X167873809Y-104739285D01*
X168111904Y-104739285D01*
X168207142Y-104786904D01*
X168254761Y-104834523D01*
X168302380Y-104929761D01*
X168302380Y-105167857D01*
X168254761Y-105263095D01*
X168207142Y-105310714D01*
G04 #@! TO.C,C6*
X129007142Y-104141666D02*
X129054761Y-104189285D01*
X129102380Y-104332142D01*
X129102380Y-104427380D01*
X129054761Y-104570238D01*
X128959523Y-104665476D01*
X128864285Y-104713095D01*
X128673809Y-104760714D01*
X128530952Y-104760714D01*
X128340476Y-104713095D01*
X128245238Y-104665476D01*
X128150000Y-104570238D01*
X128102380Y-104427380D01*
X128102380Y-104332142D01*
X128150000Y-104189285D01*
X128197619Y-104141666D01*
X128102380Y-103284523D02*
X128102380Y-103475000D01*
X128150000Y-103570238D01*
X128197619Y-103617857D01*
X128340476Y-103713095D01*
X128530952Y-103760714D01*
X128911904Y-103760714D01*
X129007142Y-103713095D01*
X129054761Y-103665476D01*
X129102380Y-103570238D01*
X129102380Y-103379761D01*
X129054761Y-103284523D01*
X129007142Y-103236904D01*
X128911904Y-103189285D01*
X128673809Y-103189285D01*
X128578571Y-103236904D01*
X128530952Y-103284523D01*
X128483333Y-103379761D01*
X128483333Y-103570238D01*
X128530952Y-103665476D01*
X128578571Y-103713095D01*
X128673809Y-103760714D01*
G04 #@! TO.C,C7*
X129007142Y-111166666D02*
X129054761Y-111214285D01*
X129102380Y-111357142D01*
X129102380Y-111452380D01*
X129054761Y-111595238D01*
X128959523Y-111690476D01*
X128864285Y-111738095D01*
X128673809Y-111785714D01*
X128530952Y-111785714D01*
X128340476Y-111738095D01*
X128245238Y-111690476D01*
X128150000Y-111595238D01*
X128102380Y-111452380D01*
X128102380Y-111357142D01*
X128150000Y-111214285D01*
X128197619Y-111166666D01*
X128102380Y-110833333D02*
X128102380Y-110166666D01*
X129102380Y-110595238D01*
G04 #@! TO.C,C8*
X148707142Y-90666666D02*
X148754761Y-90714285D01*
X148802380Y-90857142D01*
X148802380Y-90952380D01*
X148754761Y-91095238D01*
X148659523Y-91190476D01*
X148564285Y-91238095D01*
X148373809Y-91285714D01*
X148230952Y-91285714D01*
X148040476Y-91238095D01*
X147945238Y-91190476D01*
X147850000Y-91095238D01*
X147802380Y-90952380D01*
X147802380Y-90857142D01*
X147850000Y-90714285D01*
X147897619Y-90666666D01*
X148230952Y-90095238D02*
X148183333Y-90190476D01*
X148135714Y-90238095D01*
X148040476Y-90285714D01*
X147992857Y-90285714D01*
X147897619Y-90238095D01*
X147850000Y-90190476D01*
X147802380Y-90095238D01*
X147802380Y-89904761D01*
X147850000Y-89809523D01*
X147897619Y-89761904D01*
X147992857Y-89714285D01*
X148040476Y-89714285D01*
X148135714Y-89761904D01*
X148183333Y-89809523D01*
X148230952Y-89904761D01*
X148230952Y-90095238D01*
X148278571Y-90190476D01*
X148326190Y-90238095D01*
X148421428Y-90285714D01*
X148611904Y-90285714D01*
X148707142Y-90238095D01*
X148754761Y-90190476D01*
X148802380Y-90095238D01*
X148802380Y-89904761D01*
X148754761Y-89809523D01*
X148707142Y-89761904D01*
X148611904Y-89714285D01*
X148421428Y-89714285D01*
X148326190Y-89761904D01*
X148278571Y-89809523D01*
X148230952Y-89904761D01*
G04 #@! TO.C,C9*
X130858333Y-116507142D02*
X130810714Y-116554761D01*
X130667857Y-116602380D01*
X130572619Y-116602380D01*
X130429761Y-116554761D01*
X130334523Y-116459523D01*
X130286904Y-116364285D01*
X130239285Y-116173809D01*
X130239285Y-116030952D01*
X130286904Y-115840476D01*
X130334523Y-115745238D01*
X130429761Y-115650000D01*
X130572619Y-115602380D01*
X130667857Y-115602380D01*
X130810714Y-115650000D01*
X130858333Y-115697619D01*
X131334523Y-116602380D02*
X131525000Y-116602380D01*
X131620238Y-116554761D01*
X131667857Y-116507142D01*
X131763095Y-116364285D01*
X131810714Y-116173809D01*
X131810714Y-115792857D01*
X131763095Y-115697619D01*
X131715476Y-115650000D01*
X131620238Y-115602380D01*
X131429761Y-115602380D01*
X131334523Y-115650000D01*
X131286904Y-115697619D01*
X131239285Y-115792857D01*
X131239285Y-116030952D01*
X131286904Y-116126190D01*
X131334523Y-116173809D01*
X131429761Y-116221428D01*
X131620238Y-116221428D01*
X131715476Y-116173809D01*
X131763095Y-116126190D01*
X131810714Y-116030952D01*
G04 #@! TO.C,C10*
X152007142Y-124117857D02*
X152054761Y-124165476D01*
X152102380Y-124308333D01*
X152102380Y-124403571D01*
X152054761Y-124546428D01*
X151959523Y-124641666D01*
X151864285Y-124689285D01*
X151673809Y-124736904D01*
X151530952Y-124736904D01*
X151340476Y-124689285D01*
X151245238Y-124641666D01*
X151150000Y-124546428D01*
X151102380Y-124403571D01*
X151102380Y-124308333D01*
X151150000Y-124165476D01*
X151197619Y-124117857D01*
X152102380Y-123165476D02*
X152102380Y-123736904D01*
X152102380Y-123451190D02*
X151102380Y-123451190D01*
X151245238Y-123546428D01*
X151340476Y-123641666D01*
X151388095Y-123736904D01*
X151102380Y-122546428D02*
X151102380Y-122451190D01*
X151150000Y-122355952D01*
X151197619Y-122308333D01*
X151292857Y-122260714D01*
X151483333Y-122213095D01*
X151721428Y-122213095D01*
X151911904Y-122260714D01*
X152007142Y-122308333D01*
X152054761Y-122355952D01*
X152102380Y-122451190D01*
X152102380Y-122546428D01*
X152054761Y-122641666D01*
X152007142Y-122689285D01*
X151911904Y-122736904D01*
X151721428Y-122784523D01*
X151483333Y-122784523D01*
X151292857Y-122736904D01*
X151197619Y-122689285D01*
X151150000Y-122641666D01*
X151102380Y-122546428D01*
G04 #@! TO.C,D1*
X166236904Y-83802380D02*
X166236904Y-82802380D01*
X166475000Y-82802380D01*
X166617857Y-82850000D01*
X166713095Y-82945238D01*
X166760714Y-83040476D01*
X166808333Y-83230952D01*
X166808333Y-83373809D01*
X166760714Y-83564285D01*
X166713095Y-83659523D01*
X166617857Y-83754761D01*
X166475000Y-83802380D01*
X166236904Y-83802380D01*
X167760714Y-83802380D02*
X167189285Y-83802380D01*
X167475000Y-83802380D02*
X167475000Y-82802380D01*
X167379761Y-82945238D01*
X167284523Y-83040476D01*
X167189285Y-83088095D01*
G04 #@! TO.C,D2*
X126286904Y-123802380D02*
X126286904Y-122802380D01*
X126525000Y-122802380D01*
X126667857Y-122850000D01*
X126763095Y-122945238D01*
X126810714Y-123040476D01*
X126858333Y-123230952D01*
X126858333Y-123373809D01*
X126810714Y-123564285D01*
X126763095Y-123659523D01*
X126667857Y-123754761D01*
X126525000Y-123802380D01*
X126286904Y-123802380D01*
X127239285Y-122897619D02*
X127286904Y-122850000D01*
X127382142Y-122802380D01*
X127620238Y-122802380D01*
X127715476Y-122850000D01*
X127763095Y-122897619D01*
X127810714Y-122992857D01*
X127810714Y-123088095D01*
X127763095Y-123230952D01*
X127191666Y-123802380D01*
X127810714Y-123802380D01*
G04 #@! TO.C,D3*
X142249904Y-107052380D02*
X142249904Y-106052380D01*
X142488000Y-106052380D01*
X142630857Y-106100000D01*
X142726095Y-106195238D01*
X142773714Y-106290476D01*
X142821333Y-106480952D01*
X142821333Y-106623809D01*
X142773714Y-106814285D01*
X142726095Y-106909523D01*
X142630857Y-107004761D01*
X142488000Y-107052380D01*
X142249904Y-107052380D01*
X143154666Y-106052380D02*
X143773714Y-106052380D01*
X143440380Y-106433333D01*
X143583238Y-106433333D01*
X143678476Y-106480952D01*
X143726095Y-106528571D01*
X143773714Y-106623809D01*
X143773714Y-106861904D01*
X143726095Y-106957142D01*
X143678476Y-107004761D01*
X143583238Y-107052380D01*
X143297523Y-107052380D01*
X143202285Y-107004761D01*
X143154666Y-106957142D01*
X141207047Y-105271428D02*
X141968952Y-105271428D01*
X141588000Y-105652380D02*
X141588000Y-104890476D01*
G04 #@! TO.C,D4*
X150249904Y-107052380D02*
X150249904Y-106052380D01*
X150488000Y-106052380D01*
X150630857Y-106100000D01*
X150726095Y-106195238D01*
X150773714Y-106290476D01*
X150821333Y-106480952D01*
X150821333Y-106623809D01*
X150773714Y-106814285D01*
X150726095Y-106909523D01*
X150630857Y-107004761D01*
X150488000Y-107052380D01*
X150249904Y-107052380D01*
X151678476Y-106385714D02*
X151678476Y-107052380D01*
X151440380Y-106004761D02*
X151202285Y-106719047D01*
X151821333Y-106719047D01*
X149207047Y-105271428D02*
X149968952Y-105271428D01*
X149588000Y-105652380D02*
X149588000Y-104890476D01*
G04 #@! TO.C,D5*
X146486904Y-99452380D02*
X146486904Y-98452380D01*
X146725000Y-98452380D01*
X146867857Y-98500000D01*
X146963095Y-98595238D01*
X147010714Y-98690476D01*
X147058333Y-98880952D01*
X147058333Y-99023809D01*
X147010714Y-99214285D01*
X146963095Y-99309523D01*
X146867857Y-99404761D01*
X146725000Y-99452380D01*
X146486904Y-99452380D01*
X147963095Y-98452380D02*
X147486904Y-98452380D01*
X147439285Y-98928571D01*
X147486904Y-98880952D01*
X147582142Y-98833333D01*
X147820238Y-98833333D01*
X147915476Y-98880952D01*
X147963095Y-98928571D01*
X148010714Y-99023809D01*
X148010714Y-99261904D01*
X147963095Y-99357142D01*
X147915476Y-99404761D01*
X147820238Y-99452380D01*
X147582142Y-99452380D01*
X147486904Y-99404761D01*
X147439285Y-99357142D01*
G04 #@! TO.C,D6*
X146261904Y-107452380D02*
X146261904Y-106452380D01*
X146500000Y-106452380D01*
X146642857Y-106500000D01*
X146738095Y-106595238D01*
X146785714Y-106690476D01*
X146833333Y-106880952D01*
X146833333Y-107023809D01*
X146785714Y-107214285D01*
X146738095Y-107309523D01*
X146642857Y-107404761D01*
X146500000Y-107452380D01*
X146261904Y-107452380D01*
X147690476Y-106452380D02*
X147500000Y-106452380D01*
X147404761Y-106500000D01*
X147357142Y-106547619D01*
X147261904Y-106690476D01*
X147214285Y-106880952D01*
X147214285Y-107261904D01*
X147261904Y-107357142D01*
X147309523Y-107404761D01*
X147404761Y-107452380D01*
X147595238Y-107452380D01*
X147690476Y-107404761D01*
X147738095Y-107357142D01*
X147785714Y-107261904D01*
X147785714Y-107023809D01*
X147738095Y-106928571D01*
X147690476Y-106880952D01*
X147595238Y-106833333D01*
X147404761Y-106833333D01*
X147309523Y-106880952D01*
X147261904Y-106928571D01*
X147214285Y-107023809D01*
X144219047Y-105871428D02*
X144980952Y-105871428D01*
X144600000Y-106252380D02*
X144600000Y-105490476D01*
G04 #@! TO.C,D7*
X146511904Y-111852380D02*
X146511904Y-110852380D01*
X146750000Y-110852380D01*
X146892857Y-110900000D01*
X146988095Y-110995238D01*
X147035714Y-111090476D01*
X147083333Y-111280952D01*
X147083333Y-111423809D01*
X147035714Y-111614285D01*
X146988095Y-111709523D01*
X146892857Y-111804761D01*
X146750000Y-111852380D01*
X146511904Y-111852380D01*
X147416666Y-110852380D02*
X148083333Y-110852380D01*
X147654761Y-111852380D01*
X144269047Y-110071428D02*
X145030952Y-110071428D01*
X144650000Y-110452380D02*
X144650000Y-109690476D01*
G04 #@! TO.C,J12*
X167115476Y-140027380D02*
X167115476Y-140741666D01*
X167067857Y-140884523D01*
X166972619Y-140979761D01*
X166829761Y-141027380D01*
X166734523Y-141027380D01*
X168115476Y-141027380D02*
X167544047Y-141027380D01*
X167829761Y-141027380D02*
X167829761Y-140027380D01*
X167734523Y-140170238D01*
X167639285Y-140265476D01*
X167544047Y-140313095D01*
X168496428Y-140122619D02*
X168544047Y-140075000D01*
X168639285Y-140027380D01*
X168877380Y-140027380D01*
X168972619Y-140075000D01*
X169020238Y-140122619D01*
X169067857Y-140217857D01*
X169067857Y-140313095D01*
X169020238Y-140455952D01*
X168448809Y-141027380D01*
X169067857Y-141027380D01*
G04 #@! TO.C,R2*
X166808333Y-88302380D02*
X166475000Y-87826190D01*
X166236904Y-88302380D02*
X166236904Y-87302380D01*
X166617857Y-87302380D01*
X166713095Y-87350000D01*
X166760714Y-87397619D01*
X166808333Y-87492857D01*
X166808333Y-87635714D01*
X166760714Y-87730952D01*
X166713095Y-87778571D01*
X166617857Y-87826190D01*
X166236904Y-87826190D01*
X167189285Y-87397619D02*
X167236904Y-87350000D01*
X167332142Y-87302380D01*
X167570238Y-87302380D01*
X167665476Y-87350000D01*
X167713095Y-87397619D01*
X167760714Y-87492857D01*
X167760714Y-87588095D01*
X167713095Y-87730952D01*
X167141666Y-88302380D01*
X167760714Y-88302380D01*
G04 #@! TO.C,R3*
X126808333Y-128302380D02*
X126475000Y-127826190D01*
X126236904Y-128302380D02*
X126236904Y-127302380D01*
X126617857Y-127302380D01*
X126713095Y-127350000D01*
X126760714Y-127397619D01*
X126808333Y-127492857D01*
X126808333Y-127635714D01*
X126760714Y-127730952D01*
X126713095Y-127778571D01*
X126617857Y-127826190D01*
X126236904Y-127826190D01*
X127141666Y-127302380D02*
X127760714Y-127302380D01*
X127427380Y-127683333D01*
X127570238Y-127683333D01*
X127665476Y-127730952D01*
X127713095Y-127778571D01*
X127760714Y-127873809D01*
X127760714Y-128111904D01*
X127713095Y-128207142D01*
X127665476Y-128254761D01*
X127570238Y-128302380D01*
X127284523Y-128302380D01*
X127189285Y-128254761D01*
X127141666Y-128207142D01*
G04 #@! TO.C,R4*
X136858333Y-107102380D02*
X136525000Y-106626190D01*
X136286904Y-107102380D02*
X136286904Y-106102380D01*
X136667857Y-106102380D01*
X136763095Y-106150000D01*
X136810714Y-106197619D01*
X136858333Y-106292857D01*
X136858333Y-106435714D01*
X136810714Y-106530952D01*
X136763095Y-106578571D01*
X136667857Y-106626190D01*
X136286904Y-106626190D01*
X137715476Y-106435714D02*
X137715476Y-107102380D01*
X137477380Y-106054761D02*
X137239285Y-106769047D01*
X137858333Y-106769047D01*
G04 #@! TO.C,R5*
X136858333Y-106802380D02*
X136525000Y-106326190D01*
X136286904Y-106802380D02*
X136286904Y-105802380D01*
X136667857Y-105802380D01*
X136763095Y-105850000D01*
X136810714Y-105897619D01*
X136858333Y-105992857D01*
X136858333Y-106135714D01*
X136810714Y-106230952D01*
X136763095Y-106278571D01*
X136667857Y-106326190D01*
X136286904Y-106326190D01*
X137763095Y-105802380D02*
X137286904Y-105802380D01*
X137239285Y-106278571D01*
X137286904Y-106230952D01*
X137382142Y-106183333D01*
X137620238Y-106183333D01*
X137715476Y-106230952D01*
X137763095Y-106278571D01*
X137810714Y-106373809D01*
X137810714Y-106611904D01*
X137763095Y-106707142D01*
X137715476Y-106754761D01*
X137620238Y-106802380D01*
X137382142Y-106802380D01*
X137286904Y-106754761D01*
X137239285Y-106707142D01*
G04 #@! TO.C,R6*
X160808333Y-103802380D02*
X160475000Y-103326190D01*
X160236904Y-103802380D02*
X160236904Y-102802380D01*
X160617857Y-102802380D01*
X160713095Y-102850000D01*
X160760714Y-102897619D01*
X160808333Y-102992857D01*
X160808333Y-103135714D01*
X160760714Y-103230952D01*
X160713095Y-103278571D01*
X160617857Y-103326190D01*
X160236904Y-103326190D01*
X161665476Y-102802380D02*
X161475000Y-102802380D01*
X161379761Y-102850000D01*
X161332142Y-102897619D01*
X161236904Y-103040476D01*
X161189285Y-103230952D01*
X161189285Y-103611904D01*
X161236904Y-103707142D01*
X161284523Y-103754761D01*
X161379761Y-103802380D01*
X161570238Y-103802380D01*
X161665476Y-103754761D01*
X161713095Y-103707142D01*
X161760714Y-103611904D01*
X161760714Y-103373809D01*
X161713095Y-103278571D01*
X161665476Y-103230952D01*
X161570238Y-103183333D01*
X161379761Y-103183333D01*
X161284523Y-103230952D01*
X161236904Y-103278571D01*
X161189285Y-103373809D01*
G04 #@! TO.C,R7*
X160808333Y-110102380D02*
X160475000Y-109626190D01*
X160236904Y-110102380D02*
X160236904Y-109102380D01*
X160617857Y-109102380D01*
X160713095Y-109150000D01*
X160760714Y-109197619D01*
X160808333Y-109292857D01*
X160808333Y-109435714D01*
X160760714Y-109530952D01*
X160713095Y-109578571D01*
X160617857Y-109626190D01*
X160236904Y-109626190D01*
X161141666Y-109102380D02*
X161808333Y-109102380D01*
X161379761Y-110102380D01*
G04 #@! TO.C,R8*
X136858333Y-104102380D02*
X136525000Y-103626190D01*
X136286904Y-104102380D02*
X136286904Y-103102380D01*
X136667857Y-103102380D01*
X136763095Y-103150000D01*
X136810714Y-103197619D01*
X136858333Y-103292857D01*
X136858333Y-103435714D01*
X136810714Y-103530952D01*
X136763095Y-103578571D01*
X136667857Y-103626190D01*
X136286904Y-103626190D01*
X137429761Y-103530952D02*
X137334523Y-103483333D01*
X137286904Y-103435714D01*
X137239285Y-103340476D01*
X137239285Y-103292857D01*
X137286904Y-103197619D01*
X137334523Y-103150000D01*
X137429761Y-103102380D01*
X137620238Y-103102380D01*
X137715476Y-103150000D01*
X137763095Y-103197619D01*
X137810714Y-103292857D01*
X137810714Y-103340476D01*
X137763095Y-103435714D01*
X137715476Y-103483333D01*
X137620238Y-103530952D01*
X137429761Y-103530952D01*
X137334523Y-103578571D01*
X137286904Y-103626190D01*
X137239285Y-103721428D01*
X137239285Y-103911904D01*
X137286904Y-104007142D01*
X137334523Y-104054761D01*
X137429761Y-104102380D01*
X137620238Y-104102380D01*
X137715476Y-104054761D01*
X137763095Y-104007142D01*
X137810714Y-103911904D01*
X137810714Y-103721428D01*
X137763095Y-103626190D01*
X137715476Y-103578571D01*
X137620238Y-103530952D01*
G04 #@! TO.C,R9*
X160808333Y-109802380D02*
X160475000Y-109326190D01*
X160236904Y-109802380D02*
X160236904Y-108802380D01*
X160617857Y-108802380D01*
X160713095Y-108850000D01*
X160760714Y-108897619D01*
X160808333Y-108992857D01*
X160808333Y-109135714D01*
X160760714Y-109230952D01*
X160713095Y-109278571D01*
X160617857Y-109326190D01*
X160236904Y-109326190D01*
X161284523Y-109802380D02*
X161475000Y-109802380D01*
X161570238Y-109754761D01*
X161617857Y-109707142D01*
X161713095Y-109564285D01*
X161760714Y-109373809D01*
X161760714Y-108992857D01*
X161713095Y-108897619D01*
X161665476Y-108850000D01*
X161570238Y-108802380D01*
X161379761Y-108802380D01*
X161284523Y-108850000D01*
X161236904Y-108897619D01*
X161189285Y-108992857D01*
X161189285Y-109230952D01*
X161236904Y-109326190D01*
X161284523Y-109373809D01*
X161379761Y-109421428D01*
X161570238Y-109421428D01*
X161665476Y-109373809D01*
X161713095Y-109326190D01*
X161760714Y-109230952D01*
G04 #@! TO.C,R10*
X149802380Y-97667857D02*
X149326190Y-98001190D01*
X149802380Y-98239285D02*
X148802380Y-98239285D01*
X148802380Y-97858333D01*
X148850000Y-97763095D01*
X148897619Y-97715476D01*
X148992857Y-97667857D01*
X149135714Y-97667857D01*
X149230952Y-97715476D01*
X149278571Y-97763095D01*
X149326190Y-97858333D01*
X149326190Y-98239285D01*
X149802380Y-96715476D02*
X149802380Y-97286904D01*
X149802380Y-97001190D02*
X148802380Y-97001190D01*
X148945238Y-97096428D01*
X149040476Y-97191666D01*
X149088095Y-97286904D01*
X148802380Y-96096428D02*
X148802380Y-96001190D01*
X148850000Y-95905952D01*
X148897619Y-95858333D01*
X148992857Y-95810714D01*
X149183333Y-95763095D01*
X149421428Y-95763095D01*
X149611904Y-95810714D01*
X149707142Y-95858333D01*
X149754761Y-95905952D01*
X149802380Y-96001190D01*
X149802380Y-96096428D01*
X149754761Y-96191666D01*
X149707142Y-96239285D01*
X149611904Y-96286904D01*
X149421428Y-96334523D01*
X149183333Y-96334523D01*
X148992857Y-96286904D01*
X148897619Y-96239285D01*
X148850000Y-96191666D01*
X148802380Y-96096428D01*
G04 #@! TO.C,R11*
X150102380Y-97667857D02*
X149626190Y-98001190D01*
X150102380Y-98239285D02*
X149102380Y-98239285D01*
X149102380Y-97858333D01*
X149150000Y-97763095D01*
X149197619Y-97715476D01*
X149292857Y-97667857D01*
X149435714Y-97667857D01*
X149530952Y-97715476D01*
X149578571Y-97763095D01*
X149626190Y-97858333D01*
X149626190Y-98239285D01*
X150102380Y-96715476D02*
X150102380Y-97286904D01*
X150102380Y-97001190D02*
X149102380Y-97001190D01*
X149245238Y-97096428D01*
X149340476Y-97191666D01*
X149388095Y-97286904D01*
X150102380Y-95763095D02*
X150102380Y-96334523D01*
X150102380Y-96048809D02*
X149102380Y-96048809D01*
X149245238Y-96144047D01*
X149340476Y-96239285D01*
X149388095Y-96334523D01*
G04 #@! TO.C,R12*
X140102380Y-111617857D02*
X139626190Y-111951190D01*
X140102380Y-112189285D02*
X139102380Y-112189285D01*
X139102380Y-111808333D01*
X139150000Y-111713095D01*
X139197619Y-111665476D01*
X139292857Y-111617857D01*
X139435714Y-111617857D01*
X139530952Y-111665476D01*
X139578571Y-111713095D01*
X139626190Y-111808333D01*
X139626190Y-112189285D01*
X140102380Y-110665476D02*
X140102380Y-111236904D01*
X140102380Y-110951190D02*
X139102380Y-110951190D01*
X139245238Y-111046428D01*
X139340476Y-111141666D01*
X139388095Y-111236904D01*
X139197619Y-110284523D02*
X139150000Y-110236904D01*
X139102380Y-110141666D01*
X139102380Y-109903571D01*
X139150000Y-109808333D01*
X139197619Y-109760714D01*
X139292857Y-109713095D01*
X139388095Y-109713095D01*
X139530952Y-109760714D01*
X140102380Y-110332142D01*
X140102380Y-109713095D01*
G04 #@! TO.C,R13*
X142802380Y-111617857D02*
X142326190Y-111951190D01*
X142802380Y-112189285D02*
X141802380Y-112189285D01*
X141802380Y-111808333D01*
X141850000Y-111713095D01*
X141897619Y-111665476D01*
X141992857Y-111617857D01*
X142135714Y-111617857D01*
X142230952Y-111665476D01*
X142278571Y-111713095D01*
X142326190Y-111808333D01*
X142326190Y-112189285D01*
X142802380Y-110665476D02*
X142802380Y-111236904D01*
X142802380Y-110951190D02*
X141802380Y-110951190D01*
X141945238Y-111046428D01*
X142040476Y-111141666D01*
X142088095Y-111236904D01*
X141802380Y-110332142D02*
X141802380Y-109713095D01*
X142183333Y-110046428D01*
X142183333Y-109903571D01*
X142230952Y-109808333D01*
X142278571Y-109760714D01*
X142373809Y-109713095D01*
X142611904Y-109713095D01*
X142707142Y-109760714D01*
X142754761Y-109808333D01*
X142802380Y-109903571D01*
X142802380Y-110189285D01*
X142754761Y-110284523D01*
X142707142Y-110332142D01*
G04 #@! TO.C,R14*
X151102380Y-119117857D02*
X150626190Y-119451190D01*
X151102380Y-119689285D02*
X150102380Y-119689285D01*
X150102380Y-119308333D01*
X150150000Y-119213095D01*
X150197619Y-119165476D01*
X150292857Y-119117857D01*
X150435714Y-119117857D01*
X150530952Y-119165476D01*
X150578571Y-119213095D01*
X150626190Y-119308333D01*
X150626190Y-119689285D01*
X151102380Y-118165476D02*
X151102380Y-118736904D01*
X151102380Y-118451190D02*
X150102380Y-118451190D01*
X150245238Y-118546428D01*
X150340476Y-118641666D01*
X150388095Y-118736904D01*
X150435714Y-117308333D02*
X151102380Y-117308333D01*
X150054761Y-117546428D02*
X150769047Y-117784523D01*
X150769047Y-117165476D01*
G04 #@! TO.C,R15*
X150802380Y-119167857D02*
X150326190Y-119501190D01*
X150802380Y-119739285D02*
X149802380Y-119739285D01*
X149802380Y-119358333D01*
X149850000Y-119263095D01*
X149897619Y-119215476D01*
X149992857Y-119167857D01*
X150135714Y-119167857D01*
X150230952Y-119215476D01*
X150278571Y-119263095D01*
X150326190Y-119358333D01*
X150326190Y-119739285D01*
X150802380Y-118215476D02*
X150802380Y-118786904D01*
X150802380Y-118501190D02*
X149802380Y-118501190D01*
X149945238Y-118596428D01*
X150040476Y-118691666D01*
X150088095Y-118786904D01*
X149802380Y-117310714D02*
X149802380Y-117786904D01*
X150278571Y-117834523D01*
X150230952Y-117786904D01*
X150183333Y-117691666D01*
X150183333Y-117453571D01*
X150230952Y-117358333D01*
X150278571Y-117310714D01*
X150373809Y-117263095D01*
X150611904Y-117263095D01*
X150707142Y-117310714D01*
X150754761Y-117358333D01*
X150802380Y-117453571D01*
X150802380Y-117691666D01*
X150754761Y-117786904D01*
X150707142Y-117834523D01*
G04 #@! TO.C,R16*
X143802380Y-97667857D02*
X143326190Y-98001190D01*
X143802380Y-98239285D02*
X142802380Y-98239285D01*
X142802380Y-97858333D01*
X142850000Y-97763095D01*
X142897619Y-97715476D01*
X142992857Y-97667857D01*
X143135714Y-97667857D01*
X143230952Y-97715476D01*
X143278571Y-97763095D01*
X143326190Y-97858333D01*
X143326190Y-98239285D01*
X143802380Y-96715476D02*
X143802380Y-97286904D01*
X143802380Y-97001190D02*
X142802380Y-97001190D01*
X142945238Y-97096428D01*
X143040476Y-97191666D01*
X143088095Y-97286904D01*
X142802380Y-95858333D02*
X142802380Y-96048809D01*
X142850000Y-96144047D01*
X142897619Y-96191666D01*
X143040476Y-96286904D01*
X143230952Y-96334523D01*
X143611904Y-96334523D01*
X143707142Y-96286904D01*
X143754761Y-96239285D01*
X143802380Y-96144047D01*
X143802380Y-95953571D01*
X143754761Y-95858333D01*
X143707142Y-95810714D01*
X143611904Y-95763095D01*
X143373809Y-95763095D01*
X143278571Y-95810714D01*
X143230952Y-95858333D01*
X143183333Y-95953571D01*
X143183333Y-96144047D01*
X143230952Y-96239285D01*
X143278571Y-96286904D01*
X143373809Y-96334523D01*
G04 #@! TO.C,R17*
X143102380Y-111617857D02*
X142626190Y-111951190D01*
X143102380Y-112189285D02*
X142102380Y-112189285D01*
X142102380Y-111808333D01*
X142150000Y-111713095D01*
X142197619Y-111665476D01*
X142292857Y-111617857D01*
X142435714Y-111617857D01*
X142530952Y-111665476D01*
X142578571Y-111713095D01*
X142626190Y-111808333D01*
X142626190Y-112189285D01*
X143102380Y-110665476D02*
X143102380Y-111236904D01*
X143102380Y-110951190D02*
X142102380Y-110951190D01*
X142245238Y-111046428D01*
X142340476Y-111141666D01*
X142388095Y-111236904D01*
X142102380Y-110332142D02*
X142102380Y-109665476D01*
X143102380Y-110094047D01*
G04 #@! TO.C,R18*
X148102380Y-119167857D02*
X147626190Y-119501190D01*
X148102380Y-119739285D02*
X147102380Y-119739285D01*
X147102380Y-119358333D01*
X147150000Y-119263095D01*
X147197619Y-119215476D01*
X147292857Y-119167857D01*
X147435714Y-119167857D01*
X147530952Y-119215476D01*
X147578571Y-119263095D01*
X147626190Y-119358333D01*
X147626190Y-119739285D01*
X148102380Y-118215476D02*
X148102380Y-118786904D01*
X148102380Y-118501190D02*
X147102380Y-118501190D01*
X147245238Y-118596428D01*
X147340476Y-118691666D01*
X147388095Y-118786904D01*
X147530952Y-117644047D02*
X147483333Y-117739285D01*
X147435714Y-117786904D01*
X147340476Y-117834523D01*
X147292857Y-117834523D01*
X147197619Y-117786904D01*
X147150000Y-117739285D01*
X147102380Y-117644047D01*
X147102380Y-117453571D01*
X147150000Y-117358333D01*
X147197619Y-117310714D01*
X147292857Y-117263095D01*
X147340476Y-117263095D01*
X147435714Y-117310714D01*
X147483333Y-117358333D01*
X147530952Y-117453571D01*
X147530952Y-117644047D01*
X147578571Y-117739285D01*
X147626190Y-117786904D01*
X147721428Y-117834523D01*
X147911904Y-117834523D01*
X148007142Y-117786904D01*
X148054761Y-117739285D01*
X148102380Y-117644047D01*
X148102380Y-117453571D01*
X148054761Y-117358333D01*
X148007142Y-117310714D01*
X147911904Y-117263095D01*
X147721428Y-117263095D01*
X147626190Y-117310714D01*
X147578571Y-117358333D01*
X147530952Y-117453571D01*
G04 #@! TO.C,U2*
X130088095Y-100602380D02*
X130088095Y-101411904D01*
X130135714Y-101507142D01*
X130183333Y-101554761D01*
X130278571Y-101602380D01*
X130469047Y-101602380D01*
X130564285Y-101554761D01*
X130611904Y-101507142D01*
X130659523Y-101411904D01*
X130659523Y-100602380D01*
X131088095Y-100697619D02*
X131135714Y-100650000D01*
X131230952Y-100602380D01*
X131469047Y-100602380D01*
X131564285Y-100650000D01*
X131611904Y-100697619D01*
X131659523Y-100792857D01*
X131659523Y-100888095D01*
X131611904Y-101030952D01*
X131040476Y-101602380D01*
X131659523Y-101602380D01*
G04 #@! TO.C,U3*
X164738095Y-108352380D02*
X164738095Y-109161904D01*
X164785714Y-109257142D01*
X164833333Y-109304761D01*
X164928571Y-109352380D01*
X165119047Y-109352380D01*
X165214285Y-109304761D01*
X165261904Y-109257142D01*
X165309523Y-109161904D01*
X165309523Y-108352380D01*
X165690476Y-108352380D02*
X166309523Y-108352380D01*
X165976190Y-108733333D01*
X166119047Y-108733333D01*
X166214285Y-108780952D01*
X166261904Y-108828571D01*
X166309523Y-108923809D01*
X166309523Y-109161904D01*
X166261904Y-109257142D01*
X166214285Y-109304761D01*
X166119047Y-109352380D01*
X165833333Y-109352380D01*
X165738095Y-109304761D01*
X165690476Y-109257142D01*
G04 #@! TO.C,U4*
X149352380Y-91761904D02*
X150161904Y-91761904D01*
X150257142Y-91714285D01*
X150304761Y-91666666D01*
X150352380Y-91571428D01*
X150352380Y-91380952D01*
X150304761Y-91285714D01*
X150257142Y-91238095D01*
X150161904Y-91190476D01*
X149352380Y-91190476D01*
X149685714Y-90285714D02*
X150352380Y-90285714D01*
X149304761Y-90523809D02*
X150019047Y-90761904D01*
X150019047Y-90142857D01*
G04 #@! TO.C,U5*
X130588095Y-107502380D02*
X130588095Y-108311904D01*
X130635714Y-108407142D01*
X130683333Y-108454761D01*
X130778571Y-108502380D01*
X130969047Y-108502380D01*
X131064285Y-108454761D01*
X131111904Y-108407142D01*
X131159523Y-108311904D01*
X131159523Y-107502380D01*
X132111904Y-107502380D02*
X131635714Y-107502380D01*
X131588095Y-107978571D01*
X131635714Y-107930952D01*
X131730952Y-107883333D01*
X131969047Y-107883333D01*
X132064285Y-107930952D01*
X132111904Y-107978571D01*
X132159523Y-108073809D01*
X132159523Y-108311904D01*
X132111904Y-108407142D01*
X132064285Y-108454761D01*
X131969047Y-108502380D01*
X131730952Y-108502380D01*
X131635714Y-108454761D01*
X131588095Y-108407142D01*
G04 #@! TO.C,U6*
X143552380Y-123761904D02*
X144361904Y-123761904D01*
X144457142Y-123714285D01*
X144504761Y-123666666D01*
X144552380Y-123571428D01*
X144552380Y-123380952D01*
X144504761Y-123285714D01*
X144457142Y-123238095D01*
X144361904Y-123190476D01*
X143552380Y-123190476D01*
X143552380Y-122285714D02*
X143552380Y-122476190D01*
X143600000Y-122571428D01*
X143647619Y-122619047D01*
X143790476Y-122714285D01*
X143980952Y-122761904D01*
X144361904Y-122761904D01*
X144457142Y-122714285D01*
X144504761Y-122666666D01*
X144552380Y-122571428D01*
X144552380Y-122380952D01*
X144504761Y-122285714D01*
X144457142Y-122238095D01*
X144361904Y-122190476D01*
X144123809Y-122190476D01*
X144028571Y-122238095D01*
X143980952Y-122285714D01*
X143933333Y-122380952D01*
X143933333Y-122571428D01*
X143980952Y-122666666D01*
X144028571Y-122714285D01*
X144123809Y-122761904D01*
G04 #@! TD*
M02*
