G04 #@! TF.GenerationSoftware,KiCad,Pcbnew,(5.0.1)-4*
G04 #@! TF.CreationDate,2018-11-24T23:14:57-05:00*
G04 #@! TF.ProjectId,geodesic,67656F64657369632E6B696361645F70,rev?*
G04 #@! TF.SameCoordinates,Original*
G04 #@! TF.FileFunction,Profile,NP*
%FSLAX46Y46*%
G04 Gerber Fmt 4.6, Leading zero omitted, Abs format (unit mm)*
G04 Created by KiCad (PCBNEW (5.0.1)-4) date 2018-11-24 11:14:57 PM*
%MOMM*%
%LPD*%
G01*
G04 APERTURE LIST*
%ADD10C,0.050000*%
G04 APERTURE END LIST*
D10*
X145000000Y-165000000D02*
X145000000Y-165000000D01*
X145000000Y-165000000D02*
X144540000Y-164980000D01*
X144540000Y-164980000D02*
X144090000Y-164950000D01*
X144090000Y-164950000D02*
X143630000Y-164920000D01*
X143630000Y-164920000D02*
X143180000Y-164880000D01*
X143180000Y-164880000D02*
X142730000Y-164840000D01*
X142730000Y-164840000D02*
X142270000Y-164800000D01*
X142270000Y-164800000D02*
X141820000Y-164760000D01*
X141820000Y-164760000D02*
X141360000Y-164710000D01*
X141360000Y-164710000D02*
X140910000Y-164660000D01*
X140910000Y-164660000D02*
X140460000Y-164600000D01*
X140460000Y-164600000D02*
X140010000Y-164540000D01*
X140010000Y-164540000D02*
X139560000Y-164480000D01*
X139560000Y-164480000D02*
X139100000Y-164410000D01*
X139100000Y-164410000D02*
X138650000Y-164340000D01*
X138650000Y-164340000D02*
X138200000Y-164270000D01*
X138200000Y-164270000D02*
X137750000Y-164190000D01*
X137750000Y-164190000D02*
X137310000Y-164120000D01*
X137310000Y-164120000D02*
X136860000Y-164030000D01*
X136860000Y-164030000D02*
X136410000Y-163950000D01*
X136410000Y-163950000D02*
X135960000Y-163860000D01*
X135960000Y-163860000D02*
X135520000Y-163760000D01*
X135520000Y-163760000D02*
X135070000Y-163670000D01*
X135070000Y-163670000D02*
X134630000Y-163570000D01*
X134630000Y-163570000D02*
X134180000Y-163460000D01*
X134180000Y-163460000D02*
X133740000Y-163360000D01*
X133740000Y-163360000D02*
X133300000Y-163250000D01*
X133300000Y-163250000D02*
X132850000Y-163130000D01*
X132850000Y-163130000D02*
X132410000Y-163020000D01*
X132410000Y-163020000D02*
X131970000Y-162900000D01*
X131970000Y-162900000D02*
X131530000Y-162770000D01*
X131530000Y-162770000D02*
X131100000Y-162650000D01*
X131100000Y-162650000D02*
X130660000Y-162520000D01*
X130660000Y-162520000D02*
X130220000Y-162380000D01*
X130220000Y-162380000D02*
X129790000Y-162250000D01*
X129790000Y-162250000D02*
X129350000Y-162110000D01*
X129350000Y-162110000D02*
X128920000Y-161960000D01*
X128920000Y-161960000D02*
X128490000Y-161820000D01*
X128490000Y-161820000D02*
X128060000Y-161670000D01*
X128060000Y-161670000D02*
X127630000Y-161520000D01*
X127630000Y-161520000D02*
X127200000Y-161360000D01*
X127200000Y-161360000D02*
X126770000Y-161200000D01*
X126770000Y-161200000D02*
X126350000Y-161040000D01*
X126350000Y-161040000D02*
X125920000Y-160870000D01*
X125920000Y-160870000D02*
X125500000Y-160700000D01*
X125500000Y-160700000D02*
X125080000Y-160530000D01*
X125080000Y-160530000D02*
X124660000Y-160350000D01*
X124660000Y-160350000D02*
X124240000Y-160180000D01*
X124240000Y-160180000D02*
X123820000Y-159990000D01*
X123820000Y-159990000D02*
X123400000Y-159810000D01*
X123400000Y-159810000D02*
X122990000Y-159620000D01*
X122990000Y-159620000D02*
X122570000Y-159430000D01*
X122570000Y-159430000D02*
X122160000Y-159230000D01*
X122160000Y-159230000D02*
X121750000Y-159040000D01*
X121750000Y-159040000D02*
X121340000Y-158840000D01*
X121340000Y-158840000D02*
X120930000Y-158630000D01*
X120930000Y-158630000D02*
X120530000Y-158420000D01*
X120530000Y-158420000D02*
X120120000Y-158210000D01*
X120120000Y-158210000D02*
X119720000Y-158000000D01*
X119720000Y-158000000D02*
X119320000Y-157790000D01*
X119320000Y-157790000D02*
X118920000Y-157570000D01*
X118920000Y-157570000D02*
X118520000Y-157340000D01*
X118520000Y-157340000D02*
X118120000Y-157120000D01*
X118120000Y-157120000D02*
X117730000Y-156890000D01*
X117730000Y-156890000D02*
X117340000Y-156660000D01*
X117340000Y-156660000D02*
X116940000Y-156430000D01*
X116940000Y-156430000D02*
X116550000Y-156190000D01*
X116550000Y-156190000D02*
X116170000Y-155950000D01*
X116170000Y-155950000D02*
X115780000Y-155700000D01*
X115780000Y-155700000D02*
X115400000Y-155460000D01*
X115400000Y-155460000D02*
X115020000Y-155210000D01*
X115020000Y-155210000D02*
X114640000Y-154960000D01*
X114640000Y-154960000D02*
X114260000Y-154700000D01*
X114260000Y-154700000D02*
X113880000Y-154450000D01*
X113880000Y-154450000D02*
X113510000Y-154190000D01*
X113510000Y-154190000D02*
X113130000Y-153920000D01*
X113130000Y-153920000D02*
X112760000Y-153660000D01*
X112760000Y-153660000D02*
X112400000Y-153390000D01*
X112400000Y-153390000D02*
X112030000Y-153120000D01*
X112030000Y-153120000D02*
X111670000Y-152840000D01*
X111670000Y-152840000D02*
X111300000Y-152560000D01*
X111300000Y-152560000D02*
X110940000Y-152280000D01*
X110940000Y-152280000D02*
X110590000Y-152000000D01*
X110590000Y-152000000D02*
X110230000Y-151720000D01*
X110230000Y-151720000D02*
X109880000Y-151430000D01*
X109880000Y-151430000D02*
X109530000Y-151140000D01*
X109530000Y-151140000D02*
X109180000Y-150840000D01*
X109180000Y-150840000D02*
X108830000Y-150550000D01*
X108830000Y-150550000D02*
X108490000Y-150250000D01*
X108490000Y-150250000D02*
X108140000Y-149950000D01*
X108140000Y-149950000D02*
X107800000Y-149650000D01*
X107800000Y-149650000D02*
X107470000Y-149340000D01*
X107470000Y-149340000D02*
X107130000Y-149030000D01*
X107130000Y-149030000D02*
X106800000Y-148720000D01*
X106800000Y-148720000D02*
X106470000Y-148400000D01*
X106470000Y-148400000D02*
X106140000Y-148090000D01*
X106140000Y-148090000D02*
X105810000Y-147770000D01*
X105810000Y-147770000D02*
X105490000Y-147450000D01*
X105490000Y-147450000D02*
X105170000Y-147120000D01*
X105170000Y-147120000D02*
X104850000Y-146800000D01*
X104530000Y-146470000D02*
X104850000Y-146800000D01*
X145000000Y-165000000D02*
X147200000Y-165000000D01*
X147200000Y-165000000D02*
X147200000Y-155000000D01*
X147200000Y-155000000D02*
X146000000Y-153000000D01*
X146000000Y-153000000D02*
X150000000Y-153000000D01*
X150000000Y-153000000D02*
X148800000Y-155000000D01*
X148800000Y-155000000D02*
X148800000Y-165000000D01*
X148800000Y-165000000D02*
X151000000Y-165000000D01*
X191470000Y-146470000D02*
X191470000Y-146470000D01*
X191470000Y-146470000D02*
X191150000Y-146800000D01*
X191150000Y-146800000D02*
X190840000Y-147130000D01*
X190840000Y-147130000D02*
X190510000Y-147450000D01*
X190510000Y-147450000D02*
X190190000Y-147770000D01*
X190190000Y-147770000D02*
X189870000Y-148090000D01*
X189870000Y-148090000D02*
X189540000Y-148410000D01*
X189540000Y-148410000D02*
X189210000Y-148720000D01*
X189210000Y-148720000D02*
X188870000Y-149030000D01*
X188870000Y-149030000D02*
X188540000Y-149340000D01*
X188540000Y-149340000D02*
X188200000Y-149650000D01*
X188200000Y-149650000D02*
X187860000Y-149950000D01*
X187860000Y-149950000D02*
X187520000Y-150250000D01*
X187520000Y-150250000D02*
X187170000Y-150550000D01*
X187170000Y-150550000D02*
X186830000Y-150850000D01*
X186830000Y-150850000D02*
X186480000Y-151140000D01*
X186480000Y-151140000D02*
X186130000Y-151430000D01*
X186130000Y-151430000D02*
X185770000Y-151720000D01*
X185770000Y-151720000D02*
X185420000Y-152000000D01*
X185420000Y-152000000D02*
X185060000Y-152290000D01*
X185060000Y-152290000D02*
X184700000Y-152570000D01*
X184700000Y-152570000D02*
X184340000Y-152840000D01*
X184340000Y-152840000D02*
X183970000Y-153120000D01*
X183970000Y-153120000D02*
X183610000Y-153390000D01*
X183610000Y-153390000D02*
X183240000Y-153660000D01*
X183240000Y-153660000D02*
X182870000Y-153920000D01*
X182870000Y-153920000D02*
X182500000Y-154190000D01*
X182500000Y-154190000D02*
X182120000Y-154450000D01*
X182120000Y-154450000D02*
X181750000Y-154710000D01*
X181750000Y-154710000D02*
X181370000Y-154960000D01*
X181370000Y-154960000D02*
X180990000Y-155210000D01*
X180990000Y-155210000D02*
X180600000Y-155460000D01*
X180600000Y-155460000D02*
X180220000Y-155710000D01*
X180220000Y-155710000D02*
X179840000Y-155950000D01*
X179840000Y-155950000D02*
X179450000Y-156190000D01*
X179450000Y-156190000D02*
X179060000Y-156430000D01*
X179060000Y-156430000D02*
X178670000Y-156660000D01*
X178670000Y-156660000D02*
X178270000Y-156890000D01*
X178270000Y-156890000D02*
X177880000Y-157120000D01*
X177880000Y-157120000D02*
X177480000Y-157350000D01*
X177480000Y-157350000D02*
X177080000Y-157570000D01*
X177080000Y-157570000D02*
X176680000Y-157790000D01*
X176680000Y-157790000D02*
X176280000Y-158000000D01*
X176280000Y-158000000D02*
X175880000Y-158220000D01*
X175880000Y-158220000D02*
X175480000Y-158430000D01*
X175480000Y-158430000D02*
X175070000Y-158630000D01*
X175070000Y-158630000D02*
X174660000Y-158840000D01*
X174660000Y-158840000D02*
X174250000Y-159040000D01*
X174250000Y-159040000D02*
X173840000Y-159240000D01*
X173840000Y-159240000D02*
X173430000Y-159430000D01*
X173430000Y-159430000D02*
X173010000Y-159620000D01*
X173010000Y-159620000D02*
X172600000Y-159810000D01*
X172600000Y-159810000D02*
X172180000Y-160000000D01*
X172180000Y-160000000D02*
X171760000Y-160180000D01*
X171760000Y-160180000D02*
X171350000Y-160360000D01*
X171350000Y-160360000D02*
X170920000Y-160530000D01*
X170920000Y-160530000D02*
X170500000Y-160710000D01*
X170500000Y-160710000D02*
X170080000Y-160870000D01*
X170080000Y-160870000D02*
X169650000Y-161040000D01*
X169650000Y-161040000D02*
X169230000Y-161200000D01*
X169230000Y-161200000D02*
X168800000Y-161360000D01*
X168800000Y-161360000D02*
X168370000Y-161520000D01*
X168370000Y-161520000D02*
X167940000Y-161670000D01*
X167940000Y-161670000D02*
X167510000Y-161820000D01*
X167510000Y-161820000D02*
X167080000Y-161970000D01*
X167080000Y-161970000D02*
X166650000Y-162110000D01*
X166650000Y-162110000D02*
X166210000Y-162250000D01*
X166210000Y-162250000D02*
X165780000Y-162390000D01*
X165780000Y-162390000D02*
X165340000Y-162520000D01*
X165340000Y-162520000D02*
X164910000Y-162650000D01*
X164910000Y-162650000D02*
X164470000Y-162780000D01*
X164470000Y-162780000D02*
X164030000Y-162900000D01*
X164030000Y-162900000D02*
X163590000Y-163020000D01*
X163590000Y-163020000D02*
X163150000Y-163140000D01*
X163150000Y-163140000D02*
X162710000Y-163250000D01*
X162710000Y-163250000D02*
X162260000Y-163360000D01*
X162260000Y-163360000D02*
X161820000Y-163470000D01*
X161820000Y-163470000D02*
X161380000Y-163570000D01*
X161380000Y-163570000D02*
X160930000Y-163670000D01*
X160930000Y-163670000D02*
X160490000Y-163770000D01*
X160490000Y-163770000D02*
X160040000Y-163860000D01*
X160040000Y-163860000D02*
X159590000Y-163950000D01*
X159590000Y-163950000D02*
X159140000Y-164040000D01*
X159140000Y-164040000D02*
X158700000Y-164120000D01*
X158700000Y-164120000D02*
X158250000Y-164200000D01*
X158250000Y-164200000D02*
X157800000Y-164270000D01*
X157800000Y-164270000D02*
X157350000Y-164350000D01*
X157350000Y-164350000D02*
X156900000Y-164420000D01*
X156900000Y-164420000D02*
X156450000Y-164480000D01*
X156450000Y-164480000D02*
X155990000Y-164540000D01*
X155990000Y-164540000D02*
X155540000Y-164600000D01*
X155540000Y-164600000D02*
X155090000Y-164660000D01*
X155090000Y-164660000D02*
X154640000Y-164710000D01*
X154640000Y-164710000D02*
X154180000Y-164760000D01*
X154180000Y-164760000D02*
X153730000Y-164800000D01*
X153730000Y-164800000D02*
X153270000Y-164850000D01*
X153270000Y-164850000D02*
X152820000Y-164880000D01*
X152820000Y-164880000D02*
X152370000Y-164920000D01*
X152370000Y-164920000D02*
X151910000Y-164950000D01*
X151910000Y-164950000D02*
X151460000Y-164980000D01*
X151000000Y-165000000D02*
X151460000Y-164980000D01*
X191470000Y-146470000D02*
X192900000Y-144800000D01*
X192900000Y-144800000D02*
X185330000Y-138270000D01*
X185330000Y-138270000D02*
X183030000Y-137870000D01*
X183030000Y-137870000D02*
X185650000Y-134840000D01*
X185650000Y-134840000D02*
X186380000Y-137060000D01*
X186380000Y-137060000D02*
X193950000Y-143590000D01*
X193950000Y-143590000D02*
X195390000Y-141930000D01*
X208000000Y-108000000D02*
X208000000Y-108000000D01*
X208000000Y-108000000D02*
X207980000Y-108370000D01*
X207980000Y-108370000D02*
X207960000Y-108730000D01*
X207960000Y-108730000D02*
X207930000Y-109100000D01*
X207930000Y-109100000D02*
X207910000Y-109470000D01*
X207910000Y-109470000D02*
X207880000Y-109830000D01*
X207880000Y-109830000D02*
X207850000Y-110200000D01*
X207850000Y-110200000D02*
X207820000Y-110570000D01*
X207820000Y-110570000D02*
X207780000Y-110930000D01*
X207780000Y-110930000D02*
X207740000Y-111300000D01*
X207740000Y-111300000D02*
X207700000Y-111660000D01*
X207700000Y-111660000D02*
X207660000Y-112030000D01*
X207660000Y-112030000D02*
X207620000Y-112390000D01*
X207620000Y-112390000D02*
X207570000Y-112760000D01*
X207570000Y-112760000D02*
X207520000Y-113120000D01*
X207520000Y-113120000D02*
X207470000Y-113490000D01*
X207470000Y-113490000D02*
X207420000Y-113850000D01*
X207420000Y-113850000D02*
X207360000Y-114210000D01*
X207360000Y-114210000D02*
X207310000Y-114580000D01*
X207310000Y-114580000D02*
X207250000Y-114940000D01*
X207250000Y-114940000D02*
X207180000Y-115300000D01*
X207180000Y-115300000D02*
X207120000Y-115670000D01*
X207120000Y-115670000D02*
X207050000Y-116030000D01*
X207050000Y-116030000D02*
X206990000Y-116390000D01*
X206990000Y-116390000D02*
X206910000Y-116750000D01*
X206910000Y-116750000D02*
X206840000Y-117110000D01*
X206840000Y-117110000D02*
X206770000Y-117470000D01*
X206770000Y-117470000D02*
X206690000Y-117830000D01*
X206690000Y-117830000D02*
X206610000Y-118190000D01*
X206610000Y-118190000D02*
X206530000Y-118550000D01*
X206530000Y-118550000D02*
X206440000Y-118900000D01*
X206440000Y-118900000D02*
X206360000Y-119260000D01*
X206360000Y-119260000D02*
X206270000Y-119620000D01*
X206270000Y-119620000D02*
X206180000Y-119970000D01*
X206180000Y-119970000D02*
X206090000Y-120330000D01*
X206090000Y-120330000D02*
X205990000Y-120690000D01*
X205990000Y-120690000D02*
X205890000Y-121040000D01*
X205890000Y-121040000D02*
X205790000Y-121390000D01*
X205790000Y-121390000D02*
X205690000Y-121750000D01*
X205690000Y-121750000D02*
X205590000Y-122100000D01*
X205590000Y-122100000D02*
X205480000Y-122450000D01*
X205480000Y-122450000D02*
X205380000Y-122800000D01*
X205380000Y-122800000D02*
X205270000Y-123150000D01*
X205270000Y-123150000D02*
X205150000Y-123500000D01*
X205150000Y-123500000D02*
X205040000Y-123850000D01*
X205040000Y-123850000D02*
X204920000Y-124200000D01*
X204920000Y-124200000D02*
X204800000Y-124550000D01*
X204800000Y-124550000D02*
X204680000Y-124900000D01*
X204680000Y-124900000D02*
X204560000Y-125240000D01*
X204560000Y-125240000D02*
X204440000Y-125590000D01*
X204440000Y-125590000D02*
X204310000Y-125940000D01*
X204310000Y-125940000D02*
X204180000Y-126280000D01*
X204180000Y-126280000D02*
X204050000Y-126620000D01*
X204050000Y-126620000D02*
X203920000Y-126970000D01*
X203920000Y-126970000D02*
X203780000Y-127310000D01*
X203780000Y-127310000D02*
X203640000Y-127650000D01*
X203640000Y-127650000D02*
X203500000Y-127990000D01*
X203500000Y-127990000D02*
X203360000Y-128330000D01*
X203360000Y-128330000D02*
X203220000Y-128670000D01*
X203220000Y-128670000D02*
X203070000Y-129000000D01*
X203070000Y-129000000D02*
X202920000Y-129340000D01*
X202920000Y-129340000D02*
X202770000Y-129680000D01*
X202770000Y-129680000D02*
X202620000Y-130010000D01*
X202620000Y-130010000D02*
X202470000Y-130340000D01*
X202470000Y-130340000D02*
X202310000Y-130680000D01*
X202310000Y-130680000D02*
X202150000Y-131010000D01*
X202150000Y-131010000D02*
X201990000Y-131340000D01*
X201990000Y-131340000D02*
X201830000Y-131670000D01*
X201830000Y-131670000D02*
X201670000Y-132000000D01*
X201670000Y-132000000D02*
X201500000Y-132330000D01*
X201500000Y-132330000D02*
X201330000Y-132650000D01*
X201330000Y-132650000D02*
X201160000Y-132980000D01*
X201160000Y-132980000D02*
X200990000Y-133300000D01*
X200990000Y-133300000D02*
X200810000Y-133630000D01*
X200810000Y-133630000D02*
X200640000Y-133950000D01*
X200640000Y-133950000D02*
X200460000Y-134270000D01*
X200460000Y-134270000D02*
X200280000Y-134590000D01*
X200280000Y-134590000D02*
X200100000Y-134910000D01*
X200100000Y-134910000D02*
X199910000Y-135230000D01*
X199910000Y-135230000D02*
X199730000Y-135550000D01*
X199730000Y-135550000D02*
X199540000Y-135860000D01*
X199540000Y-135860000D02*
X199350000Y-136180000D01*
X199350000Y-136180000D02*
X199160000Y-136490000D01*
X199160000Y-136490000D02*
X198970000Y-136810000D01*
X198970000Y-136810000D02*
X198770000Y-137120000D01*
X198770000Y-137120000D02*
X198570000Y-137430000D01*
X198570000Y-137430000D02*
X198370000Y-137740000D01*
X198370000Y-137740000D02*
X198170000Y-138040000D01*
X198170000Y-138040000D02*
X197970000Y-138350000D01*
X197970000Y-138350000D02*
X197760000Y-138650000D01*
X197760000Y-138650000D02*
X197560000Y-138960000D01*
X197560000Y-138960000D02*
X197350000Y-139260000D01*
X197350000Y-139260000D02*
X197140000Y-139560000D01*
X197140000Y-139560000D02*
X196920000Y-139860000D01*
X196920000Y-139860000D02*
X196710000Y-140160000D01*
X196710000Y-140160000D02*
X196490000Y-140460000D01*
X196490000Y-140460000D02*
X196280000Y-140760000D01*
X196280000Y-140760000D02*
X196060000Y-141050000D01*
X196060000Y-141050000D02*
X195830000Y-141340000D01*
X195830000Y-141340000D02*
X195610000Y-141640000D01*
X195390000Y-141930000D02*
X195610000Y-141640000D01*
X208000000Y-108000000D02*
X208000000Y-105800000D01*
X208000000Y-105800000D02*
X198000000Y-105800000D01*
X198000000Y-105800000D02*
X196000000Y-107000000D01*
X196000000Y-107000000D02*
X196000000Y-103000000D01*
X196000000Y-103000000D02*
X198000000Y-104200000D01*
X198000000Y-104200000D02*
X208000000Y-104200000D01*
X208000000Y-104200000D02*
X208000000Y-102000000D01*
X207790000Y-99180000D02*
X207790000Y-99180000D01*
X207790000Y-99180000D02*
X207790000Y-99210000D01*
X207790000Y-99210000D02*
X207800000Y-99240000D01*
X207800000Y-99240000D02*
X207800000Y-99260000D01*
X207800000Y-99260000D02*
X207800000Y-99290000D01*
X207800000Y-99290000D02*
X207800000Y-99320000D01*
X207800000Y-99320000D02*
X207810000Y-99350000D01*
X207810000Y-99350000D02*
X207810000Y-99380000D01*
X207810000Y-99380000D02*
X207810000Y-99410000D01*
X207810000Y-99410000D02*
X207810000Y-99430000D01*
X207810000Y-99430000D02*
X207820000Y-99460000D01*
X207820000Y-99460000D02*
X207820000Y-99490000D01*
X207820000Y-99490000D02*
X207820000Y-99520000D01*
X207820000Y-99520000D02*
X207820000Y-99550000D01*
X207820000Y-99550000D02*
X207830000Y-99570000D01*
X207830000Y-99570000D02*
X207830000Y-99600000D01*
X207830000Y-99600000D02*
X207830000Y-99630000D01*
X207830000Y-99630000D02*
X207830000Y-99660000D01*
X207830000Y-99660000D02*
X207840000Y-99690000D01*
X207840000Y-99690000D02*
X207840000Y-99720000D01*
X207840000Y-99720000D02*
X207840000Y-99740000D01*
X207840000Y-99740000D02*
X207840000Y-99770000D01*
X207840000Y-99770000D02*
X207850000Y-99800000D01*
X207850000Y-99800000D02*
X207850000Y-99830000D01*
X207850000Y-99830000D02*
X207850000Y-99860000D01*
X207850000Y-99860000D02*
X207850000Y-99880000D01*
X207850000Y-99880000D02*
X207860000Y-99910000D01*
X207860000Y-99910000D02*
X207860000Y-99940000D01*
X207860000Y-99940000D02*
X207860000Y-99970000D01*
X207860000Y-99970000D02*
X207860000Y-100000000D01*
X207860000Y-100000000D02*
X207870000Y-100020000D01*
X207870000Y-100020000D02*
X207870000Y-100050000D01*
X207870000Y-100050000D02*
X207870000Y-100080000D01*
X207870000Y-100080000D02*
X207870000Y-100110000D01*
X207870000Y-100110000D02*
X207880000Y-100140000D01*
X207880000Y-100140000D02*
X207880000Y-100170000D01*
X207880000Y-100170000D02*
X207880000Y-100190000D01*
X207880000Y-100190000D02*
X207880000Y-100220000D01*
X207880000Y-100220000D02*
X207880000Y-100250000D01*
X207880000Y-100250000D02*
X207890000Y-100280000D01*
X207890000Y-100280000D02*
X207890000Y-100310000D01*
X207890000Y-100310000D02*
X207890000Y-100340000D01*
X207890000Y-100340000D02*
X207890000Y-100360000D01*
X207890000Y-100360000D02*
X207900000Y-100390000D01*
X207900000Y-100390000D02*
X207900000Y-100420000D01*
X207900000Y-100420000D02*
X207900000Y-100450000D01*
X207900000Y-100450000D02*
X207900000Y-100480000D01*
X207900000Y-100480000D02*
X207900000Y-100500000D01*
X207900000Y-100500000D02*
X207910000Y-100530000D01*
X207910000Y-100530000D02*
X207910000Y-100560000D01*
X207910000Y-100560000D02*
X207910000Y-100590000D01*
X207910000Y-100590000D02*
X207910000Y-100620000D01*
X207910000Y-100620000D02*
X207910000Y-100650000D01*
X207910000Y-100650000D02*
X207920000Y-100670000D01*
X207920000Y-100670000D02*
X207920000Y-100700000D01*
X207920000Y-100700000D02*
X207920000Y-100730000D01*
X207920000Y-100730000D02*
X207920000Y-100760000D01*
X207920000Y-100760000D02*
X207920000Y-100790000D01*
X207920000Y-100790000D02*
X207930000Y-100810000D01*
X207930000Y-100810000D02*
X207930000Y-100840000D01*
X207930000Y-100840000D02*
X207930000Y-100870000D01*
X207930000Y-100870000D02*
X207930000Y-100900000D01*
X207930000Y-100900000D02*
X207930000Y-100930000D01*
X207930000Y-100930000D02*
X207940000Y-100960000D01*
X207940000Y-100960000D02*
X207940000Y-100980000D01*
X207940000Y-100980000D02*
X207940000Y-101010000D01*
X207940000Y-101010000D02*
X207940000Y-101040000D01*
X207940000Y-101040000D02*
X207940000Y-101070000D01*
X207940000Y-101070000D02*
X207950000Y-101100000D01*
X207950000Y-101100000D02*
X207950000Y-101120000D01*
X207950000Y-101120000D02*
X207950000Y-101150000D01*
X207950000Y-101150000D02*
X207950000Y-101180000D01*
X207950000Y-101180000D02*
X207950000Y-101210000D01*
X207950000Y-101210000D02*
X207950000Y-101240000D01*
X207950000Y-101240000D02*
X207960000Y-101270000D01*
X207960000Y-101270000D02*
X207960000Y-101290000D01*
X207960000Y-101290000D02*
X207960000Y-101320000D01*
X207960000Y-101320000D02*
X207960000Y-101350000D01*
X207960000Y-101350000D02*
X207960000Y-101380000D01*
X207960000Y-101380000D02*
X207970000Y-101410000D01*
X207970000Y-101410000D02*
X207970000Y-101440000D01*
X207970000Y-101440000D02*
X207970000Y-101460000D01*
X207970000Y-101460000D02*
X207970000Y-101490000D01*
X207970000Y-101490000D02*
X207970000Y-101520000D01*
X207970000Y-101520000D02*
X207970000Y-101550000D01*
X207970000Y-101550000D02*
X207970000Y-101580000D01*
X207970000Y-101580000D02*
X207980000Y-101600000D01*
X207980000Y-101600000D02*
X207980000Y-101630000D01*
X207980000Y-101630000D02*
X207980000Y-101660000D01*
X207980000Y-101660000D02*
X207980000Y-101690000D01*
X207980000Y-101690000D02*
X207980000Y-101720000D01*
X207980000Y-101720000D02*
X207980000Y-101750000D01*
X207980000Y-101750000D02*
X207990000Y-101770000D01*
X207990000Y-101770000D02*
X207990000Y-101800000D01*
X207990000Y-101800000D02*
X207990000Y-101830000D01*
X207990000Y-101830000D02*
X207990000Y-101860000D01*
X207990000Y-101860000D02*
X207990000Y-101890000D01*
X207990000Y-101890000D02*
X207990000Y-101920000D01*
X207990000Y-101920000D02*
X207990000Y-101940000D01*
X207990000Y-101940000D02*
X208000000Y-101970000D01*
X208000000Y-102000000D02*
X208000000Y-101970000D01*
X207790000Y-99180000D02*
X207470000Y-97010000D01*
X207470000Y-97010000D02*
X197580000Y-98470000D01*
X197580000Y-98470000D02*
X195780000Y-99950000D01*
X195780000Y-99950000D02*
X195190000Y-95990000D01*
X195190000Y-95990000D02*
X197340000Y-96890000D01*
X197340000Y-96890000D02*
X207240000Y-95420000D01*
X207240000Y-95420000D02*
X206910000Y-93250000D01*
X182660000Y-55930000D02*
X182660000Y-55930000D01*
X182660000Y-55930000D02*
X183030000Y-56190000D01*
X183030000Y-56190000D02*
X183400000Y-56460000D01*
X183400000Y-56460000D02*
X183770000Y-56730000D01*
X183770000Y-56730000D02*
X184130000Y-57000000D01*
X184130000Y-57000000D02*
X184500000Y-57280000D01*
X184500000Y-57280000D02*
X184860000Y-57560000D01*
X184860000Y-57560000D02*
X185220000Y-57840000D01*
X185220000Y-57840000D02*
X185570000Y-58120000D01*
X185570000Y-58120000D02*
X185930000Y-58410000D01*
X185930000Y-58410000D02*
X186280000Y-58700000D01*
X186280000Y-58700000D02*
X186630000Y-58990000D01*
X186630000Y-58990000D02*
X186980000Y-59290000D01*
X186980000Y-59290000D02*
X187320000Y-59580000D01*
X187320000Y-59580000D02*
X187670000Y-59880000D01*
X187670000Y-59880000D02*
X188010000Y-60180000D01*
X188010000Y-60180000D02*
X188350000Y-60490000D01*
X188350000Y-60490000D02*
X188690000Y-60800000D01*
X188690000Y-60800000D02*
X189020000Y-61110000D01*
X189020000Y-61110000D02*
X189350000Y-61420000D01*
X189350000Y-61420000D02*
X189680000Y-61730000D01*
X189680000Y-61730000D02*
X190010000Y-62050000D01*
X190010000Y-62050000D02*
X190330000Y-62370000D01*
X190330000Y-62370000D02*
X190660000Y-62690000D01*
X190660000Y-62690000D02*
X190970000Y-63020000D01*
X190970000Y-63020000D02*
X191290000Y-63350000D01*
X191290000Y-63350000D02*
X191610000Y-63680000D01*
X191610000Y-63680000D02*
X191920000Y-64010000D01*
X191920000Y-64010000D02*
X192230000Y-64340000D01*
X192230000Y-64340000D02*
X192540000Y-64680000D01*
X192540000Y-64680000D02*
X192840000Y-65020000D01*
X192840000Y-65020000D02*
X193140000Y-65360000D01*
X193140000Y-65360000D02*
X193440000Y-65700000D01*
X193440000Y-65700000D02*
X193740000Y-66050000D01*
X193740000Y-66050000D02*
X194030000Y-66400000D01*
X194030000Y-66400000D02*
X194330000Y-66750000D01*
X194330000Y-66750000D02*
X194610000Y-67100000D01*
X194610000Y-67100000D02*
X194900000Y-67460000D01*
X194900000Y-67460000D02*
X195180000Y-67810000D01*
X195180000Y-67810000D02*
X195470000Y-68170000D01*
X195470000Y-68170000D02*
X195740000Y-68530000D01*
X195740000Y-68530000D02*
X196020000Y-68900000D01*
X196020000Y-68900000D02*
X196290000Y-69260000D01*
X196290000Y-69260000D02*
X196560000Y-69630000D01*
X196560000Y-69630000D02*
X196830000Y-70000000D01*
X196830000Y-70000000D02*
X197090000Y-70370000D01*
X197090000Y-70370000D02*
X197350000Y-70750000D01*
X197350000Y-70750000D02*
X197610000Y-71120000D01*
X197610000Y-71120000D02*
X197870000Y-71500000D01*
X197870000Y-71500000D02*
X198120000Y-71880000D01*
X198120000Y-71880000D02*
X198370000Y-72260000D01*
X198370000Y-72260000D02*
X198620000Y-72640000D01*
X198620000Y-72640000D02*
X198860000Y-73030000D01*
X198860000Y-73030000D02*
X199100000Y-73410000D01*
X199100000Y-73410000D02*
X199340000Y-73800000D01*
X199340000Y-73800000D02*
X199580000Y-74190000D01*
X199580000Y-74190000D02*
X199810000Y-74590000D01*
X199810000Y-74590000D02*
X200040000Y-74980000D01*
X200040000Y-74980000D02*
X200260000Y-75380000D01*
X200260000Y-75380000D02*
X200490000Y-75770000D01*
X200490000Y-75770000D02*
X200710000Y-76170000D01*
X200710000Y-76170000D02*
X200930000Y-76570000D01*
X200930000Y-76570000D02*
X201140000Y-76980000D01*
X201140000Y-76980000D02*
X201350000Y-77380000D01*
X201350000Y-77380000D02*
X201560000Y-77790000D01*
X201560000Y-77790000D02*
X201760000Y-78190000D01*
X201760000Y-78190000D02*
X201970000Y-78600000D01*
X201970000Y-78600000D02*
X202160000Y-79010000D01*
X202160000Y-79010000D02*
X202360000Y-79420000D01*
X202360000Y-79420000D02*
X202550000Y-79840000D01*
X202550000Y-79840000D02*
X202740000Y-80250000D01*
X202740000Y-80250000D02*
X202930000Y-80670000D01*
X202930000Y-80670000D02*
X203110000Y-81090000D01*
X203110000Y-81090000D02*
X203290000Y-81500000D01*
X203290000Y-81500000D02*
X203470000Y-81920000D01*
X203470000Y-81920000D02*
X203640000Y-82350000D01*
X203640000Y-82350000D02*
X203810000Y-82770000D01*
X203810000Y-82770000D02*
X203980000Y-83190000D01*
X203980000Y-83190000D02*
X204140000Y-83620000D01*
X204140000Y-83620000D02*
X204300000Y-84050000D01*
X204300000Y-84050000D02*
X204460000Y-84470000D01*
X204460000Y-84470000D02*
X204620000Y-84900000D01*
X204620000Y-84900000D02*
X204770000Y-85330000D01*
X204770000Y-85330000D02*
X204910000Y-85760000D01*
X204910000Y-85760000D02*
X205060000Y-86200000D01*
X205060000Y-86200000D02*
X205200000Y-86630000D01*
X205200000Y-86630000D02*
X205340000Y-87060000D01*
X205340000Y-87060000D02*
X205470000Y-87500000D01*
X205470000Y-87500000D02*
X205600000Y-87940000D01*
X205600000Y-87940000D02*
X205730000Y-88370000D01*
X205730000Y-88370000D02*
X205850000Y-88810000D01*
X205850000Y-88810000D02*
X205980000Y-89250000D01*
X205980000Y-89250000D02*
X206090000Y-89690000D01*
X206090000Y-89690000D02*
X206210000Y-90130000D01*
X206210000Y-90130000D02*
X206320000Y-90580000D01*
X206320000Y-90580000D02*
X206430000Y-91020000D01*
X206430000Y-91020000D02*
X206530000Y-91460000D01*
X206530000Y-91460000D02*
X206630000Y-91910000D01*
X206630000Y-91910000D02*
X206730000Y-92350000D01*
X206730000Y-92350000D02*
X206820000Y-92800000D01*
X206910000Y-93250000D02*
X206820000Y-92800000D01*
X182660000Y-55930000D02*
X180800000Y-54750000D01*
X180800000Y-54750000D02*
X175440000Y-63200000D01*
X175440000Y-63200000D02*
X175390000Y-65530000D01*
X175390000Y-65530000D02*
X172010000Y-63390000D01*
X172010000Y-63390000D02*
X174090000Y-62340000D01*
X174090000Y-62340000D02*
X179450000Y-53900000D01*
X179450000Y-53900000D02*
X177590000Y-52720000D01*
X151000000Y-45000000D02*
X151000000Y-45000000D01*
X151000000Y-45000000D02*
X151280000Y-45010000D01*
X151280000Y-45010000D02*
X151560000Y-45030000D01*
X151560000Y-45030000D02*
X151840000Y-45050000D01*
X151840000Y-45050000D02*
X152120000Y-45070000D01*
X152120000Y-45070000D02*
X152390000Y-45090000D01*
X152390000Y-45090000D02*
X152670000Y-45110000D01*
X152670000Y-45110000D02*
X152950000Y-45130000D01*
X152950000Y-45130000D02*
X153230000Y-45150000D01*
X153230000Y-45150000D02*
X153510000Y-45180000D01*
X153510000Y-45180000D02*
X153790000Y-45200000D01*
X153790000Y-45200000D02*
X154060000Y-45230000D01*
X154060000Y-45230000D02*
X154340000Y-45260000D01*
X154340000Y-45260000D02*
X154620000Y-45290000D01*
X154620000Y-45290000D02*
X154900000Y-45320000D01*
X154900000Y-45320000D02*
X155170000Y-45360000D01*
X155170000Y-45360000D02*
X155450000Y-45390000D01*
X155450000Y-45390000D02*
X155730000Y-45420000D01*
X155730000Y-45420000D02*
X156010000Y-45460000D01*
X156010000Y-45460000D02*
X156280000Y-45500000D01*
X156280000Y-45500000D02*
X156560000Y-45540000D01*
X156560000Y-45540000D02*
X156840000Y-45580000D01*
X156840000Y-45580000D02*
X157110000Y-45620000D01*
X157110000Y-45620000D02*
X157390000Y-45660000D01*
X157390000Y-45660000D02*
X157660000Y-45710000D01*
X157660000Y-45710000D02*
X157940000Y-45750000D01*
X157940000Y-45750000D02*
X158220000Y-45800000D01*
X158220000Y-45800000D02*
X158490000Y-45850000D01*
X158490000Y-45850000D02*
X158770000Y-45900000D01*
X158770000Y-45900000D02*
X159040000Y-45950000D01*
X159040000Y-45950000D02*
X159310000Y-46000000D01*
X159310000Y-46000000D02*
X159590000Y-46050000D01*
X159590000Y-46050000D02*
X159860000Y-46110000D01*
X159860000Y-46110000D02*
X160140000Y-46160000D01*
X160140000Y-46160000D02*
X160410000Y-46220000D01*
X160410000Y-46220000D02*
X160680000Y-46280000D01*
X160680000Y-46280000D02*
X160960000Y-46340000D01*
X160960000Y-46340000D02*
X161230000Y-46400000D01*
X161230000Y-46400000D02*
X161500000Y-46460000D01*
X161500000Y-46460000D02*
X161770000Y-46530000D01*
X161770000Y-46530000D02*
X162050000Y-46590000D01*
X162050000Y-46590000D02*
X162320000Y-46660000D01*
X162320000Y-46660000D02*
X162590000Y-46720000D01*
X162590000Y-46720000D02*
X162860000Y-46790000D01*
X162860000Y-46790000D02*
X163130000Y-46860000D01*
X163130000Y-46860000D02*
X163400000Y-46930000D01*
X163400000Y-46930000D02*
X163670000Y-47000000D01*
X163670000Y-47000000D02*
X163940000Y-47080000D01*
X163940000Y-47080000D02*
X164210000Y-47150000D01*
X164210000Y-47150000D02*
X164480000Y-47230000D01*
X164480000Y-47230000D02*
X164750000Y-47310000D01*
X164750000Y-47310000D02*
X165010000Y-47380000D01*
X165010000Y-47380000D02*
X165280000Y-47460000D01*
X165280000Y-47460000D02*
X165550000Y-47550000D01*
X165550000Y-47550000D02*
X165820000Y-47630000D01*
X165820000Y-47630000D02*
X166080000Y-47710000D01*
X166080000Y-47710000D02*
X166350000Y-47800000D01*
X166350000Y-47800000D02*
X166610000Y-47880000D01*
X166610000Y-47880000D02*
X166880000Y-47970000D01*
X166880000Y-47970000D02*
X167140000Y-48060000D01*
X167140000Y-48060000D02*
X167410000Y-48150000D01*
X167410000Y-48150000D02*
X167670000Y-48240000D01*
X167670000Y-48240000D02*
X167940000Y-48330000D01*
X167940000Y-48330000D02*
X168200000Y-48420000D01*
X168200000Y-48420000D02*
X168460000Y-48520000D01*
X168460000Y-48520000D02*
X168730000Y-48610000D01*
X168730000Y-48610000D02*
X168990000Y-48710000D01*
X168990000Y-48710000D02*
X169250000Y-48810000D01*
X169250000Y-48810000D02*
X169510000Y-48910000D01*
X169510000Y-48910000D02*
X169770000Y-49010000D01*
X169770000Y-49010000D02*
X170030000Y-49110000D01*
X170030000Y-49110000D02*
X170290000Y-49210000D01*
X170290000Y-49210000D02*
X170550000Y-49320000D01*
X170550000Y-49320000D02*
X170810000Y-49420000D01*
X170810000Y-49420000D02*
X171070000Y-49530000D01*
X171070000Y-49530000D02*
X171320000Y-49640000D01*
X171320000Y-49640000D02*
X171580000Y-49750000D01*
X171580000Y-49750000D02*
X171840000Y-49860000D01*
X171840000Y-49860000D02*
X172090000Y-49970000D01*
X172090000Y-49970000D02*
X172350000Y-50080000D01*
X172350000Y-50080000D02*
X172610000Y-50200000D01*
X172610000Y-50200000D02*
X172860000Y-50310000D01*
X172860000Y-50310000D02*
X173110000Y-50430000D01*
X173110000Y-50430000D02*
X173370000Y-50540000D01*
X173370000Y-50540000D02*
X173620000Y-50660000D01*
X173620000Y-50660000D02*
X173870000Y-50780000D01*
X173870000Y-50780000D02*
X174130000Y-50900000D01*
X174130000Y-50900000D02*
X174380000Y-51030000D01*
X174380000Y-51030000D02*
X174630000Y-51150000D01*
X174630000Y-51150000D02*
X174880000Y-51270000D01*
X174880000Y-51270000D02*
X175130000Y-51400000D01*
X175130000Y-51400000D02*
X175380000Y-51530000D01*
X175380000Y-51530000D02*
X175620000Y-51650000D01*
X175620000Y-51650000D02*
X175870000Y-51780000D01*
X175870000Y-51780000D02*
X176120000Y-51910000D01*
X176120000Y-51910000D02*
X176370000Y-52040000D01*
X176370000Y-52040000D02*
X176610000Y-52180000D01*
X176610000Y-52180000D02*
X176860000Y-52310000D01*
X176860000Y-52310000D02*
X177100000Y-52440000D01*
X177100000Y-52440000D02*
X177350000Y-52580000D01*
X177590000Y-52720000D02*
X177350000Y-52580000D01*
X151000000Y-45000000D02*
X148800000Y-45000000D01*
X148800000Y-45000000D02*
X148800000Y-55000000D01*
X148800000Y-55000000D02*
X150000000Y-57000000D01*
X150000000Y-57000000D02*
X146000000Y-57000000D01*
X146000000Y-57000000D02*
X147200000Y-55000000D01*
X147200000Y-55000000D02*
X147200000Y-45000000D01*
X147200000Y-45000000D02*
X145000000Y-45000000D01*
X133490000Y-46700000D02*
X133490000Y-46700000D01*
X133490000Y-46700000D02*
X133600000Y-46670000D01*
X133600000Y-46670000D02*
X133720000Y-46640000D01*
X133720000Y-46640000D02*
X133830000Y-46620000D01*
X133830000Y-46620000D02*
X133940000Y-46590000D01*
X133940000Y-46590000D02*
X134060000Y-46560000D01*
X134060000Y-46560000D02*
X134170000Y-46540000D01*
X134170000Y-46540000D02*
X134280000Y-46510000D01*
X134280000Y-46510000D02*
X134400000Y-46480000D01*
X134400000Y-46480000D02*
X134510000Y-46460000D01*
X134510000Y-46460000D02*
X134620000Y-46430000D01*
X134620000Y-46430000D02*
X134740000Y-46400000D01*
X134740000Y-46400000D02*
X134850000Y-46380000D01*
X134850000Y-46380000D02*
X134960000Y-46350000D01*
X134960000Y-46350000D02*
X135080000Y-46330000D01*
X135080000Y-46330000D02*
X135190000Y-46300000D01*
X135190000Y-46300000D02*
X135310000Y-46280000D01*
X135310000Y-46280000D02*
X135420000Y-46250000D01*
X135420000Y-46250000D02*
X135530000Y-46230000D01*
X135530000Y-46230000D02*
X135650000Y-46200000D01*
X135650000Y-46200000D02*
X135760000Y-46180000D01*
X135760000Y-46180000D02*
X135880000Y-46160000D01*
X135880000Y-46160000D02*
X135990000Y-46130000D01*
X135990000Y-46130000D02*
X136100000Y-46110000D01*
X136100000Y-46110000D02*
X136220000Y-46090000D01*
X136220000Y-46090000D02*
X136330000Y-46070000D01*
X136330000Y-46070000D02*
X136450000Y-46040000D01*
X136450000Y-46040000D02*
X136560000Y-46020000D01*
X136560000Y-46020000D02*
X136680000Y-46000000D01*
X136680000Y-46000000D02*
X136790000Y-45980000D01*
X136790000Y-45980000D02*
X136910000Y-45950000D01*
X136910000Y-45950000D02*
X137020000Y-45930000D01*
X137020000Y-45930000D02*
X137130000Y-45910000D01*
X137130000Y-45910000D02*
X137250000Y-45890000D01*
X137250000Y-45890000D02*
X137360000Y-45870000D01*
X137360000Y-45870000D02*
X137480000Y-45850000D01*
X137480000Y-45850000D02*
X137590000Y-45830000D01*
X137590000Y-45830000D02*
X137710000Y-45810000D01*
X137710000Y-45810000D02*
X137820000Y-45790000D01*
X137820000Y-45790000D02*
X137940000Y-45770000D01*
X137940000Y-45770000D02*
X138050000Y-45750000D01*
X138050000Y-45750000D02*
X138170000Y-45730000D01*
X138170000Y-45730000D02*
X138280000Y-45710000D01*
X138280000Y-45710000D02*
X138400000Y-45690000D01*
X138400000Y-45690000D02*
X138510000Y-45680000D01*
X138510000Y-45680000D02*
X138630000Y-45660000D01*
X138630000Y-45660000D02*
X138740000Y-45640000D01*
X138740000Y-45640000D02*
X138860000Y-45620000D01*
X138860000Y-45620000D02*
X138970000Y-45600000D01*
X138970000Y-45600000D02*
X139090000Y-45590000D01*
X139090000Y-45590000D02*
X139200000Y-45570000D01*
X139200000Y-45570000D02*
X139320000Y-45550000D01*
X139320000Y-45550000D02*
X139430000Y-45540000D01*
X139430000Y-45540000D02*
X139550000Y-45520000D01*
X139550000Y-45520000D02*
X139660000Y-45500000D01*
X139660000Y-45500000D02*
X139780000Y-45490000D01*
X139780000Y-45490000D02*
X139900000Y-45470000D01*
X139900000Y-45470000D02*
X140010000Y-45450000D01*
X140010000Y-45450000D02*
X140130000Y-45440000D01*
X140130000Y-45440000D02*
X140240000Y-45420000D01*
X140240000Y-45420000D02*
X140360000Y-45410000D01*
X140360000Y-45410000D02*
X140470000Y-45390000D01*
X140470000Y-45390000D02*
X140590000Y-45380000D01*
X140590000Y-45380000D02*
X140700000Y-45370000D01*
X140700000Y-45370000D02*
X140820000Y-45350000D01*
X140820000Y-45350000D02*
X140940000Y-45340000D01*
X140940000Y-45340000D02*
X141050000Y-45320000D01*
X141050000Y-45320000D02*
X141170000Y-45310000D01*
X141170000Y-45310000D02*
X141280000Y-45300000D01*
X141280000Y-45300000D02*
X141400000Y-45290000D01*
X141400000Y-45290000D02*
X141520000Y-45270000D01*
X141520000Y-45270000D02*
X141630000Y-45260000D01*
X141630000Y-45260000D02*
X141750000Y-45250000D01*
X141750000Y-45250000D02*
X141860000Y-45240000D01*
X141860000Y-45240000D02*
X141980000Y-45220000D01*
X141980000Y-45220000D02*
X142090000Y-45210000D01*
X142090000Y-45210000D02*
X142210000Y-45200000D01*
X142210000Y-45200000D02*
X142330000Y-45190000D01*
X142330000Y-45190000D02*
X142440000Y-45180000D01*
X142440000Y-45180000D02*
X142560000Y-45170000D01*
X142560000Y-45170000D02*
X142670000Y-45160000D01*
X142670000Y-45160000D02*
X142790000Y-45150000D01*
X142790000Y-45150000D02*
X142910000Y-45140000D01*
X142910000Y-45140000D02*
X143020000Y-45130000D01*
X143020000Y-45130000D02*
X143140000Y-45120000D01*
X143140000Y-45120000D02*
X143260000Y-45110000D01*
X143260000Y-45110000D02*
X143370000Y-45100000D01*
X143370000Y-45100000D02*
X143490000Y-45090000D01*
X143490000Y-45090000D02*
X143600000Y-45080000D01*
X143600000Y-45080000D02*
X143720000Y-45070000D01*
X143720000Y-45070000D02*
X143840000Y-45070000D01*
X143840000Y-45070000D02*
X143950000Y-45060000D01*
X143950000Y-45060000D02*
X144070000Y-45050000D01*
X144070000Y-45050000D02*
X144190000Y-45040000D01*
X144190000Y-45040000D02*
X144300000Y-45040000D01*
X144300000Y-45040000D02*
X144420000Y-45030000D01*
X144420000Y-45030000D02*
X144530000Y-45020000D01*
X144530000Y-45020000D02*
X144650000Y-45010000D01*
X144650000Y-45010000D02*
X144770000Y-45010000D01*
X144770000Y-45010000D02*
X144880000Y-45000000D01*
X145000000Y-45000000D02*
X144880000Y-45000000D01*
X133490000Y-46700000D02*
X131380000Y-47340000D01*
X131380000Y-47340000D02*
X134280000Y-56910000D01*
X134280000Y-56910000D02*
X136010000Y-58480000D01*
X136010000Y-58480000D02*
X132180000Y-59640000D01*
X132180000Y-59640000D02*
X132750000Y-57380000D01*
X132750000Y-57380000D02*
X129850000Y-47800000D01*
X129850000Y-47800000D02*
X127750000Y-48440000D01*
X94380000Y-77900000D02*
X94380000Y-77900000D01*
X94380000Y-77900000D02*
X94590000Y-77490000D01*
X94590000Y-77490000D02*
X94800000Y-77090000D01*
X94800000Y-77090000D02*
X95010000Y-76690000D01*
X95010000Y-76690000D02*
X95230000Y-76280000D01*
X95230000Y-76280000D02*
X95450000Y-75890000D01*
X95450000Y-75890000D02*
X95670000Y-75490000D01*
X95670000Y-75490000D02*
X95890000Y-75090000D01*
X95890000Y-75090000D02*
X96120000Y-74700000D01*
X96120000Y-74700000D02*
X96350000Y-74300000D01*
X96350000Y-74300000D02*
X96590000Y-73910000D01*
X96590000Y-73910000D02*
X96830000Y-73520000D01*
X96830000Y-73520000D02*
X97070000Y-73140000D01*
X97070000Y-73140000D02*
X97310000Y-72750000D01*
X97310000Y-72750000D02*
X97560000Y-72370000D01*
X97560000Y-72370000D02*
X97810000Y-71980000D01*
X97810000Y-71980000D02*
X98060000Y-71600000D01*
X98060000Y-71600000D02*
X98310000Y-71230000D01*
X98310000Y-71230000D02*
X98570000Y-70850000D01*
X98570000Y-70850000D02*
X98830000Y-70480000D01*
X98830000Y-70480000D02*
X99090000Y-70100000D01*
X99090000Y-70100000D02*
X99360000Y-69730000D01*
X99360000Y-69730000D02*
X99630000Y-69370000D01*
X99630000Y-69370000D02*
X99900000Y-69000000D01*
X99900000Y-69000000D02*
X100180000Y-68640000D01*
X100180000Y-68640000D02*
X100450000Y-68270000D01*
X100450000Y-68270000D02*
X100730000Y-67910000D01*
X100730000Y-67910000D02*
X101020000Y-67560000D01*
X101020000Y-67560000D02*
X101300000Y-67200000D01*
X101300000Y-67200000D02*
X101590000Y-66850000D01*
X101590000Y-66850000D02*
X101880000Y-66500000D01*
X101880000Y-66500000D02*
X102170000Y-66150000D01*
X102170000Y-66150000D02*
X102470000Y-65800000D01*
X102470000Y-65800000D02*
X102770000Y-65460000D01*
X102770000Y-65460000D02*
X103070000Y-65110000D01*
X103070000Y-65110000D02*
X103380000Y-64770000D01*
X103380000Y-64770000D02*
X103680000Y-64440000D01*
X103680000Y-64440000D02*
X103990000Y-64100000D01*
X103990000Y-64100000D02*
X104300000Y-63770000D01*
X104300000Y-63770000D02*
X104620000Y-63440000D01*
X104620000Y-63440000D02*
X104930000Y-63110000D01*
X104930000Y-63110000D02*
X105250000Y-62780000D01*
X105250000Y-62780000D02*
X105570000Y-62460000D01*
X105570000Y-62460000D02*
X105900000Y-62140000D01*
X105900000Y-62140000D02*
X106220000Y-61820000D01*
X106220000Y-61820000D02*
X106550000Y-61510000D01*
X106550000Y-61510000D02*
X106880000Y-61190000D01*
X106880000Y-61190000D02*
X107220000Y-60880000D01*
X107220000Y-60880000D02*
X107550000Y-60570000D01*
X107550000Y-60570000D02*
X107890000Y-60270000D01*
X107890000Y-60270000D02*
X108230000Y-59970000D01*
X108230000Y-59970000D02*
X108580000Y-59660000D01*
X108580000Y-59660000D02*
X108920000Y-59370000D01*
X108920000Y-59370000D02*
X109270000Y-59070000D01*
X109270000Y-59070000D02*
X109620000Y-58780000D01*
X109620000Y-58780000D02*
X109970000Y-58490000D01*
X109970000Y-58490000D02*
X110320000Y-58200000D01*
X110320000Y-58200000D02*
X110680000Y-57920000D01*
X110680000Y-57920000D02*
X111040000Y-57640000D01*
X111040000Y-57640000D02*
X111400000Y-57360000D01*
X111400000Y-57360000D02*
X111760000Y-57080000D01*
X111760000Y-57080000D02*
X112130000Y-56810000D01*
X112130000Y-56810000D02*
X112490000Y-56540000D01*
X112490000Y-56540000D02*
X112860000Y-56270000D01*
X112860000Y-56270000D02*
X113230000Y-56000000D01*
X113230000Y-56000000D02*
X113610000Y-55740000D01*
X113610000Y-55740000D02*
X113980000Y-55480000D01*
X113980000Y-55480000D02*
X114360000Y-55220000D01*
X114360000Y-55220000D02*
X114740000Y-54970000D01*
X114740000Y-54970000D02*
X115120000Y-54720000D01*
X115120000Y-54720000D02*
X115500000Y-54470000D01*
X115500000Y-54470000D02*
X115880000Y-54220000D01*
X115880000Y-54220000D02*
X116270000Y-53980000D01*
X116270000Y-53980000D02*
X116660000Y-53740000D01*
X116660000Y-53740000D02*
X117050000Y-53510000D01*
X117050000Y-53510000D02*
X117440000Y-53270000D01*
X117440000Y-53270000D02*
X117830000Y-53040000D01*
X117830000Y-53040000D02*
X118230000Y-52820000D01*
X118230000Y-52820000D02*
X118630000Y-52590000D01*
X118630000Y-52590000D02*
X119030000Y-52370000D01*
X119030000Y-52370000D02*
X119430000Y-52150000D01*
X119430000Y-52150000D02*
X119830000Y-51940000D01*
X119830000Y-51940000D02*
X120230000Y-51720000D01*
X120230000Y-51720000D02*
X120640000Y-51510000D01*
X120640000Y-51510000D02*
X121040000Y-51310000D01*
X121040000Y-51310000D02*
X121450000Y-51110000D01*
X121450000Y-51110000D02*
X121860000Y-50910000D01*
X121860000Y-50910000D02*
X122270000Y-50710000D01*
X122270000Y-50710000D02*
X122680000Y-50510000D01*
X122680000Y-50510000D02*
X123100000Y-50320000D01*
X123100000Y-50320000D02*
X123510000Y-50140000D01*
X123510000Y-50140000D02*
X123930000Y-49950000D01*
X123930000Y-49950000D02*
X124350000Y-49770000D01*
X124350000Y-49770000D02*
X124770000Y-49590000D01*
X124770000Y-49590000D02*
X125190000Y-49420000D01*
X125190000Y-49420000D02*
X125610000Y-49250000D01*
X125610000Y-49250000D02*
X126040000Y-49080000D01*
X126040000Y-49080000D02*
X126460000Y-48910000D01*
X126460000Y-48910000D02*
X126890000Y-48750000D01*
X126890000Y-48750000D02*
X127320000Y-48590000D01*
X127750000Y-48440000D02*
X127320000Y-48590000D01*
X94380000Y-77900000D02*
X93490000Y-79910000D01*
X93490000Y-79910000D02*
X102630000Y-83970000D01*
X102630000Y-83970000D02*
X104940000Y-83690000D01*
X104940000Y-83690000D02*
X103320000Y-87340000D01*
X103320000Y-87340000D02*
X101980000Y-85430000D01*
X101980000Y-85430000D02*
X92840000Y-81370000D01*
X92840000Y-81370000D02*
X91950000Y-83390000D01*
X88000000Y-102000000D02*
X88000000Y-102000000D01*
X88000000Y-102000000D02*
X88010000Y-101810000D01*
X88010000Y-101810000D02*
X88020000Y-101620000D01*
X88020000Y-101620000D02*
X88030000Y-101430000D01*
X88030000Y-101430000D02*
X88040000Y-101240000D01*
X88040000Y-101240000D02*
X88060000Y-101050000D01*
X88060000Y-101050000D02*
X88070000Y-100860000D01*
X88070000Y-100860000D02*
X88080000Y-100660000D01*
X88080000Y-100660000D02*
X88100000Y-100470000D01*
X88100000Y-100470000D02*
X88110000Y-100280000D01*
X88110000Y-100280000D02*
X88130000Y-100090000D01*
X88130000Y-100090000D02*
X88140000Y-99900000D01*
X88140000Y-99900000D02*
X88160000Y-99710000D01*
X88160000Y-99710000D02*
X88180000Y-99520000D01*
X88180000Y-99520000D02*
X88190000Y-99330000D01*
X88190000Y-99330000D02*
X88210000Y-99140000D01*
X88210000Y-99140000D02*
X88230000Y-98950000D01*
X88230000Y-98950000D02*
X88250000Y-98760000D01*
X88250000Y-98760000D02*
X88270000Y-98570000D01*
X88270000Y-98570000D02*
X88290000Y-98380000D01*
X88290000Y-98380000D02*
X88310000Y-98190000D01*
X88310000Y-98190000D02*
X88330000Y-98000000D01*
X88330000Y-98000000D02*
X88360000Y-97810000D01*
X88360000Y-97810000D02*
X88380000Y-97620000D01*
X88380000Y-97620000D02*
X88400000Y-97430000D01*
X88400000Y-97430000D02*
X88430000Y-97240000D01*
X88430000Y-97240000D02*
X88450000Y-97050000D01*
X88450000Y-97050000D02*
X88480000Y-96860000D01*
X88480000Y-96860000D02*
X88500000Y-96680000D01*
X88500000Y-96680000D02*
X88530000Y-96490000D01*
X88530000Y-96490000D02*
X88560000Y-96300000D01*
X88560000Y-96300000D02*
X88590000Y-96110000D01*
X88590000Y-96110000D02*
X88620000Y-95920000D01*
X88620000Y-95920000D02*
X88640000Y-95730000D01*
X88640000Y-95730000D02*
X88670000Y-95540000D01*
X88670000Y-95540000D02*
X88700000Y-95350000D01*
X88700000Y-95350000D02*
X88740000Y-95160000D01*
X88740000Y-95160000D02*
X88770000Y-94980000D01*
X88770000Y-94980000D02*
X88800000Y-94790000D01*
X88800000Y-94790000D02*
X88830000Y-94600000D01*
X88830000Y-94600000D02*
X88870000Y-94410000D01*
X88870000Y-94410000D02*
X88900000Y-94220000D01*
X88900000Y-94220000D02*
X88930000Y-94030000D01*
X88930000Y-94030000D02*
X88970000Y-93850000D01*
X88970000Y-93850000D02*
X89010000Y-93660000D01*
X89010000Y-93660000D02*
X89040000Y-93470000D01*
X89040000Y-93470000D02*
X89080000Y-93280000D01*
X89080000Y-93280000D02*
X89120000Y-93100000D01*
X89120000Y-93100000D02*
X89150000Y-92910000D01*
X89150000Y-92910000D02*
X89190000Y-92720000D01*
X89190000Y-92720000D02*
X89230000Y-92540000D01*
X89230000Y-92540000D02*
X89270000Y-92350000D01*
X89270000Y-92350000D02*
X89310000Y-92160000D01*
X89310000Y-92160000D02*
X89350000Y-91980000D01*
X89350000Y-91980000D02*
X89400000Y-91790000D01*
X89400000Y-91790000D02*
X89440000Y-91600000D01*
X89440000Y-91600000D02*
X89480000Y-91420000D01*
X89480000Y-91420000D02*
X89520000Y-91230000D01*
X89520000Y-91230000D02*
X89570000Y-91040000D01*
X89570000Y-91040000D02*
X89610000Y-90860000D01*
X89610000Y-90860000D02*
X89660000Y-90670000D01*
X89660000Y-90670000D02*
X89700000Y-90490000D01*
X89700000Y-90490000D02*
X89750000Y-90300000D01*
X89750000Y-90300000D02*
X89800000Y-90120000D01*
X89800000Y-90120000D02*
X89850000Y-89930000D01*
X89850000Y-89930000D02*
X89890000Y-89750000D01*
X89890000Y-89750000D02*
X89940000Y-89560000D01*
X89940000Y-89560000D02*
X89990000Y-89380000D01*
X89990000Y-89380000D02*
X90040000Y-89190000D01*
X90040000Y-89190000D02*
X90090000Y-89010000D01*
X90090000Y-89010000D02*
X90140000Y-88820000D01*
X90140000Y-88820000D02*
X90200000Y-88640000D01*
X90200000Y-88640000D02*
X90250000Y-88460000D01*
X90250000Y-88460000D02*
X90300000Y-88270000D01*
X90300000Y-88270000D02*
X90350000Y-88090000D01*
X90350000Y-88090000D02*
X90410000Y-87910000D01*
X90410000Y-87910000D02*
X90460000Y-87720000D01*
X90460000Y-87720000D02*
X90520000Y-87540000D01*
X90520000Y-87540000D02*
X90570000Y-87360000D01*
X90570000Y-87360000D02*
X90630000Y-87170000D01*
X90630000Y-87170000D02*
X90690000Y-86990000D01*
X90690000Y-86990000D02*
X90740000Y-86810000D01*
X90740000Y-86810000D02*
X90800000Y-86630000D01*
X90800000Y-86630000D02*
X90860000Y-86450000D01*
X90860000Y-86450000D02*
X90920000Y-86260000D01*
X90920000Y-86260000D02*
X90980000Y-86080000D01*
X90980000Y-86080000D02*
X91040000Y-85900000D01*
X91040000Y-85900000D02*
X91100000Y-85720000D01*
X91100000Y-85720000D02*
X91160000Y-85540000D01*
X91160000Y-85540000D02*
X91230000Y-85360000D01*
X91230000Y-85360000D02*
X91290000Y-85180000D01*
X91290000Y-85180000D02*
X91350000Y-85000000D01*
X91350000Y-85000000D02*
X91420000Y-84820000D01*
X91420000Y-84820000D02*
X91480000Y-84640000D01*
X91480000Y-84640000D02*
X91550000Y-84460000D01*
X91550000Y-84460000D02*
X91610000Y-84280000D01*
X91610000Y-84280000D02*
X91680000Y-84100000D01*
X91680000Y-84100000D02*
X91740000Y-83920000D01*
X91740000Y-83920000D02*
X91810000Y-83740000D01*
X91810000Y-83740000D02*
X91880000Y-83560000D01*
X91950000Y-83390000D02*
X91880000Y-83560000D01*
X88000000Y-102000000D02*
X88000000Y-104200000D01*
X88000000Y-104200000D02*
X98000000Y-104200000D01*
X98000000Y-104200000D02*
X100000000Y-103000000D01*
X100000000Y-103000000D02*
X100000000Y-107000000D01*
X100000000Y-107000000D02*
X98000000Y-105800000D01*
X98000000Y-105800000D02*
X88000000Y-105800000D01*
X88000000Y-105800000D02*
X88000000Y-108000000D01*
X100610000Y-141930000D02*
X100610000Y-141930000D01*
X100610000Y-141930000D02*
X100380000Y-141640000D01*
X100380000Y-141640000D02*
X100160000Y-141350000D01*
X100160000Y-141350000D02*
X99940000Y-141050000D01*
X99940000Y-141050000D02*
X99720000Y-140760000D01*
X99720000Y-140760000D02*
X99500000Y-140460000D01*
X99500000Y-140460000D02*
X99290000Y-140170000D01*
X99290000Y-140170000D02*
X99070000Y-139870000D01*
X99070000Y-139870000D02*
X98860000Y-139570000D01*
X98860000Y-139570000D02*
X98650000Y-139260000D01*
X98650000Y-139260000D02*
X98440000Y-138960000D01*
X98440000Y-138960000D02*
X98230000Y-138660000D01*
X98230000Y-138660000D02*
X98030000Y-138350000D01*
X98030000Y-138350000D02*
X97820000Y-138050000D01*
X97820000Y-138050000D02*
X97620000Y-137740000D01*
X97620000Y-137740000D02*
X97420000Y-137430000D01*
X97420000Y-137430000D02*
X97230000Y-137120000D01*
X97230000Y-137120000D02*
X97030000Y-136810000D01*
X97030000Y-136810000D02*
X96840000Y-136500000D01*
X96840000Y-136500000D02*
X96650000Y-136180000D01*
X96650000Y-136180000D02*
X96460000Y-135870000D01*
X96460000Y-135870000D02*
X96270000Y-135550000D01*
X96270000Y-135550000D02*
X96080000Y-135230000D01*
X96080000Y-135230000D02*
X95900000Y-134920000D01*
X95900000Y-134920000D02*
X95720000Y-134600000D01*
X95720000Y-134600000D02*
X95540000Y-134280000D01*
X95540000Y-134280000D02*
X95360000Y-133950000D01*
X95360000Y-133950000D02*
X95180000Y-133630000D01*
X95180000Y-133630000D02*
X95010000Y-133310000D01*
X95010000Y-133310000D02*
X94830000Y-132980000D01*
X94830000Y-132980000D02*
X94660000Y-132660000D01*
X94660000Y-132660000D02*
X94500000Y-132330000D01*
X94500000Y-132330000D02*
X94330000Y-132000000D01*
X94330000Y-132000000D02*
X94170000Y-131670000D01*
X94170000Y-131670000D02*
X94000000Y-131340000D01*
X94000000Y-131340000D02*
X93840000Y-131010000D01*
X93840000Y-131010000D02*
X93680000Y-130680000D01*
X93680000Y-130680000D02*
X93530000Y-130350000D01*
X93530000Y-130350000D02*
X93370000Y-130010000D01*
X93370000Y-130010000D02*
X93220000Y-129680000D01*
X93220000Y-129680000D02*
X93070000Y-129340000D01*
X93070000Y-129340000D02*
X92920000Y-129010000D01*
X92920000Y-129010000D02*
X92780000Y-128670000D01*
X92780000Y-128670000D02*
X92630000Y-128330000D01*
X92630000Y-128330000D02*
X92490000Y-127990000D01*
X92490000Y-127990000D02*
X92350000Y-127650000D01*
X92350000Y-127650000D02*
X92220000Y-127310000D01*
X92220000Y-127310000D02*
X92080000Y-126970000D01*
X92080000Y-126970000D02*
X91950000Y-126630000D01*
X91950000Y-126630000D02*
X91820000Y-126280000D01*
X91820000Y-126280000D02*
X91690000Y-125940000D01*
X91690000Y-125940000D02*
X91560000Y-125590000D01*
X91560000Y-125590000D02*
X91430000Y-125250000D01*
X91430000Y-125250000D02*
X91310000Y-124900000D01*
X91310000Y-124900000D02*
X91190000Y-124550000D01*
X91190000Y-124550000D02*
X91070000Y-124210000D01*
X91070000Y-124210000D02*
X90960000Y-123860000D01*
X90960000Y-123860000D02*
X90840000Y-123510000D01*
X90840000Y-123510000D02*
X90730000Y-123160000D01*
X90730000Y-123160000D02*
X90620000Y-122810000D01*
X90620000Y-122810000D02*
X90510000Y-122450000D01*
X90510000Y-122450000D02*
X90410000Y-122100000D01*
X90410000Y-122100000D02*
X90300000Y-121750000D01*
X90300000Y-121750000D02*
X90200000Y-121400000D01*
X90200000Y-121400000D02*
X90100000Y-121040000D01*
X90100000Y-121040000D02*
X90000000Y-120690000D01*
X90000000Y-120690000D02*
X89910000Y-120330000D01*
X89910000Y-120330000D02*
X89820000Y-119980000D01*
X89820000Y-119980000D02*
X89730000Y-119620000D01*
X89730000Y-119620000D02*
X89640000Y-119260000D01*
X89640000Y-119260000D02*
X89550000Y-118910000D01*
X89550000Y-118910000D02*
X89470000Y-118550000D01*
X89470000Y-118550000D02*
X89390000Y-118190000D01*
X89390000Y-118190000D02*
X89310000Y-117830000D01*
X89310000Y-117830000D02*
X89230000Y-117470000D01*
X89230000Y-117470000D02*
X89150000Y-117110000D01*
X89150000Y-117110000D02*
X89080000Y-116750000D01*
X89080000Y-116750000D02*
X89010000Y-116390000D01*
X89010000Y-116390000D02*
X88940000Y-116030000D01*
X88940000Y-116030000D02*
X88870000Y-115670000D01*
X88870000Y-115670000D02*
X88810000Y-115300000D01*
X88810000Y-115300000D02*
X88750000Y-114940000D01*
X88750000Y-114940000D02*
X88690000Y-114580000D01*
X88690000Y-114580000D02*
X88630000Y-114220000D01*
X88630000Y-114220000D02*
X88580000Y-113850000D01*
X88580000Y-113850000D02*
X88520000Y-113490000D01*
X88520000Y-113490000D02*
X88470000Y-113120000D01*
X88470000Y-113120000D02*
X88420000Y-112760000D01*
X88420000Y-112760000D02*
X88380000Y-112400000D01*
X88380000Y-112400000D02*
X88330000Y-112030000D01*
X88330000Y-112030000D02*
X88290000Y-111660000D01*
X88290000Y-111660000D02*
X88250000Y-111300000D01*
X88250000Y-111300000D02*
X88210000Y-110930000D01*
X88210000Y-110930000D02*
X88180000Y-110570000D01*
X88180000Y-110570000D02*
X88150000Y-110200000D01*
X88150000Y-110200000D02*
X88110000Y-109830000D01*
X88110000Y-109830000D02*
X88090000Y-109470000D01*
X88090000Y-109470000D02*
X88060000Y-109100000D01*
X88060000Y-109100000D02*
X88040000Y-108730000D01*
X88040000Y-108730000D02*
X88010000Y-108370000D01*
X88000000Y-108000000D02*
X88010000Y-108370000D01*
X100610000Y-141930000D02*
X102050000Y-143590000D01*
X102050000Y-143590000D02*
X109620000Y-137060000D01*
X109620000Y-137060000D02*
X110350000Y-134840000D01*
X110350000Y-134840000D02*
X112970000Y-137870000D01*
X112970000Y-137870000D02*
X110670000Y-138270000D01*
X110670000Y-138270000D02*
X103100000Y-144800000D01*
X103100000Y-144800000D02*
X104530000Y-146470000D01*
M02*
