G04 #@! TF.GenerationSoftware,KiCad,Pcbnew,(5.0.1)-4*
G04 #@! TF.CreationDate,2018-11-24T23:14:57-05:00*
G04 #@! TF.ProjectId,geodesic,67656F64657369632E6B696361645F70,rev?*
G04 #@! TF.SameCoordinates,Original*
G04 #@! TF.FileFunction,Soldermask,Top*
G04 #@! TF.FilePolarity,Negative*
%FSLAX46Y46*%
G04 Gerber Fmt 4.6, Leading zero omitted, Abs format (unit mm)*
G04 Created by KiCad (PCBNEW (5.0.1)-4) date 2018-11-24 11:14:57 PM*
%MOMM*%
%LPD*%
G01*
G04 APERTURE LIST*
%ADD10C,0.100000*%
G04 APERTURE END LIST*
D10*
G36*
X150851000Y-165051000D02*
X148749000Y-165051000D01*
X148749000Y-160949000D01*
X150851000Y-160949000D01*
X150851000Y-165051000D01*
X150851000Y-165051000D01*
G37*
G36*
X147251000Y-165051000D02*
X145149000Y-165051000D01*
X145149000Y-154949000D01*
X147251000Y-154949000D01*
X147251000Y-165051000D01*
X147251000Y-165051000D01*
G37*
G36*
X150851000Y-159051000D02*
X148749000Y-159051000D01*
X148749000Y-154949000D01*
X150851000Y-154949000D01*
X150851000Y-159051000D01*
X150851000Y-159051000D01*
G37*
G36*
X124901000Y-155901000D02*
X123099000Y-155901000D01*
X123099000Y-154099000D01*
X124901000Y-154099000D01*
X124901000Y-155901000D01*
X124901000Y-155901000D01*
G37*
G36*
X126650442Y-154105518D02*
X126716627Y-154112037D01*
X126829853Y-154146384D01*
X126886467Y-154163557D01*
X127025087Y-154237652D01*
X127042991Y-154247222D01*
X127078729Y-154276552D01*
X127180186Y-154359814D01*
X127263448Y-154461271D01*
X127292778Y-154497009D01*
X127292779Y-154497011D01*
X127376443Y-154653533D01*
X127376443Y-154653534D01*
X127427963Y-154823373D01*
X127445359Y-155000000D01*
X127427963Y-155176627D01*
X127393616Y-155289853D01*
X127376443Y-155346467D01*
X127302348Y-155485087D01*
X127292778Y-155502991D01*
X127263448Y-155538729D01*
X127180186Y-155640186D01*
X127078729Y-155723448D01*
X127042991Y-155752778D01*
X127042989Y-155752779D01*
X126886467Y-155836443D01*
X126829853Y-155853616D01*
X126716627Y-155887963D01*
X126650442Y-155894482D01*
X126584260Y-155901000D01*
X126495740Y-155901000D01*
X126429558Y-155894482D01*
X126363373Y-155887963D01*
X126250147Y-155853616D01*
X126193533Y-155836443D01*
X126037011Y-155752779D01*
X126037009Y-155752778D01*
X126001271Y-155723448D01*
X125899814Y-155640186D01*
X125816552Y-155538729D01*
X125787222Y-155502991D01*
X125777652Y-155485087D01*
X125703557Y-155346467D01*
X125686384Y-155289853D01*
X125652037Y-155176627D01*
X125634641Y-155000000D01*
X125652037Y-154823373D01*
X125703557Y-154653534D01*
X125703557Y-154653533D01*
X125787221Y-154497011D01*
X125787222Y-154497009D01*
X125816552Y-154461271D01*
X125899814Y-154359814D01*
X126001271Y-154276552D01*
X126037009Y-154247222D01*
X126054913Y-154237652D01*
X126193533Y-154163557D01*
X126250147Y-154146384D01*
X126363373Y-154112037D01*
X126429558Y-154105518D01*
X126495740Y-154099000D01*
X126584260Y-154099000D01*
X126650442Y-154105518D01*
X126650442Y-154105518D01*
G37*
G36*
X129190442Y-154105518D02*
X129256627Y-154112037D01*
X129369853Y-154146384D01*
X129426467Y-154163557D01*
X129565087Y-154237652D01*
X129582991Y-154247222D01*
X129618729Y-154276552D01*
X129720186Y-154359814D01*
X129803448Y-154461271D01*
X129832778Y-154497009D01*
X129832779Y-154497011D01*
X129916443Y-154653533D01*
X129916443Y-154653534D01*
X129967963Y-154823373D01*
X129985359Y-155000000D01*
X129967963Y-155176627D01*
X129933616Y-155289853D01*
X129916443Y-155346467D01*
X129842348Y-155485087D01*
X129832778Y-155502991D01*
X129803448Y-155538729D01*
X129720186Y-155640186D01*
X129618729Y-155723448D01*
X129582991Y-155752778D01*
X129582989Y-155752779D01*
X129426467Y-155836443D01*
X129369853Y-155853616D01*
X129256627Y-155887963D01*
X129190442Y-155894482D01*
X129124260Y-155901000D01*
X129035740Y-155901000D01*
X128969558Y-155894482D01*
X128903373Y-155887963D01*
X128790147Y-155853616D01*
X128733533Y-155836443D01*
X128577011Y-155752779D01*
X128577009Y-155752778D01*
X128541271Y-155723448D01*
X128439814Y-155640186D01*
X128356552Y-155538729D01*
X128327222Y-155502991D01*
X128317652Y-155485087D01*
X128243557Y-155346467D01*
X128226384Y-155289853D01*
X128192037Y-155176627D01*
X128174641Y-155000000D01*
X128192037Y-154823373D01*
X128243557Y-154653534D01*
X128243557Y-154653533D01*
X128327221Y-154497011D01*
X128327222Y-154497009D01*
X128356552Y-154461271D01*
X128439814Y-154359814D01*
X128541271Y-154276552D01*
X128577009Y-154247222D01*
X128594913Y-154237652D01*
X128733533Y-154163557D01*
X128790147Y-154146384D01*
X128903373Y-154112037D01*
X128969558Y-154105518D01*
X129035740Y-154099000D01*
X129124260Y-154099000D01*
X129190442Y-154105518D01*
X129190442Y-154105518D01*
G37*
G36*
X136810442Y-154105518D02*
X136876627Y-154112037D01*
X136989853Y-154146384D01*
X137046467Y-154163557D01*
X137185087Y-154237652D01*
X137202991Y-154247222D01*
X137238729Y-154276552D01*
X137340186Y-154359814D01*
X137423448Y-154461271D01*
X137452778Y-154497009D01*
X137452779Y-154497011D01*
X137536443Y-154653533D01*
X137536443Y-154653534D01*
X137587963Y-154823373D01*
X137605359Y-155000000D01*
X137587963Y-155176627D01*
X137553616Y-155289853D01*
X137536443Y-155346467D01*
X137462348Y-155485087D01*
X137452778Y-155502991D01*
X137423448Y-155538729D01*
X137340186Y-155640186D01*
X137238729Y-155723448D01*
X137202991Y-155752778D01*
X137202989Y-155752779D01*
X137046467Y-155836443D01*
X136989853Y-155853616D01*
X136876627Y-155887963D01*
X136810442Y-155894482D01*
X136744260Y-155901000D01*
X136655740Y-155901000D01*
X136589558Y-155894482D01*
X136523373Y-155887963D01*
X136410147Y-155853616D01*
X136353533Y-155836443D01*
X136197011Y-155752779D01*
X136197009Y-155752778D01*
X136161271Y-155723448D01*
X136059814Y-155640186D01*
X135976552Y-155538729D01*
X135947222Y-155502991D01*
X135937652Y-155485087D01*
X135863557Y-155346467D01*
X135846384Y-155289853D01*
X135812037Y-155176627D01*
X135794641Y-155000000D01*
X135812037Y-154823373D01*
X135863557Y-154653534D01*
X135863557Y-154653533D01*
X135947221Y-154497011D01*
X135947222Y-154497009D01*
X135976552Y-154461271D01*
X136059814Y-154359814D01*
X136161271Y-154276552D01*
X136197009Y-154247222D01*
X136214913Y-154237652D01*
X136353533Y-154163557D01*
X136410147Y-154146384D01*
X136523373Y-154112037D01*
X136589558Y-154105518D01*
X136655740Y-154099000D01*
X136744260Y-154099000D01*
X136810442Y-154105518D01*
X136810442Y-154105518D01*
G37*
G36*
X131730442Y-154105518D02*
X131796627Y-154112037D01*
X131909853Y-154146384D01*
X131966467Y-154163557D01*
X132105087Y-154237652D01*
X132122991Y-154247222D01*
X132158729Y-154276552D01*
X132260186Y-154359814D01*
X132343448Y-154461271D01*
X132372778Y-154497009D01*
X132372779Y-154497011D01*
X132456443Y-154653533D01*
X132456443Y-154653534D01*
X132507963Y-154823373D01*
X132525359Y-155000000D01*
X132507963Y-155176627D01*
X132473616Y-155289853D01*
X132456443Y-155346467D01*
X132382348Y-155485087D01*
X132372778Y-155502991D01*
X132343448Y-155538729D01*
X132260186Y-155640186D01*
X132158729Y-155723448D01*
X132122991Y-155752778D01*
X132122989Y-155752779D01*
X131966467Y-155836443D01*
X131909853Y-155853616D01*
X131796627Y-155887963D01*
X131730442Y-155894482D01*
X131664260Y-155901000D01*
X131575740Y-155901000D01*
X131509558Y-155894482D01*
X131443373Y-155887963D01*
X131330147Y-155853616D01*
X131273533Y-155836443D01*
X131117011Y-155752779D01*
X131117009Y-155752778D01*
X131081271Y-155723448D01*
X130979814Y-155640186D01*
X130896552Y-155538729D01*
X130867222Y-155502991D01*
X130857652Y-155485087D01*
X130783557Y-155346467D01*
X130766384Y-155289853D01*
X130732037Y-155176627D01*
X130714641Y-155000000D01*
X130732037Y-154823373D01*
X130783557Y-154653534D01*
X130783557Y-154653533D01*
X130867221Y-154497011D01*
X130867222Y-154497009D01*
X130896552Y-154461271D01*
X130979814Y-154359814D01*
X131081271Y-154276552D01*
X131117009Y-154247222D01*
X131134913Y-154237652D01*
X131273533Y-154163557D01*
X131330147Y-154146384D01*
X131443373Y-154112037D01*
X131509558Y-154105518D01*
X131575740Y-154099000D01*
X131664260Y-154099000D01*
X131730442Y-154105518D01*
X131730442Y-154105518D01*
G37*
G36*
X134270442Y-154105518D02*
X134336627Y-154112037D01*
X134449853Y-154146384D01*
X134506467Y-154163557D01*
X134645087Y-154237652D01*
X134662991Y-154247222D01*
X134698729Y-154276552D01*
X134800186Y-154359814D01*
X134883448Y-154461271D01*
X134912778Y-154497009D01*
X134912779Y-154497011D01*
X134996443Y-154653533D01*
X134996443Y-154653534D01*
X135047963Y-154823373D01*
X135065359Y-155000000D01*
X135047963Y-155176627D01*
X135013616Y-155289853D01*
X134996443Y-155346467D01*
X134922348Y-155485087D01*
X134912778Y-155502991D01*
X134883448Y-155538729D01*
X134800186Y-155640186D01*
X134698729Y-155723448D01*
X134662991Y-155752778D01*
X134662989Y-155752779D01*
X134506467Y-155836443D01*
X134449853Y-155853616D01*
X134336627Y-155887963D01*
X134270442Y-155894482D01*
X134204260Y-155901000D01*
X134115740Y-155901000D01*
X134049558Y-155894482D01*
X133983373Y-155887963D01*
X133870147Y-155853616D01*
X133813533Y-155836443D01*
X133657011Y-155752779D01*
X133657009Y-155752778D01*
X133621271Y-155723448D01*
X133519814Y-155640186D01*
X133436552Y-155538729D01*
X133407222Y-155502991D01*
X133397652Y-155485087D01*
X133323557Y-155346467D01*
X133306384Y-155289853D01*
X133272037Y-155176627D01*
X133254641Y-155000000D01*
X133272037Y-154823373D01*
X133323557Y-154653534D01*
X133323557Y-154653533D01*
X133407221Y-154497011D01*
X133407222Y-154497009D01*
X133436552Y-154461271D01*
X133519814Y-154359814D01*
X133621271Y-154276552D01*
X133657009Y-154247222D01*
X133674913Y-154237652D01*
X133813533Y-154163557D01*
X133870147Y-154146384D01*
X133983373Y-154112037D01*
X134049558Y-154105518D01*
X134115740Y-154099000D01*
X134204260Y-154099000D01*
X134270442Y-154105518D01*
X134270442Y-154105518D01*
G37*
G36*
X124588677Y-151428465D02*
X124626364Y-151439898D01*
X124661103Y-151458466D01*
X124691548Y-151483452D01*
X124716534Y-151513897D01*
X124735102Y-151548636D01*
X124746535Y-151586323D01*
X124751000Y-151631661D01*
X124751000Y-152468339D01*
X124746535Y-152513677D01*
X124735102Y-152551364D01*
X124716534Y-152586103D01*
X124691548Y-152616548D01*
X124661103Y-152641534D01*
X124626364Y-152660102D01*
X124588677Y-152671535D01*
X124543339Y-152676000D01*
X123456661Y-152676000D01*
X123411323Y-152671535D01*
X123373636Y-152660102D01*
X123338897Y-152641534D01*
X123308452Y-152616548D01*
X123283466Y-152586103D01*
X123264898Y-152551364D01*
X123253465Y-152513677D01*
X123249000Y-152468339D01*
X123249000Y-151631661D01*
X123253465Y-151586323D01*
X123264898Y-151548636D01*
X123283466Y-151513897D01*
X123308452Y-151483452D01*
X123338897Y-151458466D01*
X123373636Y-151439898D01*
X123411323Y-151428465D01*
X123456661Y-151424000D01*
X124543339Y-151424000D01*
X124588677Y-151428465D01*
X124588677Y-151428465D01*
G37*
G36*
X165444579Y-148094112D02*
X165570544Y-148119168D01*
X165717991Y-148180243D01*
X165926512Y-148266615D01*
X166246880Y-148480678D01*
X166519322Y-148753120D01*
X166733385Y-149073488D01*
X166819757Y-149282009D01*
X166872138Y-149408466D01*
X166880832Y-149429457D01*
X166956000Y-149807349D01*
X166956000Y-150192651D01*
X166905888Y-150444579D01*
X166880832Y-150570544D01*
X166857861Y-150626000D01*
X166733385Y-150926512D01*
X166519322Y-151246880D01*
X166246880Y-151519322D01*
X165926512Y-151733385D01*
X165717991Y-151819757D01*
X165570544Y-151880832D01*
X165444579Y-151905888D01*
X165192651Y-151956000D01*
X164807349Y-151956000D01*
X164555421Y-151905888D01*
X164429456Y-151880832D01*
X164282009Y-151819757D01*
X164073488Y-151733385D01*
X163753120Y-151519322D01*
X163480678Y-151246880D01*
X163266615Y-150926512D01*
X163142139Y-150626000D01*
X163119168Y-150570544D01*
X163094112Y-150444579D01*
X163044000Y-150192651D01*
X163044000Y-149807349D01*
X163119168Y-149429457D01*
X163127863Y-149408466D01*
X163180243Y-149282009D01*
X163266615Y-149073488D01*
X163480678Y-148753120D01*
X163753120Y-148480678D01*
X164073488Y-148266615D01*
X164282009Y-148180243D01*
X164429456Y-148119168D01*
X164555421Y-148094112D01*
X164807349Y-148044000D01*
X165192651Y-148044000D01*
X165444579Y-148094112D01*
X165444579Y-148094112D01*
G37*
G36*
X171794579Y-148094112D02*
X171920544Y-148119168D01*
X172067991Y-148180243D01*
X172276512Y-148266615D01*
X172596880Y-148480678D01*
X172869322Y-148753120D01*
X173083385Y-149073488D01*
X173169757Y-149282009D01*
X173222138Y-149408466D01*
X173230832Y-149429457D01*
X173306000Y-149807349D01*
X173306000Y-150192651D01*
X173255888Y-150444579D01*
X173230832Y-150570544D01*
X173207861Y-150626000D01*
X173083385Y-150926512D01*
X172869322Y-151246880D01*
X172596880Y-151519322D01*
X172276512Y-151733385D01*
X172067991Y-151819757D01*
X171920544Y-151880832D01*
X171794579Y-151905888D01*
X171542651Y-151956000D01*
X171157349Y-151956000D01*
X170905421Y-151905888D01*
X170779456Y-151880832D01*
X170632009Y-151819757D01*
X170423488Y-151733385D01*
X170103120Y-151519322D01*
X169830678Y-151246880D01*
X169616615Y-150926512D01*
X169492139Y-150626000D01*
X169469168Y-150570544D01*
X169444112Y-150444579D01*
X169394000Y-150192651D01*
X169394000Y-149807349D01*
X169469168Y-149429457D01*
X169477863Y-149408466D01*
X169530243Y-149282009D01*
X169616615Y-149073488D01*
X169830678Y-148753120D01*
X170103120Y-148480678D01*
X170423488Y-148266615D01*
X170632009Y-148180243D01*
X170779456Y-148119168D01*
X170905421Y-148094112D01*
X171157349Y-148044000D01*
X171542651Y-148044000D01*
X171794579Y-148094112D01*
X171794579Y-148094112D01*
G37*
G36*
X124588677Y-149378465D02*
X124626364Y-149389898D01*
X124661103Y-149408466D01*
X124691548Y-149433452D01*
X124716534Y-149463897D01*
X124735102Y-149498636D01*
X124746535Y-149536323D01*
X124751000Y-149581661D01*
X124751000Y-150418339D01*
X124746535Y-150463677D01*
X124735102Y-150501364D01*
X124716534Y-150536103D01*
X124691548Y-150566548D01*
X124661103Y-150591534D01*
X124626364Y-150610102D01*
X124588677Y-150621535D01*
X124543339Y-150626000D01*
X123456661Y-150626000D01*
X123411323Y-150621535D01*
X123373636Y-150610102D01*
X123338897Y-150591534D01*
X123308452Y-150566548D01*
X123283466Y-150536103D01*
X123264898Y-150501364D01*
X123253465Y-150463677D01*
X123249000Y-150418339D01*
X123249000Y-149581661D01*
X123253465Y-149536323D01*
X123264898Y-149498636D01*
X123283466Y-149463897D01*
X123308452Y-149433452D01*
X123338897Y-149408466D01*
X123373636Y-149389898D01*
X123411323Y-149378465D01*
X123456661Y-149374000D01*
X124543339Y-149374000D01*
X124588677Y-149378465D01*
X124588677Y-149378465D01*
G37*
G36*
X168531821Y-145031144D02*
X168708500Y-145066287D01*
X168846373Y-145123396D01*
X169041355Y-145204160D01*
X169340923Y-145404325D01*
X169595675Y-145659077D01*
X169795840Y-145958645D01*
X169933713Y-146291501D01*
X170004000Y-146644858D01*
X170004000Y-147005142D01*
X169933713Y-147358499D01*
X169795840Y-147691355D01*
X169595675Y-147990923D01*
X169340923Y-148245675D01*
X169041355Y-148445840D01*
X168957248Y-148480678D01*
X168708500Y-148583713D01*
X168531821Y-148618856D01*
X168355142Y-148654000D01*
X167994858Y-148654000D01*
X167818179Y-148618856D01*
X167641500Y-148583713D01*
X167392752Y-148480678D01*
X167308645Y-148445840D01*
X167009077Y-148245675D01*
X166754325Y-147990923D01*
X166554160Y-147691355D01*
X166416287Y-147358499D01*
X166346000Y-147005142D01*
X166346000Y-146644858D01*
X166416287Y-146291501D01*
X166554160Y-145958645D01*
X166754325Y-145659077D01*
X167009077Y-145404325D01*
X167308645Y-145204160D01*
X167503627Y-145123396D01*
X167641500Y-145066287D01*
X167818179Y-145031144D01*
X167994858Y-144996000D01*
X168355142Y-144996000D01*
X168531821Y-145031144D01*
X168531821Y-145031144D01*
G37*
G36*
X192977102Y-144798736D02*
X191598066Y-146385136D01*
X183973990Y-139757628D01*
X185353026Y-138171228D01*
X192977102Y-144798736D01*
X192977102Y-144798736D01*
G37*
G36*
X106699764Y-142776000D02*
X107497752Y-143693981D01*
X104401934Y-146385135D01*
X104401933Y-146385135D01*
X103022898Y-144798735D01*
X104293772Y-143693981D01*
X106118716Y-142107581D01*
X106118717Y-142107581D01*
X106699764Y-142776000D01*
X106699764Y-142776000D01*
G37*
G36*
X165444579Y-141744112D02*
X165570544Y-141769168D01*
X165717991Y-141830243D01*
X165926512Y-141916615D01*
X166246880Y-142130678D01*
X166519322Y-142403120D01*
X166733385Y-142723488D01*
X166880832Y-143079457D01*
X166956000Y-143457349D01*
X166956000Y-143842651D01*
X166880832Y-144220543D01*
X166733385Y-144576512D01*
X166519322Y-144896880D01*
X166246880Y-145169322D01*
X165926512Y-145383385D01*
X165717991Y-145469757D01*
X165570544Y-145530832D01*
X165444579Y-145555888D01*
X165192651Y-145606000D01*
X164807349Y-145606000D01*
X164555421Y-145555888D01*
X164429456Y-145530832D01*
X164282009Y-145469757D01*
X164073488Y-145383385D01*
X163753120Y-145169322D01*
X163480678Y-144896880D01*
X163266615Y-144576512D01*
X163119168Y-144220543D01*
X163044000Y-143842651D01*
X163044000Y-143457349D01*
X163119168Y-143079457D01*
X163266615Y-142723488D01*
X163480678Y-142403120D01*
X163753120Y-142130678D01*
X164073488Y-141916615D01*
X164282009Y-141830243D01*
X164429456Y-141769168D01*
X164555421Y-141744112D01*
X164807349Y-141694000D01*
X165192651Y-141694000D01*
X165444579Y-141744112D01*
X165444579Y-141744112D01*
G37*
G36*
X171794579Y-141744112D02*
X171920544Y-141769168D01*
X172067991Y-141830243D01*
X172276512Y-141916615D01*
X172596880Y-142130678D01*
X172869322Y-142403120D01*
X173083385Y-142723488D01*
X173230832Y-143079457D01*
X173306000Y-143457349D01*
X173306000Y-143842651D01*
X173230832Y-144220543D01*
X173083385Y-144576512D01*
X172869322Y-144896880D01*
X172596880Y-145169322D01*
X172276512Y-145383385D01*
X172067991Y-145469757D01*
X171920544Y-145530832D01*
X171794579Y-145555888D01*
X171542651Y-145606000D01*
X171157349Y-145606000D01*
X170905421Y-145555888D01*
X170779456Y-145530832D01*
X170632009Y-145469757D01*
X170423488Y-145383385D01*
X170103120Y-145169322D01*
X169830678Y-144896880D01*
X169616615Y-144576512D01*
X169469168Y-144220543D01*
X169394000Y-143842651D01*
X169394000Y-143457349D01*
X169469168Y-143079457D01*
X169616615Y-142723488D01*
X169830678Y-142403120D01*
X170103120Y-142130678D01*
X170423488Y-141916615D01*
X170632009Y-141830243D01*
X170779456Y-141769168D01*
X170905421Y-141744112D01*
X171157349Y-141694000D01*
X171542651Y-141694000D01*
X171794579Y-141744112D01*
X171794579Y-141744112D01*
G37*
G36*
X195051805Y-141832202D02*
X195338914Y-142081782D01*
X193959879Y-143668182D01*
X193959878Y-143668182D01*
X190864060Y-140977028D01*
X191091862Y-140714972D01*
X192243095Y-139390628D01*
X192243096Y-139390628D01*
X195051805Y-141832202D01*
X195051805Y-141832202D01*
G37*
G36*
X109664198Y-137040674D02*
X102040122Y-143668182D01*
X100661086Y-142081782D01*
X108285162Y-135454274D01*
X109664198Y-137040674D01*
X109664198Y-137040674D01*
G37*
G36*
X131780357Y-137975083D02*
X131785028Y-137976500D01*
X131789330Y-137978800D01*
X131795705Y-137984031D01*
X131816080Y-137997644D01*
X131838719Y-138007020D01*
X131862753Y-138011800D01*
X131887257Y-138011799D01*
X131911291Y-138007017D01*
X131933929Y-137997639D01*
X131954295Y-137984031D01*
X131960670Y-137978800D01*
X131964972Y-137976500D01*
X131969643Y-137975083D01*
X131980641Y-137974000D01*
X132269359Y-137974000D01*
X132280357Y-137975083D01*
X132285028Y-137976500D01*
X132289330Y-137978800D01*
X132295705Y-137984031D01*
X132316080Y-137997644D01*
X132338719Y-138007020D01*
X132362753Y-138011800D01*
X132387257Y-138011799D01*
X132411291Y-138007017D01*
X132433929Y-137997639D01*
X132454295Y-137984031D01*
X132460670Y-137978800D01*
X132464972Y-137976500D01*
X132469643Y-137975083D01*
X132480641Y-137974000D01*
X132769359Y-137974000D01*
X132780357Y-137975083D01*
X132785028Y-137976500D01*
X132789330Y-137978800D01*
X132795705Y-137984031D01*
X132816080Y-137997644D01*
X132838719Y-138007020D01*
X132862753Y-138011800D01*
X132887257Y-138011799D01*
X132911291Y-138007017D01*
X132933929Y-137997639D01*
X132954295Y-137984031D01*
X132960670Y-137978800D01*
X132964972Y-137976500D01*
X132969643Y-137975083D01*
X132980641Y-137974000D01*
X133269359Y-137974000D01*
X133280357Y-137975083D01*
X133285028Y-137976500D01*
X133289330Y-137978800D01*
X133295705Y-137984031D01*
X133316080Y-137997644D01*
X133338719Y-138007020D01*
X133362753Y-138011800D01*
X133387257Y-138011799D01*
X133411291Y-138007017D01*
X133433929Y-137997639D01*
X133454295Y-137984031D01*
X133460670Y-137978800D01*
X133464972Y-137976500D01*
X133469643Y-137975083D01*
X133480641Y-137974000D01*
X133769359Y-137974000D01*
X133780357Y-137975083D01*
X133785028Y-137976500D01*
X133789330Y-137978800D01*
X133793104Y-137981896D01*
X133796200Y-137985670D01*
X133798500Y-137989972D01*
X133799917Y-137994643D01*
X133801000Y-138005641D01*
X133801000Y-138869359D01*
X133799917Y-138880357D01*
X133798500Y-138885028D01*
X133796199Y-138889333D01*
X133789557Y-138897427D01*
X133775944Y-138917802D01*
X133766568Y-138940442D01*
X133761788Y-138964475D01*
X133761790Y-138988980D01*
X133766571Y-139013013D01*
X133775950Y-139035651D01*
X133789565Y-139056025D01*
X133806893Y-139073351D01*
X133827264Y-139086962D01*
X133854469Y-139101503D01*
X133878651Y-139121349D01*
X133898497Y-139145531D01*
X133913038Y-139172736D01*
X133926652Y-139193111D01*
X133943979Y-139210438D01*
X133964353Y-139224052D01*
X133986992Y-139233430D01*
X134011025Y-139238211D01*
X134035530Y-139238211D01*
X134059563Y-139233431D01*
X134082202Y-139224054D01*
X134102573Y-139210443D01*
X134110667Y-139203801D01*
X134114972Y-139201500D01*
X134119643Y-139200083D01*
X134130641Y-139199000D01*
X134994359Y-139199000D01*
X135005357Y-139200083D01*
X135010028Y-139201500D01*
X135014330Y-139203800D01*
X135018104Y-139206896D01*
X135021200Y-139210670D01*
X135023500Y-139214972D01*
X135024917Y-139219643D01*
X135026000Y-139230641D01*
X135026000Y-139519359D01*
X135024917Y-139530357D01*
X135023500Y-139535028D01*
X135021200Y-139539330D01*
X135015969Y-139545705D01*
X135002356Y-139566080D01*
X134992980Y-139588719D01*
X134988200Y-139612753D01*
X134988201Y-139637257D01*
X134992983Y-139661291D01*
X135002361Y-139683929D01*
X135015969Y-139704295D01*
X135021200Y-139710670D01*
X135023500Y-139714972D01*
X135024917Y-139719643D01*
X135026000Y-139730641D01*
X135026000Y-140019359D01*
X135024917Y-140030357D01*
X135023500Y-140035028D01*
X135021200Y-140039330D01*
X135015969Y-140045705D01*
X135002356Y-140066080D01*
X134992980Y-140088719D01*
X134988200Y-140112753D01*
X134988201Y-140137257D01*
X134992983Y-140161291D01*
X135002361Y-140183929D01*
X135015969Y-140204295D01*
X135021200Y-140210670D01*
X135023500Y-140214972D01*
X135024917Y-140219643D01*
X135026000Y-140230641D01*
X135026000Y-140519359D01*
X135024917Y-140530357D01*
X135023500Y-140535028D01*
X135021200Y-140539330D01*
X135015969Y-140545705D01*
X135002356Y-140566080D01*
X134992980Y-140588719D01*
X134988200Y-140612753D01*
X134988201Y-140637257D01*
X134992983Y-140661291D01*
X135002361Y-140683929D01*
X135015969Y-140704295D01*
X135021200Y-140710670D01*
X135023500Y-140714972D01*
X135024917Y-140719643D01*
X135026000Y-140730641D01*
X135026000Y-141019359D01*
X135024917Y-141030357D01*
X135023500Y-141035028D01*
X135021200Y-141039330D01*
X135015969Y-141045705D01*
X135002356Y-141066080D01*
X134992980Y-141088719D01*
X134988200Y-141112753D01*
X134988201Y-141137257D01*
X134992983Y-141161291D01*
X135002361Y-141183929D01*
X135015969Y-141204295D01*
X135021200Y-141210670D01*
X135023500Y-141214972D01*
X135024917Y-141219643D01*
X135026000Y-141230641D01*
X135026000Y-141519359D01*
X135024917Y-141530357D01*
X135023500Y-141535028D01*
X135021200Y-141539330D01*
X135018104Y-141543104D01*
X135014330Y-141546200D01*
X135010028Y-141548500D01*
X135005357Y-141549917D01*
X134994359Y-141551000D01*
X134130641Y-141551000D01*
X134119643Y-141549917D01*
X134114972Y-141548500D01*
X134110667Y-141546199D01*
X134102573Y-141539557D01*
X134082198Y-141525944D01*
X134059558Y-141516568D01*
X134035525Y-141511788D01*
X134011020Y-141511790D01*
X133986987Y-141516571D01*
X133964349Y-141525950D01*
X133943975Y-141539565D01*
X133926649Y-141556893D01*
X133913038Y-141577264D01*
X133898497Y-141604469D01*
X133878651Y-141628651D01*
X133854469Y-141648497D01*
X133827264Y-141663038D01*
X133806889Y-141676652D01*
X133789562Y-141693979D01*
X133775948Y-141714353D01*
X133766570Y-141736992D01*
X133761789Y-141761025D01*
X133761789Y-141785530D01*
X133766569Y-141809563D01*
X133775946Y-141832202D01*
X133789557Y-141852573D01*
X133796199Y-141860667D01*
X133798500Y-141864972D01*
X133799917Y-141869643D01*
X133801000Y-141880641D01*
X133801000Y-142744359D01*
X133799917Y-142755357D01*
X133798500Y-142760028D01*
X133796200Y-142764330D01*
X133793104Y-142768104D01*
X133789330Y-142771200D01*
X133785028Y-142773500D01*
X133780357Y-142774917D01*
X133769359Y-142776000D01*
X133480641Y-142776000D01*
X133469643Y-142774917D01*
X133464972Y-142773500D01*
X133460670Y-142771200D01*
X133454295Y-142765969D01*
X133433920Y-142752356D01*
X133411281Y-142742980D01*
X133387247Y-142738200D01*
X133362743Y-142738201D01*
X133338709Y-142742983D01*
X133316071Y-142752361D01*
X133295705Y-142765969D01*
X133289330Y-142771200D01*
X133285028Y-142773500D01*
X133280357Y-142774917D01*
X133269359Y-142776000D01*
X132980641Y-142776000D01*
X132969643Y-142774917D01*
X132964972Y-142773500D01*
X132960670Y-142771200D01*
X132954295Y-142765969D01*
X132933920Y-142752356D01*
X132911281Y-142742980D01*
X132887247Y-142738200D01*
X132862743Y-142738201D01*
X132838709Y-142742983D01*
X132816071Y-142752361D01*
X132795705Y-142765969D01*
X132789330Y-142771200D01*
X132785028Y-142773500D01*
X132780357Y-142774917D01*
X132769359Y-142776000D01*
X132480641Y-142776000D01*
X132469643Y-142774917D01*
X132464972Y-142773500D01*
X132460670Y-142771200D01*
X132454295Y-142765969D01*
X132433920Y-142752356D01*
X132411281Y-142742980D01*
X132387247Y-142738200D01*
X132362743Y-142738201D01*
X132338709Y-142742983D01*
X132316071Y-142752361D01*
X132295705Y-142765969D01*
X132289330Y-142771200D01*
X132285028Y-142773500D01*
X132280357Y-142774917D01*
X132269359Y-142776000D01*
X131980641Y-142776000D01*
X131969643Y-142774917D01*
X131964972Y-142773500D01*
X131960670Y-142771200D01*
X131954295Y-142765969D01*
X131933920Y-142752356D01*
X131911281Y-142742980D01*
X131887247Y-142738200D01*
X131862743Y-142738201D01*
X131838709Y-142742983D01*
X131816071Y-142752361D01*
X131795705Y-142765969D01*
X131789330Y-142771200D01*
X131785028Y-142773500D01*
X131780357Y-142774917D01*
X131769359Y-142776000D01*
X131480641Y-142776000D01*
X131469643Y-142774917D01*
X131464972Y-142773500D01*
X131460670Y-142771200D01*
X131456896Y-142768104D01*
X131453800Y-142764330D01*
X131451500Y-142760028D01*
X131450083Y-142755357D01*
X131449000Y-142744359D01*
X131449000Y-141880641D01*
X131450083Y-141869643D01*
X131451500Y-141864972D01*
X131453801Y-141860667D01*
X131460443Y-141852573D01*
X131474056Y-141832198D01*
X131483432Y-141809558D01*
X131488212Y-141785525D01*
X131488210Y-141761020D01*
X131483429Y-141736987D01*
X131474050Y-141714349D01*
X131460435Y-141693975D01*
X131443107Y-141676649D01*
X131422736Y-141663038D01*
X131395531Y-141648497D01*
X131371349Y-141628651D01*
X131351503Y-141604469D01*
X131336962Y-141577264D01*
X131323348Y-141556889D01*
X131306021Y-141539562D01*
X131285647Y-141525948D01*
X131263008Y-141516570D01*
X131238975Y-141511789D01*
X131214470Y-141511789D01*
X131190437Y-141516569D01*
X131167798Y-141525946D01*
X131147427Y-141539557D01*
X131139333Y-141546199D01*
X131135028Y-141548500D01*
X131130357Y-141549917D01*
X131119359Y-141551000D01*
X130255641Y-141551000D01*
X130244643Y-141549917D01*
X130239972Y-141548500D01*
X130235670Y-141546200D01*
X130231896Y-141543104D01*
X130228800Y-141539330D01*
X130226500Y-141535028D01*
X130225083Y-141530357D01*
X130224000Y-141519359D01*
X130224000Y-141230641D01*
X130225083Y-141219643D01*
X130226500Y-141214972D01*
X130228800Y-141210670D01*
X130234031Y-141204295D01*
X130247644Y-141183920D01*
X130257020Y-141161281D01*
X130261800Y-141137247D01*
X130261799Y-141112743D01*
X130257017Y-141088709D01*
X130247639Y-141066071D01*
X130234031Y-141045705D01*
X130228800Y-141039330D01*
X130226500Y-141035028D01*
X130225083Y-141030357D01*
X130224000Y-141019359D01*
X130224000Y-140730641D01*
X130225083Y-140719643D01*
X130226500Y-140714972D01*
X130228800Y-140710670D01*
X130234031Y-140704295D01*
X130247644Y-140683920D01*
X130257020Y-140661281D01*
X130261800Y-140637247D01*
X130261799Y-140612743D01*
X130257017Y-140588709D01*
X130247639Y-140566071D01*
X130234031Y-140545705D01*
X130228800Y-140539330D01*
X130226500Y-140535028D01*
X130225083Y-140530357D01*
X130224000Y-140519359D01*
X130224000Y-140230641D01*
X130225083Y-140219643D01*
X130226500Y-140214972D01*
X130228800Y-140210670D01*
X130234031Y-140204295D01*
X130247644Y-140183920D01*
X130257020Y-140161281D01*
X130261800Y-140137247D01*
X130261799Y-140112743D01*
X130257017Y-140088709D01*
X130247639Y-140066071D01*
X130234031Y-140045705D01*
X130228800Y-140039330D01*
X130226500Y-140035028D01*
X130225083Y-140030357D01*
X130224000Y-140019359D01*
X130224000Y-139730641D01*
X130225083Y-139719643D01*
X130226500Y-139714972D01*
X130228800Y-139710670D01*
X130234031Y-139704295D01*
X130247644Y-139683920D01*
X130257020Y-139661281D01*
X130261800Y-139637247D01*
X130261799Y-139612743D01*
X130257017Y-139588709D01*
X130247639Y-139566071D01*
X130234031Y-139545705D01*
X130228800Y-139539330D01*
X130226500Y-139535028D01*
X130225083Y-139530357D01*
X130224000Y-139519359D01*
X130224000Y-139230641D01*
X130225083Y-139219643D01*
X130226500Y-139214972D01*
X130228800Y-139210670D01*
X130231896Y-139206896D01*
X130235670Y-139203800D01*
X130239972Y-139201500D01*
X130244643Y-139200083D01*
X130255641Y-139199000D01*
X131119359Y-139199000D01*
X131130357Y-139200083D01*
X131135028Y-139201500D01*
X131139333Y-139203801D01*
X131147427Y-139210443D01*
X131167802Y-139224056D01*
X131190442Y-139233432D01*
X131214475Y-139238212D01*
X131238980Y-139238210D01*
X131263013Y-139233429D01*
X131285651Y-139224050D01*
X131306025Y-139210435D01*
X131323351Y-139193107D01*
X131336962Y-139172736D01*
X131351503Y-139145531D01*
X131371349Y-139121349D01*
X131395531Y-139101503D01*
X131422736Y-139086962D01*
X131443111Y-139073348D01*
X131460438Y-139056021D01*
X131474052Y-139035647D01*
X131483430Y-139013008D01*
X131488211Y-138988975D01*
X131488211Y-138964470D01*
X131483431Y-138940437D01*
X131474054Y-138917798D01*
X131460443Y-138897427D01*
X131453801Y-138889333D01*
X131451500Y-138885028D01*
X131450083Y-138880357D01*
X131449000Y-138869359D01*
X131449000Y-138005641D01*
X131450083Y-137994643D01*
X131451500Y-137989972D01*
X131453800Y-137985670D01*
X131456896Y-137981896D01*
X131460670Y-137978800D01*
X131464972Y-137976500D01*
X131469643Y-137975083D01*
X131480641Y-137974000D01*
X131769359Y-137974000D01*
X131780357Y-137975083D01*
X131780357Y-137975083D01*
G37*
G36*
X111976515Y-139700691D02*
X112026010Y-139757628D01*
X108930192Y-142448782D01*
X108930191Y-142448782D01*
X107551156Y-140862382D01*
X107737160Y-140700691D01*
X110646974Y-138171228D01*
X110646975Y-138171228D01*
X111976515Y-139700691D01*
X111976515Y-139700691D01*
G37*
G36*
X190615397Y-137975691D02*
X190810657Y-138145428D01*
X189431622Y-139731828D01*
X189431621Y-139731828D01*
X186335803Y-137040674D01*
X187714838Y-135454274D01*
X187714839Y-135454274D01*
X190615397Y-137975691D01*
X190615397Y-137975691D01*
G37*
G36*
X126413677Y-128753465D02*
X126451364Y-128764898D01*
X126486103Y-128783466D01*
X126516548Y-128808452D01*
X126541534Y-128838897D01*
X126560102Y-128873636D01*
X126571535Y-128911323D01*
X126576000Y-128956661D01*
X126576000Y-130043339D01*
X126571535Y-130088677D01*
X126560102Y-130126364D01*
X126541534Y-130161103D01*
X126516548Y-130191548D01*
X126486103Y-130216534D01*
X126451364Y-130235102D01*
X126413677Y-130246535D01*
X126368339Y-130251000D01*
X125531661Y-130251000D01*
X125486323Y-130246535D01*
X125448636Y-130235102D01*
X125413897Y-130216534D01*
X125383452Y-130191548D01*
X125358466Y-130161103D01*
X125339898Y-130126364D01*
X125328465Y-130088677D01*
X125324000Y-130043339D01*
X125324000Y-128956661D01*
X125328465Y-128911323D01*
X125339898Y-128873636D01*
X125358466Y-128838897D01*
X125383452Y-128808452D01*
X125413897Y-128783466D01*
X125448636Y-128764898D01*
X125486323Y-128753465D01*
X125531661Y-128749000D01*
X126368339Y-128749000D01*
X126413677Y-128753465D01*
X126413677Y-128753465D01*
G37*
G36*
X128463677Y-128753465D02*
X128501364Y-128764898D01*
X128536103Y-128783466D01*
X128566548Y-128808452D01*
X128591534Y-128838897D01*
X128610102Y-128873636D01*
X128621535Y-128911323D01*
X128626000Y-128956661D01*
X128626000Y-130043339D01*
X128621535Y-130088677D01*
X128610102Y-130126364D01*
X128591534Y-130161103D01*
X128566548Y-130191548D01*
X128536103Y-130216534D01*
X128501364Y-130235102D01*
X128463677Y-130246535D01*
X128418339Y-130251000D01*
X127581661Y-130251000D01*
X127536323Y-130246535D01*
X127498636Y-130235102D01*
X127463897Y-130216534D01*
X127433452Y-130191548D01*
X127408466Y-130161103D01*
X127389898Y-130126364D01*
X127378465Y-130088677D01*
X127374000Y-130043339D01*
X127374000Y-128956661D01*
X127378465Y-128911323D01*
X127389898Y-128873636D01*
X127408466Y-128838897D01*
X127433452Y-128808452D01*
X127463897Y-128783466D01*
X127498636Y-128764898D01*
X127536323Y-128753465D01*
X127581661Y-128749000D01*
X128418339Y-128749000D01*
X128463677Y-128753465D01*
X128463677Y-128753465D01*
G37*
G36*
X146413677Y-126253465D02*
X146451364Y-126264898D01*
X146486103Y-126283466D01*
X146516548Y-126308452D01*
X146541534Y-126338897D01*
X146560102Y-126373636D01*
X146571535Y-126411323D01*
X146576000Y-126456661D01*
X146576000Y-127543339D01*
X146571535Y-127588677D01*
X146560102Y-127626364D01*
X146541534Y-127661103D01*
X146516548Y-127691548D01*
X146486103Y-127716534D01*
X146451364Y-127735102D01*
X146413677Y-127746535D01*
X146368339Y-127751000D01*
X145531661Y-127751000D01*
X145486323Y-127746535D01*
X145448636Y-127735102D01*
X145413897Y-127716534D01*
X145383452Y-127691548D01*
X145358466Y-127661103D01*
X145339898Y-127626364D01*
X145328465Y-127588677D01*
X145324000Y-127543339D01*
X145324000Y-126456661D01*
X145328465Y-126411323D01*
X145339898Y-126373636D01*
X145358466Y-126338897D01*
X145383452Y-126308452D01*
X145413897Y-126283466D01*
X145448636Y-126264898D01*
X145486323Y-126253465D01*
X145531661Y-126249000D01*
X146368339Y-126249000D01*
X146413677Y-126253465D01*
X146413677Y-126253465D01*
G37*
G36*
X148463677Y-126253465D02*
X148501364Y-126264898D01*
X148536103Y-126283466D01*
X148566548Y-126308452D01*
X148591534Y-126338897D01*
X148610102Y-126373636D01*
X148621535Y-126411323D01*
X148626000Y-126456661D01*
X148626000Y-127543339D01*
X148621535Y-127588677D01*
X148610102Y-127626364D01*
X148591534Y-127661103D01*
X148566548Y-127691548D01*
X148536103Y-127716534D01*
X148501364Y-127735102D01*
X148463677Y-127746535D01*
X148418339Y-127751000D01*
X147581661Y-127751000D01*
X147536323Y-127746535D01*
X147498636Y-127735102D01*
X147463897Y-127716534D01*
X147433452Y-127691548D01*
X147408466Y-127661103D01*
X147389898Y-127626364D01*
X147378465Y-127588677D01*
X147374000Y-127543339D01*
X147374000Y-126456661D01*
X147378465Y-126411323D01*
X147389898Y-126373636D01*
X147408466Y-126338897D01*
X147433452Y-126308452D01*
X147463897Y-126283466D01*
X147498636Y-126264898D01*
X147536323Y-126253465D01*
X147581661Y-126249000D01*
X148418339Y-126249000D01*
X148463677Y-126253465D01*
X148463677Y-126253465D01*
G37*
G36*
X128513677Y-124253465D02*
X128551364Y-124264898D01*
X128586103Y-124283466D01*
X128616548Y-124308452D01*
X128641534Y-124338897D01*
X128660102Y-124373636D01*
X128671535Y-124411323D01*
X128676000Y-124456661D01*
X128676000Y-125543339D01*
X128671535Y-125588677D01*
X128660102Y-125626364D01*
X128641534Y-125661103D01*
X128616548Y-125691548D01*
X128586103Y-125716534D01*
X128551364Y-125735102D01*
X128513677Y-125746535D01*
X128468339Y-125751000D01*
X127631661Y-125751000D01*
X127586323Y-125746535D01*
X127548636Y-125735102D01*
X127513897Y-125716534D01*
X127483452Y-125691548D01*
X127458466Y-125661103D01*
X127439898Y-125626364D01*
X127428465Y-125588677D01*
X127424000Y-125543339D01*
X127424000Y-124456661D01*
X127428465Y-124411323D01*
X127439898Y-124373636D01*
X127458466Y-124338897D01*
X127483452Y-124308452D01*
X127513897Y-124283466D01*
X127548636Y-124264898D01*
X127586323Y-124253465D01*
X127631661Y-124249000D01*
X128468339Y-124249000D01*
X128513677Y-124253465D01*
X128513677Y-124253465D01*
G37*
G36*
X126463677Y-124253465D02*
X126501364Y-124264898D01*
X126536103Y-124283466D01*
X126566548Y-124308452D01*
X126591534Y-124338897D01*
X126610102Y-124373636D01*
X126621535Y-124411323D01*
X126626000Y-124456661D01*
X126626000Y-125543339D01*
X126621535Y-125588677D01*
X126610102Y-125626364D01*
X126591534Y-125661103D01*
X126566548Y-125691548D01*
X126536103Y-125716534D01*
X126501364Y-125735102D01*
X126463677Y-125746535D01*
X126418339Y-125751000D01*
X125581661Y-125751000D01*
X125536323Y-125746535D01*
X125498636Y-125735102D01*
X125463897Y-125716534D01*
X125433452Y-125691548D01*
X125408466Y-125661103D01*
X125389898Y-125626364D01*
X125378465Y-125588677D01*
X125374000Y-125543339D01*
X125374000Y-124456661D01*
X125378465Y-124411323D01*
X125389898Y-124373636D01*
X125408466Y-124338897D01*
X125433452Y-124308452D01*
X125463897Y-124283466D01*
X125498636Y-124264898D01*
X125536323Y-124253465D01*
X125581661Y-124249000D01*
X126418339Y-124249000D01*
X126463677Y-124253465D01*
X126463677Y-124253465D01*
G37*
G36*
X148326000Y-125181000D02*
X145674000Y-125181000D01*
X145674000Y-123519000D01*
X148326000Y-123519000D01*
X148326000Y-125181000D01*
X148326000Y-125181000D01*
G37*
G36*
X150588677Y-123878465D02*
X150626364Y-123889898D01*
X150661103Y-123908466D01*
X150691548Y-123933452D01*
X150716534Y-123963897D01*
X150735102Y-123998636D01*
X150746535Y-124036323D01*
X150751000Y-124081661D01*
X150751000Y-124918339D01*
X150746535Y-124963677D01*
X150735102Y-125001364D01*
X150716534Y-125036103D01*
X150691548Y-125066548D01*
X150661103Y-125091534D01*
X150626364Y-125110102D01*
X150588677Y-125121535D01*
X150543339Y-125126000D01*
X149456661Y-125126000D01*
X149411323Y-125121535D01*
X149373636Y-125110102D01*
X149338897Y-125091534D01*
X149308452Y-125066548D01*
X149283466Y-125036103D01*
X149264898Y-125001364D01*
X149253465Y-124963677D01*
X149249000Y-124918339D01*
X149249000Y-124081661D01*
X149253465Y-124036323D01*
X149264898Y-123998636D01*
X149283466Y-123963897D01*
X149308452Y-123933452D01*
X149338897Y-123908466D01*
X149373636Y-123889898D01*
X149411323Y-123878465D01*
X149456661Y-123874000D01*
X150543339Y-123874000D01*
X150588677Y-123878465D01*
X150588677Y-123878465D01*
G37*
G36*
X150588677Y-121828465D02*
X150626364Y-121839898D01*
X150661103Y-121858466D01*
X150691548Y-121883452D01*
X150716534Y-121913897D01*
X150735102Y-121948636D01*
X150746535Y-121986323D01*
X150751000Y-122031661D01*
X150751000Y-122868339D01*
X150746535Y-122913677D01*
X150735102Y-122951364D01*
X150716534Y-122986103D01*
X150691548Y-123016548D01*
X150661103Y-123041534D01*
X150626364Y-123060102D01*
X150588677Y-123071535D01*
X150543339Y-123076000D01*
X149456661Y-123076000D01*
X149411323Y-123071535D01*
X149373636Y-123060102D01*
X149338897Y-123041534D01*
X149308452Y-123016548D01*
X149283466Y-122986103D01*
X149264898Y-122951364D01*
X149253465Y-122913677D01*
X149249000Y-122868339D01*
X149249000Y-122031661D01*
X149253465Y-121986323D01*
X149264898Y-121948636D01*
X149283466Y-121913897D01*
X149308452Y-121883452D01*
X149338897Y-121858466D01*
X149373636Y-121839898D01*
X149411323Y-121828465D01*
X149456661Y-121824000D01*
X150543339Y-121824000D01*
X150588677Y-121828465D01*
X150588677Y-121828465D01*
G37*
G36*
X146426000Y-122481000D02*
X145674000Y-122481000D01*
X145674000Y-120819000D01*
X146426000Y-120819000D01*
X146426000Y-122481000D01*
X146426000Y-122481000D01*
G37*
G36*
X148326000Y-122481000D02*
X147574000Y-122481000D01*
X147574000Y-120819000D01*
X148326000Y-120819000D01*
X148326000Y-122481000D01*
X148326000Y-122481000D01*
G37*
G36*
X152588677Y-118928465D02*
X152626364Y-118939898D01*
X152661103Y-118958466D01*
X152691548Y-118983452D01*
X152716534Y-119013897D01*
X152735102Y-119048636D01*
X152746535Y-119086323D01*
X152751000Y-119131661D01*
X152751000Y-119968339D01*
X152746535Y-120013677D01*
X152735102Y-120051364D01*
X152716534Y-120086103D01*
X152691548Y-120116548D01*
X152661103Y-120141534D01*
X152626364Y-120160102D01*
X152588677Y-120171535D01*
X152543339Y-120176000D01*
X151456661Y-120176000D01*
X151411323Y-120171535D01*
X151373636Y-120160102D01*
X151338897Y-120141534D01*
X151308452Y-120116548D01*
X151283466Y-120086103D01*
X151264898Y-120051364D01*
X151253465Y-120013677D01*
X151249000Y-119968339D01*
X151249000Y-119131661D01*
X151253465Y-119086323D01*
X151264898Y-119048636D01*
X151283466Y-119013897D01*
X151308452Y-118983452D01*
X151338897Y-118958466D01*
X151373636Y-118939898D01*
X151411323Y-118928465D01*
X151456661Y-118924000D01*
X152543339Y-118924000D01*
X152588677Y-118928465D01*
X152588677Y-118928465D01*
G37*
G36*
X146588677Y-118928465D02*
X146626364Y-118939898D01*
X146661103Y-118958466D01*
X146691548Y-118983452D01*
X146716534Y-119013897D01*
X146735102Y-119048636D01*
X146746535Y-119086323D01*
X146751000Y-119131661D01*
X146751000Y-119968339D01*
X146746535Y-120013677D01*
X146735102Y-120051364D01*
X146716534Y-120086103D01*
X146691548Y-120116548D01*
X146661103Y-120141534D01*
X146626364Y-120160102D01*
X146588677Y-120171535D01*
X146543339Y-120176000D01*
X145456661Y-120176000D01*
X145411323Y-120171535D01*
X145373636Y-120160102D01*
X145338897Y-120141534D01*
X145308452Y-120116548D01*
X145283466Y-120086103D01*
X145264898Y-120051364D01*
X145253465Y-120013677D01*
X145249000Y-119968339D01*
X145249000Y-119131661D01*
X145253465Y-119086323D01*
X145264898Y-119048636D01*
X145283466Y-119013897D01*
X145308452Y-118983452D01*
X145338897Y-118958466D01*
X145373636Y-118939898D01*
X145411323Y-118928465D01*
X145456661Y-118924000D01*
X146543339Y-118924000D01*
X146588677Y-118928465D01*
X146588677Y-118928465D01*
G37*
G36*
X149588677Y-118878465D02*
X149626364Y-118889898D01*
X149661103Y-118908466D01*
X149691548Y-118933452D01*
X149716534Y-118963897D01*
X149735102Y-118998636D01*
X149746535Y-119036323D01*
X149751000Y-119081661D01*
X149751000Y-119918339D01*
X149746535Y-119963677D01*
X149735102Y-120001364D01*
X149716534Y-120036103D01*
X149691548Y-120066548D01*
X149661103Y-120091534D01*
X149626364Y-120110102D01*
X149588677Y-120121535D01*
X149543339Y-120126000D01*
X148456661Y-120126000D01*
X148411323Y-120121535D01*
X148373636Y-120110102D01*
X148338897Y-120091534D01*
X148308452Y-120066548D01*
X148283466Y-120036103D01*
X148264898Y-120001364D01*
X148253465Y-119963677D01*
X148249000Y-119918339D01*
X148249000Y-119081661D01*
X148253465Y-119036323D01*
X148264898Y-118998636D01*
X148283466Y-118963897D01*
X148308452Y-118933452D01*
X148338897Y-118908466D01*
X148373636Y-118889898D01*
X148411323Y-118878465D01*
X148456661Y-118874000D01*
X149543339Y-118874000D01*
X149588677Y-118878465D01*
X149588677Y-118878465D01*
G37*
G36*
X152588677Y-116878465D02*
X152626364Y-116889898D01*
X152661103Y-116908466D01*
X152691548Y-116933452D01*
X152716534Y-116963897D01*
X152735102Y-116998636D01*
X152746535Y-117036323D01*
X152751000Y-117081661D01*
X152751000Y-117918339D01*
X152746535Y-117963677D01*
X152735102Y-118001364D01*
X152716534Y-118036103D01*
X152691548Y-118066548D01*
X152661103Y-118091534D01*
X152626364Y-118110102D01*
X152588677Y-118121535D01*
X152543339Y-118126000D01*
X151456661Y-118126000D01*
X151411323Y-118121535D01*
X151373636Y-118110102D01*
X151338897Y-118091534D01*
X151308452Y-118066548D01*
X151283466Y-118036103D01*
X151264898Y-118001364D01*
X151253465Y-117963677D01*
X151249000Y-117918339D01*
X151249000Y-117081661D01*
X151253465Y-117036323D01*
X151264898Y-116998636D01*
X151283466Y-116963897D01*
X151308452Y-116933452D01*
X151338897Y-116908466D01*
X151373636Y-116889898D01*
X151411323Y-116878465D01*
X151456661Y-116874000D01*
X152543339Y-116874000D01*
X152588677Y-116878465D01*
X152588677Y-116878465D01*
G37*
G36*
X146588677Y-116878465D02*
X146626364Y-116889898D01*
X146661103Y-116908466D01*
X146691548Y-116933452D01*
X146716534Y-116963897D01*
X146735102Y-116998636D01*
X146746535Y-117036323D01*
X146751000Y-117081661D01*
X146751000Y-117918339D01*
X146746535Y-117963677D01*
X146735102Y-118001364D01*
X146716534Y-118036103D01*
X146691548Y-118066548D01*
X146661103Y-118091534D01*
X146626364Y-118110102D01*
X146588677Y-118121535D01*
X146543339Y-118126000D01*
X145456661Y-118126000D01*
X145411323Y-118121535D01*
X145373636Y-118110102D01*
X145338897Y-118091534D01*
X145308452Y-118066548D01*
X145283466Y-118036103D01*
X145264898Y-118001364D01*
X145253465Y-117963677D01*
X145249000Y-117918339D01*
X145249000Y-117081661D01*
X145253465Y-117036323D01*
X145264898Y-116998636D01*
X145283466Y-116963897D01*
X145308452Y-116933452D01*
X145338897Y-116908466D01*
X145373636Y-116889898D01*
X145411323Y-116878465D01*
X145456661Y-116874000D01*
X146543339Y-116874000D01*
X146588677Y-116878465D01*
X146588677Y-116878465D01*
G37*
G36*
X149588677Y-116828465D02*
X149626364Y-116839898D01*
X149661103Y-116858466D01*
X149691548Y-116883452D01*
X149716534Y-116913897D01*
X149735102Y-116948636D01*
X149746535Y-116986323D01*
X149751000Y-117031661D01*
X149751000Y-117868339D01*
X149746535Y-117913677D01*
X149735102Y-117951364D01*
X149716534Y-117986103D01*
X149691548Y-118016548D01*
X149661103Y-118041534D01*
X149626364Y-118060102D01*
X149588677Y-118071535D01*
X149543339Y-118076000D01*
X148456661Y-118076000D01*
X148411323Y-118071535D01*
X148373636Y-118060102D01*
X148338897Y-118041534D01*
X148308452Y-118016548D01*
X148283466Y-117986103D01*
X148264898Y-117951364D01*
X148253465Y-117913677D01*
X148249000Y-117868339D01*
X148249000Y-117031661D01*
X148253465Y-116986323D01*
X148264898Y-116948636D01*
X148283466Y-116913897D01*
X148308452Y-116883452D01*
X148338897Y-116858466D01*
X148373636Y-116839898D01*
X148411323Y-116828465D01*
X148456661Y-116824000D01*
X149543339Y-116824000D01*
X149588677Y-116828465D01*
X149588677Y-116828465D01*
G37*
G36*
X130463677Y-113753465D02*
X130501364Y-113764898D01*
X130536103Y-113783466D01*
X130566548Y-113808452D01*
X130591534Y-113838897D01*
X130610102Y-113873636D01*
X130621535Y-113911323D01*
X130626000Y-113956661D01*
X130626000Y-115043339D01*
X130621535Y-115088677D01*
X130610102Y-115126364D01*
X130591534Y-115161103D01*
X130566548Y-115191548D01*
X130536103Y-115216534D01*
X130501364Y-115235102D01*
X130463677Y-115246535D01*
X130418339Y-115251000D01*
X129581661Y-115251000D01*
X129536323Y-115246535D01*
X129498636Y-115235102D01*
X129463897Y-115216534D01*
X129433452Y-115191548D01*
X129408466Y-115161103D01*
X129389898Y-115126364D01*
X129378465Y-115088677D01*
X129374000Y-115043339D01*
X129374000Y-113956661D01*
X129378465Y-113911323D01*
X129389898Y-113873636D01*
X129408466Y-113838897D01*
X129433452Y-113808452D01*
X129463897Y-113783466D01*
X129498636Y-113764898D01*
X129536323Y-113753465D01*
X129581661Y-113749000D01*
X130418339Y-113749000D01*
X130463677Y-113753465D01*
X130463677Y-113753465D01*
G37*
G36*
X132513677Y-113753465D02*
X132551364Y-113764898D01*
X132586103Y-113783466D01*
X132616548Y-113808452D01*
X132641534Y-113838897D01*
X132660102Y-113873636D01*
X132671535Y-113911323D01*
X132676000Y-113956661D01*
X132676000Y-115043339D01*
X132671535Y-115088677D01*
X132660102Y-115126364D01*
X132641534Y-115161103D01*
X132616548Y-115191548D01*
X132586103Y-115216534D01*
X132551364Y-115235102D01*
X132513677Y-115246535D01*
X132468339Y-115251000D01*
X131631661Y-115251000D01*
X131586323Y-115246535D01*
X131548636Y-115235102D01*
X131513897Y-115216534D01*
X131483452Y-115191548D01*
X131458466Y-115161103D01*
X131439898Y-115126364D01*
X131428465Y-115088677D01*
X131424000Y-115043339D01*
X131424000Y-113956661D01*
X131428465Y-113911323D01*
X131439898Y-113873636D01*
X131458466Y-113838897D01*
X131483452Y-113808452D01*
X131513897Y-113783466D01*
X131548636Y-113764898D01*
X131586323Y-113753465D01*
X131631661Y-113749000D01*
X132468339Y-113749000D01*
X132513677Y-113753465D01*
X132513677Y-113753465D01*
G37*
G36*
X127588677Y-111403465D02*
X127626364Y-111414898D01*
X127661103Y-111433466D01*
X127691548Y-111458452D01*
X127716534Y-111488897D01*
X127735102Y-111523636D01*
X127746535Y-111561323D01*
X127751000Y-111606661D01*
X127751000Y-112443339D01*
X127746535Y-112488677D01*
X127735102Y-112526364D01*
X127716534Y-112561103D01*
X127691548Y-112591548D01*
X127661103Y-112616534D01*
X127626364Y-112635102D01*
X127588677Y-112646535D01*
X127543339Y-112651000D01*
X126456661Y-112651000D01*
X126411323Y-112646535D01*
X126373636Y-112635102D01*
X126338897Y-112616534D01*
X126308452Y-112591548D01*
X126283466Y-112561103D01*
X126264898Y-112526364D01*
X126253465Y-112488677D01*
X126249000Y-112443339D01*
X126249000Y-111606661D01*
X126253465Y-111561323D01*
X126264898Y-111523636D01*
X126283466Y-111488897D01*
X126308452Y-111458452D01*
X126338897Y-111433466D01*
X126373636Y-111414898D01*
X126411323Y-111403465D01*
X126456661Y-111399000D01*
X127543339Y-111399000D01*
X127588677Y-111403465D01*
X127588677Y-111403465D01*
G37*
G36*
X138588677Y-111378465D02*
X138626364Y-111389898D01*
X138661103Y-111408466D01*
X138691548Y-111433452D01*
X138716534Y-111463897D01*
X138735102Y-111498636D01*
X138746535Y-111536323D01*
X138751000Y-111581661D01*
X138751000Y-112418339D01*
X138746535Y-112463677D01*
X138735102Y-112501364D01*
X138716534Y-112536103D01*
X138691548Y-112566548D01*
X138661103Y-112591534D01*
X138626364Y-112610102D01*
X138588677Y-112621535D01*
X138543339Y-112626000D01*
X137456661Y-112626000D01*
X137411323Y-112621535D01*
X137373636Y-112610102D01*
X137338897Y-112591534D01*
X137308452Y-112566548D01*
X137283466Y-112536103D01*
X137264898Y-112501364D01*
X137253465Y-112463677D01*
X137249000Y-112418339D01*
X137249000Y-111581661D01*
X137253465Y-111536323D01*
X137264898Y-111498636D01*
X137283466Y-111463897D01*
X137308452Y-111433452D01*
X137338897Y-111408466D01*
X137373636Y-111389898D01*
X137411323Y-111378465D01*
X137456661Y-111374000D01*
X138543339Y-111374000D01*
X138588677Y-111378465D01*
X138588677Y-111378465D01*
G37*
G36*
X141588677Y-111378465D02*
X141626364Y-111389898D01*
X141661103Y-111408466D01*
X141691548Y-111433452D01*
X141716534Y-111463897D01*
X141735102Y-111498636D01*
X141746535Y-111536323D01*
X141751000Y-111581661D01*
X141751000Y-112418339D01*
X141746535Y-112463677D01*
X141735102Y-112501364D01*
X141716534Y-112536103D01*
X141691548Y-112566548D01*
X141661103Y-112591534D01*
X141626364Y-112610102D01*
X141588677Y-112621535D01*
X141543339Y-112626000D01*
X140456661Y-112626000D01*
X140411323Y-112621535D01*
X140373636Y-112610102D01*
X140338897Y-112591534D01*
X140308452Y-112566548D01*
X140283466Y-112536103D01*
X140264898Y-112501364D01*
X140253465Y-112463677D01*
X140249000Y-112418339D01*
X140249000Y-111581661D01*
X140253465Y-111536323D01*
X140264898Y-111498636D01*
X140283466Y-111463897D01*
X140308452Y-111433452D01*
X140338897Y-111408466D01*
X140373636Y-111389898D01*
X140411323Y-111378465D01*
X140456661Y-111374000D01*
X141543339Y-111374000D01*
X141588677Y-111378465D01*
X141588677Y-111378465D01*
G37*
G36*
X144588677Y-111378465D02*
X144626364Y-111389898D01*
X144661103Y-111408466D01*
X144691548Y-111433452D01*
X144716534Y-111463897D01*
X144735102Y-111498636D01*
X144746535Y-111536323D01*
X144751000Y-111581661D01*
X144751000Y-112418339D01*
X144746535Y-112463677D01*
X144735102Y-112501364D01*
X144716534Y-112536103D01*
X144691548Y-112566548D01*
X144661103Y-112591534D01*
X144626364Y-112610102D01*
X144588677Y-112621535D01*
X144543339Y-112626000D01*
X143456661Y-112626000D01*
X143411323Y-112621535D01*
X143373636Y-112610102D01*
X143338897Y-112591534D01*
X143308452Y-112566548D01*
X143283466Y-112536103D01*
X143264898Y-112501364D01*
X143253465Y-112463677D01*
X143249000Y-112418339D01*
X143249000Y-111581661D01*
X143253465Y-111536323D01*
X143264898Y-111498636D01*
X143283466Y-111463897D01*
X143308452Y-111433452D01*
X143338897Y-111408466D01*
X143373636Y-111389898D01*
X143411323Y-111378465D01*
X143456661Y-111374000D01*
X144543339Y-111374000D01*
X144588677Y-111378465D01*
X144588677Y-111378465D01*
G37*
G36*
X133531000Y-112276000D02*
X131869000Y-112276000D01*
X131869000Y-111524000D01*
X133531000Y-111524000D01*
X133531000Y-112276000D01*
X133531000Y-112276000D01*
G37*
G36*
X130831000Y-112276000D02*
X129169000Y-112276000D01*
X129169000Y-109624000D01*
X130831000Y-109624000D01*
X130831000Y-112276000D01*
X130831000Y-112276000D01*
G37*
G36*
X162463677Y-110253465D02*
X162501364Y-110264898D01*
X162536103Y-110283466D01*
X162566548Y-110308452D01*
X162591534Y-110338897D01*
X162610102Y-110373636D01*
X162621535Y-110411323D01*
X162626000Y-110456661D01*
X162626000Y-111543339D01*
X162621535Y-111588677D01*
X162610102Y-111626364D01*
X162591534Y-111661103D01*
X162566548Y-111691548D01*
X162536103Y-111716534D01*
X162501364Y-111735102D01*
X162463677Y-111746535D01*
X162418339Y-111751000D01*
X161581661Y-111751000D01*
X161536323Y-111746535D01*
X161498636Y-111735102D01*
X161463897Y-111716534D01*
X161433452Y-111691548D01*
X161408466Y-111661103D01*
X161389898Y-111626364D01*
X161378465Y-111588677D01*
X161374000Y-111543339D01*
X161374000Y-110456661D01*
X161378465Y-110411323D01*
X161389898Y-110373636D01*
X161408466Y-110338897D01*
X161433452Y-110308452D01*
X161463897Y-110283466D01*
X161498636Y-110264898D01*
X161536323Y-110253465D01*
X161581661Y-110249000D01*
X162418339Y-110249000D01*
X162463677Y-110253465D01*
X162463677Y-110253465D01*
G37*
G36*
X160413677Y-110253465D02*
X160451364Y-110264898D01*
X160486103Y-110283466D01*
X160516548Y-110308452D01*
X160541534Y-110338897D01*
X160560102Y-110373636D01*
X160571535Y-110411323D01*
X160576000Y-110456661D01*
X160576000Y-111543339D01*
X160571535Y-111588677D01*
X160560102Y-111626364D01*
X160541534Y-111661103D01*
X160516548Y-111691548D01*
X160486103Y-111716534D01*
X160451364Y-111735102D01*
X160413677Y-111746535D01*
X160368339Y-111751000D01*
X159531661Y-111751000D01*
X159486323Y-111746535D01*
X159448636Y-111735102D01*
X159413897Y-111716534D01*
X159383452Y-111691548D01*
X159358466Y-111661103D01*
X159339898Y-111626364D01*
X159328465Y-111588677D01*
X159324000Y-111543339D01*
X159324000Y-110456661D01*
X159328465Y-110411323D01*
X159339898Y-110373636D01*
X159358466Y-110338897D01*
X159383452Y-110308452D01*
X159413897Y-110283466D01*
X159448636Y-110264898D01*
X159486323Y-110253465D01*
X159531661Y-110249000D01*
X160368339Y-110249000D01*
X160413677Y-110253465D01*
X160413677Y-110253465D01*
G37*
G36*
X147951000Y-110701000D02*
X146549000Y-110701000D01*
X146549000Y-107299000D01*
X147951000Y-107299000D01*
X147951000Y-110701000D01*
X147951000Y-110701000D01*
G37*
G36*
X148951000Y-110701000D02*
X148349000Y-110701000D01*
X148349000Y-107299000D01*
X148951000Y-107299000D01*
X148951000Y-110701000D01*
X148951000Y-110701000D01*
G37*
G36*
X146151000Y-110701000D02*
X145549000Y-110701000D01*
X145549000Y-107299000D01*
X146151000Y-107299000D01*
X146151000Y-110701000D01*
X146151000Y-110701000D01*
G37*
G36*
X127588677Y-109353465D02*
X127626364Y-109364898D01*
X127661103Y-109383466D01*
X127691548Y-109408452D01*
X127716534Y-109438897D01*
X127735102Y-109473636D01*
X127746535Y-109511323D01*
X127751000Y-109556661D01*
X127751000Y-110393339D01*
X127746535Y-110438677D01*
X127735102Y-110476364D01*
X127716534Y-110511103D01*
X127691548Y-110541548D01*
X127661103Y-110566534D01*
X127626364Y-110585102D01*
X127588677Y-110596535D01*
X127543339Y-110601000D01*
X126456661Y-110601000D01*
X126411323Y-110596535D01*
X126373636Y-110585102D01*
X126338897Y-110566534D01*
X126308452Y-110541548D01*
X126283466Y-110511103D01*
X126264898Y-110476364D01*
X126253465Y-110438677D01*
X126249000Y-110393339D01*
X126249000Y-109556661D01*
X126253465Y-109511323D01*
X126264898Y-109473636D01*
X126283466Y-109438897D01*
X126308452Y-109408452D01*
X126338897Y-109383466D01*
X126373636Y-109364898D01*
X126411323Y-109353465D01*
X126456661Y-109349000D01*
X127543339Y-109349000D01*
X127588677Y-109353465D01*
X127588677Y-109353465D01*
G37*
G36*
X144588677Y-109328465D02*
X144626364Y-109339898D01*
X144661103Y-109358466D01*
X144691548Y-109383452D01*
X144716534Y-109413897D01*
X144735102Y-109448636D01*
X144746535Y-109486323D01*
X144751000Y-109531661D01*
X144751000Y-110368339D01*
X144746535Y-110413677D01*
X144735102Y-110451364D01*
X144716534Y-110486103D01*
X144691548Y-110516548D01*
X144661103Y-110541534D01*
X144626364Y-110560102D01*
X144588677Y-110571535D01*
X144543339Y-110576000D01*
X143456661Y-110576000D01*
X143411323Y-110571535D01*
X143373636Y-110560102D01*
X143338897Y-110541534D01*
X143308452Y-110516548D01*
X143283466Y-110486103D01*
X143264898Y-110451364D01*
X143253465Y-110413677D01*
X143249000Y-110368339D01*
X143249000Y-109531661D01*
X143253465Y-109486323D01*
X143264898Y-109448636D01*
X143283466Y-109413897D01*
X143308452Y-109383452D01*
X143338897Y-109358466D01*
X143373636Y-109339898D01*
X143411323Y-109328465D01*
X143456661Y-109324000D01*
X144543339Y-109324000D01*
X144588677Y-109328465D01*
X144588677Y-109328465D01*
G37*
G36*
X141588677Y-109328465D02*
X141626364Y-109339898D01*
X141661103Y-109358466D01*
X141691548Y-109383452D01*
X141716534Y-109413897D01*
X141735102Y-109448636D01*
X141746535Y-109486323D01*
X141751000Y-109531661D01*
X141751000Y-110368339D01*
X141746535Y-110413677D01*
X141735102Y-110451364D01*
X141716534Y-110486103D01*
X141691548Y-110516548D01*
X141661103Y-110541534D01*
X141626364Y-110560102D01*
X141588677Y-110571535D01*
X141543339Y-110576000D01*
X140456661Y-110576000D01*
X140411323Y-110571535D01*
X140373636Y-110560102D01*
X140338897Y-110541534D01*
X140308452Y-110516548D01*
X140283466Y-110486103D01*
X140264898Y-110451364D01*
X140253465Y-110413677D01*
X140249000Y-110368339D01*
X140249000Y-109531661D01*
X140253465Y-109486323D01*
X140264898Y-109448636D01*
X140283466Y-109413897D01*
X140308452Y-109383452D01*
X140338897Y-109358466D01*
X140373636Y-109339898D01*
X140411323Y-109328465D01*
X140456661Y-109324000D01*
X141543339Y-109324000D01*
X141588677Y-109328465D01*
X141588677Y-109328465D01*
G37*
G36*
X138588677Y-109328465D02*
X138626364Y-109339898D01*
X138661103Y-109358466D01*
X138691548Y-109383452D01*
X138716534Y-109413897D01*
X138735102Y-109448636D01*
X138746535Y-109486323D01*
X138751000Y-109531661D01*
X138751000Y-110368339D01*
X138746535Y-110413677D01*
X138735102Y-110451364D01*
X138716534Y-110486103D01*
X138691548Y-110516548D01*
X138661103Y-110541534D01*
X138626364Y-110560102D01*
X138588677Y-110571535D01*
X138543339Y-110576000D01*
X137456661Y-110576000D01*
X137411323Y-110571535D01*
X137373636Y-110560102D01*
X137338897Y-110541534D01*
X137308452Y-110516548D01*
X137283466Y-110486103D01*
X137264898Y-110451364D01*
X137253465Y-110413677D01*
X137249000Y-110368339D01*
X137249000Y-109531661D01*
X137253465Y-109486323D01*
X137264898Y-109448636D01*
X137283466Y-109413897D01*
X137308452Y-109383452D01*
X137338897Y-109358466D01*
X137373636Y-109339898D01*
X137411323Y-109328465D01*
X137456661Y-109324000D01*
X138543339Y-109324000D01*
X138588677Y-109328465D01*
X138588677Y-109328465D01*
G37*
G36*
X133531000Y-110376000D02*
X131869000Y-110376000D01*
X131869000Y-109624000D01*
X133531000Y-109624000D01*
X133531000Y-110376000D01*
X133531000Y-110376000D01*
G37*
G36*
X136463677Y-107253465D02*
X136501364Y-107264898D01*
X136536103Y-107283466D01*
X136566548Y-107308452D01*
X136591534Y-107338897D01*
X136610102Y-107373636D01*
X136621535Y-107411323D01*
X136626000Y-107456661D01*
X136626000Y-108543339D01*
X136621535Y-108588677D01*
X136610102Y-108626364D01*
X136591534Y-108661103D01*
X136566548Y-108691548D01*
X136536103Y-108716534D01*
X136501364Y-108735102D01*
X136463677Y-108746535D01*
X136418339Y-108751000D01*
X135581661Y-108751000D01*
X135536323Y-108746535D01*
X135498636Y-108735102D01*
X135463897Y-108716534D01*
X135433452Y-108691548D01*
X135408466Y-108661103D01*
X135389898Y-108626364D01*
X135378465Y-108588677D01*
X135374000Y-108543339D01*
X135374000Y-107456661D01*
X135378465Y-107411323D01*
X135389898Y-107373636D01*
X135408466Y-107338897D01*
X135433452Y-107308452D01*
X135463897Y-107283466D01*
X135498636Y-107264898D01*
X135536323Y-107253465D01*
X135581661Y-107249000D01*
X136418339Y-107249000D01*
X136463677Y-107253465D01*
X136463677Y-107253465D01*
G37*
G36*
X138513677Y-107253465D02*
X138551364Y-107264898D01*
X138586103Y-107283466D01*
X138616548Y-107308452D01*
X138641534Y-107338897D01*
X138660102Y-107373636D01*
X138671535Y-107411323D01*
X138676000Y-107456661D01*
X138676000Y-108543339D01*
X138671535Y-108588677D01*
X138660102Y-108626364D01*
X138641534Y-108661103D01*
X138616548Y-108691548D01*
X138586103Y-108716534D01*
X138551364Y-108735102D01*
X138513677Y-108746535D01*
X138468339Y-108751000D01*
X137631661Y-108751000D01*
X137586323Y-108746535D01*
X137548636Y-108735102D01*
X137513897Y-108716534D01*
X137483452Y-108691548D01*
X137458466Y-108661103D01*
X137439898Y-108626364D01*
X137428465Y-108588677D01*
X137424000Y-108543339D01*
X137424000Y-107456661D01*
X137428465Y-107411323D01*
X137439898Y-107373636D01*
X137458466Y-107338897D01*
X137483452Y-107308452D01*
X137513897Y-107283466D01*
X137548636Y-107264898D01*
X137586323Y-107253465D01*
X137631661Y-107249000D01*
X138468339Y-107249000D01*
X138513677Y-107253465D01*
X138513677Y-107253465D01*
G37*
G36*
X160413677Y-107253465D02*
X160451364Y-107264898D01*
X160486103Y-107283466D01*
X160516548Y-107308452D01*
X160541534Y-107338897D01*
X160560102Y-107373636D01*
X160571535Y-107411323D01*
X160576000Y-107456661D01*
X160576000Y-108543339D01*
X160571535Y-108588677D01*
X160560102Y-108626364D01*
X160541534Y-108661103D01*
X160516548Y-108691548D01*
X160486103Y-108716534D01*
X160451364Y-108735102D01*
X160413677Y-108746535D01*
X160368339Y-108751000D01*
X159531661Y-108751000D01*
X159486323Y-108746535D01*
X159448636Y-108735102D01*
X159413897Y-108716534D01*
X159383452Y-108691548D01*
X159358466Y-108661103D01*
X159339898Y-108626364D01*
X159328465Y-108588677D01*
X159324000Y-108543339D01*
X159324000Y-107456661D01*
X159328465Y-107411323D01*
X159339898Y-107373636D01*
X159358466Y-107338897D01*
X159383452Y-107308452D01*
X159413897Y-107283466D01*
X159448636Y-107264898D01*
X159486323Y-107253465D01*
X159531661Y-107249000D01*
X160368339Y-107249000D01*
X160413677Y-107253465D01*
X160413677Y-107253465D01*
G37*
G36*
X162463677Y-107253465D02*
X162501364Y-107264898D01*
X162536103Y-107283466D01*
X162566548Y-107308452D01*
X162591534Y-107338897D01*
X162610102Y-107373636D01*
X162621535Y-107411323D01*
X162626000Y-107456661D01*
X162626000Y-108543339D01*
X162621535Y-108588677D01*
X162610102Y-108626364D01*
X162591534Y-108661103D01*
X162566548Y-108691548D01*
X162536103Y-108716534D01*
X162501364Y-108735102D01*
X162463677Y-108746535D01*
X162418339Y-108751000D01*
X161581661Y-108751000D01*
X161536323Y-108746535D01*
X161498636Y-108735102D01*
X161463897Y-108716534D01*
X161433452Y-108691548D01*
X161408466Y-108661103D01*
X161389898Y-108626364D01*
X161378465Y-108588677D01*
X161374000Y-108543339D01*
X161374000Y-107456661D01*
X161378465Y-107411323D01*
X161389898Y-107373636D01*
X161408466Y-107338897D01*
X161433452Y-107308452D01*
X161463897Y-107283466D01*
X161498636Y-107264898D01*
X161536323Y-107253465D01*
X161581661Y-107249000D01*
X162418339Y-107249000D01*
X162463677Y-107253465D01*
X162463677Y-107253465D01*
G37*
G36*
X98051000Y-107851000D02*
X93949000Y-107851000D01*
X93949000Y-105749000D01*
X98051000Y-105749000D01*
X98051000Y-107851000D01*
X98051000Y-107851000D01*
G37*
G36*
X92051000Y-107851000D02*
X87949000Y-107851000D01*
X87949000Y-105749000D01*
X92051000Y-105749000D01*
X92051000Y-107851000D01*
X92051000Y-107851000D01*
G37*
G36*
X208051000Y-107851000D02*
X197949000Y-107851000D01*
X197949000Y-105749000D01*
X208051000Y-105749000D01*
X208051000Y-107851000D01*
X208051000Y-107851000D01*
G37*
G36*
X167681000Y-107326000D02*
X166019000Y-107326000D01*
X166019000Y-104674000D01*
X167681000Y-104674000D01*
X167681000Y-107326000D01*
X167681000Y-107326000D01*
G37*
G36*
X164981000Y-107326000D02*
X163319000Y-107326000D01*
X163319000Y-106574000D01*
X164981000Y-106574000D01*
X164981000Y-107326000D01*
X164981000Y-107326000D01*
G37*
G36*
X170088677Y-105928465D02*
X170126364Y-105939898D01*
X170161103Y-105958466D01*
X170191548Y-105983452D01*
X170216534Y-106013897D01*
X170235102Y-106048636D01*
X170246535Y-106086323D01*
X170251000Y-106131661D01*
X170251000Y-106968339D01*
X170246535Y-107013677D01*
X170235102Y-107051364D01*
X170216534Y-107086103D01*
X170191548Y-107116548D01*
X170161103Y-107141534D01*
X170126364Y-107160102D01*
X170088677Y-107171535D01*
X170043339Y-107176000D01*
X168956661Y-107176000D01*
X168911323Y-107171535D01*
X168873636Y-107160102D01*
X168838897Y-107141534D01*
X168808452Y-107116548D01*
X168783466Y-107086103D01*
X168764898Y-107051364D01*
X168753465Y-107013677D01*
X168749000Y-106968339D01*
X168749000Y-106131661D01*
X168753465Y-106086323D01*
X168764898Y-106048636D01*
X168783466Y-106013897D01*
X168808452Y-105983452D01*
X168838897Y-105958466D01*
X168873636Y-105939898D01*
X168911323Y-105928465D01*
X168956661Y-105924000D01*
X170043339Y-105924000D01*
X170088677Y-105928465D01*
X170088677Y-105928465D01*
G37*
G36*
X149116000Y-106351000D02*
X146884000Y-106351000D01*
X146884000Y-103649000D01*
X149116000Y-103649000D01*
X149116000Y-106351000D01*
X149116000Y-106351000D01*
G37*
G36*
X146361000Y-106351000D02*
X145239000Y-106351000D01*
X145239000Y-103649000D01*
X146361000Y-103649000D01*
X146361000Y-106351000D01*
X146361000Y-106351000D01*
G37*
G36*
X142822999Y-104099737D02*
X142832611Y-104102653D01*
X142841469Y-104107388D01*
X142849237Y-104113763D01*
X142855612Y-104121531D01*
X142860347Y-104130389D01*
X142863263Y-104140001D01*
X142863602Y-104143447D01*
X142868382Y-104167480D01*
X142877760Y-104190119D01*
X142891374Y-104210494D01*
X142908701Y-104227821D01*
X142929075Y-104241435D01*
X142951714Y-104250812D01*
X142975748Y-104255593D01*
X143000252Y-104255593D01*
X143024285Y-104250813D01*
X143046924Y-104241435D01*
X143067299Y-104227821D01*
X143084626Y-104210494D01*
X143098240Y-104190120D01*
X143107617Y-104167481D01*
X143112398Y-104143447D01*
X143112737Y-104140001D01*
X143115653Y-104130389D01*
X143120388Y-104121531D01*
X143126763Y-104113763D01*
X143134531Y-104107388D01*
X143143389Y-104102653D01*
X143153001Y-104099737D01*
X143169140Y-104098148D01*
X143356860Y-104098148D01*
X143372999Y-104099737D01*
X143384311Y-104103169D01*
X143393101Y-104107553D01*
X143859041Y-104382212D01*
X143864025Y-104385852D01*
X143864024Y-104385852D01*
X143872137Y-104391778D01*
X143877770Y-104397903D01*
X143878940Y-104399175D01*
X143884165Y-104407750D01*
X143884165Y-104407751D01*
X143887619Y-104417185D01*
X143889247Y-104430000D01*
X143889247Y-104433147D01*
X143889852Y-104437908D01*
X143889852Y-105563860D01*
X143888263Y-105579999D01*
X143885347Y-105589611D01*
X143880612Y-105598469D01*
X143880610Y-105598471D01*
X143874237Y-105606237D01*
X143864024Y-105614148D01*
X143861307Y-105615750D01*
X143857517Y-105618685D01*
X143394625Y-105891548D01*
X143389030Y-105894145D01*
X143389024Y-105894148D01*
X143383571Y-105896678D01*
X143379912Y-105898376D01*
X143373692Y-105899886D01*
X143370148Y-105900746D01*
X143370147Y-105900746D01*
X143368417Y-105901166D01*
X143358626Y-105901852D01*
X143169140Y-105901852D01*
X143153001Y-105900263D01*
X143143389Y-105897347D01*
X143134531Y-105892612D01*
X143126763Y-105886237D01*
X143120388Y-105878469D01*
X143115653Y-105869611D01*
X143112737Y-105859999D01*
X143112398Y-105856553D01*
X143107618Y-105832520D01*
X143098240Y-105809881D01*
X143084626Y-105789506D01*
X143067299Y-105772179D01*
X143046925Y-105758565D01*
X143024286Y-105749188D01*
X143000252Y-105744407D01*
X142975748Y-105744407D01*
X142951715Y-105749187D01*
X142929076Y-105758565D01*
X142908701Y-105772179D01*
X142891374Y-105789506D01*
X142877760Y-105809880D01*
X142868383Y-105832519D01*
X142863602Y-105856553D01*
X142863263Y-105859999D01*
X142860347Y-105869611D01*
X142855612Y-105878469D01*
X142849237Y-105886237D01*
X142841469Y-105892612D01*
X142832611Y-105897347D01*
X142822999Y-105900263D01*
X142806860Y-105901852D01*
X142619140Y-105901852D01*
X142603001Y-105900263D01*
X142591689Y-105896831D01*
X142582899Y-105892447D01*
X142116959Y-105617788D01*
X142103866Y-105608224D01*
X142103863Y-105608222D01*
X142097063Y-105600828D01*
X142097060Y-105600825D01*
X142091835Y-105592250D01*
X142088994Y-105584489D01*
X142088381Y-105582815D01*
X142086753Y-105570000D01*
X142086753Y-105566853D01*
X142086148Y-105562092D01*
X142086148Y-104436140D01*
X142087737Y-104420001D01*
X142090653Y-104410389D01*
X142095389Y-104401529D01*
X142100633Y-104395140D01*
X142101763Y-104393763D01*
X142111976Y-104385852D01*
X142114693Y-104384250D01*
X142118483Y-104381315D01*
X142581375Y-104108452D01*
X142586970Y-104105855D01*
X142586976Y-104105852D01*
X142593871Y-104102653D01*
X142596088Y-104101624D01*
X142603858Y-104099738D01*
X142605852Y-104099254D01*
X142605853Y-104099254D01*
X142607583Y-104098834D01*
X142617374Y-104098148D01*
X142806860Y-104098148D01*
X142822999Y-104099737D01*
X142822999Y-104099737D01*
G37*
G36*
X150822999Y-104099737D02*
X150832611Y-104102653D01*
X150841469Y-104107388D01*
X150849237Y-104113763D01*
X150855612Y-104121531D01*
X150860347Y-104130389D01*
X150863263Y-104140001D01*
X150863602Y-104143447D01*
X150868382Y-104167480D01*
X150877760Y-104190119D01*
X150891374Y-104210494D01*
X150908701Y-104227821D01*
X150929075Y-104241435D01*
X150951714Y-104250812D01*
X150975748Y-104255593D01*
X151000252Y-104255593D01*
X151024285Y-104250813D01*
X151046924Y-104241435D01*
X151067299Y-104227821D01*
X151084626Y-104210494D01*
X151098240Y-104190120D01*
X151107617Y-104167481D01*
X151112398Y-104143447D01*
X151112737Y-104140001D01*
X151115653Y-104130389D01*
X151120388Y-104121531D01*
X151126763Y-104113763D01*
X151134531Y-104107388D01*
X151143389Y-104102653D01*
X151153001Y-104099737D01*
X151169140Y-104098148D01*
X151356860Y-104098148D01*
X151372999Y-104099737D01*
X151384311Y-104103169D01*
X151393101Y-104107553D01*
X151859041Y-104382212D01*
X151864025Y-104385852D01*
X151864024Y-104385852D01*
X151872137Y-104391778D01*
X151877770Y-104397903D01*
X151878940Y-104399175D01*
X151884165Y-104407750D01*
X151884165Y-104407751D01*
X151887619Y-104417185D01*
X151889247Y-104430000D01*
X151889247Y-104433147D01*
X151889852Y-104437908D01*
X151889852Y-105563860D01*
X151888263Y-105579999D01*
X151885347Y-105589611D01*
X151880612Y-105598469D01*
X151880610Y-105598471D01*
X151874237Y-105606237D01*
X151864024Y-105614148D01*
X151861307Y-105615750D01*
X151857517Y-105618685D01*
X151394625Y-105891548D01*
X151389030Y-105894145D01*
X151389024Y-105894148D01*
X151383571Y-105896678D01*
X151379912Y-105898376D01*
X151373692Y-105899886D01*
X151370148Y-105900746D01*
X151370147Y-105900746D01*
X151368417Y-105901166D01*
X151358626Y-105901852D01*
X151169140Y-105901852D01*
X151153001Y-105900263D01*
X151143389Y-105897347D01*
X151134531Y-105892612D01*
X151126763Y-105886237D01*
X151120388Y-105878469D01*
X151115653Y-105869611D01*
X151112737Y-105859999D01*
X151112398Y-105856553D01*
X151107618Y-105832520D01*
X151098240Y-105809881D01*
X151084626Y-105789506D01*
X151067299Y-105772179D01*
X151046925Y-105758565D01*
X151024286Y-105749188D01*
X151000252Y-105744407D01*
X150975748Y-105744407D01*
X150951715Y-105749187D01*
X150929076Y-105758565D01*
X150908701Y-105772179D01*
X150891374Y-105789506D01*
X150877760Y-105809880D01*
X150868383Y-105832519D01*
X150863602Y-105856553D01*
X150863263Y-105859999D01*
X150860347Y-105869611D01*
X150855612Y-105878469D01*
X150849237Y-105886237D01*
X150841469Y-105892612D01*
X150832611Y-105897347D01*
X150822999Y-105900263D01*
X150806860Y-105901852D01*
X150619140Y-105901852D01*
X150603001Y-105900263D01*
X150591689Y-105896831D01*
X150582899Y-105892447D01*
X150116959Y-105617788D01*
X150103866Y-105608224D01*
X150103863Y-105608222D01*
X150097063Y-105600828D01*
X150097060Y-105600825D01*
X150091835Y-105592250D01*
X150088994Y-105584489D01*
X150088381Y-105582815D01*
X150086753Y-105570000D01*
X150086753Y-105566853D01*
X150086148Y-105562092D01*
X150086148Y-104436140D01*
X150087737Y-104420001D01*
X150090653Y-104410389D01*
X150095389Y-104401529D01*
X150100633Y-104395140D01*
X150101763Y-104393763D01*
X150111976Y-104385852D01*
X150114693Y-104384250D01*
X150118483Y-104381315D01*
X150581375Y-104108452D01*
X150586970Y-104105855D01*
X150586976Y-104105852D01*
X150593871Y-104102653D01*
X150596088Y-104101624D01*
X150603858Y-104099738D01*
X150605852Y-104099254D01*
X150605853Y-104099254D01*
X150607583Y-104098834D01*
X150617374Y-104098148D01*
X150806860Y-104098148D01*
X150822999Y-104099737D01*
X150822999Y-104099737D01*
G37*
G36*
X160413677Y-104253465D02*
X160451364Y-104264898D01*
X160486103Y-104283466D01*
X160516548Y-104308452D01*
X160541534Y-104338897D01*
X160560102Y-104373636D01*
X160571535Y-104411323D01*
X160576000Y-104456661D01*
X160576000Y-105543339D01*
X160571535Y-105588677D01*
X160560102Y-105626364D01*
X160541534Y-105661103D01*
X160516548Y-105691548D01*
X160486103Y-105716534D01*
X160451364Y-105735102D01*
X160413677Y-105746535D01*
X160368339Y-105751000D01*
X159531661Y-105751000D01*
X159486323Y-105746535D01*
X159448636Y-105735102D01*
X159413897Y-105716534D01*
X159383452Y-105691548D01*
X159358466Y-105661103D01*
X159339898Y-105626364D01*
X159328465Y-105588677D01*
X159324000Y-105543339D01*
X159324000Y-104456661D01*
X159328465Y-104411323D01*
X159339898Y-104373636D01*
X159358466Y-104338897D01*
X159383452Y-104308452D01*
X159413897Y-104283466D01*
X159448636Y-104264898D01*
X159486323Y-104253465D01*
X159531661Y-104249000D01*
X160368339Y-104249000D01*
X160413677Y-104253465D01*
X160413677Y-104253465D01*
G37*
G36*
X136463677Y-104253465D02*
X136501364Y-104264898D01*
X136536103Y-104283466D01*
X136566548Y-104308452D01*
X136591534Y-104338897D01*
X136610102Y-104373636D01*
X136621535Y-104411323D01*
X136626000Y-104456661D01*
X136626000Y-105543339D01*
X136621535Y-105588677D01*
X136610102Y-105626364D01*
X136591534Y-105661103D01*
X136566548Y-105691548D01*
X136536103Y-105716534D01*
X136501364Y-105735102D01*
X136463677Y-105746535D01*
X136418339Y-105751000D01*
X135581661Y-105751000D01*
X135536323Y-105746535D01*
X135498636Y-105735102D01*
X135463897Y-105716534D01*
X135433452Y-105691548D01*
X135408466Y-105661103D01*
X135389898Y-105626364D01*
X135378465Y-105588677D01*
X135374000Y-105543339D01*
X135374000Y-104456661D01*
X135378465Y-104411323D01*
X135389898Y-104373636D01*
X135408466Y-104338897D01*
X135433452Y-104308452D01*
X135463897Y-104283466D01*
X135498636Y-104264898D01*
X135536323Y-104253465D01*
X135581661Y-104249000D01*
X136418339Y-104249000D01*
X136463677Y-104253465D01*
X136463677Y-104253465D01*
G37*
G36*
X162463677Y-104253465D02*
X162501364Y-104264898D01*
X162536103Y-104283466D01*
X162566548Y-104308452D01*
X162591534Y-104338897D01*
X162610102Y-104373636D01*
X162621535Y-104411323D01*
X162626000Y-104456661D01*
X162626000Y-105543339D01*
X162621535Y-105588677D01*
X162610102Y-105626364D01*
X162591534Y-105661103D01*
X162566548Y-105691548D01*
X162536103Y-105716534D01*
X162501364Y-105735102D01*
X162463677Y-105746535D01*
X162418339Y-105751000D01*
X161581661Y-105751000D01*
X161536323Y-105746535D01*
X161498636Y-105735102D01*
X161463897Y-105716534D01*
X161433452Y-105691548D01*
X161408466Y-105661103D01*
X161389898Y-105626364D01*
X161378465Y-105588677D01*
X161374000Y-105543339D01*
X161374000Y-104456661D01*
X161378465Y-104411323D01*
X161389898Y-104373636D01*
X161408466Y-104338897D01*
X161433452Y-104308452D01*
X161463897Y-104283466D01*
X161498636Y-104264898D01*
X161536323Y-104253465D01*
X161581661Y-104249000D01*
X162418339Y-104249000D01*
X162463677Y-104253465D01*
X162463677Y-104253465D01*
G37*
G36*
X138513677Y-104253465D02*
X138551364Y-104264898D01*
X138586103Y-104283466D01*
X138616548Y-104308452D01*
X138641534Y-104338897D01*
X138660102Y-104373636D01*
X138671535Y-104411323D01*
X138676000Y-104456661D01*
X138676000Y-105543339D01*
X138671535Y-105588677D01*
X138660102Y-105626364D01*
X138641534Y-105661103D01*
X138616548Y-105691548D01*
X138586103Y-105716534D01*
X138551364Y-105735102D01*
X138513677Y-105746535D01*
X138468339Y-105751000D01*
X137631661Y-105751000D01*
X137586323Y-105746535D01*
X137548636Y-105735102D01*
X137513897Y-105716534D01*
X137483452Y-105691548D01*
X137458466Y-105661103D01*
X137439898Y-105626364D01*
X137428465Y-105588677D01*
X137424000Y-105543339D01*
X137424000Y-104456661D01*
X137428465Y-104411323D01*
X137439898Y-104373636D01*
X137458466Y-104338897D01*
X137483452Y-104308452D01*
X137513897Y-104283466D01*
X137548636Y-104264898D01*
X137586323Y-104253465D01*
X137631661Y-104249000D01*
X138468339Y-104249000D01*
X138513677Y-104253465D01*
X138513677Y-104253465D01*
G37*
G36*
X127588677Y-104378465D02*
X127626364Y-104389898D01*
X127661103Y-104408466D01*
X127691548Y-104433452D01*
X127716534Y-104463897D01*
X127735102Y-104498636D01*
X127746535Y-104536323D01*
X127751000Y-104581661D01*
X127751000Y-105418339D01*
X127746535Y-105463677D01*
X127735102Y-105501364D01*
X127716534Y-105536103D01*
X127691548Y-105566548D01*
X127661103Y-105591534D01*
X127626364Y-105610102D01*
X127588677Y-105621535D01*
X127543339Y-105626000D01*
X126456661Y-105626000D01*
X126411323Y-105621535D01*
X126373636Y-105610102D01*
X126338897Y-105591534D01*
X126308452Y-105566548D01*
X126283466Y-105536103D01*
X126264898Y-105501364D01*
X126253465Y-105463677D01*
X126249000Y-105418339D01*
X126249000Y-104581661D01*
X126253465Y-104536323D01*
X126264898Y-104498636D01*
X126283466Y-104463897D01*
X126308452Y-104433452D01*
X126338897Y-104408466D01*
X126373636Y-104389898D01*
X126411323Y-104378465D01*
X126456661Y-104374000D01*
X127543339Y-104374000D01*
X127588677Y-104378465D01*
X127588677Y-104378465D01*
G37*
G36*
X164981000Y-105426000D02*
X163319000Y-105426000D01*
X163319000Y-104674000D01*
X164981000Y-104674000D01*
X164981000Y-105426000D01*
X164981000Y-105426000D01*
G37*
G36*
X130331000Y-105376000D02*
X128669000Y-105376000D01*
X128669000Y-102724000D01*
X130331000Y-102724000D01*
X130331000Y-105376000D01*
X130331000Y-105376000D01*
G37*
G36*
X133031000Y-105376000D02*
X131369000Y-105376000D01*
X131369000Y-104624000D01*
X133031000Y-104624000D01*
X133031000Y-105376000D01*
X133031000Y-105376000D01*
G37*
G36*
X170088677Y-103878465D02*
X170126364Y-103889898D01*
X170161103Y-103908466D01*
X170191548Y-103933452D01*
X170216534Y-103963897D01*
X170235102Y-103998636D01*
X170246535Y-104036323D01*
X170251000Y-104081661D01*
X170251000Y-104918339D01*
X170246535Y-104963677D01*
X170235102Y-105001364D01*
X170216534Y-105036103D01*
X170191548Y-105066548D01*
X170161103Y-105091534D01*
X170126364Y-105110102D01*
X170088677Y-105121535D01*
X170043339Y-105126000D01*
X168956661Y-105126000D01*
X168911323Y-105121535D01*
X168873636Y-105110102D01*
X168838897Y-105091534D01*
X168808452Y-105066548D01*
X168783466Y-105036103D01*
X168764898Y-105001364D01*
X168753465Y-104963677D01*
X168749000Y-104918339D01*
X168749000Y-104081661D01*
X168753465Y-104036323D01*
X168764898Y-103998636D01*
X168783466Y-103963897D01*
X168808452Y-103933452D01*
X168838897Y-103908466D01*
X168873636Y-103889898D01*
X168911323Y-103878465D01*
X168956661Y-103874000D01*
X170043339Y-103874000D01*
X170088677Y-103878465D01*
X170088677Y-103878465D01*
G37*
G36*
X202051000Y-104251000D02*
X197949000Y-104251000D01*
X197949000Y-102149000D01*
X202051000Y-102149000D01*
X202051000Y-104251000D01*
X202051000Y-104251000D01*
G37*
G36*
X98051000Y-104251000D02*
X87949000Y-104251000D01*
X87949000Y-102149000D01*
X98051000Y-102149000D01*
X98051000Y-104251000D01*
X98051000Y-104251000D01*
G37*
G36*
X208051000Y-104251000D02*
X203949000Y-104251000D01*
X203949000Y-102149000D01*
X208051000Y-102149000D01*
X208051000Y-104251000D01*
X208051000Y-104251000D01*
G37*
G36*
X127588677Y-102328465D02*
X127626364Y-102339898D01*
X127661103Y-102358466D01*
X127691548Y-102383452D01*
X127716534Y-102413897D01*
X127735102Y-102448636D01*
X127746535Y-102486323D01*
X127751000Y-102531661D01*
X127751000Y-103368339D01*
X127746535Y-103413677D01*
X127735102Y-103451364D01*
X127716534Y-103486103D01*
X127691548Y-103516548D01*
X127661103Y-103541534D01*
X127626364Y-103560102D01*
X127588677Y-103571535D01*
X127543339Y-103576000D01*
X126456661Y-103576000D01*
X126411323Y-103571535D01*
X126373636Y-103560102D01*
X126338897Y-103541534D01*
X126308452Y-103516548D01*
X126283466Y-103486103D01*
X126264898Y-103451364D01*
X126253465Y-103413677D01*
X126249000Y-103368339D01*
X126249000Y-102531661D01*
X126253465Y-102486323D01*
X126264898Y-102448636D01*
X126283466Y-102413897D01*
X126308452Y-102383452D01*
X126338897Y-102358466D01*
X126373636Y-102339898D01*
X126411323Y-102328465D01*
X126456661Y-102324000D01*
X127543339Y-102324000D01*
X127588677Y-102328465D01*
X127588677Y-102328465D01*
G37*
G36*
X133031000Y-103476000D02*
X131369000Y-103476000D01*
X131369000Y-102724000D01*
X133031000Y-102724000D01*
X133031000Y-103476000D01*
X133031000Y-103476000D01*
G37*
G36*
X167513677Y-101253465D02*
X167551364Y-101264898D01*
X167586103Y-101283466D01*
X167616548Y-101308452D01*
X167641534Y-101338897D01*
X167660102Y-101373636D01*
X167671535Y-101411323D01*
X167676000Y-101456661D01*
X167676000Y-102543339D01*
X167671535Y-102588677D01*
X167660102Y-102626364D01*
X167641534Y-102661103D01*
X167616548Y-102691548D01*
X167586103Y-102716534D01*
X167551364Y-102735102D01*
X167513677Y-102746535D01*
X167468339Y-102751000D01*
X166631661Y-102751000D01*
X166586323Y-102746535D01*
X166548636Y-102735102D01*
X166513897Y-102716534D01*
X166483452Y-102691548D01*
X166458466Y-102661103D01*
X166439898Y-102626364D01*
X166428465Y-102588677D01*
X166424000Y-102543339D01*
X166424000Y-101456661D01*
X166428465Y-101411323D01*
X166439898Y-101373636D01*
X166458466Y-101338897D01*
X166483452Y-101308452D01*
X166513897Y-101283466D01*
X166548636Y-101264898D01*
X166586323Y-101253465D01*
X166631661Y-101249000D01*
X167468339Y-101249000D01*
X167513677Y-101253465D01*
X167513677Y-101253465D01*
G37*
G36*
X165463677Y-101253465D02*
X165501364Y-101264898D01*
X165536103Y-101283466D01*
X165566548Y-101308452D01*
X165591534Y-101338897D01*
X165610102Y-101373636D01*
X165621535Y-101411323D01*
X165626000Y-101456661D01*
X165626000Y-102543339D01*
X165621535Y-102588677D01*
X165610102Y-102626364D01*
X165591534Y-102661103D01*
X165566548Y-102691548D01*
X165536103Y-102716534D01*
X165501364Y-102735102D01*
X165463677Y-102746535D01*
X165418339Y-102751000D01*
X164581661Y-102751000D01*
X164536323Y-102746535D01*
X164498636Y-102735102D01*
X164463897Y-102716534D01*
X164433452Y-102691548D01*
X164408466Y-102661103D01*
X164389898Y-102626364D01*
X164378465Y-102588677D01*
X164374000Y-102543339D01*
X164374000Y-101456661D01*
X164378465Y-101411323D01*
X164389898Y-101373636D01*
X164408466Y-101338897D01*
X164433452Y-101308452D01*
X164463897Y-101283466D01*
X164498636Y-101264898D01*
X164536323Y-101253465D01*
X164581661Y-101249000D01*
X165418339Y-101249000D01*
X165463677Y-101253465D01*
X165463677Y-101253465D01*
G37*
G36*
X136463677Y-101253465D02*
X136501364Y-101264898D01*
X136536103Y-101283466D01*
X136566548Y-101308452D01*
X136591534Y-101338897D01*
X136610102Y-101373636D01*
X136621535Y-101411323D01*
X136626000Y-101456661D01*
X136626000Y-102543339D01*
X136621535Y-102588677D01*
X136610102Y-102626364D01*
X136591534Y-102661103D01*
X136566548Y-102691548D01*
X136536103Y-102716534D01*
X136501364Y-102735102D01*
X136463677Y-102746535D01*
X136418339Y-102751000D01*
X135581661Y-102751000D01*
X135536323Y-102746535D01*
X135498636Y-102735102D01*
X135463897Y-102716534D01*
X135433452Y-102691548D01*
X135408466Y-102661103D01*
X135389898Y-102626364D01*
X135378465Y-102588677D01*
X135374000Y-102543339D01*
X135374000Y-101456661D01*
X135378465Y-101411323D01*
X135389898Y-101373636D01*
X135408466Y-101338897D01*
X135433452Y-101308452D01*
X135463897Y-101283466D01*
X135498636Y-101264898D01*
X135536323Y-101253465D01*
X135581661Y-101249000D01*
X136418339Y-101249000D01*
X136463677Y-101253465D01*
X136463677Y-101253465D01*
G37*
G36*
X138513677Y-101253465D02*
X138551364Y-101264898D01*
X138586103Y-101283466D01*
X138616548Y-101308452D01*
X138641534Y-101338897D01*
X138660102Y-101373636D01*
X138671535Y-101411323D01*
X138676000Y-101456661D01*
X138676000Y-102543339D01*
X138671535Y-102588677D01*
X138660102Y-102626364D01*
X138641534Y-102661103D01*
X138616548Y-102691548D01*
X138586103Y-102716534D01*
X138551364Y-102735102D01*
X138513677Y-102746535D01*
X138468339Y-102751000D01*
X137631661Y-102751000D01*
X137586323Y-102746535D01*
X137548636Y-102735102D01*
X137513897Y-102716534D01*
X137483452Y-102691548D01*
X137458466Y-102661103D01*
X137439898Y-102626364D01*
X137428465Y-102588677D01*
X137424000Y-102543339D01*
X137424000Y-101456661D01*
X137428465Y-101411323D01*
X137439898Y-101373636D01*
X137458466Y-101338897D01*
X137483452Y-101308452D01*
X137513897Y-101283466D01*
X137548636Y-101264898D01*
X137586323Y-101253465D01*
X137631661Y-101249000D01*
X138468339Y-101249000D01*
X138513677Y-101253465D01*
X138513677Y-101253465D01*
G37*
G36*
X148076000Y-101851000D02*
X146374000Y-101851000D01*
X146374000Y-100149000D01*
X148076000Y-100149000D01*
X148076000Y-101851000D01*
X148076000Y-101851000D01*
G37*
G36*
X131963677Y-100253465D02*
X132001364Y-100264898D01*
X132036103Y-100283466D01*
X132066548Y-100308452D01*
X132091534Y-100338897D01*
X132110102Y-100373636D01*
X132121535Y-100411323D01*
X132126000Y-100456661D01*
X132126000Y-101543339D01*
X132121535Y-101588677D01*
X132110102Y-101626364D01*
X132091534Y-101661103D01*
X132066548Y-101691548D01*
X132036103Y-101716534D01*
X132001364Y-101735102D01*
X131963677Y-101746535D01*
X131918339Y-101751000D01*
X131081661Y-101751000D01*
X131036323Y-101746535D01*
X130998636Y-101735102D01*
X130963897Y-101716534D01*
X130933452Y-101691548D01*
X130908466Y-101661103D01*
X130889898Y-101626364D01*
X130878465Y-101588677D01*
X130874000Y-101543339D01*
X130874000Y-100456661D01*
X130878465Y-100411323D01*
X130889898Y-100373636D01*
X130908466Y-100338897D01*
X130933452Y-100308452D01*
X130963897Y-100283466D01*
X130998636Y-100264898D01*
X131036323Y-100253465D01*
X131081661Y-100249000D01*
X131918339Y-100249000D01*
X131963677Y-100253465D01*
X131963677Y-100253465D01*
G37*
G36*
X129913677Y-100253465D02*
X129951364Y-100264898D01*
X129986103Y-100283466D01*
X130016548Y-100308452D01*
X130041534Y-100338897D01*
X130060102Y-100373636D01*
X130071535Y-100411323D01*
X130076000Y-100456661D01*
X130076000Y-101543339D01*
X130071535Y-101588677D01*
X130060102Y-101626364D01*
X130041534Y-101661103D01*
X130016548Y-101691548D01*
X129986103Y-101716534D01*
X129951364Y-101735102D01*
X129913677Y-101746535D01*
X129868339Y-101751000D01*
X129031661Y-101751000D01*
X128986323Y-101746535D01*
X128948636Y-101735102D01*
X128913897Y-101716534D01*
X128883452Y-101691548D01*
X128858466Y-101661103D01*
X128839898Y-101626364D01*
X128828465Y-101588677D01*
X128824000Y-101543339D01*
X128824000Y-100456661D01*
X128828465Y-100411323D01*
X128839898Y-100373636D01*
X128858466Y-100338897D01*
X128883452Y-100308452D01*
X128913897Y-100283466D01*
X128948636Y-100264898D01*
X128986323Y-100253465D01*
X129031661Y-100249000D01*
X129868339Y-100249000D01*
X129913677Y-100253465D01*
X129913677Y-100253465D01*
G37*
G36*
X207797286Y-99026156D02*
X197793598Y-100432083D01*
X197501056Y-98350540D01*
X207504744Y-96944613D01*
X207797286Y-99026156D01*
X207797286Y-99026156D01*
G37*
G36*
X151588677Y-97428465D02*
X151626364Y-97439898D01*
X151661103Y-97458466D01*
X151691548Y-97483452D01*
X151716534Y-97513897D01*
X151735102Y-97548636D01*
X151746535Y-97586323D01*
X151751000Y-97631661D01*
X151751000Y-98468339D01*
X151746535Y-98513677D01*
X151735102Y-98551364D01*
X151716534Y-98586103D01*
X151691548Y-98616548D01*
X151661103Y-98641534D01*
X151626364Y-98660102D01*
X151588677Y-98671535D01*
X151543339Y-98676000D01*
X150456661Y-98676000D01*
X150411323Y-98671535D01*
X150373636Y-98660102D01*
X150338897Y-98641534D01*
X150308452Y-98616548D01*
X150283466Y-98586103D01*
X150264898Y-98551364D01*
X150253465Y-98513677D01*
X150249000Y-98468339D01*
X150249000Y-97631661D01*
X150253465Y-97586323D01*
X150264898Y-97548636D01*
X150283466Y-97513897D01*
X150308452Y-97483452D01*
X150338897Y-97458466D01*
X150373636Y-97439898D01*
X150411323Y-97428465D01*
X150456661Y-97424000D01*
X151543339Y-97424000D01*
X151588677Y-97428465D01*
X151588677Y-97428465D01*
G37*
G36*
X148588677Y-97428465D02*
X148626364Y-97439898D01*
X148661103Y-97458466D01*
X148691548Y-97483452D01*
X148716534Y-97513897D01*
X148735102Y-97548636D01*
X148746535Y-97586323D01*
X148751000Y-97631661D01*
X148751000Y-98468339D01*
X148746535Y-98513677D01*
X148735102Y-98551364D01*
X148716534Y-98586103D01*
X148691548Y-98616548D01*
X148661103Y-98641534D01*
X148626364Y-98660102D01*
X148588677Y-98671535D01*
X148543339Y-98676000D01*
X147456661Y-98676000D01*
X147411323Y-98671535D01*
X147373636Y-98660102D01*
X147338897Y-98641534D01*
X147308452Y-98616548D01*
X147283466Y-98586103D01*
X147264898Y-98551364D01*
X147253465Y-98513677D01*
X147249000Y-98468339D01*
X147249000Y-97631661D01*
X147253465Y-97586323D01*
X147264898Y-97548636D01*
X147283466Y-97513897D01*
X147308452Y-97483452D01*
X147338897Y-97458466D01*
X147373636Y-97439898D01*
X147411323Y-97428465D01*
X147456661Y-97424000D01*
X148543339Y-97424000D01*
X148588677Y-97428465D01*
X148588677Y-97428465D01*
G37*
G36*
X145588677Y-97428465D02*
X145626364Y-97439898D01*
X145661103Y-97458466D01*
X145691548Y-97483452D01*
X145716534Y-97513897D01*
X145735102Y-97548636D01*
X145746535Y-97586323D01*
X145751000Y-97631661D01*
X145751000Y-98468339D01*
X145746535Y-98513677D01*
X145735102Y-98551364D01*
X145716534Y-98586103D01*
X145691548Y-98616548D01*
X145661103Y-98641534D01*
X145626364Y-98660102D01*
X145588677Y-98671535D01*
X145543339Y-98676000D01*
X144456661Y-98676000D01*
X144411323Y-98671535D01*
X144373636Y-98660102D01*
X144338897Y-98641534D01*
X144308452Y-98616548D01*
X144283466Y-98586103D01*
X144264898Y-98551364D01*
X144253465Y-98513677D01*
X144249000Y-98468339D01*
X144249000Y-97631661D01*
X144253465Y-97586323D01*
X144264898Y-97548636D01*
X144283466Y-97513897D01*
X144308452Y-97483452D01*
X144338897Y-97458466D01*
X144373636Y-97439898D01*
X144411323Y-97428465D01*
X144456661Y-97424000D01*
X145543339Y-97424000D01*
X145588677Y-97428465D01*
X145588677Y-97428465D01*
G37*
G36*
X201354655Y-96296230D02*
X197292575Y-96867118D01*
X197000033Y-94785574D01*
X201062113Y-94214686D01*
X201354655Y-96296230D01*
X201354655Y-96296230D01*
G37*
G36*
X145588677Y-95378465D02*
X145626364Y-95389898D01*
X145661103Y-95408466D01*
X145691548Y-95433452D01*
X145716534Y-95463897D01*
X145735102Y-95498636D01*
X145746535Y-95536323D01*
X145751000Y-95581661D01*
X145751000Y-96418339D01*
X145746535Y-96463677D01*
X145735102Y-96501364D01*
X145716534Y-96536103D01*
X145691548Y-96566548D01*
X145661103Y-96591534D01*
X145626364Y-96610102D01*
X145588677Y-96621535D01*
X145543339Y-96626000D01*
X144456661Y-96626000D01*
X144411323Y-96621535D01*
X144373636Y-96610102D01*
X144338897Y-96591534D01*
X144308452Y-96566548D01*
X144283466Y-96536103D01*
X144264898Y-96501364D01*
X144253465Y-96463677D01*
X144249000Y-96418339D01*
X144249000Y-95581661D01*
X144253465Y-95536323D01*
X144264898Y-95498636D01*
X144283466Y-95463897D01*
X144308452Y-95433452D01*
X144338897Y-95408466D01*
X144373636Y-95389898D01*
X144411323Y-95378465D01*
X144456661Y-95374000D01*
X145543339Y-95374000D01*
X145588677Y-95378465D01*
X145588677Y-95378465D01*
G37*
G36*
X148588677Y-95378465D02*
X148626364Y-95389898D01*
X148661103Y-95408466D01*
X148691548Y-95433452D01*
X148716534Y-95463897D01*
X148735102Y-95498636D01*
X148746535Y-95536323D01*
X148751000Y-95581661D01*
X148751000Y-96418339D01*
X148746535Y-96463677D01*
X148735102Y-96501364D01*
X148716534Y-96536103D01*
X148691548Y-96566548D01*
X148661103Y-96591534D01*
X148626364Y-96610102D01*
X148588677Y-96621535D01*
X148543339Y-96626000D01*
X147456661Y-96626000D01*
X147411323Y-96621535D01*
X147373636Y-96610102D01*
X147338897Y-96591534D01*
X147308452Y-96566548D01*
X147283466Y-96536103D01*
X147264898Y-96501364D01*
X147253465Y-96463677D01*
X147249000Y-96418339D01*
X147249000Y-95581661D01*
X147253465Y-95536323D01*
X147264898Y-95498636D01*
X147283466Y-95463897D01*
X147308452Y-95433452D01*
X147338897Y-95408466D01*
X147373636Y-95389898D01*
X147411323Y-95378465D01*
X147456661Y-95374000D01*
X148543339Y-95374000D01*
X148588677Y-95378465D01*
X148588677Y-95378465D01*
G37*
G36*
X151588677Y-95378465D02*
X151626364Y-95389898D01*
X151661103Y-95408466D01*
X151691548Y-95433452D01*
X151716534Y-95463897D01*
X151735102Y-95498636D01*
X151746535Y-95536323D01*
X151751000Y-95581661D01*
X151751000Y-96418339D01*
X151746535Y-96463677D01*
X151735102Y-96501364D01*
X151716534Y-96536103D01*
X151691548Y-96566548D01*
X151661103Y-96591534D01*
X151626364Y-96610102D01*
X151588677Y-96621535D01*
X151543339Y-96626000D01*
X150456661Y-96626000D01*
X150411323Y-96621535D01*
X150373636Y-96610102D01*
X150338897Y-96591534D01*
X150308452Y-96566548D01*
X150283466Y-96536103D01*
X150264898Y-96501364D01*
X150253465Y-96463677D01*
X150249000Y-96418339D01*
X150249000Y-95581661D01*
X150253465Y-95536323D01*
X150264898Y-95498636D01*
X150283466Y-95463897D01*
X150308452Y-95433452D01*
X150338897Y-95408466D01*
X150373636Y-95389898D01*
X150411323Y-95378465D01*
X150456661Y-95374000D01*
X151543339Y-95374000D01*
X151588677Y-95378465D01*
X151588677Y-95378465D01*
G37*
G36*
X207296263Y-95461192D02*
X203234183Y-96032080D01*
X202941641Y-93950536D01*
X207003721Y-93379648D01*
X207296263Y-95461192D01*
X207296263Y-95461192D01*
G37*
G36*
X146426000Y-93181000D02*
X145674000Y-93181000D01*
X145674000Y-91519000D01*
X146426000Y-91519000D01*
X146426000Y-93181000D01*
X146426000Y-93181000D01*
G37*
G36*
X148326000Y-93181000D02*
X147574000Y-93181000D01*
X147574000Y-91519000D01*
X148326000Y-91519000D01*
X148326000Y-93181000D01*
X148326000Y-93181000D01*
G37*
G36*
X150588677Y-90903465D02*
X150626364Y-90914898D01*
X150661103Y-90933466D01*
X150691548Y-90958452D01*
X150716534Y-90988897D01*
X150735102Y-91023636D01*
X150746535Y-91061323D01*
X150751000Y-91106661D01*
X150751000Y-91943339D01*
X150746535Y-91988677D01*
X150735102Y-92026364D01*
X150716534Y-92061103D01*
X150691548Y-92091548D01*
X150661103Y-92116534D01*
X150626364Y-92135102D01*
X150588677Y-92146535D01*
X150543339Y-92151000D01*
X149456661Y-92151000D01*
X149411323Y-92146535D01*
X149373636Y-92135102D01*
X149338897Y-92116534D01*
X149308452Y-92091548D01*
X149283466Y-92061103D01*
X149264898Y-92026364D01*
X149253465Y-91988677D01*
X149249000Y-91943339D01*
X149249000Y-91106661D01*
X149253465Y-91061323D01*
X149264898Y-91023636D01*
X149283466Y-90988897D01*
X149308452Y-90958452D01*
X149338897Y-90933466D01*
X149373636Y-90914898D01*
X149411323Y-90903465D01*
X149456661Y-90899000D01*
X150543339Y-90899000D01*
X150588677Y-90903465D01*
X150588677Y-90903465D01*
G37*
G36*
X148326000Y-90481000D02*
X145674000Y-90481000D01*
X145674000Y-88819000D01*
X148326000Y-88819000D01*
X148326000Y-90481000D01*
X148326000Y-90481000D01*
G37*
G36*
X166413677Y-88753465D02*
X166451364Y-88764898D01*
X166486103Y-88783466D01*
X166516548Y-88808452D01*
X166541534Y-88838897D01*
X166560102Y-88873636D01*
X166571535Y-88911323D01*
X166576000Y-88956661D01*
X166576000Y-90043339D01*
X166571535Y-90088677D01*
X166560102Y-90126364D01*
X166541534Y-90161103D01*
X166516548Y-90191548D01*
X166486103Y-90216534D01*
X166451364Y-90235102D01*
X166413677Y-90246535D01*
X166368339Y-90251000D01*
X165531661Y-90251000D01*
X165486323Y-90246535D01*
X165448636Y-90235102D01*
X165413897Y-90216534D01*
X165383452Y-90191548D01*
X165358466Y-90161103D01*
X165339898Y-90126364D01*
X165328465Y-90088677D01*
X165324000Y-90043339D01*
X165324000Y-88956661D01*
X165328465Y-88911323D01*
X165339898Y-88873636D01*
X165358466Y-88838897D01*
X165383452Y-88808452D01*
X165413897Y-88783466D01*
X165448636Y-88764898D01*
X165486323Y-88753465D01*
X165531661Y-88749000D01*
X166368339Y-88749000D01*
X166413677Y-88753465D01*
X166413677Y-88753465D01*
G37*
G36*
X168463677Y-88753465D02*
X168501364Y-88764898D01*
X168536103Y-88783466D01*
X168566548Y-88808452D01*
X168591534Y-88838897D01*
X168610102Y-88873636D01*
X168621535Y-88911323D01*
X168626000Y-88956661D01*
X168626000Y-90043339D01*
X168621535Y-90088677D01*
X168610102Y-90126364D01*
X168591534Y-90161103D01*
X168566548Y-90191548D01*
X168536103Y-90216534D01*
X168501364Y-90235102D01*
X168463677Y-90246535D01*
X168418339Y-90251000D01*
X167581661Y-90251000D01*
X167536323Y-90246535D01*
X167498636Y-90235102D01*
X167463897Y-90216534D01*
X167433452Y-90191548D01*
X167408466Y-90161103D01*
X167389898Y-90126364D01*
X167378465Y-90088677D01*
X167374000Y-90043339D01*
X167374000Y-88956661D01*
X167378465Y-88911323D01*
X167389898Y-88873636D01*
X167408466Y-88838897D01*
X167433452Y-88808452D01*
X167463897Y-88783466D01*
X167498636Y-88764898D01*
X167536323Y-88753465D01*
X167581661Y-88749000D01*
X168418339Y-88749000D01*
X168463677Y-88753465D01*
X168463677Y-88753465D01*
G37*
G36*
X150588677Y-88853465D02*
X150626364Y-88864898D01*
X150661103Y-88883466D01*
X150691548Y-88908452D01*
X150716534Y-88938897D01*
X150735102Y-88973636D01*
X150746535Y-89011323D01*
X150751000Y-89056661D01*
X150751000Y-89893339D01*
X150746535Y-89938677D01*
X150735102Y-89976364D01*
X150716534Y-90011103D01*
X150691548Y-90041548D01*
X150661103Y-90066534D01*
X150626364Y-90085102D01*
X150588677Y-90096535D01*
X150543339Y-90101000D01*
X149456661Y-90101000D01*
X149411323Y-90096535D01*
X149373636Y-90085102D01*
X149338897Y-90066534D01*
X149308452Y-90041548D01*
X149283466Y-90011103D01*
X149264898Y-89976364D01*
X149253465Y-89938677D01*
X149249000Y-89893339D01*
X149249000Y-89056661D01*
X149253465Y-89011323D01*
X149264898Y-88973636D01*
X149283466Y-88938897D01*
X149308452Y-88908452D01*
X149338897Y-88883466D01*
X149373636Y-88864898D01*
X149411323Y-88853465D01*
X149456661Y-88849000D01*
X150543339Y-88849000D01*
X150588677Y-88853465D01*
X150588677Y-88853465D01*
G37*
G36*
X148463677Y-86753465D02*
X148501364Y-86764898D01*
X148536103Y-86783466D01*
X148566548Y-86808452D01*
X148591534Y-86838897D01*
X148610102Y-86873636D01*
X148621535Y-86911323D01*
X148626000Y-86956661D01*
X148626000Y-88043339D01*
X148621535Y-88088677D01*
X148610102Y-88126364D01*
X148591534Y-88161103D01*
X148566548Y-88191548D01*
X148536103Y-88216534D01*
X148501364Y-88235102D01*
X148463677Y-88246535D01*
X148418339Y-88251000D01*
X147581661Y-88251000D01*
X147536323Y-88246535D01*
X147498636Y-88235102D01*
X147463897Y-88216534D01*
X147433452Y-88191548D01*
X147408466Y-88161103D01*
X147389898Y-88126364D01*
X147378465Y-88088677D01*
X147374000Y-88043339D01*
X147374000Y-86956661D01*
X147378465Y-86911323D01*
X147389898Y-86873636D01*
X147408466Y-86838897D01*
X147433452Y-86808452D01*
X147463897Y-86783466D01*
X147498636Y-86764898D01*
X147536323Y-86753465D01*
X147581661Y-86749000D01*
X148418339Y-86749000D01*
X148463677Y-86753465D01*
X148463677Y-86753465D01*
G37*
G36*
X146413677Y-86753465D02*
X146451364Y-86764898D01*
X146486103Y-86783466D01*
X146516548Y-86808452D01*
X146541534Y-86838897D01*
X146560102Y-86873636D01*
X146571535Y-86911323D01*
X146576000Y-86956661D01*
X146576000Y-88043339D01*
X146571535Y-88088677D01*
X146560102Y-88126364D01*
X146541534Y-88161103D01*
X146516548Y-88191548D01*
X146486103Y-88216534D01*
X146451364Y-88235102D01*
X146413677Y-88246535D01*
X146368339Y-88251000D01*
X145531661Y-88251000D01*
X145486323Y-88246535D01*
X145448636Y-88235102D01*
X145413897Y-88216534D01*
X145383452Y-88191548D01*
X145358466Y-88161103D01*
X145339898Y-88126364D01*
X145328465Y-88088677D01*
X145324000Y-88043339D01*
X145324000Y-86956661D01*
X145328465Y-86911323D01*
X145339898Y-86873636D01*
X145358466Y-86838897D01*
X145383452Y-86808452D01*
X145413897Y-86783466D01*
X145448636Y-86764898D01*
X145486323Y-86753465D01*
X145531661Y-86749000D01*
X146368339Y-86749000D01*
X146413677Y-86753465D01*
X146413677Y-86753465D01*
G37*
G36*
X102047400Y-85412355D02*
X102047400Y-85412356D01*
X101192440Y-87332628D01*
X97445076Y-85664195D01*
X97446453Y-85661103D01*
X98300036Y-83743922D01*
X102047400Y-85412355D01*
X102047400Y-85412355D01*
G37*
G36*
X168463677Y-84253465D02*
X168501364Y-84264898D01*
X168536103Y-84283466D01*
X168566548Y-84308452D01*
X168591534Y-84338897D01*
X168610102Y-84373636D01*
X168621535Y-84411323D01*
X168626000Y-84456661D01*
X168626000Y-85543339D01*
X168621535Y-85588677D01*
X168610102Y-85626364D01*
X168591534Y-85661103D01*
X168566548Y-85691548D01*
X168536103Y-85716534D01*
X168501364Y-85735102D01*
X168463677Y-85746535D01*
X168418339Y-85751000D01*
X167581661Y-85751000D01*
X167536323Y-85746535D01*
X167498636Y-85735102D01*
X167463897Y-85716534D01*
X167433452Y-85691548D01*
X167408466Y-85661103D01*
X167389898Y-85626364D01*
X167378465Y-85588677D01*
X167374000Y-85543339D01*
X167374000Y-84456661D01*
X167378465Y-84411323D01*
X167389898Y-84373636D01*
X167408466Y-84338897D01*
X167433452Y-84308452D01*
X167463897Y-84283466D01*
X167498636Y-84264898D01*
X167536323Y-84253465D01*
X167581661Y-84249000D01*
X168418339Y-84249000D01*
X168463677Y-84253465D01*
X168463677Y-84253465D01*
G37*
G36*
X166413677Y-84253465D02*
X166451364Y-84264898D01*
X166486103Y-84283466D01*
X166516548Y-84308452D01*
X166541534Y-84338897D01*
X166560102Y-84373636D01*
X166571535Y-84411323D01*
X166576000Y-84456661D01*
X166576000Y-85543339D01*
X166571535Y-85588677D01*
X166560102Y-85626364D01*
X166541534Y-85661103D01*
X166516548Y-85691548D01*
X166486103Y-85716534D01*
X166451364Y-85735102D01*
X166413677Y-85746535D01*
X166368339Y-85751000D01*
X165531661Y-85751000D01*
X165486323Y-85746535D01*
X165448636Y-85735102D01*
X165413897Y-85716534D01*
X165383452Y-85691548D01*
X165358466Y-85661103D01*
X165339898Y-85626364D01*
X165328465Y-85588677D01*
X165324000Y-85543339D01*
X165324000Y-84456661D01*
X165328465Y-84411323D01*
X165339898Y-84373636D01*
X165358466Y-84338897D01*
X165383452Y-84308452D01*
X165413897Y-84283466D01*
X165448636Y-84264898D01*
X165486323Y-84253465D01*
X165531661Y-84249000D01*
X166368339Y-84249000D01*
X166413677Y-84253465D01*
X166413677Y-84253465D01*
G37*
G36*
X96566127Y-82971936D02*
X96566127Y-82971937D01*
X95711167Y-84892209D01*
X91963803Y-83223776D01*
X92075929Y-82971937D01*
X92818763Y-81303503D01*
X96566127Y-82971936D01*
X96566127Y-82971936D01*
G37*
G36*
X103511652Y-82123591D02*
X102656691Y-84043864D01*
X93428054Y-79935011D01*
X94283015Y-78014738D01*
X103511652Y-82123591D01*
X103511652Y-82123591D01*
G37*
G36*
X182564811Y-55787549D02*
X177211566Y-64354531D01*
X175428969Y-63240641D01*
X180782214Y-54673659D01*
X182564811Y-55787549D01*
X182564811Y-55787549D01*
G37*
G36*
X176332322Y-58968128D02*
X176332322Y-58968129D01*
X174158593Y-62446822D01*
X172375996Y-61332932D01*
X172375996Y-61332931D01*
X174549725Y-57854238D01*
X176332322Y-58968128D01*
X176332322Y-58968128D01*
G37*
G36*
X132842356Y-57400805D02*
X130832203Y-58015371D01*
X129632894Y-54092609D01*
X131643047Y-53478043D01*
X132842356Y-57400805D01*
X132842356Y-57400805D01*
G37*
G36*
X179511838Y-53879839D02*
X179511838Y-53879840D01*
X177338109Y-57358533D01*
X175555512Y-56244643D01*
X175555512Y-56244642D01*
X177729241Y-52765949D01*
X179511838Y-53879839D01*
X179511838Y-53879839D01*
G37*
G36*
X136253372Y-56244642D02*
X136285053Y-56348268D01*
X134274900Y-56962833D01*
X131643154Y-48354781D01*
X131321361Y-47302243D01*
X131321361Y-47302242D01*
X133331514Y-46687677D01*
X136253372Y-56244642D01*
X136253372Y-56244642D01*
G37*
G36*
X147251000Y-55051000D02*
X145149000Y-55051000D01*
X145149000Y-50949000D01*
X147251000Y-50949000D01*
X147251000Y-55051000D01*
X147251000Y-55051000D01*
G37*
G36*
X150851000Y-55051000D02*
X148749000Y-55051000D01*
X148749000Y-44949000D01*
X150851000Y-44949000D01*
X150851000Y-55051000D01*
X150851000Y-55051000D01*
G37*
G36*
X131088126Y-51662977D02*
X129077973Y-52277543D01*
X127878664Y-48354781D01*
X129888817Y-47740215D01*
X131088126Y-51662977D01*
X131088126Y-51662977D01*
G37*
G36*
X147251000Y-49051000D02*
X145149000Y-49051000D01*
X145149000Y-44949000D01*
X147251000Y-44949000D01*
X147251000Y-49051000D01*
X147251000Y-49051000D01*
G37*
M02*
