G04 #@! TF.GenerationSoftware,KiCad,Pcbnew,(5.0.1)-4*
G04 #@! TF.CreationDate,2018-11-24T23:15:51-05:00*
G04 #@! TF.ProjectId,strutA,7374727574412E6B696361645F706362,rev?*
G04 #@! TF.SameCoordinates,Original*
G04 #@! TF.FileFunction,Profile,NP*
%FSLAX46Y46*%
G04 Gerber Fmt 4.6, Leading zero omitted, Abs format (unit mm)*
G04 Created by KiCad (PCBNEW (5.0.1)-4) date 2018-11-24 11:15:51 PM*
%MOMM*%
%LPD*%
G01*
G04 APERTURE LIST*
%ADD10C,0.050000*%
G04 APERTURE END LIST*
D10*
X125260000Y-162100000D02*
X125260000Y-162100000D01*
X125260000Y-162100000D02*
X126930000Y-161760000D01*
X126930000Y-161760000D02*
X128610000Y-161430000D01*
X128610000Y-161430000D02*
X130280000Y-161100000D01*
X130280000Y-161100000D02*
X131960000Y-160780000D01*
X131960000Y-160780000D02*
X133630000Y-160470000D01*
X133630000Y-160470000D02*
X135310000Y-160160000D01*
X135310000Y-160160000D02*
X136990000Y-159860000D01*
X136990000Y-159860000D02*
X138670000Y-159570000D01*
X138670000Y-159570000D02*
X140360000Y-159280000D01*
X140360000Y-159280000D02*
X142040000Y-159000000D01*
X142040000Y-159000000D02*
X143720000Y-158730000D01*
X143720000Y-158730000D02*
X145410000Y-158460000D01*
X145410000Y-158460000D02*
X147100000Y-158200000D01*
X147100000Y-158200000D02*
X148780000Y-157950000D01*
X148780000Y-157950000D02*
X150470000Y-157710000D01*
X150470000Y-157710000D02*
X152160000Y-157470000D01*
X152160000Y-157470000D02*
X153850000Y-157240000D01*
X153850000Y-157240000D02*
X155550000Y-157010000D01*
X155550000Y-157010000D02*
X157240000Y-156800000D01*
X157240000Y-156800000D02*
X158930000Y-156580000D01*
X158930000Y-156580000D02*
X160630000Y-156380000D01*
X160630000Y-156380000D02*
X162320000Y-156180000D01*
X162320000Y-156180000D02*
X164020000Y-155990000D01*
X164020000Y-155990000D02*
X165710000Y-155810000D01*
X165710000Y-155810000D02*
X167410000Y-155630000D01*
X167410000Y-155630000D02*
X169110000Y-155470000D01*
X169110000Y-155470000D02*
X170810000Y-155300000D01*
X170810000Y-155300000D02*
X172510000Y-155150000D01*
X172510000Y-155150000D02*
X174210000Y-155000000D01*
X174210000Y-155000000D02*
X175910000Y-154860000D01*
X175910000Y-154860000D02*
X177610000Y-154720000D01*
X177610000Y-154720000D02*
X179310000Y-154590000D01*
X179310000Y-154590000D02*
X181010000Y-154470000D01*
X181010000Y-154470000D02*
X182710000Y-154360000D01*
X182710000Y-154360000D02*
X184420000Y-154250000D01*
X184420000Y-154250000D02*
X186120000Y-154150000D01*
X186120000Y-154150000D02*
X187830000Y-154060000D01*
X187830000Y-154060000D02*
X189530000Y-153970000D01*
X189530000Y-153970000D02*
X191230000Y-153890000D01*
X191230000Y-153890000D02*
X192940000Y-153820000D01*
X192940000Y-153820000D02*
X194640000Y-153750000D01*
X194640000Y-153750000D02*
X196350000Y-153690000D01*
X196350000Y-153690000D02*
X198060000Y-153640000D01*
X198060000Y-153640000D02*
X199760000Y-153600000D01*
X199760000Y-153600000D02*
X201470000Y-153560000D01*
X201470000Y-153560000D02*
X203170000Y-153530000D01*
X203170000Y-153530000D02*
X204880000Y-153500000D01*
X204880000Y-153500000D02*
X206590000Y-153490000D01*
X206590000Y-153490000D02*
X208290000Y-153480000D01*
X208290000Y-153480000D02*
X210000000Y-153470000D01*
X210000000Y-153470000D02*
X211710000Y-153480000D01*
X211710000Y-153480000D02*
X213410000Y-153490000D01*
X213410000Y-153490000D02*
X215120000Y-153500000D01*
X215120000Y-153500000D02*
X216830000Y-153530000D01*
X216830000Y-153530000D02*
X218530000Y-153560000D01*
X218530000Y-153560000D02*
X220240000Y-153600000D01*
X220240000Y-153600000D02*
X221940000Y-153640000D01*
X221940000Y-153640000D02*
X223650000Y-153690000D01*
X223650000Y-153690000D02*
X225350000Y-153750000D01*
X225350000Y-153750000D02*
X227060000Y-153820000D01*
X227060000Y-153820000D02*
X228760000Y-153890000D01*
X228760000Y-153890000D02*
X230470000Y-153970000D01*
X230470000Y-153970000D02*
X232170000Y-154060000D01*
X232170000Y-154060000D02*
X233880000Y-154150000D01*
X233880000Y-154150000D02*
X235580000Y-154250000D01*
X235580000Y-154250000D02*
X237280000Y-154360000D01*
X237280000Y-154360000D02*
X238990000Y-154470000D01*
X238990000Y-154470000D02*
X240690000Y-154590000D01*
X240690000Y-154590000D02*
X242390000Y-154720000D01*
X242390000Y-154720000D02*
X244090000Y-154860000D01*
X244090000Y-154860000D02*
X245790000Y-155000000D01*
X245790000Y-155000000D02*
X247490000Y-155150000D01*
X247490000Y-155150000D02*
X249190000Y-155300000D01*
X249190000Y-155300000D02*
X250890000Y-155470000D01*
X250890000Y-155470000D02*
X252590000Y-155630000D01*
X252590000Y-155630000D02*
X254290000Y-155810000D01*
X254290000Y-155810000D02*
X255980000Y-155990000D01*
X255980000Y-155990000D02*
X257680000Y-156180000D01*
X257680000Y-156180000D02*
X259370000Y-156380000D01*
X259370000Y-156380000D02*
X261070000Y-156580000D01*
X261070000Y-156580000D02*
X262760000Y-156800000D01*
X262760000Y-156800000D02*
X264450000Y-157010000D01*
X264450000Y-157010000D02*
X266140000Y-157240000D01*
X266140000Y-157240000D02*
X267840000Y-157470000D01*
X267840000Y-157470000D02*
X269530000Y-157710000D01*
X269530000Y-157710000D02*
X271210000Y-157950000D01*
X271210000Y-157950000D02*
X272900000Y-158200000D01*
X272900000Y-158200000D02*
X274590000Y-158460000D01*
X274590000Y-158460000D02*
X276270000Y-158730000D01*
X276270000Y-158730000D02*
X277960000Y-159000000D01*
X277960000Y-159000000D02*
X279640000Y-159280000D01*
X279640000Y-159280000D02*
X281320000Y-159570000D01*
X281320000Y-159570000D02*
X283010000Y-159860000D01*
X283010000Y-159860000D02*
X284690000Y-160160000D01*
X284690000Y-160160000D02*
X286360000Y-160470000D01*
X286360000Y-160470000D02*
X288040000Y-160780000D01*
X288040000Y-160780000D02*
X289720000Y-161100000D01*
X289720000Y-161100000D02*
X291390000Y-161430000D01*
X291390000Y-161430000D02*
X293070000Y-161760000D01*
X294740000Y-162100000D02*
X293070000Y-161760000D01*
X125260000Y-162100000D02*
X125260000Y-162100000D01*
X125260000Y-162100000D02*
X122850000Y-153220000D01*
X122850000Y-153220000D02*
X125750000Y-152440000D01*
X125750000Y-152440000D02*
X127940000Y-152880000D01*
X127940000Y-152880000D02*
X127000000Y-149410000D01*
X127000000Y-149410000D02*
X125330000Y-150890000D01*
X125330000Y-150890000D02*
X122430000Y-151680000D01*
X122430000Y-151680000D02*
X120020000Y-142800000D01*
X299980000Y-142800000D02*
X299980000Y-142800000D01*
X299980000Y-142800000D02*
X298210000Y-142430000D01*
X298210000Y-142430000D02*
X296430000Y-142070000D01*
X296430000Y-142070000D02*
X294650000Y-141720000D01*
X294650000Y-141720000D02*
X292870000Y-141380000D01*
X292870000Y-141380000D02*
X291090000Y-141040000D01*
X291090000Y-141040000D02*
X289310000Y-140710000D01*
X289310000Y-140710000D02*
X287530000Y-140390000D01*
X287530000Y-140390000D02*
X285740000Y-140070000D01*
X285740000Y-140070000D02*
X283960000Y-139760000D01*
X283960000Y-139760000D02*
X282170000Y-139460000D01*
X282170000Y-139460000D02*
X280380000Y-139170000D01*
X280380000Y-139170000D02*
X278590000Y-138880000D01*
X278590000Y-138880000D02*
X276800000Y-138610000D01*
X276800000Y-138610000D02*
X275010000Y-138330000D01*
X275010000Y-138330000D02*
X273210000Y-138070000D01*
X273210000Y-138070000D02*
X271420000Y-137810000D01*
X271420000Y-137810000D02*
X269630000Y-137560000D01*
X269630000Y-137560000D02*
X267830000Y-137320000D01*
X267830000Y-137320000D02*
X266030000Y-137090000D01*
X266030000Y-137090000D02*
X264230000Y-136860000D01*
X264230000Y-136860000D02*
X262430000Y-136640000D01*
X262430000Y-136640000D02*
X260630000Y-136430000D01*
X260630000Y-136430000D02*
X258830000Y-136230000D01*
X258830000Y-136230000D02*
X257030000Y-136030000D01*
X257030000Y-136030000D02*
X255230000Y-135840000D01*
X255230000Y-135840000D02*
X253430000Y-135660000D01*
X253430000Y-135660000D02*
X251620000Y-135480000D01*
X251620000Y-135480000D02*
X249820000Y-135310000D01*
X249820000Y-135310000D02*
X248010000Y-135150000D01*
X248010000Y-135150000D02*
X246210000Y-135000000D01*
X246210000Y-135000000D02*
X244400000Y-134860000D01*
X244400000Y-134860000D02*
X242590000Y-134720000D01*
X242590000Y-134720000D02*
X240790000Y-134590000D01*
X240790000Y-134590000D02*
X238980000Y-134460000D01*
X238980000Y-134460000D02*
X237170000Y-134350000D01*
X237170000Y-134350000D02*
X235360000Y-134240000D01*
X235360000Y-134240000D02*
X233550000Y-134140000D01*
X233550000Y-134140000D02*
X231740000Y-134050000D01*
X231740000Y-134050000D02*
X229930000Y-133960000D01*
X229930000Y-133960000D02*
X228120000Y-133880000D01*
X228120000Y-133880000D02*
X226310000Y-133810000D01*
X226310000Y-133810000D02*
X224500000Y-133750000D01*
X224500000Y-133750000D02*
X222690000Y-133690000D01*
X222690000Y-133690000D02*
X220880000Y-133640000D01*
X220880000Y-133640000D02*
X219060000Y-133600000D01*
X219060000Y-133600000D02*
X217250000Y-133570000D01*
X217250000Y-133570000D02*
X215440000Y-133540000D01*
X215440000Y-133540000D02*
X213630000Y-133530000D01*
X213630000Y-133530000D02*
X211810000Y-133510000D01*
X211810000Y-133510000D02*
X210000000Y-133510000D01*
X210000000Y-133510000D02*
X208190000Y-133510000D01*
X208190000Y-133510000D02*
X206380000Y-133530000D01*
X206380000Y-133530000D02*
X204570000Y-133540000D01*
X204570000Y-133540000D02*
X202750000Y-133570000D01*
X202750000Y-133570000D02*
X200940000Y-133600000D01*
X200940000Y-133600000D02*
X199130000Y-133640000D01*
X199130000Y-133640000D02*
X197320000Y-133690000D01*
X197320000Y-133690000D02*
X195510000Y-133750000D01*
X195510000Y-133750000D02*
X193700000Y-133810000D01*
X193700000Y-133810000D02*
X191880000Y-133880000D01*
X191880000Y-133880000D02*
X190070000Y-133960000D01*
X190070000Y-133960000D02*
X188260000Y-134050000D01*
X188260000Y-134050000D02*
X186450000Y-134140000D01*
X186450000Y-134140000D02*
X184640000Y-134240000D01*
X184640000Y-134240000D02*
X182830000Y-134350000D01*
X182830000Y-134350000D02*
X181030000Y-134460000D01*
X181030000Y-134460000D02*
X179220000Y-134590000D01*
X179220000Y-134590000D02*
X177410000Y-134720000D01*
X177410000Y-134720000D02*
X175600000Y-134860000D01*
X175600000Y-134860000D02*
X173800000Y-135000000D01*
X173800000Y-135000000D02*
X171990000Y-135150000D01*
X171990000Y-135150000D02*
X170190000Y-135310000D01*
X170190000Y-135310000D02*
X168380000Y-135480000D01*
X168380000Y-135480000D02*
X166580000Y-135660000D01*
X166580000Y-135660000D02*
X164770000Y-135840000D01*
X164770000Y-135840000D02*
X162970000Y-136030000D01*
X162970000Y-136030000D02*
X161170000Y-136230000D01*
X161170000Y-136230000D02*
X159370000Y-136430000D01*
X159370000Y-136430000D02*
X157570000Y-136640000D01*
X157570000Y-136640000D02*
X155770000Y-136860000D01*
X155770000Y-136860000D02*
X153970000Y-137090000D01*
X153970000Y-137090000D02*
X152180000Y-137320000D01*
X152180000Y-137320000D02*
X150380000Y-137560000D01*
X150380000Y-137560000D02*
X148580000Y-137810000D01*
X148580000Y-137810000D02*
X146790000Y-138070000D01*
X146790000Y-138070000D02*
X145000000Y-138330000D01*
X145000000Y-138330000D02*
X143210000Y-138600000D01*
X143210000Y-138600000D02*
X141410000Y-138880000D01*
X141410000Y-138880000D02*
X139620000Y-139170000D01*
X139620000Y-139170000D02*
X137840000Y-139460000D01*
X137840000Y-139460000D02*
X136050000Y-139760000D01*
X136050000Y-139760000D02*
X134260000Y-140070000D01*
X134260000Y-140070000D02*
X132480000Y-140390000D01*
X132480000Y-140390000D02*
X130700000Y-140710000D01*
X130700000Y-140710000D02*
X128910000Y-141040000D01*
X128910000Y-141040000D02*
X127130000Y-141380000D01*
X127130000Y-141380000D02*
X125350000Y-141720000D01*
X125350000Y-141720000D02*
X123580000Y-142070000D01*
X123580000Y-142070000D02*
X121800000Y-142430000D01*
X120020000Y-142800000D02*
X121800000Y-142430000D01*
X299980000Y-142800000D02*
X299980000Y-142800000D01*
X299980000Y-142800000D02*
X297570000Y-151680000D01*
X297570000Y-151680000D02*
X294670000Y-150890000D01*
X294670000Y-150890000D02*
X293000000Y-149410000D01*
X293000000Y-149410000D02*
X292060000Y-152880000D01*
X292060000Y-152880000D02*
X294250000Y-152440000D01*
X294250000Y-152440000D02*
X297150000Y-153220000D01*
X297150000Y-153220000D02*
X294740000Y-162100000D01*
M02*
