G04 #@! TF.GenerationSoftware,KiCad,Pcbnew,(5.0.1)-4*
G04 #@! TF.CreationDate,2018-11-24T23:16:14-05:00*
G04 #@! TF.ProjectId,strutB,7374727574422E6B696361645F706362,rev?*
G04 #@! TF.SameCoordinates,Original*
G04 #@! TF.FileFunction,Copper,L1,Top,Signal*
G04 #@! TF.FilePolarity,Positive*
%FSLAX46Y46*%
G04 Gerber Fmt 4.6, Leading zero omitted, Abs format (unit mm)*
G04 Created by KiCad (PCBNEW (5.0.1)-4) date 2018-11-24 11:16:14 PM*
%MOMM*%
%LPD*%
G01*
G04 APERTURE LIST*
G04 #@! TA.AperFunction,SMDPad,CuDef*
%ADD10C,2.000000*%
G04 #@! TD*
G04 #@! TA.AperFunction,Conductor*
%ADD11C,0.100000*%
G04 #@! TD*
G04 #@! TA.AperFunction,SMDPad,CuDef*
%ADD12C,0.500000*%
G04 #@! TD*
G04 #@! TA.AperFunction,ViaPad*
%ADD13C,0.800000*%
G04 #@! TD*
G04 #@! TA.AperFunction,ViaPad*
%ADD14C,3.000000*%
G04 #@! TD*
G04 #@! TA.AperFunction,Conductor*
%ADD15C,0.250000*%
G04 #@! TD*
G04 #@! TA.AperFunction,Conductor*
%ADD16C,3.000000*%
G04 #@! TD*
G04 #@! TA.AperFunction,Conductor*
%ADD17C,0.254000*%
G04 #@! TD*
G04 APERTURE END LIST*
D10*
G04 #@! TO.P,J1,2*
G04 #@! TO.N,/Clock*
X87273526Y-151468070D03*
D11*
G04 #@! TD*
G04 #@! TO.N,/Clock*
G04 #@! TO.C,J1*
G36*
X92300692Y-150615075D02*
X82961140Y-154188976D01*
X82246360Y-152321065D01*
X91585912Y-148747164D01*
X92300692Y-150615075D01*
X92300692Y-150615075D01*
G37*
D10*
G04 #@! TO.P,J1,1*
G04 #@! TO.N,+5V*
X85986922Y-148105831D03*
D11*
G04 #@! TD*
G04 #@! TO.N,+5V*
G04 #@! TO.C,J1*
G36*
X91014088Y-147252836D02*
X81674536Y-150826737D01*
X80959756Y-148958826D01*
X90299308Y-145384925D01*
X91014088Y-147252836D01*
X91014088Y-147252836D01*
G37*
D10*
G04 #@! TO.P,J2,4*
G04 #@! TO.N,/Data_Out*
X336814944Y-149178002D03*
D11*
G04 #@! TD*
G04 #@! TO.N,/Data_Out*
G04 #@! TO.C,J2*
G36*
X335304424Y-147529267D02*
X339040245Y-148958827D01*
X338325464Y-150826737D01*
X334589643Y-149397177D01*
X335304424Y-147529267D01*
X335304424Y-147529267D01*
G37*
D10*
G04 #@! TO.P,J2,3*
G04 #@! TO.N,/Data_In*
X331211213Y-147033661D03*
D11*
G04 #@! TD*
G04 #@! TO.N,/Data_In*
G04 #@! TO.C,J2*
G36*
X329700693Y-145384926D02*
X333436514Y-146814486D01*
X332721733Y-148682396D01*
X328985912Y-147252836D01*
X329700693Y-145384926D01*
X329700693Y-145384926D01*
G37*
D10*
G04 #@! TO.P,J2,5*
G04 #@! TO.N,GND*
X332726474Y-151468070D03*
D11*
G04 #@! TD*
G04 #@! TO.N,GND*
G04 #@! TO.C,J2*
G36*
X328414088Y-148747164D02*
X337753640Y-152321065D01*
X337038860Y-154188976D01*
X327699308Y-150615075D01*
X328414088Y-148747164D01*
X328414088Y-148747164D01*
G37*
D12*
G04 #@! TO.P,JP1,1*
G04 #@! TO.N,Net-(J1-Pad3)*
X318700000Y-140000000D03*
D11*
G04 #@! TD*
G04 #@! TO.N,Net-(J1-Pad3)*
G04 #@! TO.C,JP1*
G36*
X319200000Y-140750000D02*
X318700000Y-140750000D01*
X318700000Y-140749398D01*
X318675466Y-140749398D01*
X318626635Y-140744588D01*
X318578510Y-140735016D01*
X318531555Y-140720772D01*
X318486222Y-140701995D01*
X318442949Y-140678864D01*
X318402150Y-140651604D01*
X318364221Y-140620476D01*
X318329524Y-140585779D01*
X318298396Y-140547850D01*
X318271136Y-140507051D01*
X318248005Y-140463778D01*
X318229228Y-140418445D01*
X318214984Y-140371490D01*
X318205412Y-140323365D01*
X318200602Y-140274534D01*
X318200602Y-140250000D01*
X318200000Y-140250000D01*
X318200000Y-139750000D01*
X318200602Y-139750000D01*
X318200602Y-139725466D01*
X318205412Y-139676635D01*
X318214984Y-139628510D01*
X318229228Y-139581555D01*
X318248005Y-139536222D01*
X318271136Y-139492949D01*
X318298396Y-139452150D01*
X318329524Y-139414221D01*
X318364221Y-139379524D01*
X318402150Y-139348396D01*
X318442949Y-139321136D01*
X318486222Y-139298005D01*
X318531555Y-139279228D01*
X318578510Y-139264984D01*
X318626635Y-139255412D01*
X318675466Y-139250602D01*
X318700000Y-139250602D01*
X318700000Y-139250000D01*
X319200000Y-139250000D01*
X319200000Y-140750000D01*
X319200000Y-140750000D01*
G37*
D12*
G04 #@! TO.P,JP1,2*
G04 #@! TO.N,/Data_Out*
X320000000Y-140000000D03*
D11*
G04 #@! TD*
G04 #@! TO.N,/Data_Out*
G04 #@! TO.C,JP1*
G36*
X320000000Y-139250602D02*
X320024534Y-139250602D01*
X320073365Y-139255412D01*
X320121490Y-139264984D01*
X320168445Y-139279228D01*
X320213778Y-139298005D01*
X320257051Y-139321136D01*
X320297850Y-139348396D01*
X320335779Y-139379524D01*
X320370476Y-139414221D01*
X320401604Y-139452150D01*
X320428864Y-139492949D01*
X320451995Y-139536222D01*
X320470772Y-139581555D01*
X320485016Y-139628510D01*
X320494588Y-139676635D01*
X320499398Y-139725466D01*
X320499398Y-139750000D01*
X320500000Y-139750000D01*
X320500000Y-140250000D01*
X320499398Y-140250000D01*
X320499398Y-140274534D01*
X320494588Y-140323365D01*
X320485016Y-140371490D01*
X320470772Y-140418445D01*
X320451995Y-140463778D01*
X320428864Y-140507051D01*
X320401604Y-140547850D01*
X320370476Y-140585779D01*
X320335779Y-140620476D01*
X320297850Y-140651604D01*
X320257051Y-140678864D01*
X320213778Y-140701995D01*
X320168445Y-140720772D01*
X320121490Y-140735016D01*
X320073365Y-140744588D01*
X320024534Y-140749398D01*
X320000000Y-140749398D01*
X320000000Y-140750000D01*
X319500000Y-140750000D01*
X319500000Y-139250000D01*
X320000000Y-139250000D01*
X320000000Y-139250602D01*
X320000000Y-139250602D01*
G37*
D12*
G04 #@! TO.P,JP2,2*
G04 #@! TO.N,/Data_In*
X320000000Y-145000000D03*
D11*
G04 #@! TD*
G04 #@! TO.N,/Data_In*
G04 #@! TO.C,JP2*
G36*
X320000000Y-144250602D02*
X320024534Y-144250602D01*
X320073365Y-144255412D01*
X320121490Y-144264984D01*
X320168445Y-144279228D01*
X320213778Y-144298005D01*
X320257051Y-144321136D01*
X320297850Y-144348396D01*
X320335779Y-144379524D01*
X320370476Y-144414221D01*
X320401604Y-144452150D01*
X320428864Y-144492949D01*
X320451995Y-144536222D01*
X320470772Y-144581555D01*
X320485016Y-144628510D01*
X320494588Y-144676635D01*
X320499398Y-144725466D01*
X320499398Y-144750000D01*
X320500000Y-144750000D01*
X320500000Y-145250000D01*
X320499398Y-145250000D01*
X320499398Y-145274534D01*
X320494588Y-145323365D01*
X320485016Y-145371490D01*
X320470772Y-145418445D01*
X320451995Y-145463778D01*
X320428864Y-145507051D01*
X320401604Y-145547850D01*
X320370476Y-145585779D01*
X320335779Y-145620476D01*
X320297850Y-145651604D01*
X320257051Y-145678864D01*
X320213778Y-145701995D01*
X320168445Y-145720772D01*
X320121490Y-145735016D01*
X320073365Y-145744588D01*
X320024534Y-145749398D01*
X320000000Y-145749398D01*
X320000000Y-145750000D01*
X319500000Y-145750000D01*
X319500000Y-144250000D01*
X320000000Y-144250000D01*
X320000000Y-144250602D01*
X320000000Y-144250602D01*
G37*
D12*
G04 #@! TO.P,JP2,1*
G04 #@! TO.N,Net-(J1-Pad4)*
X318700000Y-145000000D03*
D11*
G04 #@! TD*
G04 #@! TO.N,Net-(J1-Pad4)*
G04 #@! TO.C,JP2*
G36*
X319200000Y-145750000D02*
X318700000Y-145750000D01*
X318700000Y-145749398D01*
X318675466Y-145749398D01*
X318626635Y-145744588D01*
X318578510Y-145735016D01*
X318531555Y-145720772D01*
X318486222Y-145701995D01*
X318442949Y-145678864D01*
X318402150Y-145651604D01*
X318364221Y-145620476D01*
X318329524Y-145585779D01*
X318298396Y-145547850D01*
X318271136Y-145507051D01*
X318248005Y-145463778D01*
X318229228Y-145418445D01*
X318214984Y-145371490D01*
X318205412Y-145323365D01*
X318200602Y-145274534D01*
X318200602Y-145250000D01*
X318200000Y-145250000D01*
X318200000Y-144750000D01*
X318200602Y-144750000D01*
X318200602Y-144725466D01*
X318205412Y-144676635D01*
X318214984Y-144628510D01*
X318229228Y-144581555D01*
X318248005Y-144536222D01*
X318271136Y-144492949D01*
X318298396Y-144452150D01*
X318329524Y-144414221D01*
X318364221Y-144379524D01*
X318402150Y-144348396D01*
X318442949Y-144321136D01*
X318486222Y-144298005D01*
X318531555Y-144279228D01*
X318578510Y-144264984D01*
X318626635Y-144255412D01*
X318675466Y-144250602D01*
X318700000Y-144250602D01*
X318700000Y-144250000D01*
X319200000Y-144250000D01*
X319200000Y-145750000D01*
X319200000Y-145750000D01*
G37*
D13*
G04 #@! TO.N,Net-(J1-Pad4)*
X315000000Y-145000000D03*
G04 #@! TO.N,Net-(J1-Pad3)*
X307250000Y-140650000D03*
D14*
G04 #@! TO.N,GND*
X100000000Y-145000000D03*
D13*
G04 #@! TO.N,/Clock*
X302800000Y-147350000D03*
D14*
G04 #@! TO.N,+5V*
X99700000Y-138500000D03*
G04 #@! TD*
D15*
G04 #@! TO.N,Net-(J1-Pad4)*
X318700000Y-145000000D02*
X315000000Y-145000000D01*
G04 #@! TO.N,Net-(J1-Pad3)*
X318700000Y-140000000D02*
X307900000Y-140000000D01*
X307900000Y-140000000D02*
X307250000Y-140650000D01*
D16*
G04 #@! TO.N,GND*
X108505558Y-136494442D02*
X101499999Y-143500001D01*
X101499999Y-143500001D02*
X100000000Y-145000000D01*
X298386438Y-136494442D02*
X108505558Y-136494442D01*
X313360066Y-151468070D02*
X298386438Y-136494442D01*
X332726474Y-151468070D02*
X313360066Y-151468070D01*
D15*
G04 #@! TO.N,/Clock*
X116330547Y-138319453D02*
X293769453Y-138319453D01*
X293769453Y-138319453D02*
X302800000Y-147350000D01*
X87273526Y-151468070D02*
X103181930Y-151468070D01*
X103181930Y-151468070D02*
X116330547Y-138319453D01*
D16*
G04 #@! TO.N,+5V*
X85986922Y-148105831D02*
X91592753Y-142500000D01*
X91592753Y-142500000D02*
X95800000Y-142500000D01*
X95800000Y-142500000D02*
X99700000Y-138600000D01*
X99700000Y-138600000D02*
X99700000Y-138500000D01*
D15*
G04 #@! TO.N,/Data_In*
X320600000Y-145000000D02*
X320000000Y-145000000D01*
X330348267Y-145000000D02*
X320600000Y-145000000D01*
X331211213Y-145862946D02*
X330348267Y-145000000D01*
X331211213Y-147033661D02*
X331211213Y-145862946D01*
G04 #@! TO.N,/Data_Out*
X336814944Y-149178002D02*
X327636942Y-140000000D01*
X327636942Y-140000000D02*
X320000000Y-140000000D01*
G04 #@! TD*
D17*
G04 #@! TO.N,GND*
G36*
X212824156Y-119329983D02*
X215649532Y-119369917D01*
X218466018Y-119419855D01*
X221290215Y-119489712D01*
X224115483Y-119589545D01*
X226930837Y-119699364D01*
X229754925Y-119839071D01*
X232570358Y-119998812D01*
X235385753Y-120178519D01*
X238211148Y-120378193D01*
X241026207Y-120597808D01*
X243830442Y-120837316D01*
X246645735Y-121106864D01*
X249451029Y-121386395D01*
X252256431Y-121695887D01*
X255061904Y-122015372D01*
X257865967Y-122364633D01*
X260661406Y-122734030D01*
X263466578Y-123123359D01*
X266251850Y-123532664D01*
X269047433Y-123961986D01*
X271832671Y-124411218D01*
X274616847Y-124880238D01*
X277391961Y-125379359D01*
X280167539Y-125888548D01*
X282943033Y-126427673D01*
X285708044Y-126976683D01*
X288473724Y-127555778D01*
X291238939Y-128144760D01*
X293992843Y-128763390D01*
X296738215Y-129402313D01*
X299483829Y-130061261D01*
X302229076Y-130740086D01*
X304964143Y-131438825D01*
X307689592Y-132157625D01*
X310415155Y-132896422D01*
X313140483Y-133655122D01*
X315855536Y-134433703D01*
X318560615Y-135232249D01*
X321256054Y-136050864D01*
X323950756Y-136889216D01*
X326645901Y-137757651D01*
X329322358Y-138636488D01*
X332007839Y-139534976D01*
X334672896Y-140453274D01*
X337337355Y-141391323D01*
X339992459Y-142359537D01*
X342638668Y-143338136D01*
X345274283Y-144336475D01*
X347298289Y-145118478D01*
X344479544Y-152478062D01*
X342441467Y-151699226D01*
X341064984Y-150195124D01*
X341013241Y-150121900D01*
X340921868Y-150064241D01*
X340834783Y-150000302D01*
X340811482Y-149994584D01*
X340791191Y-149981780D01*
X340684710Y-149963477D01*
X340579784Y-149937730D01*
X340556069Y-149941365D01*
X340532422Y-149937300D01*
X340427038Y-149961140D01*
X340320251Y-149977506D01*
X340299733Y-149989939D01*
X340276329Y-149995233D01*
X340188090Y-150057587D01*
X340095694Y-150113573D01*
X340081495Y-150132912D01*
X340061900Y-150146759D01*
X340004236Y-150238139D01*
X339940302Y-150325217D01*
X339918937Y-150412285D01*
X338658549Y-153695157D01*
X338616015Y-153774764D01*
X338605502Y-153881684D01*
X338587300Y-153987577D01*
X338592730Y-154011579D01*
X338590322Y-154036066D01*
X338621525Y-154138869D01*
X338645233Y-154243670D01*
X338659435Y-154263767D01*
X338666581Y-154287312D01*
X338734753Y-154370352D01*
X338796759Y-154458099D01*
X338817569Y-154471231D01*
X338833183Y-154490250D01*
X338927946Y-154540882D01*
X339018809Y-154598220D01*
X339043060Y-154602389D01*
X339064764Y-154613985D01*
X339171690Y-154624499D01*
X339277577Y-154642700D01*
X339365615Y-154622784D01*
X341399847Y-154422097D01*
X343437661Y-155200834D01*
X340620510Y-162564819D01*
X338796772Y-161857210D01*
X338794421Y-161855742D01*
X338736008Y-161833634D01*
X338678138Y-161811180D01*
X338675425Y-161810704D01*
X336282247Y-160904921D01*
X336280261Y-160903700D01*
X336221378Y-160881883D01*
X336162832Y-160859724D01*
X336160540Y-160859341D01*
X333767672Y-159972742D01*
X333765303Y-159971312D01*
X333706657Y-159950134D01*
X333648354Y-159928532D01*
X333645629Y-159928097D01*
X331243811Y-159060774D01*
X331242446Y-159059959D01*
X331182618Y-159038676D01*
X331123026Y-159017157D01*
X331121458Y-159016920D01*
X328708757Y-158158647D01*
X328705361Y-158156674D01*
X328647453Y-158136839D01*
X328589959Y-158116387D01*
X328586085Y-158115820D01*
X326164253Y-157286296D01*
X326163230Y-157285706D01*
X326102472Y-157265134D01*
X326042369Y-157244548D01*
X326041210Y-157244392D01*
X323620631Y-156424828D01*
X323618235Y-156423473D01*
X323558975Y-156403952D01*
X323500091Y-156384015D01*
X323497371Y-156383659D01*
X321065992Y-155582734D01*
X321063927Y-155581586D01*
X321004259Y-155562399D01*
X320944757Y-155542798D01*
X320942413Y-155542511D01*
X318510190Y-154760385D01*
X318506728Y-154758513D01*
X318448260Y-154740470D01*
X318390163Y-154721788D01*
X318386263Y-154721338D01*
X315945254Y-153968059D01*
X315943879Y-153967324D01*
X315882837Y-153948798D01*
X315822503Y-153930179D01*
X315820968Y-153930020D01*
X313372745Y-153186981D01*
X313371692Y-153186423D01*
X313310335Y-153168040D01*
X313249476Y-153149569D01*
X313248298Y-153149453D01*
X310797941Y-152415300D01*
X310794449Y-152413501D01*
X310735609Y-152396625D01*
X310677155Y-152379111D01*
X310673257Y-152378741D01*
X308212155Y-151672845D01*
X308210018Y-151671763D01*
X308149571Y-151654894D01*
X308089481Y-151637659D01*
X308087103Y-151637461D01*
X305627394Y-150951031D01*
X305624951Y-150949820D01*
X305564766Y-150933554D01*
X305504796Y-150916818D01*
X305502080Y-150916612D01*
X303983181Y-150506099D01*
X327061105Y-150506099D01*
X327067982Y-150758624D01*
X327170972Y-150989295D01*
X327354397Y-151162994D01*
X327590332Y-151253278D01*
X331875263Y-152892963D01*
X331876949Y-152892210D01*
X332317489Y-152892210D01*
X332409019Y-153097211D01*
X336693950Y-154736896D01*
X336929885Y-154827179D01*
X337182410Y-154820302D01*
X337413081Y-154717310D01*
X337586780Y-154533885D01*
X337887187Y-153748841D01*
X337795658Y-153543840D01*
X332799698Y-151632071D01*
X332317489Y-152892210D01*
X331876949Y-152892210D01*
X332080265Y-152801433D01*
X332562473Y-151541294D01*
X332179766Y-151394846D01*
X332890475Y-151394846D01*
X337886435Y-153306615D01*
X338091436Y-153215086D01*
X338391843Y-152430041D01*
X338384966Y-152177516D01*
X338281976Y-151946845D01*
X338098551Y-151773146D01*
X337862616Y-151682862D01*
X333577685Y-150043177D01*
X333372683Y-150134707D01*
X332890475Y-151394846D01*
X332179766Y-151394846D01*
X327566513Y-149629525D01*
X327361512Y-149721054D01*
X327061105Y-150506099D01*
X303983181Y-150506099D01*
X303033800Y-150249510D01*
X303032716Y-150248977D01*
X302970654Y-150232443D01*
X302909448Y-150215901D01*
X302908259Y-150215820D01*
X300438937Y-149557972D01*
X300435393Y-149556282D01*
X300376038Y-149541215D01*
X300317091Y-149525511D01*
X300313188Y-149525261D01*
X298981822Y-149187299D01*
X327565761Y-149187299D01*
X327657290Y-149392300D01*
X332653250Y-151304069D01*
X333135459Y-150043930D01*
X333043929Y-149838929D01*
X328758998Y-148199244D01*
X328523063Y-148108961D01*
X328270538Y-148115838D01*
X328039867Y-148218830D01*
X327866168Y-148402255D01*
X327565761Y-149187299D01*
X298981822Y-149187299D01*
X297833058Y-148895690D01*
X297830871Y-148894667D01*
X297770003Y-148879684D01*
X297709383Y-148864296D01*
X297706978Y-148864170D01*
X295229416Y-148254310D01*
X295228050Y-148253678D01*
X295166152Y-148238737D01*
X295104633Y-148223594D01*
X295103137Y-148223527D01*
X292615705Y-147623112D01*
X292613502Y-147622113D01*
X292552462Y-147607847D01*
X292491674Y-147593174D01*
X292489263Y-147593076D01*
X289999699Y-147011225D01*
X289996120Y-147009651D01*
X289936406Y-146996432D01*
X289876907Y-146982526D01*
X289873003Y-146982396D01*
X287374935Y-146429390D01*
X287373822Y-146428905D01*
X287311426Y-146415330D01*
X287249186Y-146401552D01*
X287247974Y-146401526D01*
X284751197Y-145858334D01*
X284748726Y-145857282D01*
X284687707Y-145844521D01*
X284626788Y-145831268D01*
X284624102Y-145831220D01*
X282115156Y-145306535D01*
X282111784Y-145305143D01*
X282051549Y-145293233D01*
X281991473Y-145280670D01*
X281987826Y-145280634D01*
X279480589Y-144784907D01*
X279479458Y-144784445D01*
X279416724Y-144772280D01*
X279354247Y-144759927D01*
X279353029Y-144759928D01*
X276846833Y-144273936D01*
X276844353Y-144272946D01*
X276783077Y-144261573D01*
X276721830Y-144249696D01*
X276719157Y-144249709D01*
X274201953Y-143782500D01*
X274199678Y-143781611D01*
X274138055Y-143770640D01*
X274076531Y-143759221D01*
X274074089Y-143759252D01*
X271557266Y-143311181D01*
X271554979Y-143310307D01*
X271493302Y-143299794D01*
X271431684Y-143288824D01*
X271429235Y-143288873D01*
X268912361Y-142859861D01*
X268909875Y-142858933D01*
X268848326Y-142848946D01*
X268786821Y-142838462D01*
X268784167Y-142838535D01*
X266256245Y-142428344D01*
X266252782Y-142427095D01*
X266192089Y-142417934D01*
X266131547Y-142408110D01*
X266127871Y-142408241D01*
X263601565Y-142026911D01*
X263600406Y-142026498D01*
X263537260Y-142017205D01*
X263474231Y-142007691D01*
X263473003Y-142007748D01*
X260947798Y-141636114D01*
X260945312Y-141635250D01*
X260883581Y-141626663D01*
X260821786Y-141617569D01*
X260819152Y-141617701D01*
X258282876Y-141264911D01*
X258280547Y-141264121D01*
X258218516Y-141255959D01*
X258156545Y-141247339D01*
X258154090Y-141247482D01*
X255618103Y-140913799D01*
X255615765Y-140913025D01*
X255553699Y-140905325D01*
X255491652Y-140897161D01*
X255489192Y-140897322D01*
X252953317Y-140582721D01*
X252950966Y-140581962D01*
X252888788Y-140574716D01*
X252826748Y-140567019D01*
X252824288Y-140567199D01*
X250288379Y-140271661D01*
X250285889Y-140270878D01*
X250223756Y-140264129D01*
X250161834Y-140256913D01*
X250159238Y-140257122D01*
X247613435Y-139980611D01*
X247611076Y-139979889D01*
X247548839Y-139973595D01*
X247486643Y-139966840D01*
X247484185Y-139967057D01*
X244938613Y-139709640D01*
X244936248Y-139708935D01*
X244874062Y-139703112D01*
X244811729Y-139696809D01*
X244809265Y-139697045D01*
X242263782Y-139458704D01*
X242261407Y-139458015D01*
X242199130Y-139452650D01*
X242136809Y-139446815D01*
X242134346Y-139447070D01*
X239588940Y-139227802D01*
X239586553Y-139227129D01*
X239524149Y-139222221D01*
X239461882Y-139216857D01*
X239459421Y-139217130D01*
X237708953Y-139079453D01*
X293454652Y-139079453D01*
X301765000Y-147389802D01*
X301765000Y-147555874D01*
X301922569Y-147936280D01*
X302213720Y-148227431D01*
X302594126Y-148385000D01*
X303005874Y-148385000D01*
X303386280Y-148227431D01*
X303677431Y-147936280D01*
X303835000Y-147555874D01*
X303835000Y-147144126D01*
X303677431Y-146763720D01*
X303386280Y-146472569D01*
X303005874Y-146315000D01*
X302839802Y-146315000D01*
X296968928Y-140444126D01*
X306215000Y-140444126D01*
X306215000Y-140855874D01*
X306372569Y-141236280D01*
X306663720Y-141527431D01*
X307044126Y-141685000D01*
X307455874Y-141685000D01*
X307836280Y-141527431D01*
X308127431Y-141236280D01*
X308285000Y-140855874D01*
X308285000Y-140760000D01*
X317675067Y-140760000D01*
X317720713Y-140845397D01*
X317775169Y-140926896D01*
X317855686Y-141025006D01*
X317924994Y-141094314D01*
X318023104Y-141174831D01*
X318104603Y-141229287D01*
X318216540Y-141289119D01*
X318307096Y-141326628D01*
X318428549Y-141363470D01*
X318524682Y-141382592D01*
X318650991Y-141395032D01*
X318687894Y-141395032D01*
X318700000Y-141397440D01*
X319200000Y-141397440D01*
X319350000Y-141367603D01*
X319500000Y-141397440D01*
X320000000Y-141397440D01*
X320012106Y-141395032D01*
X320049009Y-141395032D01*
X320175318Y-141382592D01*
X320271451Y-141363470D01*
X320392904Y-141326628D01*
X320483460Y-141289119D01*
X320595397Y-141229287D01*
X320676896Y-141174831D01*
X320775006Y-141094314D01*
X320844314Y-141025006D01*
X320924831Y-140926896D01*
X320979287Y-140845397D01*
X321024933Y-140760000D01*
X327322141Y-140760000D01*
X332216578Y-145654438D01*
X331906706Y-145535861D01*
X331759142Y-145315017D01*
X331695686Y-145272617D01*
X330938598Y-144515530D01*
X330896196Y-144452071D01*
X330644804Y-144284096D01*
X330423119Y-144240000D01*
X330423114Y-144240000D01*
X330348267Y-144225112D01*
X330273420Y-144240000D01*
X321024933Y-144240000D01*
X320979287Y-144154603D01*
X320924831Y-144073104D01*
X320844314Y-143974994D01*
X320775006Y-143905686D01*
X320676896Y-143825169D01*
X320595397Y-143770713D01*
X320483460Y-143710881D01*
X320392904Y-143673372D01*
X320271451Y-143636530D01*
X320175318Y-143617408D01*
X320049009Y-143604968D01*
X320012106Y-143604968D01*
X320000000Y-143602560D01*
X319500000Y-143602560D01*
X319350000Y-143632397D01*
X319200000Y-143602560D01*
X318700000Y-143602560D01*
X318687894Y-143604968D01*
X318650991Y-143604968D01*
X318524682Y-143617408D01*
X318428549Y-143636530D01*
X318307096Y-143673372D01*
X318216540Y-143710881D01*
X318104603Y-143770713D01*
X318023104Y-143825169D01*
X317924994Y-143905686D01*
X317855686Y-143974994D01*
X317775169Y-144073104D01*
X317720713Y-144154603D01*
X317675067Y-144240000D01*
X315703711Y-144240000D01*
X315586280Y-144122569D01*
X315205874Y-143965000D01*
X314794126Y-143965000D01*
X314413720Y-144122569D01*
X314122569Y-144413720D01*
X313965000Y-144794126D01*
X313965000Y-145205874D01*
X314122569Y-145586280D01*
X314413720Y-145877431D01*
X314794126Y-146035000D01*
X315205874Y-146035000D01*
X315586280Y-145877431D01*
X315703711Y-145760000D01*
X317675067Y-145760000D01*
X317720713Y-145845397D01*
X317775169Y-145926896D01*
X317855686Y-146025006D01*
X317924994Y-146094314D01*
X318023104Y-146174831D01*
X318104603Y-146229287D01*
X318216540Y-146289119D01*
X318307096Y-146326628D01*
X318428549Y-146363470D01*
X318524682Y-146382592D01*
X318650991Y-146395032D01*
X318687894Y-146395032D01*
X318700000Y-146397440D01*
X319200000Y-146397440D01*
X319350000Y-146367603D01*
X319500000Y-146397440D01*
X320000000Y-146397440D01*
X320012106Y-146395032D01*
X320049009Y-146395032D01*
X320175318Y-146382592D01*
X320271451Y-146363470D01*
X320392904Y-146326628D01*
X320483460Y-146289119D01*
X320595397Y-146229287D01*
X320676896Y-146174831D01*
X320775006Y-146094314D01*
X320844314Y-146025006D01*
X320924831Y-145926896D01*
X320979287Y-145845397D01*
X321024933Y-145760000D01*
X328863942Y-145760000D01*
X328381232Y-147021447D01*
X328338712Y-147270462D01*
X328394722Y-147516793D01*
X328540736Y-147722939D01*
X328754523Y-147857516D01*
X332490344Y-149287076D01*
X332739358Y-149329596D01*
X332985690Y-149273586D01*
X333191836Y-149127572D01*
X333326413Y-148913785D01*
X333921308Y-147359168D01*
X334467343Y-147905203D01*
X333984963Y-149165788D01*
X333942443Y-149414803D01*
X333998453Y-149661134D01*
X334144467Y-149867280D01*
X334358254Y-150001857D01*
X338094075Y-151431417D01*
X338343089Y-151473937D01*
X338589421Y-151417927D01*
X338795567Y-151271913D01*
X338930144Y-151058126D01*
X339644925Y-149190216D01*
X339687445Y-148941201D01*
X339631435Y-148694870D01*
X339485421Y-148488724D01*
X339271634Y-148354147D01*
X335698638Y-146986894D01*
X328227273Y-139515530D01*
X328184871Y-139452071D01*
X327933479Y-139284096D01*
X327711794Y-139240000D01*
X327711789Y-139240000D01*
X327636942Y-139225112D01*
X327562095Y-139240000D01*
X321024933Y-139240000D01*
X320979287Y-139154603D01*
X320924831Y-139073104D01*
X320844314Y-138974994D01*
X320775006Y-138905686D01*
X320676896Y-138825169D01*
X320595397Y-138770713D01*
X320483460Y-138710881D01*
X320392904Y-138673372D01*
X320271451Y-138636530D01*
X320175318Y-138617408D01*
X320049009Y-138604968D01*
X320012106Y-138604968D01*
X320000000Y-138602560D01*
X319500000Y-138602560D01*
X319350000Y-138632397D01*
X319200000Y-138602560D01*
X318700000Y-138602560D01*
X318687894Y-138604968D01*
X318650991Y-138604968D01*
X318524682Y-138617408D01*
X318428549Y-138636530D01*
X318307096Y-138673372D01*
X318216540Y-138710881D01*
X318104603Y-138770713D01*
X318023104Y-138825169D01*
X317924994Y-138905686D01*
X317855686Y-138974994D01*
X317775169Y-139073104D01*
X317720713Y-139154603D01*
X317675067Y-139240000D01*
X307974848Y-139240000D01*
X307900000Y-139225112D01*
X307825152Y-139240000D01*
X307825148Y-139240000D01*
X307651605Y-139274520D01*
X307603462Y-139284096D01*
X307473872Y-139370686D01*
X307352071Y-139452071D01*
X307309671Y-139515527D01*
X307210198Y-139615000D01*
X307044126Y-139615000D01*
X306663720Y-139772569D01*
X306372569Y-140063720D01*
X306215000Y-140444126D01*
X296968928Y-140444126D01*
X294359784Y-137834983D01*
X294317382Y-137771524D01*
X294065990Y-137603549D01*
X293844305Y-137559453D01*
X293844300Y-137559453D01*
X293769453Y-137544565D01*
X293694606Y-137559453D01*
X116405393Y-137559453D01*
X116330546Y-137544565D01*
X116255699Y-137559453D01*
X116255695Y-137559453D01*
X116034010Y-137603549D01*
X115971449Y-137645351D01*
X115846073Y-137729124D01*
X115846071Y-137729126D01*
X115782618Y-137771524D01*
X115740220Y-137834977D01*
X102867129Y-150708070D01*
X92930755Y-150708070D01*
X92947892Y-150632701D01*
X92905372Y-150383686D01*
X92190592Y-148515775D01*
X92056015Y-148301988D01*
X91849869Y-148155974D01*
X91603538Y-148099964D01*
X91354523Y-148142484D01*
X87491302Y-149620796D01*
X88020504Y-149091594D01*
X91245477Y-147857516D01*
X91459264Y-147722939D01*
X91605278Y-147516793D01*
X91661288Y-147270462D01*
X91618768Y-147021447D01*
X91195850Y-145916249D01*
X92477099Y-144635000D01*
X95589725Y-144635000D01*
X95800000Y-144676826D01*
X96010275Y-144635000D01*
X96010279Y-144635000D01*
X96633036Y-144511126D01*
X97339249Y-144039249D01*
X97458364Y-143860981D01*
X101060984Y-140258362D01*
X101239249Y-140139249D01*
X101711126Y-139433036D01*
X101791221Y-139030369D01*
X101835000Y-138924678D01*
X101835000Y-138810275D01*
X101876826Y-138600000D01*
X101835000Y-138389725D01*
X101835000Y-138075322D01*
X101752953Y-137877242D01*
X101711126Y-137666965D01*
X101592014Y-137488701D01*
X101509966Y-137290620D01*
X101358362Y-137139016D01*
X101239249Y-136960751D01*
X101060984Y-136841638D01*
X100909380Y-136690034D01*
X100711301Y-136607987D01*
X100533036Y-136488874D01*
X100322757Y-136447047D01*
X100124678Y-136365000D01*
X99910279Y-136365000D01*
X99700000Y-136323173D01*
X99489722Y-136365000D01*
X99275322Y-136365000D01*
X99077242Y-136447047D01*
X98866965Y-136488874D01*
X98688701Y-136607986D01*
X98490620Y-136690034D01*
X98339016Y-136841638D01*
X98160751Y-136960751D01*
X98041638Y-137139016D01*
X97890034Y-137290620D01*
X97819323Y-137461331D01*
X94915655Y-140365000D01*
X91803027Y-140365000D01*
X91592752Y-140323174D01*
X91382477Y-140365000D01*
X91382474Y-140365000D01*
X90759717Y-140488874D01*
X90053504Y-140960751D01*
X89934391Y-141139016D01*
X84328560Y-146744848D01*
X84120616Y-147056058D01*
X80728367Y-148354146D01*
X80514580Y-148488723D01*
X80368566Y-148694869D01*
X80312556Y-148941200D01*
X80355076Y-149190215D01*
X81069856Y-151058126D01*
X81204433Y-151271913D01*
X81410579Y-151417927D01*
X81656910Y-151473937D01*
X81905925Y-151431417D01*
X85276976Y-150141441D01*
X85838720Y-150253178D01*
X82014971Y-151716385D01*
X81801184Y-151850962D01*
X81655170Y-152057108D01*
X81599160Y-152303439D01*
X81641680Y-152552454D01*
X82356460Y-154420365D01*
X82491037Y-154634152D01*
X82697183Y-154780166D01*
X82943514Y-154836176D01*
X83192529Y-154793656D01*
X89897086Y-152228070D01*
X103107083Y-152228070D01*
X103181930Y-152242958D01*
X103256777Y-152228070D01*
X103256782Y-152228070D01*
X103478467Y-152183974D01*
X103729859Y-152015999D01*
X103772261Y-151952540D01*
X116645350Y-139079453D01*
X182297829Y-139079453D01*
X180540676Y-139217141D01*
X180538118Y-139216857D01*
X180475946Y-139222213D01*
X180413638Y-139227095D01*
X180411157Y-139227794D01*
X177865654Y-139447070D01*
X177863191Y-139446815D01*
X177800870Y-139452650D01*
X177738593Y-139458015D01*
X177736218Y-139458704D01*
X175190734Y-139697045D01*
X175188270Y-139696809D01*
X175125925Y-139703114D01*
X175063752Y-139708935D01*
X175061388Y-139709640D01*
X172515680Y-139967071D01*
X172513089Y-139966843D01*
X172451057Y-139973606D01*
X172388924Y-139979889D01*
X172386435Y-139980651D01*
X169850770Y-140257096D01*
X169848451Y-140256908D01*
X169786242Y-140264131D01*
X169723849Y-140270933D01*
X169721625Y-140271633D01*
X167175853Y-140567209D01*
X167173251Y-140567019D01*
X167111380Y-140574695D01*
X167049313Y-140581901D01*
X167046824Y-140582704D01*
X164510808Y-140897322D01*
X164508348Y-140897161D01*
X164446302Y-140905325D01*
X164384235Y-140913025D01*
X164381897Y-140913799D01*
X161845910Y-141247482D01*
X161843454Y-141247339D01*
X161781466Y-141255961D01*
X161719453Y-141264121D01*
X161717125Y-141264911D01*
X159182067Y-141617532D01*
X159180661Y-141617456D01*
X159117515Y-141626511D01*
X159054688Y-141635250D01*
X159053366Y-141635710D01*
X156527010Y-141997980D01*
X156523325Y-141997822D01*
X156462692Y-142007203D01*
X156401972Y-142015910D01*
X156398494Y-142017135D01*
X153870904Y-142408197D01*
X153868451Y-142408110D01*
X153806620Y-142418143D01*
X153744849Y-142427700D01*
X153742548Y-142428540D01*
X151215833Y-142838535D01*
X151213178Y-142838462D01*
X151151655Y-142848949D01*
X151090125Y-142858933D01*
X151087640Y-142859861D01*
X148570765Y-143288873D01*
X148568315Y-143288824D01*
X148506676Y-143299798D01*
X148445021Y-143310307D01*
X148442735Y-143311181D01*
X145925912Y-143759252D01*
X145923468Y-143759221D01*
X145861898Y-143770649D01*
X145800323Y-143781611D01*
X145798049Y-143782499D01*
X143280842Y-144249709D01*
X143278169Y-144249696D01*
X143216922Y-144261573D01*
X143155646Y-144272946D01*
X143153166Y-144273936D01*
X140646971Y-144759928D01*
X140645752Y-144759927D01*
X140583227Y-144772289D01*
X140520542Y-144784445D01*
X140519412Y-144784907D01*
X138012174Y-145280634D01*
X138008526Y-145280670D01*
X137948433Y-145293237D01*
X137888216Y-145305143D01*
X137884845Y-145306535D01*
X135375898Y-145831220D01*
X135373211Y-145831268D01*
X135312268Y-145844527D01*
X135251274Y-145857282D01*
X135248804Y-145858334D01*
X132752026Y-146401526D01*
X132750813Y-146401552D01*
X132688520Y-146415342D01*
X132626178Y-146428905D01*
X132625066Y-146429389D01*
X130126998Y-146982396D01*
X130123092Y-146982526D01*
X130063558Y-146996440D01*
X130003881Y-147009651D01*
X130000304Y-147011224D01*
X127511913Y-147592801D01*
X127510705Y-147592846D01*
X127448649Y-147607587D01*
X127386498Y-147622113D01*
X127385396Y-147622613D01*
X124896900Y-148213751D01*
X124892988Y-148213941D01*
X124833649Y-148228776D01*
X124774220Y-148242893D01*
X124770664Y-148244522D01*
X122291821Y-148864233D01*
X122290617Y-148864296D01*
X122228739Y-148880003D01*
X122166865Y-148895472D01*
X122165776Y-148895986D01*
X119686818Y-149525260D01*
X119682908Y-149525511D01*
X119623846Y-149541246D01*
X119564608Y-149556283D01*
X119561071Y-149557969D01*
X117091746Y-150215820D01*
X117090552Y-150215901D01*
X117029100Y-150232510D01*
X116967284Y-150248978D01*
X116966204Y-150249508D01*
X114497925Y-150916611D01*
X114495203Y-150916818D01*
X114435095Y-150933592D01*
X114375049Y-150949821D01*
X114372611Y-150951030D01*
X111912903Y-151637461D01*
X111910518Y-151637659D01*
X111850235Y-151654950D01*
X111789983Y-151671764D01*
X111787853Y-151672842D01*
X109327891Y-152378412D01*
X109325171Y-152378661D01*
X109265452Y-152396321D01*
X109205551Y-152413502D01*
X109203122Y-152414753D01*
X106752891Y-153139335D01*
X106750523Y-153139569D01*
X106690552Y-153157770D01*
X106630503Y-153175528D01*
X106628398Y-153176634D01*
X104177904Y-153920364D01*
X104175182Y-153920655D01*
X104115718Y-153939238D01*
X104056122Y-153957325D01*
X104053709Y-153958615D01*
X101612561Y-154721474D01*
X101609836Y-154721788D01*
X101550573Y-154740845D01*
X101491095Y-154759432D01*
X101488684Y-154760747D01*
X99057591Y-155542510D01*
X99055242Y-155542798D01*
X98995618Y-155562439D01*
X98936072Y-155581587D01*
X98934011Y-155582733D01*
X96502633Y-156383658D01*
X96499907Y-156384015D01*
X96440884Y-156403999D01*
X96381764Y-156423474D01*
X96379373Y-156424826D01*
X93958794Y-157244392D01*
X93957630Y-157244548D01*
X93897289Y-157265216D01*
X93836769Y-157285707D01*
X93835750Y-157286294D01*
X91413526Y-158115954D01*
X91409233Y-158116588D01*
X91352044Y-158137013D01*
X91294639Y-158156675D01*
X91290889Y-158158854D01*
X88888527Y-159016841D01*
X88887785Y-159016952D01*
X88827269Y-159038719D01*
X88766802Y-159060314D01*
X88766159Y-159060699D01*
X86354790Y-159928029D01*
X86351645Y-159928532D01*
X86293622Y-159950030D01*
X86235453Y-159970953D01*
X86232726Y-159972593D01*
X83839461Y-160859341D01*
X83837167Y-160859724D01*
X83778579Y-160881899D01*
X83719739Y-160903700D01*
X83717755Y-160904920D01*
X81324580Y-161810703D01*
X81321861Y-161811180D01*
X81263852Y-161833687D01*
X81205579Y-161855743D01*
X81203234Y-161857207D01*
X79379491Y-162564820D01*
X76562338Y-155200834D01*
X78600154Y-154422098D01*
X80634384Y-154622784D01*
X80722422Y-154642700D01*
X80828309Y-154624499D01*
X80935237Y-154613985D01*
X80956941Y-154602388D01*
X80981191Y-154598220D01*
X81072053Y-154540884D01*
X81166818Y-154490250D01*
X81182431Y-154471232D01*
X81203241Y-154458100D01*
X81265248Y-154370352D01*
X81333419Y-154287312D01*
X81340566Y-154263767D01*
X81354767Y-154243670D01*
X81378473Y-154138879D01*
X81409679Y-154036067D01*
X81407271Y-154011577D01*
X81412700Y-153987577D01*
X81394499Y-153881688D01*
X81383985Y-153774763D01*
X81341451Y-153695157D01*
X80081063Y-150412289D01*
X80059698Y-150325217D01*
X79995757Y-150238129D01*
X79938099Y-150146759D01*
X79918506Y-150132914D01*
X79904306Y-150113573D01*
X79811903Y-150057583D01*
X79723670Y-149995233D01*
X79700268Y-149989939D01*
X79679749Y-149977506D01*
X79572966Y-149961141D01*
X79467577Y-149937300D01*
X79443928Y-149941365D01*
X79420215Y-149937731D01*
X79315295Y-149963476D01*
X79208809Y-149981780D01*
X79188518Y-149994584D01*
X79165216Y-150000302D01*
X79078119Y-150064250D01*
X78986759Y-150121901D01*
X78935021Y-150195118D01*
X77558536Y-151699224D01*
X75520457Y-152478062D01*
X72701710Y-145118478D01*
X74725840Y-144336429D01*
X77361083Y-143338231D01*
X80017624Y-142359506D01*
X82663110Y-141391159D01*
X85327190Y-140453244D01*
X87992290Y-139534933D01*
X90677846Y-138636421D01*
X93354305Y-137757585D01*
X96049357Y-136889180D01*
X98744115Y-136050812D01*
X101439495Y-135232217D01*
X104144610Y-134433661D01*
X106859662Y-133655081D01*
X109585012Y-132896377D01*
X112310608Y-132157572D01*
X115036001Y-131438788D01*
X117771098Y-130740042D01*
X120516333Y-130061222D01*
X123261947Y-129402275D01*
X126007304Y-128763357D01*
X128761078Y-128144756D01*
X131526330Y-127555766D01*
X134291992Y-126976675D01*
X137057054Y-126427656D01*
X139832493Y-125888542D01*
X142608135Y-125379342D01*
X145383167Y-124880235D01*
X148167373Y-124411211D01*
X150952584Y-123961983D01*
X153747856Y-123532709D01*
X156543423Y-123123358D01*
X159338830Y-122733998D01*
X162134048Y-122364631D01*
X164938106Y-122015371D01*
X167743599Y-121695884D01*
X170548980Y-121386394D01*
X173354290Y-121106862D01*
X176169492Y-120837322D01*
X178983684Y-120597817D01*
X181788963Y-120378185D01*
X184614238Y-120178519D01*
X187429642Y-119998812D01*
X190245067Y-119839072D01*
X193069168Y-119699364D01*
X195884527Y-119589544D01*
X198709785Y-119489712D01*
X201533982Y-119419855D01*
X204350459Y-119369917D01*
X207175844Y-119329983D01*
X210000000Y-119320004D01*
X212824156Y-119329983D01*
X212824156Y-119329983D01*
G37*
X212824156Y-119329983D02*
X215649532Y-119369917D01*
X218466018Y-119419855D01*
X221290215Y-119489712D01*
X224115483Y-119589545D01*
X226930837Y-119699364D01*
X229754925Y-119839071D01*
X232570358Y-119998812D01*
X235385753Y-120178519D01*
X238211148Y-120378193D01*
X241026207Y-120597808D01*
X243830442Y-120837316D01*
X246645735Y-121106864D01*
X249451029Y-121386395D01*
X252256431Y-121695887D01*
X255061904Y-122015372D01*
X257865967Y-122364633D01*
X260661406Y-122734030D01*
X263466578Y-123123359D01*
X266251850Y-123532664D01*
X269047433Y-123961986D01*
X271832671Y-124411218D01*
X274616847Y-124880238D01*
X277391961Y-125379359D01*
X280167539Y-125888548D01*
X282943033Y-126427673D01*
X285708044Y-126976683D01*
X288473724Y-127555778D01*
X291238939Y-128144760D01*
X293992843Y-128763390D01*
X296738215Y-129402313D01*
X299483829Y-130061261D01*
X302229076Y-130740086D01*
X304964143Y-131438825D01*
X307689592Y-132157625D01*
X310415155Y-132896422D01*
X313140483Y-133655122D01*
X315855536Y-134433703D01*
X318560615Y-135232249D01*
X321256054Y-136050864D01*
X323950756Y-136889216D01*
X326645901Y-137757651D01*
X329322358Y-138636488D01*
X332007839Y-139534976D01*
X334672896Y-140453274D01*
X337337355Y-141391323D01*
X339992459Y-142359537D01*
X342638668Y-143338136D01*
X345274283Y-144336475D01*
X347298289Y-145118478D01*
X344479544Y-152478062D01*
X342441467Y-151699226D01*
X341064984Y-150195124D01*
X341013241Y-150121900D01*
X340921868Y-150064241D01*
X340834783Y-150000302D01*
X340811482Y-149994584D01*
X340791191Y-149981780D01*
X340684710Y-149963477D01*
X340579784Y-149937730D01*
X340556069Y-149941365D01*
X340532422Y-149937300D01*
X340427038Y-149961140D01*
X340320251Y-149977506D01*
X340299733Y-149989939D01*
X340276329Y-149995233D01*
X340188090Y-150057587D01*
X340095694Y-150113573D01*
X340081495Y-150132912D01*
X340061900Y-150146759D01*
X340004236Y-150238139D01*
X339940302Y-150325217D01*
X339918937Y-150412285D01*
X338658549Y-153695157D01*
X338616015Y-153774764D01*
X338605502Y-153881684D01*
X338587300Y-153987577D01*
X338592730Y-154011579D01*
X338590322Y-154036066D01*
X338621525Y-154138869D01*
X338645233Y-154243670D01*
X338659435Y-154263767D01*
X338666581Y-154287312D01*
X338734753Y-154370352D01*
X338796759Y-154458099D01*
X338817569Y-154471231D01*
X338833183Y-154490250D01*
X338927946Y-154540882D01*
X339018809Y-154598220D01*
X339043060Y-154602389D01*
X339064764Y-154613985D01*
X339171690Y-154624499D01*
X339277577Y-154642700D01*
X339365615Y-154622784D01*
X341399847Y-154422097D01*
X343437661Y-155200834D01*
X340620510Y-162564819D01*
X338796772Y-161857210D01*
X338794421Y-161855742D01*
X338736008Y-161833634D01*
X338678138Y-161811180D01*
X338675425Y-161810704D01*
X336282247Y-160904921D01*
X336280261Y-160903700D01*
X336221378Y-160881883D01*
X336162832Y-160859724D01*
X336160540Y-160859341D01*
X333767672Y-159972742D01*
X333765303Y-159971312D01*
X333706657Y-159950134D01*
X333648354Y-159928532D01*
X333645629Y-159928097D01*
X331243811Y-159060774D01*
X331242446Y-159059959D01*
X331182618Y-159038676D01*
X331123026Y-159017157D01*
X331121458Y-159016920D01*
X328708757Y-158158647D01*
X328705361Y-158156674D01*
X328647453Y-158136839D01*
X328589959Y-158116387D01*
X328586085Y-158115820D01*
X326164253Y-157286296D01*
X326163230Y-157285706D01*
X326102472Y-157265134D01*
X326042369Y-157244548D01*
X326041210Y-157244392D01*
X323620631Y-156424828D01*
X323618235Y-156423473D01*
X323558975Y-156403952D01*
X323500091Y-156384015D01*
X323497371Y-156383659D01*
X321065992Y-155582734D01*
X321063927Y-155581586D01*
X321004259Y-155562399D01*
X320944757Y-155542798D01*
X320942413Y-155542511D01*
X318510190Y-154760385D01*
X318506728Y-154758513D01*
X318448260Y-154740470D01*
X318390163Y-154721788D01*
X318386263Y-154721338D01*
X315945254Y-153968059D01*
X315943879Y-153967324D01*
X315882837Y-153948798D01*
X315822503Y-153930179D01*
X315820968Y-153930020D01*
X313372745Y-153186981D01*
X313371692Y-153186423D01*
X313310335Y-153168040D01*
X313249476Y-153149569D01*
X313248298Y-153149453D01*
X310797941Y-152415300D01*
X310794449Y-152413501D01*
X310735609Y-152396625D01*
X310677155Y-152379111D01*
X310673257Y-152378741D01*
X308212155Y-151672845D01*
X308210018Y-151671763D01*
X308149571Y-151654894D01*
X308089481Y-151637659D01*
X308087103Y-151637461D01*
X305627394Y-150951031D01*
X305624951Y-150949820D01*
X305564766Y-150933554D01*
X305504796Y-150916818D01*
X305502080Y-150916612D01*
X303983181Y-150506099D01*
X327061105Y-150506099D01*
X327067982Y-150758624D01*
X327170972Y-150989295D01*
X327354397Y-151162994D01*
X327590332Y-151253278D01*
X331875263Y-152892963D01*
X331876949Y-152892210D01*
X332317489Y-152892210D01*
X332409019Y-153097211D01*
X336693950Y-154736896D01*
X336929885Y-154827179D01*
X337182410Y-154820302D01*
X337413081Y-154717310D01*
X337586780Y-154533885D01*
X337887187Y-153748841D01*
X337795658Y-153543840D01*
X332799698Y-151632071D01*
X332317489Y-152892210D01*
X331876949Y-152892210D01*
X332080265Y-152801433D01*
X332562473Y-151541294D01*
X332179766Y-151394846D01*
X332890475Y-151394846D01*
X337886435Y-153306615D01*
X338091436Y-153215086D01*
X338391843Y-152430041D01*
X338384966Y-152177516D01*
X338281976Y-151946845D01*
X338098551Y-151773146D01*
X337862616Y-151682862D01*
X333577685Y-150043177D01*
X333372683Y-150134707D01*
X332890475Y-151394846D01*
X332179766Y-151394846D01*
X327566513Y-149629525D01*
X327361512Y-149721054D01*
X327061105Y-150506099D01*
X303983181Y-150506099D01*
X303033800Y-150249510D01*
X303032716Y-150248977D01*
X302970654Y-150232443D01*
X302909448Y-150215901D01*
X302908259Y-150215820D01*
X300438937Y-149557972D01*
X300435393Y-149556282D01*
X300376038Y-149541215D01*
X300317091Y-149525511D01*
X300313188Y-149525261D01*
X298981822Y-149187299D01*
X327565761Y-149187299D01*
X327657290Y-149392300D01*
X332653250Y-151304069D01*
X333135459Y-150043930D01*
X333043929Y-149838929D01*
X328758998Y-148199244D01*
X328523063Y-148108961D01*
X328270538Y-148115838D01*
X328039867Y-148218830D01*
X327866168Y-148402255D01*
X327565761Y-149187299D01*
X298981822Y-149187299D01*
X297833058Y-148895690D01*
X297830871Y-148894667D01*
X297770003Y-148879684D01*
X297709383Y-148864296D01*
X297706978Y-148864170D01*
X295229416Y-148254310D01*
X295228050Y-148253678D01*
X295166152Y-148238737D01*
X295104633Y-148223594D01*
X295103137Y-148223527D01*
X292615705Y-147623112D01*
X292613502Y-147622113D01*
X292552462Y-147607847D01*
X292491674Y-147593174D01*
X292489263Y-147593076D01*
X289999699Y-147011225D01*
X289996120Y-147009651D01*
X289936406Y-146996432D01*
X289876907Y-146982526D01*
X289873003Y-146982396D01*
X287374935Y-146429390D01*
X287373822Y-146428905D01*
X287311426Y-146415330D01*
X287249186Y-146401552D01*
X287247974Y-146401526D01*
X284751197Y-145858334D01*
X284748726Y-145857282D01*
X284687707Y-145844521D01*
X284626788Y-145831268D01*
X284624102Y-145831220D01*
X282115156Y-145306535D01*
X282111784Y-145305143D01*
X282051549Y-145293233D01*
X281991473Y-145280670D01*
X281987826Y-145280634D01*
X279480589Y-144784907D01*
X279479458Y-144784445D01*
X279416724Y-144772280D01*
X279354247Y-144759927D01*
X279353029Y-144759928D01*
X276846833Y-144273936D01*
X276844353Y-144272946D01*
X276783077Y-144261573D01*
X276721830Y-144249696D01*
X276719157Y-144249709D01*
X274201953Y-143782500D01*
X274199678Y-143781611D01*
X274138055Y-143770640D01*
X274076531Y-143759221D01*
X274074089Y-143759252D01*
X271557266Y-143311181D01*
X271554979Y-143310307D01*
X271493302Y-143299794D01*
X271431684Y-143288824D01*
X271429235Y-143288873D01*
X268912361Y-142859861D01*
X268909875Y-142858933D01*
X268848326Y-142848946D01*
X268786821Y-142838462D01*
X268784167Y-142838535D01*
X266256245Y-142428344D01*
X266252782Y-142427095D01*
X266192089Y-142417934D01*
X266131547Y-142408110D01*
X266127871Y-142408241D01*
X263601565Y-142026911D01*
X263600406Y-142026498D01*
X263537260Y-142017205D01*
X263474231Y-142007691D01*
X263473003Y-142007748D01*
X260947798Y-141636114D01*
X260945312Y-141635250D01*
X260883581Y-141626663D01*
X260821786Y-141617569D01*
X260819152Y-141617701D01*
X258282876Y-141264911D01*
X258280547Y-141264121D01*
X258218516Y-141255959D01*
X258156545Y-141247339D01*
X258154090Y-141247482D01*
X255618103Y-140913799D01*
X255615765Y-140913025D01*
X255553699Y-140905325D01*
X255491652Y-140897161D01*
X255489192Y-140897322D01*
X252953317Y-140582721D01*
X252950966Y-140581962D01*
X252888788Y-140574716D01*
X252826748Y-140567019D01*
X252824288Y-140567199D01*
X250288379Y-140271661D01*
X250285889Y-140270878D01*
X250223756Y-140264129D01*
X250161834Y-140256913D01*
X250159238Y-140257122D01*
X247613435Y-139980611D01*
X247611076Y-139979889D01*
X247548839Y-139973595D01*
X247486643Y-139966840D01*
X247484185Y-139967057D01*
X244938613Y-139709640D01*
X244936248Y-139708935D01*
X244874062Y-139703112D01*
X244811729Y-139696809D01*
X244809265Y-139697045D01*
X242263782Y-139458704D01*
X242261407Y-139458015D01*
X242199130Y-139452650D01*
X242136809Y-139446815D01*
X242134346Y-139447070D01*
X239588940Y-139227802D01*
X239586553Y-139227129D01*
X239524149Y-139222221D01*
X239461882Y-139216857D01*
X239459421Y-139217130D01*
X237708953Y-139079453D01*
X293454652Y-139079453D01*
X301765000Y-147389802D01*
X301765000Y-147555874D01*
X301922569Y-147936280D01*
X302213720Y-148227431D01*
X302594126Y-148385000D01*
X303005874Y-148385000D01*
X303386280Y-148227431D01*
X303677431Y-147936280D01*
X303835000Y-147555874D01*
X303835000Y-147144126D01*
X303677431Y-146763720D01*
X303386280Y-146472569D01*
X303005874Y-146315000D01*
X302839802Y-146315000D01*
X296968928Y-140444126D01*
X306215000Y-140444126D01*
X306215000Y-140855874D01*
X306372569Y-141236280D01*
X306663720Y-141527431D01*
X307044126Y-141685000D01*
X307455874Y-141685000D01*
X307836280Y-141527431D01*
X308127431Y-141236280D01*
X308285000Y-140855874D01*
X308285000Y-140760000D01*
X317675067Y-140760000D01*
X317720713Y-140845397D01*
X317775169Y-140926896D01*
X317855686Y-141025006D01*
X317924994Y-141094314D01*
X318023104Y-141174831D01*
X318104603Y-141229287D01*
X318216540Y-141289119D01*
X318307096Y-141326628D01*
X318428549Y-141363470D01*
X318524682Y-141382592D01*
X318650991Y-141395032D01*
X318687894Y-141395032D01*
X318700000Y-141397440D01*
X319200000Y-141397440D01*
X319350000Y-141367603D01*
X319500000Y-141397440D01*
X320000000Y-141397440D01*
X320012106Y-141395032D01*
X320049009Y-141395032D01*
X320175318Y-141382592D01*
X320271451Y-141363470D01*
X320392904Y-141326628D01*
X320483460Y-141289119D01*
X320595397Y-141229287D01*
X320676896Y-141174831D01*
X320775006Y-141094314D01*
X320844314Y-141025006D01*
X320924831Y-140926896D01*
X320979287Y-140845397D01*
X321024933Y-140760000D01*
X327322141Y-140760000D01*
X332216578Y-145654438D01*
X331906706Y-145535861D01*
X331759142Y-145315017D01*
X331695686Y-145272617D01*
X330938598Y-144515530D01*
X330896196Y-144452071D01*
X330644804Y-144284096D01*
X330423119Y-144240000D01*
X330423114Y-144240000D01*
X330348267Y-144225112D01*
X330273420Y-144240000D01*
X321024933Y-144240000D01*
X320979287Y-144154603D01*
X320924831Y-144073104D01*
X320844314Y-143974994D01*
X320775006Y-143905686D01*
X320676896Y-143825169D01*
X320595397Y-143770713D01*
X320483460Y-143710881D01*
X320392904Y-143673372D01*
X320271451Y-143636530D01*
X320175318Y-143617408D01*
X320049009Y-143604968D01*
X320012106Y-143604968D01*
X320000000Y-143602560D01*
X319500000Y-143602560D01*
X319350000Y-143632397D01*
X319200000Y-143602560D01*
X318700000Y-143602560D01*
X318687894Y-143604968D01*
X318650991Y-143604968D01*
X318524682Y-143617408D01*
X318428549Y-143636530D01*
X318307096Y-143673372D01*
X318216540Y-143710881D01*
X318104603Y-143770713D01*
X318023104Y-143825169D01*
X317924994Y-143905686D01*
X317855686Y-143974994D01*
X317775169Y-144073104D01*
X317720713Y-144154603D01*
X317675067Y-144240000D01*
X315703711Y-144240000D01*
X315586280Y-144122569D01*
X315205874Y-143965000D01*
X314794126Y-143965000D01*
X314413720Y-144122569D01*
X314122569Y-144413720D01*
X313965000Y-144794126D01*
X313965000Y-145205874D01*
X314122569Y-145586280D01*
X314413720Y-145877431D01*
X314794126Y-146035000D01*
X315205874Y-146035000D01*
X315586280Y-145877431D01*
X315703711Y-145760000D01*
X317675067Y-145760000D01*
X317720713Y-145845397D01*
X317775169Y-145926896D01*
X317855686Y-146025006D01*
X317924994Y-146094314D01*
X318023104Y-146174831D01*
X318104603Y-146229287D01*
X318216540Y-146289119D01*
X318307096Y-146326628D01*
X318428549Y-146363470D01*
X318524682Y-146382592D01*
X318650991Y-146395032D01*
X318687894Y-146395032D01*
X318700000Y-146397440D01*
X319200000Y-146397440D01*
X319350000Y-146367603D01*
X319500000Y-146397440D01*
X320000000Y-146397440D01*
X320012106Y-146395032D01*
X320049009Y-146395032D01*
X320175318Y-146382592D01*
X320271451Y-146363470D01*
X320392904Y-146326628D01*
X320483460Y-146289119D01*
X320595397Y-146229287D01*
X320676896Y-146174831D01*
X320775006Y-146094314D01*
X320844314Y-146025006D01*
X320924831Y-145926896D01*
X320979287Y-145845397D01*
X321024933Y-145760000D01*
X328863942Y-145760000D01*
X328381232Y-147021447D01*
X328338712Y-147270462D01*
X328394722Y-147516793D01*
X328540736Y-147722939D01*
X328754523Y-147857516D01*
X332490344Y-149287076D01*
X332739358Y-149329596D01*
X332985690Y-149273586D01*
X333191836Y-149127572D01*
X333326413Y-148913785D01*
X333921308Y-147359168D01*
X334467343Y-147905203D01*
X333984963Y-149165788D01*
X333942443Y-149414803D01*
X333998453Y-149661134D01*
X334144467Y-149867280D01*
X334358254Y-150001857D01*
X338094075Y-151431417D01*
X338343089Y-151473937D01*
X338589421Y-151417927D01*
X338795567Y-151271913D01*
X338930144Y-151058126D01*
X339644925Y-149190216D01*
X339687445Y-148941201D01*
X339631435Y-148694870D01*
X339485421Y-148488724D01*
X339271634Y-148354147D01*
X335698638Y-146986894D01*
X328227273Y-139515530D01*
X328184871Y-139452071D01*
X327933479Y-139284096D01*
X327711794Y-139240000D01*
X327711789Y-139240000D01*
X327636942Y-139225112D01*
X327562095Y-139240000D01*
X321024933Y-139240000D01*
X320979287Y-139154603D01*
X320924831Y-139073104D01*
X320844314Y-138974994D01*
X320775006Y-138905686D01*
X320676896Y-138825169D01*
X320595397Y-138770713D01*
X320483460Y-138710881D01*
X320392904Y-138673372D01*
X320271451Y-138636530D01*
X320175318Y-138617408D01*
X320049009Y-138604968D01*
X320012106Y-138604968D01*
X320000000Y-138602560D01*
X319500000Y-138602560D01*
X319350000Y-138632397D01*
X319200000Y-138602560D01*
X318700000Y-138602560D01*
X318687894Y-138604968D01*
X318650991Y-138604968D01*
X318524682Y-138617408D01*
X318428549Y-138636530D01*
X318307096Y-138673372D01*
X318216540Y-138710881D01*
X318104603Y-138770713D01*
X318023104Y-138825169D01*
X317924994Y-138905686D01*
X317855686Y-138974994D01*
X317775169Y-139073104D01*
X317720713Y-139154603D01*
X317675067Y-139240000D01*
X307974848Y-139240000D01*
X307900000Y-139225112D01*
X307825152Y-139240000D01*
X307825148Y-139240000D01*
X307651605Y-139274520D01*
X307603462Y-139284096D01*
X307473872Y-139370686D01*
X307352071Y-139452071D01*
X307309671Y-139515527D01*
X307210198Y-139615000D01*
X307044126Y-139615000D01*
X306663720Y-139772569D01*
X306372569Y-140063720D01*
X306215000Y-140444126D01*
X296968928Y-140444126D01*
X294359784Y-137834983D01*
X294317382Y-137771524D01*
X294065990Y-137603549D01*
X293844305Y-137559453D01*
X293844300Y-137559453D01*
X293769453Y-137544565D01*
X293694606Y-137559453D01*
X116405393Y-137559453D01*
X116330546Y-137544565D01*
X116255699Y-137559453D01*
X116255695Y-137559453D01*
X116034010Y-137603549D01*
X115971449Y-137645351D01*
X115846073Y-137729124D01*
X115846071Y-137729126D01*
X115782618Y-137771524D01*
X115740220Y-137834977D01*
X102867129Y-150708070D01*
X92930755Y-150708070D01*
X92947892Y-150632701D01*
X92905372Y-150383686D01*
X92190592Y-148515775D01*
X92056015Y-148301988D01*
X91849869Y-148155974D01*
X91603538Y-148099964D01*
X91354523Y-148142484D01*
X87491302Y-149620796D01*
X88020504Y-149091594D01*
X91245477Y-147857516D01*
X91459264Y-147722939D01*
X91605278Y-147516793D01*
X91661288Y-147270462D01*
X91618768Y-147021447D01*
X91195850Y-145916249D01*
X92477099Y-144635000D01*
X95589725Y-144635000D01*
X95800000Y-144676826D01*
X96010275Y-144635000D01*
X96010279Y-144635000D01*
X96633036Y-144511126D01*
X97339249Y-144039249D01*
X97458364Y-143860981D01*
X101060984Y-140258362D01*
X101239249Y-140139249D01*
X101711126Y-139433036D01*
X101791221Y-139030369D01*
X101835000Y-138924678D01*
X101835000Y-138810275D01*
X101876826Y-138600000D01*
X101835000Y-138389725D01*
X101835000Y-138075322D01*
X101752953Y-137877242D01*
X101711126Y-137666965D01*
X101592014Y-137488701D01*
X101509966Y-137290620D01*
X101358362Y-137139016D01*
X101239249Y-136960751D01*
X101060984Y-136841638D01*
X100909380Y-136690034D01*
X100711301Y-136607987D01*
X100533036Y-136488874D01*
X100322757Y-136447047D01*
X100124678Y-136365000D01*
X99910279Y-136365000D01*
X99700000Y-136323173D01*
X99489722Y-136365000D01*
X99275322Y-136365000D01*
X99077242Y-136447047D01*
X98866965Y-136488874D01*
X98688701Y-136607986D01*
X98490620Y-136690034D01*
X98339016Y-136841638D01*
X98160751Y-136960751D01*
X98041638Y-137139016D01*
X97890034Y-137290620D01*
X97819323Y-137461331D01*
X94915655Y-140365000D01*
X91803027Y-140365000D01*
X91592752Y-140323174D01*
X91382477Y-140365000D01*
X91382474Y-140365000D01*
X90759717Y-140488874D01*
X90053504Y-140960751D01*
X89934391Y-141139016D01*
X84328560Y-146744848D01*
X84120616Y-147056058D01*
X80728367Y-148354146D01*
X80514580Y-148488723D01*
X80368566Y-148694869D01*
X80312556Y-148941200D01*
X80355076Y-149190215D01*
X81069856Y-151058126D01*
X81204433Y-151271913D01*
X81410579Y-151417927D01*
X81656910Y-151473937D01*
X81905925Y-151431417D01*
X85276976Y-150141441D01*
X85838720Y-150253178D01*
X82014971Y-151716385D01*
X81801184Y-151850962D01*
X81655170Y-152057108D01*
X81599160Y-152303439D01*
X81641680Y-152552454D01*
X82356460Y-154420365D01*
X82491037Y-154634152D01*
X82697183Y-154780166D01*
X82943514Y-154836176D01*
X83192529Y-154793656D01*
X89897086Y-152228070D01*
X103107083Y-152228070D01*
X103181930Y-152242958D01*
X103256777Y-152228070D01*
X103256782Y-152228070D01*
X103478467Y-152183974D01*
X103729859Y-152015999D01*
X103772261Y-151952540D01*
X116645350Y-139079453D01*
X182297829Y-139079453D01*
X180540676Y-139217141D01*
X180538118Y-139216857D01*
X180475946Y-139222213D01*
X180413638Y-139227095D01*
X180411157Y-139227794D01*
X177865654Y-139447070D01*
X177863191Y-139446815D01*
X177800870Y-139452650D01*
X177738593Y-139458015D01*
X177736218Y-139458704D01*
X175190734Y-139697045D01*
X175188270Y-139696809D01*
X175125925Y-139703114D01*
X175063752Y-139708935D01*
X175061388Y-139709640D01*
X172515680Y-139967071D01*
X172513089Y-139966843D01*
X172451057Y-139973606D01*
X172388924Y-139979889D01*
X172386435Y-139980651D01*
X169850770Y-140257096D01*
X169848451Y-140256908D01*
X169786242Y-140264131D01*
X169723849Y-140270933D01*
X169721625Y-140271633D01*
X167175853Y-140567209D01*
X167173251Y-140567019D01*
X167111380Y-140574695D01*
X167049313Y-140581901D01*
X167046824Y-140582704D01*
X164510808Y-140897322D01*
X164508348Y-140897161D01*
X164446302Y-140905325D01*
X164384235Y-140913025D01*
X164381897Y-140913799D01*
X161845910Y-141247482D01*
X161843454Y-141247339D01*
X161781466Y-141255961D01*
X161719453Y-141264121D01*
X161717125Y-141264911D01*
X159182067Y-141617532D01*
X159180661Y-141617456D01*
X159117515Y-141626511D01*
X159054688Y-141635250D01*
X159053366Y-141635710D01*
X156527010Y-141997980D01*
X156523325Y-141997822D01*
X156462692Y-142007203D01*
X156401972Y-142015910D01*
X156398494Y-142017135D01*
X153870904Y-142408197D01*
X153868451Y-142408110D01*
X153806620Y-142418143D01*
X153744849Y-142427700D01*
X153742548Y-142428540D01*
X151215833Y-142838535D01*
X151213178Y-142838462D01*
X151151655Y-142848949D01*
X151090125Y-142858933D01*
X151087640Y-142859861D01*
X148570765Y-143288873D01*
X148568315Y-143288824D01*
X148506676Y-143299798D01*
X148445021Y-143310307D01*
X148442735Y-143311181D01*
X145925912Y-143759252D01*
X145923468Y-143759221D01*
X145861898Y-143770649D01*
X145800323Y-143781611D01*
X145798049Y-143782499D01*
X143280842Y-144249709D01*
X143278169Y-144249696D01*
X143216922Y-144261573D01*
X143155646Y-144272946D01*
X143153166Y-144273936D01*
X140646971Y-144759928D01*
X140645752Y-144759927D01*
X140583227Y-144772289D01*
X140520542Y-144784445D01*
X140519412Y-144784907D01*
X138012174Y-145280634D01*
X138008526Y-145280670D01*
X137948433Y-145293237D01*
X137888216Y-145305143D01*
X137884845Y-145306535D01*
X135375898Y-145831220D01*
X135373211Y-145831268D01*
X135312268Y-145844527D01*
X135251274Y-145857282D01*
X135248804Y-145858334D01*
X132752026Y-146401526D01*
X132750813Y-146401552D01*
X132688520Y-146415342D01*
X132626178Y-146428905D01*
X132625066Y-146429389D01*
X130126998Y-146982396D01*
X130123092Y-146982526D01*
X130063558Y-146996440D01*
X130003881Y-147009651D01*
X130000304Y-147011224D01*
X127511913Y-147592801D01*
X127510705Y-147592846D01*
X127448649Y-147607587D01*
X127386498Y-147622113D01*
X127385396Y-147622613D01*
X124896900Y-148213751D01*
X124892988Y-148213941D01*
X124833649Y-148228776D01*
X124774220Y-148242893D01*
X124770664Y-148244522D01*
X122291821Y-148864233D01*
X122290617Y-148864296D01*
X122228739Y-148880003D01*
X122166865Y-148895472D01*
X122165776Y-148895986D01*
X119686818Y-149525260D01*
X119682908Y-149525511D01*
X119623846Y-149541246D01*
X119564608Y-149556283D01*
X119561071Y-149557969D01*
X117091746Y-150215820D01*
X117090552Y-150215901D01*
X117029100Y-150232510D01*
X116967284Y-150248978D01*
X116966204Y-150249508D01*
X114497925Y-150916611D01*
X114495203Y-150916818D01*
X114435095Y-150933592D01*
X114375049Y-150949821D01*
X114372611Y-150951030D01*
X111912903Y-151637461D01*
X111910518Y-151637659D01*
X111850235Y-151654950D01*
X111789983Y-151671764D01*
X111787853Y-151672842D01*
X109327891Y-152378412D01*
X109325171Y-152378661D01*
X109265452Y-152396321D01*
X109205551Y-152413502D01*
X109203122Y-152414753D01*
X106752891Y-153139335D01*
X106750523Y-153139569D01*
X106690552Y-153157770D01*
X106630503Y-153175528D01*
X106628398Y-153176634D01*
X104177904Y-153920364D01*
X104175182Y-153920655D01*
X104115718Y-153939238D01*
X104056122Y-153957325D01*
X104053709Y-153958615D01*
X101612561Y-154721474D01*
X101609836Y-154721788D01*
X101550573Y-154740845D01*
X101491095Y-154759432D01*
X101488684Y-154760747D01*
X99057591Y-155542510D01*
X99055242Y-155542798D01*
X98995618Y-155562439D01*
X98936072Y-155581587D01*
X98934011Y-155582733D01*
X96502633Y-156383658D01*
X96499907Y-156384015D01*
X96440884Y-156403999D01*
X96381764Y-156423474D01*
X96379373Y-156424826D01*
X93958794Y-157244392D01*
X93957630Y-157244548D01*
X93897289Y-157265216D01*
X93836769Y-157285707D01*
X93835750Y-157286294D01*
X91413526Y-158115954D01*
X91409233Y-158116588D01*
X91352044Y-158137013D01*
X91294639Y-158156675D01*
X91290889Y-158158854D01*
X88888527Y-159016841D01*
X88887785Y-159016952D01*
X88827269Y-159038719D01*
X88766802Y-159060314D01*
X88766159Y-159060699D01*
X86354790Y-159928029D01*
X86351645Y-159928532D01*
X86293622Y-159950030D01*
X86235453Y-159970953D01*
X86232726Y-159972593D01*
X83839461Y-160859341D01*
X83837167Y-160859724D01*
X83778579Y-160881899D01*
X83719739Y-160903700D01*
X83717755Y-160904920D01*
X81324580Y-161810703D01*
X81321861Y-161811180D01*
X81263852Y-161833687D01*
X81205579Y-161855743D01*
X81203234Y-161857207D01*
X79379491Y-162564820D01*
X76562338Y-155200834D01*
X78600154Y-154422098D01*
X80634384Y-154622784D01*
X80722422Y-154642700D01*
X80828309Y-154624499D01*
X80935237Y-154613985D01*
X80956941Y-154602388D01*
X80981191Y-154598220D01*
X81072053Y-154540884D01*
X81166818Y-154490250D01*
X81182431Y-154471232D01*
X81203241Y-154458100D01*
X81265248Y-154370352D01*
X81333419Y-154287312D01*
X81340566Y-154263767D01*
X81354767Y-154243670D01*
X81378473Y-154138879D01*
X81409679Y-154036067D01*
X81407271Y-154011577D01*
X81412700Y-153987577D01*
X81394499Y-153881688D01*
X81383985Y-153774763D01*
X81341451Y-153695157D01*
X80081063Y-150412289D01*
X80059698Y-150325217D01*
X79995757Y-150238129D01*
X79938099Y-150146759D01*
X79918506Y-150132914D01*
X79904306Y-150113573D01*
X79811903Y-150057583D01*
X79723670Y-149995233D01*
X79700268Y-149989939D01*
X79679749Y-149977506D01*
X79572966Y-149961141D01*
X79467577Y-149937300D01*
X79443928Y-149941365D01*
X79420215Y-149937731D01*
X79315295Y-149963476D01*
X79208809Y-149981780D01*
X79188518Y-149994584D01*
X79165216Y-150000302D01*
X79078119Y-150064250D01*
X78986759Y-150121901D01*
X78935021Y-150195118D01*
X77558536Y-151699224D01*
X75520457Y-152478062D01*
X72701710Y-145118478D01*
X74725840Y-144336429D01*
X77361083Y-143338231D01*
X80017624Y-142359506D01*
X82663110Y-141391159D01*
X85327190Y-140453244D01*
X87992290Y-139534933D01*
X90677846Y-138636421D01*
X93354305Y-137757585D01*
X96049357Y-136889180D01*
X98744115Y-136050812D01*
X101439495Y-135232217D01*
X104144610Y-134433661D01*
X106859662Y-133655081D01*
X109585012Y-132896377D01*
X112310608Y-132157572D01*
X115036001Y-131438788D01*
X117771098Y-130740042D01*
X120516333Y-130061222D01*
X123261947Y-129402275D01*
X126007304Y-128763357D01*
X128761078Y-128144756D01*
X131526330Y-127555766D01*
X134291992Y-126976675D01*
X137057054Y-126427656D01*
X139832493Y-125888542D01*
X142608135Y-125379342D01*
X145383167Y-124880235D01*
X148167373Y-124411211D01*
X150952584Y-123961983D01*
X153747856Y-123532709D01*
X156543423Y-123123358D01*
X159338830Y-122733998D01*
X162134048Y-122364631D01*
X164938106Y-122015371D01*
X167743599Y-121695884D01*
X170548980Y-121386394D01*
X173354290Y-121106862D01*
X176169492Y-120837322D01*
X178983684Y-120597817D01*
X181788963Y-120378185D01*
X184614238Y-120178519D01*
X187429642Y-119998812D01*
X190245067Y-119839072D01*
X193069168Y-119699364D01*
X195884527Y-119589544D01*
X198709785Y-119489712D01*
X201533982Y-119419855D01*
X204350459Y-119369917D01*
X207175844Y-119329983D01*
X210000000Y-119320004D01*
X212824156Y-119329983D01*
G04 #@! TD*
M02*
