G04 #@! TF.GenerationSoftware,KiCad,Pcbnew,(5.0.1)-4*
G04 #@! TF.CreationDate,2018-11-24T23:16:14-05:00*
G04 #@! TF.ProjectId,strutB,7374727574422E6B696361645F706362,rev?*
G04 #@! TF.SameCoordinates,Original*
G04 #@! TF.FileFunction,Legend,Top*
G04 #@! TF.FilePolarity,Positive*
%FSLAX46Y46*%
G04 Gerber Fmt 4.6, Leading zero omitted, Abs format (unit mm)*
G04 Created by KiCad (PCBNEW (5.0.1)-4) date 2018-11-24 11:16:14 PM*
%MOMM*%
%LPD*%
G01*
G04 APERTURE LIST*
%ADD10C,0.120000*%
%ADD11C,0.150000*%
G04 APERTURE END LIST*
D10*
G04 #@! TO.C,JP1*
X320050000Y-139000000D02*
G75*
G02X320750000Y-139700000I0J-700000D01*
G01*
X320750000Y-140300000D02*
G75*
G02X320050000Y-141000000I-700000J0D01*
G01*
X318650000Y-141000000D02*
G75*
G02X317950000Y-140300000I0J700000D01*
G01*
X317950000Y-139700000D02*
G75*
G02X318650000Y-139000000I700000J0D01*
G01*
X317950000Y-140300000D02*
X317950000Y-139700000D01*
X320050000Y-141000000D02*
X318650000Y-141000000D01*
X320750000Y-139700000D02*
X320750000Y-140300000D01*
X318650000Y-139000000D02*
X320050000Y-139000000D01*
G04 #@! TO.C,JP2*
X318650000Y-144000000D02*
X320050000Y-144000000D01*
X320750000Y-144700000D02*
X320750000Y-145300000D01*
X320050000Y-146000000D02*
X318650000Y-146000000D01*
X317950000Y-145300000D02*
X317950000Y-144700000D01*
X317950000Y-144700000D02*
G75*
G02X318650000Y-144000000I700000J0D01*
G01*
X318650000Y-146000000D02*
G75*
G02X317950000Y-145300000I0J700000D01*
G01*
X320750000Y-145300000D02*
G75*
G02X320050000Y-146000000I-700000J0D01*
G01*
X320050000Y-144000000D02*
G75*
G02X320750000Y-144700000I0J-700000D01*
G01*
G04 #@! TO.C,J2*
D11*
X327602440Y-147936909D02*
X328269551Y-148192188D01*
X328385954Y-148287718D01*
X328440865Y-148410703D01*
X328434284Y-148561144D01*
X328400246Y-148650092D01*
X327844555Y-147570680D02*
X327817100Y-147509187D01*
X327806663Y-147403221D01*
X327891756Y-147180850D01*
X327970267Y-147108921D01*
X328031759Y-147081465D01*
X328137726Y-147071028D01*
X328226674Y-147105066D01*
X328343078Y-147200595D01*
X328672544Y-147938507D01*
X328893785Y-147360344D01*
G04 #@! TO.C,JP1*
X318516666Y-137652380D02*
X318516666Y-138366666D01*
X318469047Y-138509523D01*
X318373809Y-138604761D01*
X318230952Y-138652380D01*
X318135714Y-138652380D01*
X318992857Y-138652380D02*
X318992857Y-137652380D01*
X319373809Y-137652380D01*
X319469047Y-137700000D01*
X319516666Y-137747619D01*
X319564285Y-137842857D01*
X319564285Y-137985714D01*
X319516666Y-138080952D01*
X319469047Y-138128571D01*
X319373809Y-138176190D01*
X318992857Y-138176190D01*
X320516666Y-138652380D02*
X319945238Y-138652380D01*
X320230952Y-138652380D02*
X320230952Y-137652380D01*
X320135714Y-137795238D01*
X320040476Y-137890476D01*
X319945238Y-137938095D01*
G04 #@! TO.C,JP2*
X318516666Y-142652380D02*
X318516666Y-143366666D01*
X318469047Y-143509523D01*
X318373809Y-143604761D01*
X318230952Y-143652380D01*
X318135714Y-143652380D01*
X318992857Y-143652380D02*
X318992857Y-142652380D01*
X319373809Y-142652380D01*
X319469047Y-142700000D01*
X319516666Y-142747619D01*
X319564285Y-142842857D01*
X319564285Y-142985714D01*
X319516666Y-143080952D01*
X319469047Y-143128571D01*
X319373809Y-143176190D01*
X318992857Y-143176190D01*
X319945238Y-142747619D02*
X319992857Y-142700000D01*
X320088095Y-142652380D01*
X320326190Y-142652380D01*
X320421428Y-142700000D01*
X320469047Y-142747619D01*
X320516666Y-142842857D01*
X320516666Y-142938095D01*
X320469047Y-143080952D01*
X319897619Y-143652380D01*
X320516666Y-143652380D01*
G04 #@! TD*
M02*
