G04 #@! TF.GenerationSoftware,KiCad,Pcbnew,(5.0.1)-4*
G04 #@! TF.CreationDate,2018-11-24T23:16:14-05:00*
G04 #@! TF.ProjectId,strutB,7374727574422E6B696361645F706362,rev?*
G04 #@! TF.SameCoordinates,Original*
G04 #@! TF.FileFunction,Profile,NP*
%FSLAX46Y46*%
G04 Gerber Fmt 4.6, Leading zero omitted, Abs format (unit mm)*
G04 Created by KiCad (PCBNEW (5.0.1)-4) date 2018-11-24 11:16:14 PM*
%MOMM*%
%LPD*%
G01*
G04 APERTURE LIST*
%ADD10C,0.050000*%
G04 APERTURE END LIST*
D10*
X79000000Y-163420000D02*
X79000000Y-163420000D01*
X79000000Y-163420000D02*
X81500000Y-162450000D01*
X81500000Y-162450000D02*
X84010000Y-161500000D01*
X84010000Y-161500000D02*
X86520000Y-160570000D01*
X86520000Y-160570000D02*
X89050000Y-159660000D01*
X89050000Y-159660000D02*
X91570000Y-158760000D01*
X91570000Y-158760000D02*
X94110000Y-157890000D01*
X94110000Y-157890000D02*
X96650000Y-157030000D01*
X96650000Y-157030000D02*
X99200000Y-156190000D01*
X99200000Y-156190000D02*
X101750000Y-155370000D01*
X101750000Y-155370000D02*
X104310000Y-154570000D01*
X104310000Y-154570000D02*
X106880000Y-153790000D01*
X106880000Y-153790000D02*
X109450000Y-153030000D01*
X109450000Y-153030000D02*
X112030000Y-152290000D01*
X112030000Y-152290000D02*
X114610000Y-151570000D01*
X114610000Y-151570000D02*
X117200000Y-150870000D01*
X117200000Y-150870000D02*
X119790000Y-150180000D01*
X119790000Y-150180000D02*
X122390000Y-149520000D01*
X122390000Y-149520000D02*
X124990000Y-148870000D01*
X124990000Y-148870000D02*
X127600000Y-148250000D01*
X127600000Y-148250000D02*
X130210000Y-147640000D01*
X130210000Y-147640000D02*
X132830000Y-147060000D01*
X132830000Y-147060000D02*
X135450000Y-146490000D01*
X135450000Y-146490000D02*
X138080000Y-145940000D01*
X138080000Y-145940000D02*
X140710000Y-145420000D01*
X140710000Y-145420000D02*
X143340000Y-144910000D01*
X143340000Y-144910000D02*
X145980000Y-144420000D01*
X145980000Y-144420000D02*
X148620000Y-143950000D01*
X148620000Y-143950000D02*
X151260000Y-143500000D01*
X151260000Y-143500000D02*
X153910000Y-143070000D01*
X153910000Y-143070000D02*
X156560000Y-142660000D01*
X156560000Y-142660000D02*
X159210000Y-142280000D01*
X159210000Y-142280000D02*
X161870000Y-141910000D01*
X161870000Y-141910000D02*
X164530000Y-141560000D01*
X164530000Y-141560000D02*
X167190000Y-141230000D01*
X167190000Y-141230000D02*
X169860000Y-140920000D01*
X169860000Y-140920000D02*
X172520000Y-140630000D01*
X172520000Y-140630000D02*
X175190000Y-140360000D01*
X175190000Y-140360000D02*
X177860000Y-140110000D01*
X177860000Y-140110000D02*
X180530000Y-139880000D01*
X180530000Y-139880000D02*
X183210000Y-139670000D01*
X183210000Y-139670000D02*
X185880000Y-139480000D01*
X185880000Y-139480000D02*
X188560000Y-139310000D01*
X188560000Y-139310000D02*
X191240000Y-139160000D01*
X191240000Y-139160000D02*
X193910000Y-139030000D01*
X193910000Y-139030000D02*
X196590000Y-138920000D01*
X196590000Y-138920000D02*
X199270000Y-138830000D01*
X199270000Y-138830000D02*
X201960000Y-138760000D01*
X201960000Y-138760000D02*
X204640000Y-138710000D01*
X204640000Y-138710000D02*
X207320000Y-138680000D01*
X207320000Y-138680000D02*
X210000000Y-138670000D01*
X210000000Y-138670000D02*
X212680000Y-138680000D01*
X212680000Y-138680000D02*
X215360000Y-138710000D01*
X215360000Y-138710000D02*
X218050000Y-138760000D01*
X218050000Y-138760000D02*
X220730000Y-138830000D01*
X220730000Y-138830000D02*
X223410000Y-138920000D01*
X223410000Y-138920000D02*
X226090000Y-139030000D01*
X226090000Y-139030000D02*
X228770000Y-139160000D01*
X228770000Y-139160000D02*
X231440000Y-139310000D01*
X231440000Y-139310000D02*
X234120000Y-139480000D01*
X234120000Y-139480000D02*
X236800000Y-139670000D01*
X236800000Y-139670000D02*
X239470000Y-139880000D01*
X239470000Y-139880000D02*
X242140000Y-140110000D01*
X242140000Y-140110000D02*
X244810000Y-140360000D01*
X244810000Y-140360000D02*
X247480000Y-140630000D01*
X247480000Y-140630000D02*
X250150000Y-140920000D01*
X250150000Y-140920000D02*
X252810000Y-141230000D01*
X252810000Y-141230000D02*
X255470000Y-141560000D01*
X255470000Y-141560000D02*
X258130000Y-141910000D01*
X258130000Y-141910000D02*
X260790000Y-142280000D01*
X260790000Y-142280000D02*
X263440000Y-142670000D01*
X263440000Y-142670000D02*
X266090000Y-143070000D01*
X266090000Y-143070000D02*
X268740000Y-143500000D01*
X268740000Y-143500000D02*
X271380000Y-143950000D01*
X271380000Y-143950000D02*
X274020000Y-144420000D01*
X274020000Y-144420000D02*
X276660000Y-144910000D01*
X276660000Y-144910000D02*
X279290000Y-145420000D01*
X279290000Y-145420000D02*
X281920000Y-145940000D01*
X281920000Y-145940000D02*
X284550000Y-146490000D01*
X284550000Y-146490000D02*
X287170000Y-147060000D01*
X287170000Y-147060000D02*
X289790000Y-147640000D01*
X289790000Y-147640000D02*
X292400000Y-148250000D01*
X292400000Y-148250000D02*
X295010000Y-148880000D01*
X295010000Y-148880000D02*
X297610000Y-149520000D01*
X297610000Y-149520000D02*
X300210000Y-150180000D01*
X300210000Y-150180000D02*
X302800000Y-150870000D01*
X302800000Y-150870000D02*
X305390000Y-151570000D01*
X305390000Y-151570000D02*
X307970000Y-152290000D01*
X307970000Y-152290000D02*
X310550000Y-153030000D01*
X310550000Y-153030000D02*
X313120000Y-153800000D01*
X313120000Y-153800000D02*
X315690000Y-154580000D01*
X315690000Y-154580000D02*
X318250000Y-155370000D01*
X318250000Y-155370000D02*
X320800000Y-156190000D01*
X320800000Y-156190000D02*
X323350000Y-157030000D01*
X323350000Y-157030000D02*
X325890000Y-157890000D01*
X325890000Y-157890000D02*
X328430000Y-158760000D01*
X328430000Y-158760000D02*
X330960000Y-159660000D01*
X330960000Y-159660000D02*
X333480000Y-160570000D01*
X333480000Y-160570000D02*
X335990000Y-161500000D01*
X335990000Y-161500000D02*
X338500000Y-162450000D01*
X341000000Y-163420000D02*
X338500000Y-162450000D01*
X79000000Y-163420000D02*
X79000000Y-163420000D01*
X79000000Y-163420000D02*
X75710000Y-154820000D01*
X75710000Y-154820000D02*
X78510000Y-153750000D01*
X78510000Y-153750000D02*
X80740000Y-153970000D01*
X80740000Y-153970000D02*
X79450000Y-150610000D01*
X79450000Y-150610000D02*
X77940000Y-152260000D01*
X77940000Y-152260000D02*
X75140000Y-153330000D01*
X75140000Y-153330000D02*
X71850000Y-144740000D01*
X348150000Y-144740000D02*
X348150000Y-144740000D01*
X348150000Y-144740000D02*
X345510000Y-143720000D01*
X345510000Y-143720000D02*
X342870000Y-142720000D01*
X342870000Y-142720000D02*
X340220000Y-141740000D01*
X340220000Y-141740000D02*
X337560000Y-140770000D01*
X337560000Y-140770000D02*
X334890000Y-139830000D01*
X334890000Y-139830000D02*
X332220000Y-138910000D01*
X332220000Y-138910000D02*
X329530000Y-138010000D01*
X329530000Y-138010000D02*
X326850000Y-137130000D01*
X326850000Y-137130000D02*
X324150000Y-136260000D01*
X324150000Y-136260000D02*
X321450000Y-135420000D01*
X321450000Y-135420000D02*
X318750000Y-134600000D01*
X318750000Y-134600000D02*
X316040000Y-133800000D01*
X316040000Y-133800000D02*
X313320000Y-133020000D01*
X313320000Y-133020000D02*
X310590000Y-132260000D01*
X310590000Y-132260000D02*
X307860000Y-131520000D01*
X307860000Y-131520000D02*
X305130000Y-130800000D01*
X305130000Y-130800000D02*
X302390000Y-130100000D01*
X302390000Y-130100000D02*
X299640000Y-129420000D01*
X299640000Y-129420000D02*
X296890000Y-128760000D01*
X296890000Y-128760000D02*
X294140000Y-128120000D01*
X294140000Y-128120000D02*
X291380000Y-127500000D01*
X291380000Y-127500000D02*
X288610000Y-126910000D01*
X288610000Y-126910000D02*
X285840000Y-126330000D01*
X285840000Y-126330000D02*
X283070000Y-125780000D01*
X283070000Y-125780000D02*
X280290000Y-125240000D01*
X280290000Y-125240000D02*
X277510000Y-124730000D01*
X277510000Y-124730000D02*
X274730000Y-124230000D01*
X274730000Y-124230000D02*
X271940000Y-123760000D01*
X271940000Y-123760000D02*
X269150000Y-123310000D01*
X269150000Y-123310000D02*
X266350000Y-122880000D01*
X266350000Y-122880000D02*
X263560000Y-122470000D01*
X263560000Y-122470000D02*
X260750000Y-122080000D01*
X260750000Y-122080000D02*
X257950000Y-121710000D01*
X257950000Y-121710000D02*
X255140000Y-121360000D01*
X255140000Y-121360000D02*
X252330000Y-121040000D01*
X252330000Y-121040000D02*
X249520000Y-120730000D01*
X249520000Y-120730000D02*
X246710000Y-120450000D01*
X246710000Y-120450000D02*
X243890000Y-120180000D01*
X243890000Y-120180000D02*
X241080000Y-119940000D01*
X241080000Y-119940000D02*
X238260000Y-119720000D01*
X238260000Y-119720000D02*
X235430000Y-119520000D01*
X235430000Y-119520000D02*
X232610000Y-119340000D01*
X232610000Y-119340000D02*
X229790000Y-119180000D01*
X229790000Y-119180000D02*
X226960000Y-119040000D01*
X226960000Y-119040000D02*
X224140000Y-118930000D01*
X224140000Y-118930000D02*
X221310000Y-118830000D01*
X221310000Y-118830000D02*
X218480000Y-118760000D01*
X218480000Y-118760000D02*
X215660000Y-118710000D01*
X215660000Y-118710000D02*
X212830000Y-118670000D01*
X212830000Y-118670000D02*
X210000000Y-118660000D01*
X210000000Y-118660000D02*
X207170000Y-118670000D01*
X207170000Y-118670000D02*
X204340000Y-118710000D01*
X204340000Y-118710000D02*
X201520000Y-118760000D01*
X201520000Y-118760000D02*
X198690000Y-118830000D01*
X198690000Y-118830000D02*
X195860000Y-118930000D01*
X195860000Y-118930000D02*
X193040000Y-119040000D01*
X193040000Y-119040000D02*
X190210000Y-119180000D01*
X190210000Y-119180000D02*
X187390000Y-119340000D01*
X187390000Y-119340000D02*
X184570000Y-119520000D01*
X184570000Y-119520000D02*
X181740000Y-119720000D01*
X181740000Y-119720000D02*
X178930000Y-119940000D01*
X178930000Y-119940000D02*
X176110000Y-120180000D01*
X176110000Y-120180000D02*
X173290000Y-120450000D01*
X173290000Y-120450000D02*
X170480000Y-120730000D01*
X170480000Y-120730000D02*
X167670000Y-121040000D01*
X167670000Y-121040000D02*
X164860000Y-121360000D01*
X164860000Y-121360000D02*
X162050000Y-121710000D01*
X162050000Y-121710000D02*
X159250000Y-122080000D01*
X159250000Y-122080000D02*
X156450000Y-122470000D01*
X156450000Y-122470000D02*
X153650000Y-122880000D01*
X153650000Y-122880000D02*
X150850000Y-123310000D01*
X150850000Y-123310000D02*
X148060000Y-123760000D01*
X148060000Y-123760000D02*
X145270000Y-124230000D01*
X145270000Y-124230000D02*
X142490000Y-124730000D01*
X142490000Y-124730000D02*
X139710000Y-125240000D01*
X139710000Y-125240000D02*
X136930000Y-125780000D01*
X136930000Y-125780000D02*
X134160000Y-126330000D01*
X134160000Y-126330000D02*
X131390000Y-126910000D01*
X131390000Y-126910000D02*
X128620000Y-127500000D01*
X128620000Y-127500000D02*
X125860000Y-128120000D01*
X125860000Y-128120000D02*
X123110000Y-128760000D01*
X123110000Y-128760000D02*
X120360000Y-129420000D01*
X120360000Y-129420000D02*
X117610000Y-130100000D01*
X117610000Y-130100000D02*
X114870000Y-130800000D01*
X114870000Y-130800000D02*
X112140000Y-131520000D01*
X112140000Y-131520000D02*
X109410000Y-132260000D01*
X109410000Y-132260000D02*
X106680000Y-133020000D01*
X106680000Y-133020000D02*
X103960000Y-133800000D01*
X103960000Y-133800000D02*
X101250000Y-134600000D01*
X101250000Y-134600000D02*
X98550000Y-135420000D01*
X98550000Y-135420000D02*
X95850000Y-136260000D01*
X95850000Y-136260000D02*
X93150000Y-137130000D01*
X93150000Y-137130000D02*
X90470000Y-138010000D01*
X90470000Y-138010000D02*
X87780000Y-138910000D01*
X87780000Y-138910000D02*
X85110000Y-139830000D01*
X85110000Y-139830000D02*
X82440000Y-140770000D01*
X82440000Y-140770000D02*
X79790000Y-141740000D01*
X79790000Y-141740000D02*
X77130000Y-142720000D01*
X77130000Y-142720000D02*
X74490000Y-143720000D01*
X71850000Y-144740000D02*
X74490000Y-143720000D01*
X348150000Y-144740000D02*
X348150000Y-144740000D01*
X348150000Y-144740000D02*
X344860000Y-153330000D01*
X344860000Y-153330000D02*
X342060000Y-152260000D01*
X342060000Y-152260000D02*
X340550000Y-150610000D01*
X340550000Y-150610000D02*
X339260000Y-153970000D01*
X339260000Y-153970000D02*
X341490000Y-153750000D01*
X341490000Y-153750000D02*
X344290000Y-154820000D01*
X344290000Y-154820000D02*
X341000000Y-163420000D01*
M02*
