G04 #@! TF.GenerationSoftware,KiCad,Pcbnew,(5.0.1)-4*
G04 #@! TF.CreationDate,2018-11-24T23:16:14-05:00*
G04 #@! TF.ProjectId,strutB,7374727574422E6B696361645F706362,rev?*
G04 #@! TF.SameCoordinates,Original*
G04 #@! TF.FileFunction,Soldermask,Bot*
G04 #@! TF.FilePolarity,Negative*
%FSLAX46Y46*%
G04 Gerber Fmt 4.6, Leading zero omitted, Abs format (unit mm)*
G04 Created by KiCad (PCBNEW (5.0.1)-4) date 2018-11-24 11:16:14 PM*
%MOMM*%
%LPD*%
G01*
G04 APERTURE LIST*
%ADD10C,0.100000*%
G04 APERTURE END LIST*
D10*
G36*
X92366551Y-150644480D02*
X82931735Y-154254835D01*
X82180501Y-152291660D01*
X91615317Y-148681305D01*
X92366551Y-150644480D01*
X92366551Y-150644480D01*
G37*
G36*
X337819499Y-152291660D02*
X337819499Y-152291661D01*
X337068265Y-154254834D01*
X337068265Y-154254835D01*
X327633449Y-150644480D01*
X328384683Y-148681305D01*
X337819499Y-152291660D01*
X337819499Y-152291660D01*
G37*
G36*
X85476215Y-149426582D02*
X81645131Y-150892596D01*
X81645130Y-150892596D01*
X80893897Y-148929422D01*
X80893900Y-148929421D01*
X84724981Y-147463408D01*
X84724982Y-147463408D01*
X85476215Y-149426582D01*
X85476215Y-149426582D01*
G37*
G36*
X339106103Y-148929421D02*
X338449814Y-150644480D01*
X338354869Y-150892595D01*
X338354869Y-150892596D01*
X328920053Y-147282241D01*
X329110298Y-146785081D01*
X329671287Y-145319067D01*
X329671287Y-145319066D01*
X339106103Y-148929421D01*
X339106103Y-148929421D01*
G37*
G36*
X91079946Y-147282240D02*
X91079946Y-147282241D01*
X87248862Y-148748255D01*
X87248861Y-148748255D01*
X86497628Y-146785081D01*
X90328712Y-145319067D01*
X90328713Y-145319067D01*
X91079946Y-147282240D01*
X91079946Y-147282240D01*
G37*
M02*
