G04 #@! TF.GenerationSoftware,KiCad,Pcbnew,(5.0.1)-4*
G04 #@! TF.CreationDate,2018-11-24T23:15:51-05:00*
G04 #@! TF.ProjectId,strutA,7374727574412E6B696361645F706362,rev?*
G04 #@! TF.SameCoordinates,Original*
G04 #@! TF.FileFunction,Soldermask,Top*
G04 #@! TF.FilePolarity,Negative*
%FSLAX46Y46*%
G04 Gerber Fmt 4.6, Leading zero omitted, Abs format (unit mm)*
G04 Created by KiCad (PCBNEW (5.0.1)-4) date 2018-11-24 11:15:51 PM*
%MOMM*%
%LPD*%
G01*
G04 APERTURE LIST*
%ADD10C,0.100000*%
G04 APERTURE END LIST*
D10*
G36*
X290454173Y-151354744D02*
X289903760Y-153383400D01*
X289903759Y-153383400D01*
X289903759Y-153383401D01*
X280154239Y-150738168D01*
X280379205Y-149909011D01*
X280704652Y-148709512D01*
X280704653Y-148709512D01*
X280704653Y-148709511D01*
X290454173Y-151354744D01*
X290454173Y-151354744D01*
G37*
G36*
X139295347Y-148709512D02*
X139295348Y-148709512D01*
X139620795Y-149909011D01*
X139845761Y-150738168D01*
X130096241Y-153383401D01*
X130096241Y-153383400D01*
X130096240Y-153383400D01*
X129545827Y-151354744D01*
X139295347Y-148709511D01*
X139295347Y-148709512D01*
X139295347Y-148709512D01*
G37*
G36*
X138352679Y-145235123D02*
X138352680Y-145235123D01*
X138771977Y-146780524D01*
X138903093Y-147263779D01*
X129153573Y-149909012D01*
X129153573Y-149909011D01*
X129153572Y-149909011D01*
X128603159Y-147880355D01*
X128603163Y-147880354D01*
X138352679Y-145235122D01*
X138352679Y-145235123D01*
X138352679Y-145235123D01*
G37*
G36*
X291396841Y-147880354D02*
X291396841Y-147880355D01*
X290846428Y-149909012D01*
X290846427Y-149909012D01*
X286887555Y-148834894D01*
X286887555Y-148834893D01*
X287437968Y-146806236D01*
X287437969Y-146806236D01*
X291396841Y-147880354D01*
X291396841Y-147880354D01*
G37*
G36*
X285606193Y-146309240D02*
X285606193Y-146309241D01*
X285055780Y-148337898D01*
X285055779Y-148337898D01*
X281096907Y-147263780D01*
X281096907Y-147263779D01*
X281647320Y-145235122D01*
X281647321Y-145235122D01*
X285606193Y-146309240D01*
X285606193Y-146309240D01*
G37*
G36*
X272909999Y-145199737D02*
X272919611Y-145202653D01*
X272928469Y-145207388D01*
X272936237Y-145213763D01*
X272946446Y-145226202D01*
X272953372Y-145236568D01*
X272970698Y-145253895D01*
X272991073Y-145267510D01*
X273013711Y-145276888D01*
X273037745Y-145281669D01*
X273062249Y-145281669D01*
X273086283Y-145276889D01*
X273108922Y-145267513D01*
X273129297Y-145253899D01*
X273146624Y-145236573D01*
X273153552Y-145226204D01*
X273163763Y-145213763D01*
X273171531Y-145207388D01*
X273180389Y-145202653D01*
X273190001Y-145199737D01*
X273206140Y-145198148D01*
X273693860Y-145198148D01*
X273712198Y-145199954D01*
X273724450Y-145200556D01*
X273742869Y-145200556D01*
X273765149Y-145202750D01*
X273849236Y-145219476D01*
X273870655Y-145225974D01*
X273949871Y-145258785D01*
X273969607Y-145269335D01*
X274040897Y-145316969D01*
X274058208Y-145331176D01*
X274118824Y-145391792D01*
X274133031Y-145409103D01*
X274180665Y-145480393D01*
X274191215Y-145500129D01*
X274224026Y-145579345D01*
X274230524Y-145600764D01*
X274247250Y-145684851D01*
X274249444Y-145707131D01*
X274249444Y-145725550D01*
X274250046Y-145737802D01*
X274251852Y-145756140D01*
X274251852Y-146243861D01*
X274250046Y-146262198D01*
X274249444Y-146274450D01*
X274249444Y-146292869D01*
X274247250Y-146315149D01*
X274230524Y-146399236D01*
X274224026Y-146420655D01*
X274191215Y-146499871D01*
X274180665Y-146519607D01*
X274133031Y-146590897D01*
X274118824Y-146608208D01*
X274058208Y-146668824D01*
X274040897Y-146683031D01*
X273969607Y-146730665D01*
X273949871Y-146741215D01*
X273870655Y-146774026D01*
X273849236Y-146780524D01*
X273765149Y-146797250D01*
X273742869Y-146799444D01*
X273724450Y-146799444D01*
X273712198Y-146800046D01*
X273693861Y-146801852D01*
X273206140Y-146801852D01*
X273190001Y-146800263D01*
X273180389Y-146797347D01*
X273171531Y-146792612D01*
X273163763Y-146786237D01*
X273153554Y-146773798D01*
X273146628Y-146763432D01*
X273129302Y-146746105D01*
X273108927Y-146732490D01*
X273086289Y-146723112D01*
X273062255Y-146718331D01*
X273037751Y-146718331D01*
X273013717Y-146723111D01*
X272991078Y-146732487D01*
X272970703Y-146746101D01*
X272953376Y-146763427D01*
X272946448Y-146773796D01*
X272936237Y-146786237D01*
X272928469Y-146792612D01*
X272919611Y-146797347D01*
X272909999Y-146800263D01*
X272893860Y-146801852D01*
X272406139Y-146801852D01*
X272387802Y-146800046D01*
X272375550Y-146799444D01*
X272357131Y-146799444D01*
X272334851Y-146797250D01*
X272250764Y-146780524D01*
X272229345Y-146774026D01*
X272150129Y-146741215D01*
X272130393Y-146730665D01*
X272059103Y-146683031D01*
X272041792Y-146668824D01*
X271981176Y-146608208D01*
X271966969Y-146590897D01*
X271919335Y-146519607D01*
X271908785Y-146499871D01*
X271875974Y-146420655D01*
X271869476Y-146399236D01*
X271852750Y-146315149D01*
X271850556Y-146292869D01*
X271850556Y-146274450D01*
X271849954Y-146262198D01*
X271848148Y-146243861D01*
X271848148Y-145756140D01*
X271849954Y-145737802D01*
X271850556Y-145725550D01*
X271850556Y-145707131D01*
X271852750Y-145684851D01*
X271869476Y-145600764D01*
X271875974Y-145579345D01*
X271908785Y-145500129D01*
X271919335Y-145480393D01*
X271966969Y-145409103D01*
X271981176Y-145391792D01*
X272041792Y-145331176D01*
X272059103Y-145316969D01*
X272130393Y-145269335D01*
X272150129Y-145258785D01*
X272229345Y-145225974D01*
X272250764Y-145219476D01*
X272334851Y-145202750D01*
X272357131Y-145200556D01*
X272375550Y-145200556D01*
X272387802Y-145199954D01*
X272406140Y-145198148D01*
X272893860Y-145198148D01*
X272909999Y-145199737D01*
X272909999Y-145199737D01*
G37*
G36*
X272859999Y-140199737D02*
X272869611Y-140202653D01*
X272878469Y-140207388D01*
X272886237Y-140213763D01*
X272896446Y-140226202D01*
X272903372Y-140236568D01*
X272920698Y-140253895D01*
X272941073Y-140267510D01*
X272963711Y-140276888D01*
X272987745Y-140281669D01*
X273012249Y-140281669D01*
X273036283Y-140276889D01*
X273058922Y-140267513D01*
X273079297Y-140253899D01*
X273096624Y-140236573D01*
X273103552Y-140226204D01*
X273113763Y-140213763D01*
X273121531Y-140207388D01*
X273130389Y-140202653D01*
X273140001Y-140199737D01*
X273156140Y-140198148D01*
X273643860Y-140198148D01*
X273662198Y-140199954D01*
X273674450Y-140200556D01*
X273692869Y-140200556D01*
X273715149Y-140202750D01*
X273799236Y-140219476D01*
X273820655Y-140225974D01*
X273899871Y-140258785D01*
X273919607Y-140269335D01*
X273990897Y-140316969D01*
X274008208Y-140331176D01*
X274068824Y-140391792D01*
X274083031Y-140409103D01*
X274130665Y-140480393D01*
X274141215Y-140500129D01*
X274174026Y-140579345D01*
X274180524Y-140600764D01*
X274197250Y-140684851D01*
X274199444Y-140707131D01*
X274199444Y-140725550D01*
X274200046Y-140737802D01*
X274201852Y-140756140D01*
X274201852Y-141243861D01*
X274200046Y-141262198D01*
X274199444Y-141274450D01*
X274199444Y-141292869D01*
X274197250Y-141315149D01*
X274180524Y-141399236D01*
X274174026Y-141420655D01*
X274141215Y-141499871D01*
X274130665Y-141519607D01*
X274083031Y-141590897D01*
X274068824Y-141608208D01*
X274008208Y-141668824D01*
X273990897Y-141683031D01*
X273919607Y-141730665D01*
X273899871Y-141741215D01*
X273820655Y-141774026D01*
X273799236Y-141780524D01*
X273715149Y-141797250D01*
X273692869Y-141799444D01*
X273674450Y-141799444D01*
X273662198Y-141800046D01*
X273643861Y-141801852D01*
X273156140Y-141801852D01*
X273140001Y-141800263D01*
X273130389Y-141797347D01*
X273121531Y-141792612D01*
X273113763Y-141786237D01*
X273103554Y-141773798D01*
X273096628Y-141763432D01*
X273079302Y-141746105D01*
X273058927Y-141732490D01*
X273036289Y-141723112D01*
X273012255Y-141718331D01*
X272987751Y-141718331D01*
X272963717Y-141723111D01*
X272941078Y-141732487D01*
X272920703Y-141746101D01*
X272903376Y-141763427D01*
X272896448Y-141773796D01*
X272886237Y-141786237D01*
X272878469Y-141792612D01*
X272869611Y-141797347D01*
X272859999Y-141800263D01*
X272843860Y-141801852D01*
X272356139Y-141801852D01*
X272337802Y-141800046D01*
X272325550Y-141799444D01*
X272307131Y-141799444D01*
X272284851Y-141797250D01*
X272200764Y-141780524D01*
X272179345Y-141774026D01*
X272100129Y-141741215D01*
X272080393Y-141730665D01*
X272009103Y-141683031D01*
X271991792Y-141668824D01*
X271931176Y-141608208D01*
X271916969Y-141590897D01*
X271869335Y-141519607D01*
X271858785Y-141499871D01*
X271825974Y-141420655D01*
X271819476Y-141399236D01*
X271802750Y-141315149D01*
X271800556Y-141292869D01*
X271800556Y-141274450D01*
X271799954Y-141262198D01*
X271798148Y-141243861D01*
X271798148Y-140756140D01*
X271799954Y-140737802D01*
X271800556Y-140725550D01*
X271800556Y-140707131D01*
X271802750Y-140684851D01*
X271819476Y-140600764D01*
X271825974Y-140579345D01*
X271858785Y-140500129D01*
X271869335Y-140480393D01*
X271916969Y-140409103D01*
X271931176Y-140391792D01*
X271991792Y-140331176D01*
X272009103Y-140316969D01*
X272080393Y-140269335D01*
X272100129Y-140258785D01*
X272179345Y-140225974D01*
X272200764Y-140219476D01*
X272284851Y-140202750D01*
X272307131Y-140200556D01*
X272325550Y-140200556D01*
X272337802Y-140199954D01*
X272356140Y-140198148D01*
X272843860Y-140198148D01*
X272859999Y-140199737D01*
X272859999Y-140199737D01*
G37*
M02*
