G04 #@! TF.GenerationSoftware,KiCad,Pcbnew,(5.0.1)-4*
G04 #@! TF.CreationDate,2018-11-24T23:15:51-05:00*
G04 #@! TF.ProjectId,strutA,7374727574412E6B696361645F706362,rev?*
G04 #@! TF.SameCoordinates,Original*
G04 #@! TF.FileFunction,Copper,L2,Bot,Signal*
G04 #@! TF.FilePolarity,Positive*
%FSLAX46Y46*%
G04 Gerber Fmt 4.6, Leading zero omitted, Abs format (unit mm)*
G04 Created by KiCad (PCBNEW (5.0.1)-4) date 2018-11-24 11:15:51 PM*
%MOMM*%
%LPD*%
G01*
G04 APERTURE LIST*
G04 #@! TA.AperFunction,SMDPad,CuDef*
%ADD10C,2.000000*%
G04 #@! TD*
G04 #@! TA.AperFunction,Conductor*
%ADD11C,0.100000*%
G04 #@! TD*
G04 #@! TA.AperFunction,ViaPad*
%ADD12C,0.800000*%
G04 #@! TD*
G04 #@! TA.AperFunction,ViaPad*
%ADD13C,3.000000*%
G04 #@! TD*
G04 #@! TA.AperFunction,Conductor*
%ADD14C,0.250000*%
G04 #@! TD*
G04 #@! TA.AperFunction,Conductor*
%ADD15C,3.000000*%
G04 #@! TD*
G04 #@! TA.AperFunction,Conductor*
%ADD16C,0.254000*%
G04 #@! TD*
G04 APERTURE END LIST*
D10*
G04 #@! TO.P,J1,4*
G04 #@! TO.N,Net-(J1-Pad4)*
X130857802Y-148357624D03*
D11*
G04 #@! TD*
G04 #@! TO.N,Net-(J1-Pad4)*
G04 #@! TO.C,J1*
G36*
X133049870Y-148799027D02*
X129189438Y-149846437D01*
X128665734Y-147916221D01*
X132526166Y-146868811D01*
X133049870Y-148799027D01*
X133049870Y-148799027D01*
G37*
D10*
G04 #@! TO.P,J1,3*
G04 #@! TO.N,Net-(J1-Pad3)*
X136648450Y-146786510D03*
D11*
G04 #@! TD*
G04 #@! TO.N,Net-(J1-Pad3)*
G04 #@! TO.C,J1*
G36*
X138840518Y-147227913D02*
X134980086Y-148275323D01*
X134456382Y-146345107D01*
X138316814Y-145297697D01*
X138840518Y-147227913D01*
X138840518Y-147227913D01*
G37*
D10*
G04 #@! TO.P,J1,5*
G04 #@! TO.N,GND*
X134695794Y-151046456D03*
D11*
G04 #@! TD*
G04 #@! TO.N,GND*
G04 #@! TO.C,J1*
G36*
X139783186Y-150702302D02*
X130132107Y-153320825D01*
X129608402Y-151390610D01*
X139259481Y-148772087D01*
X139783186Y-150702302D01*
X139783186Y-150702302D01*
G37*
D10*
G04 #@! TO.P,J2,2*
G04 #@! TO.N,/Clock*
X285304206Y-151046456D03*
D11*
G04 #@! TD*
G04 #@! TO.N,/Clock*
G04 #@! TO.C,J2*
G36*
X280740519Y-148772087D02*
X290391598Y-151390610D01*
X289867893Y-153320825D01*
X280216814Y-150702302D01*
X280740519Y-148772087D01*
X280740519Y-148772087D01*
G37*
D10*
G04 #@! TO.P,J2,1*
G04 #@! TO.N,+5V*
X286246874Y-147572067D03*
D11*
G04 #@! TD*
G04 #@! TO.N,+5V*
G04 #@! TO.C,J2*
G36*
X281683187Y-145297698D02*
X291334266Y-147916221D01*
X290810561Y-149846436D01*
X281159482Y-147227913D01*
X281683187Y-145297698D01*
X281683187Y-145297698D01*
G37*
D12*
G04 #@! TO.N,Net-(J1-Pad4)*
X144100000Y-146000000D03*
G04 #@! TO.N,Net-(J1-Pad3)*
X262700000Y-147000000D03*
D13*
G04 #@! TO.N,GND*
X149400000Y-149221456D03*
D12*
G04 #@! TO.N,/Clock*
X145000000Y-151400000D03*
D13*
G04 #@! TO.N,+5V*
X137700000Y-141700000D03*
G04 #@! TD*
D14*
G04 #@! TO.N,Net-(J1-Pad4)*
X132350470Y-146864956D02*
X130857802Y-148357624D01*
X134242739Y-144972687D02*
X132350470Y-146864956D01*
X138451438Y-144972687D02*
X134242739Y-144972687D01*
X139478751Y-146000000D02*
X138451438Y-144972687D01*
X144100000Y-146000000D02*
X139478751Y-146000000D01*
G04 #@! TO.N,Net-(J1-Pad3)*
X136648450Y-146786510D02*
X262486510Y-146786510D01*
X262486510Y-146786510D02*
X262700000Y-147000000D01*
D15*
G04 #@! TO.N,GND*
X138614739Y-151046456D02*
X134695794Y-151046456D01*
X142245542Y-151046456D02*
X138614739Y-151046456D01*
X144070542Y-149221456D02*
X142245542Y-151046456D01*
X149400000Y-149221456D02*
X144070542Y-149221456D01*
D14*
G04 #@! TO.N,/Clock*
X285304206Y-151046456D02*
X145353544Y-151046456D01*
X145353544Y-151046456D02*
X145000000Y-151400000D01*
D15*
G04 #@! TO.N,+5V*
X284754207Y-146079400D02*
X286246874Y-147572067D01*
X281874806Y-143199999D02*
X284754207Y-146079400D01*
X139199999Y-143199999D02*
X281874806Y-143199999D01*
X137700000Y-141700000D02*
X139199999Y-143199999D01*
G04 #@! TD*
D16*
G04 #@! TO.N,+5V*
G36*
X213559571Y-134189265D02*
X213561352Y-134189630D01*
X213624488Y-134189979D01*
X213687746Y-134190674D01*
X213689537Y-134190338D01*
X215432713Y-134199970D01*
X217174067Y-134228832D01*
X217174069Y-134228832D01*
X219047243Y-134259879D01*
X220863534Y-134299797D01*
X222669922Y-134349697D01*
X224413166Y-134407484D01*
X224413167Y-134407484D01*
X226286432Y-134469581D01*
X228092678Y-134539437D01*
X229899035Y-134619275D01*
X231642299Y-134705957D01*
X231642301Y-134705957D01*
X233515305Y-134799089D01*
X235321706Y-134898890D01*
X237065080Y-135004841D01*
X237065081Y-135004841D01*
X238936329Y-135118563D01*
X240742824Y-135248311D01*
X242540749Y-135378161D01*
X244413911Y-135523047D01*
X244413912Y-135523047D01*
X246157256Y-135657891D01*
X247953570Y-135807585D01*
X249759907Y-135967261D01*
X251556469Y-136136937D01*
X253365612Y-136316852D01*
X255162441Y-136496535D01*
X256959060Y-136686178D01*
X258821720Y-136893141D01*
X258821722Y-136893141D01*
X260555233Y-137085754D01*
X262351826Y-137295356D01*
X264148176Y-137514911D01*
X266010825Y-137752916D01*
X266010826Y-137752916D01*
X267744643Y-137974459D01*
X269540721Y-138213936D01*
X271326808Y-138463389D01*
X273051064Y-138713840D01*
X273051311Y-138713927D01*
X273114990Y-138723125D01*
X273179457Y-138732489D01*
X273179722Y-138732475D01*
X274911838Y-138982670D01*
X276635574Y-139252305D01*
X276637285Y-139252922D01*
X276699795Y-139262351D01*
X276762222Y-139272116D01*
X276764038Y-139272041D01*
X278487987Y-139532078D01*
X280210283Y-139811109D01*
X282062753Y-140111230D01*
X283848856Y-140410578D01*
X285625268Y-140719952D01*
X287413736Y-141039678D01*
X289191440Y-141359266D01*
X290968098Y-141688647D01*
X292810019Y-142040475D01*
X292810022Y-142040475D01*
X294524443Y-142367949D01*
X296301012Y-142717275D01*
X298077101Y-143076484D01*
X299159671Y-143302784D01*
X297106074Y-150869569D01*
X294992303Y-150293750D01*
X293469505Y-148944205D01*
X293411117Y-148877256D01*
X293313616Y-148828840D01*
X293219620Y-148773918D01*
X293196684Y-148770777D01*
X293175950Y-148760481D01*
X293067336Y-148753062D01*
X292959485Y-148738292D01*
X292937095Y-148744167D01*
X292913996Y-148742589D01*
X292810808Y-148777301D01*
X292705517Y-148804927D01*
X292687078Y-148818924D01*
X292665136Y-148826305D01*
X292583093Y-148897858D01*
X292496381Y-148963679D01*
X292484702Y-148983667D01*
X292467255Y-148998883D01*
X292418834Y-149096396D01*
X292363918Y-149190380D01*
X292351866Y-149278384D01*
X291433863Y-152667181D01*
X291399750Y-152749989D01*
X291399958Y-152858116D01*
X291392589Y-152966003D01*
X291400208Y-152988652D01*
X291400254Y-153012551D01*
X291441830Y-153112380D01*
X291476305Y-153214863D01*
X291492012Y-153232872D01*
X291501200Y-153254935D01*
X291577811Y-153331251D01*
X291648883Y-153412744D01*
X291670288Y-153423373D01*
X291687218Y-153440238D01*
X291787196Y-153481425D01*
X291884050Y-153529519D01*
X291907894Y-153531148D01*
X291929989Y-153540250D01*
X292038120Y-153540042D01*
X292146003Y-153547411D01*
X292230895Y-153518853D01*
X294228150Y-153117579D01*
X296339780Y-153685535D01*
X294265159Y-161329787D01*
X293263121Y-161125779D01*
X293260996Y-161124905D01*
X293199359Y-161112798D01*
X293137973Y-161100300D01*
X293135682Y-161100290D01*
X291517474Y-160782428D01*
X289909468Y-160464677D01*
X289907349Y-160463820D01*
X289845794Y-160452095D01*
X289784175Y-160439919D01*
X289781884Y-160439922D01*
X288225466Y-160143461D01*
X288223687Y-160142753D01*
X288161660Y-160131308D01*
X288099639Y-160119494D01*
X288097723Y-160119510D01*
X286479655Y-159820937D01*
X284872133Y-159522535D01*
X284870013Y-159521705D01*
X284808201Y-159510667D01*
X284746545Y-159499222D01*
X284744271Y-159499251D01*
X283187790Y-159221308D01*
X283185689Y-159220502D01*
X283123913Y-159209901D01*
X283062031Y-159198851D01*
X283059775Y-159198895D01*
X281431826Y-158919543D01*
X279814425Y-158640349D01*
X279812622Y-158639667D01*
X279750374Y-158629292D01*
X279688212Y-158618562D01*
X279686286Y-158618611D01*
X278130411Y-158359298D01*
X278128312Y-158358521D01*
X278066362Y-158348624D01*
X278004384Y-158338294D01*
X278002144Y-158338364D01*
X276374753Y-158078367D01*
X274756703Y-157818323D01*
X274754604Y-157817559D01*
X274692497Y-157808004D01*
X274630548Y-157798048D01*
X274628319Y-157798131D01*
X273062699Y-157557266D01*
X273060885Y-157556618D01*
X272998498Y-157547389D01*
X272936110Y-157537791D01*
X272934184Y-157537875D01*
X271369245Y-157306375D01*
X271367687Y-157305827D01*
X271305057Y-157296880D01*
X271242278Y-157287593D01*
X271240623Y-157287675D01*
X269687414Y-157065788D01*
X269687153Y-157065696D01*
X269622911Y-157056573D01*
X269558988Y-157047441D01*
X269558713Y-157047456D01*
X267994980Y-156825387D01*
X267992903Y-156824674D01*
X267930626Y-156816248D01*
X267868439Y-156807417D01*
X267866248Y-156807538D01*
X266228392Y-156585946D01*
X264599571Y-156364272D01*
X264595892Y-156363053D01*
X264535196Y-156355511D01*
X264474592Y-156347263D01*
X264470724Y-156347500D01*
X262843244Y-156145269D01*
X261215584Y-155933384D01*
X261211672Y-155932116D01*
X261151120Y-155924992D01*
X261090739Y-155917132D01*
X261086642Y-155917407D01*
X259446561Y-155724456D01*
X257819969Y-155531960D01*
X257817909Y-155531305D01*
X257755471Y-155524327D01*
X257693012Y-155516935D01*
X257690855Y-155517105D01*
X256116188Y-155341112D01*
X256114538Y-155340597D01*
X256051657Y-155333900D01*
X255988707Y-155326864D01*
X255986982Y-155327011D01*
X254424330Y-155160575D01*
X254424135Y-155160514D01*
X254360256Y-155153750D01*
X254295263Y-155146828D01*
X254295056Y-155146847D01*
X252720280Y-154980106D01*
X252716561Y-154978995D01*
X252655629Y-154973260D01*
X252594852Y-154966825D01*
X252590992Y-154967177D01*
X250953683Y-154813077D01*
X249316489Y-154649358D01*
X249312761Y-154648268D01*
X249251824Y-154642891D01*
X249190992Y-154636808D01*
X249187128Y-154637183D01*
X247483259Y-154486841D01*
X247483257Y-154486841D01*
X245910823Y-154348097D01*
X245908953Y-154347562D01*
X245846112Y-154342387D01*
X245783259Y-154336841D01*
X245781324Y-154337051D01*
X244208954Y-154207562D01*
X244208953Y-154207562D01*
X242507012Y-154067402D01*
X242505137Y-154066878D01*
X242442242Y-154062068D01*
X242379386Y-154056892D01*
X242377452Y-154057114D01*
X240803190Y-153936729D01*
X240801314Y-153936216D01*
X240738531Y-153931784D01*
X240675510Y-153926965D01*
X240673571Y-153927199D01*
X239099243Y-153816070D01*
X239097237Y-153815535D01*
X239034415Y-153811494D01*
X238971631Y-153807062D01*
X238969572Y-153807323D01*
X237322834Y-153701392D01*
X235685535Y-153595449D01*
X235683647Y-153594957D01*
X235620698Y-153591254D01*
X235557750Y-153587181D01*
X235555815Y-153587437D01*
X233981594Y-153494835D01*
X233979602Y-153494329D01*
X233916736Y-153491020D01*
X233853866Y-153487322D01*
X233851829Y-153487604D01*
X232203852Y-153400868D01*
X230567762Y-153314252D01*
X230565775Y-153313759D01*
X230502817Y-153310814D01*
X230439981Y-153307487D01*
X230437958Y-153307779D01*
X228853911Y-153233672D01*
X228852101Y-153233234D01*
X228789043Y-153230637D01*
X228725912Y-153227684D01*
X228724068Y-153227962D01*
X227152018Y-153163230D01*
X227151943Y-153163212D01*
X227089040Y-153160637D01*
X227022206Y-153157885D01*
X227022125Y-153157898D01*
X225440067Y-153093135D01*
X225438241Y-153092704D01*
X225375160Y-153090478D01*
X225312047Y-153087894D01*
X225310192Y-153088185D01*
X223736228Y-153032633D01*
X223734265Y-153032182D01*
X223671305Y-153030341D01*
X223608318Y-153028118D01*
X223606329Y-153028441D01*
X222022368Y-152982127D01*
X222020510Y-152981712D01*
X221957312Y-152980225D01*
X221894315Y-152978383D01*
X221892444Y-152978699D01*
X220320464Y-152941711D01*
X220320419Y-152941701D01*
X220255432Y-152940181D01*
X220190541Y-152938654D01*
X220190496Y-152938662D01*
X218608509Y-152901657D01*
X218606638Y-152901250D01*
X218543491Y-152900136D01*
X218480450Y-152898661D01*
X218478567Y-152898990D01*
X216906603Y-152871249D01*
X216906570Y-152871242D01*
X216842201Y-152870113D01*
X216776653Y-152868956D01*
X216776619Y-152868962D01*
X215192676Y-152841174D01*
X215188861Y-152840392D01*
X215127714Y-152840034D01*
X215066585Y-152838962D01*
X215062753Y-152839655D01*
X213430920Y-152830112D01*
X211778874Y-152820395D01*
X211778861Y-152820392D01*
X211704551Y-152819957D01*
X211648881Y-152819630D01*
X211648871Y-152819632D01*
X210064966Y-152810369D01*
X210061142Y-152809632D01*
X210000000Y-152809990D01*
X209938858Y-152809632D01*
X209935034Y-152810369D01*
X208351129Y-152819632D01*
X208351119Y-152819630D01*
X208295444Y-152819957D01*
X208221139Y-152820392D01*
X208221126Y-152820395D01*
X206568912Y-152830113D01*
X204937247Y-152839655D01*
X204933415Y-152838962D01*
X204872286Y-152840034D01*
X204811139Y-152840392D01*
X204807324Y-152841174D01*
X203223381Y-152868962D01*
X203223347Y-152868956D01*
X203157799Y-152870113D01*
X203093430Y-152871242D01*
X203093397Y-152871249D01*
X201521434Y-152898990D01*
X201519551Y-152898661D01*
X201456513Y-152900136D01*
X201393362Y-152901250D01*
X201391491Y-152901657D01*
X199809505Y-152938662D01*
X199809460Y-152938654D01*
X199744727Y-152940177D01*
X199679581Y-152941701D01*
X199679536Y-152941711D01*
X198107556Y-152978699D01*
X198105685Y-152978383D01*
X198042688Y-152980225D01*
X197979490Y-152981712D01*
X197977632Y-152982127D01*
X196393738Y-153028439D01*
X196391819Y-153028127D01*
X196328831Y-153030337D01*
X196265735Y-153032182D01*
X196263837Y-153032618D01*
X194679796Y-153088198D01*
X194677794Y-153087885D01*
X194614820Y-153090478D01*
X194551894Y-153092686D01*
X194549924Y-153093150D01*
X192914830Y-153160478D01*
X191265919Y-153227978D01*
X191263906Y-153227675D01*
X191200986Y-153230636D01*
X191138057Y-153233212D01*
X191136079Y-153233690D01*
X189561956Y-153307767D01*
X189560020Y-153307487D01*
X189496989Y-153310824D01*
X189434045Y-153313786D01*
X189432150Y-153314257D01*
X187796148Y-153400868D01*
X186148171Y-153487604D01*
X186146134Y-153487322D01*
X186083256Y-153491021D01*
X186020399Y-153494329D01*
X186018407Y-153494835D01*
X184444312Y-153587430D01*
X184442499Y-153587189D01*
X184379344Y-153591252D01*
X184316353Y-153594957D01*
X184314588Y-153595417D01*
X182732374Y-153697197D01*
X182732250Y-153697181D01*
X182667683Y-153701359D01*
X182602763Y-153705535D01*
X182602642Y-153705567D01*
X181030302Y-153807307D01*
X181028369Y-153807062D01*
X180965538Y-153811497D01*
X180902516Y-153815575D01*
X180900629Y-153816079D01*
X179326423Y-153927199D01*
X179324489Y-153926966D01*
X179261621Y-153931774D01*
X179198686Y-153936216D01*
X179196806Y-153936730D01*
X177622549Y-154057114D01*
X177620614Y-154056892D01*
X177557752Y-154062069D01*
X177494863Y-154066878D01*
X177492988Y-154067402D01*
X175791047Y-154207562D01*
X175791046Y-154207562D01*
X174218676Y-154337051D01*
X174216741Y-154336841D01*
X174153888Y-154342387D01*
X174091047Y-154347562D01*
X174089177Y-154348097D01*
X172516743Y-154486841D01*
X172516741Y-154486841D01*
X170812872Y-154637183D01*
X170809008Y-154636808D01*
X170748176Y-154642891D01*
X170687239Y-154648268D01*
X170683511Y-154649358D01*
X169046334Y-154813075D01*
X167409008Y-154967177D01*
X167405147Y-154966825D01*
X167344362Y-154973261D01*
X167283439Y-154978995D01*
X167279720Y-154980106D01*
X165704944Y-155146847D01*
X165704737Y-155146828D01*
X165639756Y-155153749D01*
X165575865Y-155160514D01*
X165575670Y-155160575D01*
X164013019Y-155327011D01*
X164011292Y-155326864D01*
X163948303Y-155333904D01*
X163885463Y-155340597D01*
X163883814Y-155341112D01*
X162309145Y-155517105D01*
X162306987Y-155516935D01*
X162244512Y-155524328D01*
X162182091Y-155531305D01*
X162180032Y-155531959D01*
X160553596Y-155724437D01*
X158913358Y-155917407D01*
X158909260Y-155917132D01*
X158848871Y-155924993D01*
X158788328Y-155932116D01*
X158784417Y-155933384D01*
X157156775Y-156145266D01*
X155529534Y-156347467D01*
X155525927Y-156347244D01*
X155465047Y-156355481D01*
X155404108Y-156363053D01*
X155400679Y-156364189D01*
X153825668Y-156577279D01*
X153825407Y-156577263D01*
X153761377Y-156585977D01*
X153697096Y-156594674D01*
X153696848Y-156594759D01*
X152133493Y-156807524D01*
X152131560Y-156807417D01*
X152069015Y-156816299D01*
X152006589Y-156824795D01*
X152004763Y-156825424D01*
X150441560Y-157047417D01*
X148749365Y-157287729D01*
X148747150Y-157287621D01*
X148685021Y-157296866D01*
X148622846Y-157305696D01*
X148620754Y-157306430D01*
X147065530Y-157537863D01*
X147063889Y-157537791D01*
X147001153Y-157547443D01*
X146938561Y-157556757D01*
X146937019Y-157557309D01*
X145371985Y-157798084D01*
X145370065Y-157798011D01*
X145307846Y-157807951D01*
X145245396Y-157817559D01*
X145243586Y-157818218D01*
X143679762Y-158068060D01*
X143679451Y-158068048D01*
X143615148Y-158078382D01*
X143551688Y-158088521D01*
X143551400Y-158088628D01*
X141997546Y-158338354D01*
X141995615Y-158338294D01*
X141933341Y-158348673D01*
X141871094Y-158358677D01*
X141869285Y-158359349D01*
X140314043Y-158618556D01*
X140312443Y-158618514D01*
X140249786Y-158629266D01*
X140187379Y-158639667D01*
X140185889Y-158640230D01*
X138622119Y-158908570D01*
X138621787Y-158908562D01*
X138557760Y-158919614D01*
X138494311Y-158930502D01*
X138494004Y-158930620D01*
X136939893Y-159198889D01*
X136937969Y-159198851D01*
X136875837Y-159209946D01*
X136813677Y-159220676D01*
X136811882Y-159221366D01*
X135256080Y-159499189D01*
X135254160Y-159499162D01*
X135192099Y-159510614D01*
X135129988Y-159521705D01*
X135128201Y-159522404D01*
X133573811Y-159809227D01*
X133573454Y-159809222D01*
X133509711Y-159821055D01*
X133446313Y-159832753D01*
X133445983Y-159832884D01*
X131901923Y-160119507D01*
X131900361Y-160119494D01*
X131837921Y-160131387D01*
X131775632Y-160142950D01*
X131774186Y-160143527D01*
X130218117Y-160439922D01*
X130215825Y-160439919D01*
X130154181Y-160452100D01*
X130092652Y-160463820D01*
X130090534Y-160464677D01*
X128482849Y-160782364D01*
X126864318Y-161100290D01*
X126862025Y-161100300D01*
X126800587Y-161112808D01*
X126739004Y-161124905D01*
X126736881Y-161125778D01*
X125734841Y-161329787D01*
X123660219Y-153685535D01*
X125771852Y-153117579D01*
X127769102Y-153518853D01*
X127853996Y-153547411D01*
X127961880Y-153540042D01*
X128070012Y-153540250D01*
X128092108Y-153531147D01*
X128115950Y-153529519D01*
X128212802Y-153481426D01*
X128312782Y-153440238D01*
X128329712Y-153423373D01*
X128351117Y-153412744D01*
X128422189Y-153331251D01*
X128498800Y-153254935D01*
X128507988Y-153232872D01*
X128523695Y-153214863D01*
X128558170Y-153112380D01*
X128599746Y-153012551D01*
X128599792Y-152988652D01*
X128607411Y-152966003D01*
X128600043Y-152858124D01*
X128600251Y-152749988D01*
X128566134Y-152667173D01*
X127648137Y-149278399D01*
X127636083Y-149190380D01*
X127581157Y-149096378D01*
X127532744Y-148998883D01*
X127515299Y-148983669D01*
X127503619Y-148963679D01*
X127416900Y-148897852D01*
X127334863Y-148826305D01*
X127312923Y-148818924D01*
X127294483Y-148804927D01*
X127189180Y-148777298D01*
X127086003Y-148742589D01*
X127062909Y-148744166D01*
X127040516Y-148738291D01*
X126932651Y-148753063D01*
X126824050Y-148760481D01*
X126803318Y-148770776D01*
X126780380Y-148773917D01*
X126686379Y-148828843D01*
X126588883Y-148877256D01*
X126530495Y-148944205D01*
X125007698Y-150293749D01*
X122893926Y-150869570D01*
X122070011Y-147833730D01*
X128023571Y-147833730D01*
X128040884Y-148085754D01*
X128564588Y-150015970D01*
X128677030Y-150242185D01*
X128867481Y-150408151D01*
X129106947Y-150488600D01*
X129358972Y-150471286D01*
X133219404Y-149423876D01*
X133445618Y-149311435D01*
X133611584Y-149120984D01*
X133692033Y-148881518D01*
X133674720Y-148629494D01*
X133244905Y-147045323D01*
X133827936Y-146462292D01*
X133831532Y-146514640D01*
X134355236Y-148444856D01*
X134467678Y-148671071D01*
X134658129Y-148837037D01*
X134879646Y-148911456D01*
X134485515Y-148911456D01*
X133862758Y-149035330D01*
X133156545Y-149507207D01*
X132952611Y-149812415D01*
X129438868Y-150765761D01*
X129212654Y-150878202D01*
X129046688Y-151068653D01*
X128966239Y-151308119D01*
X128983553Y-151560144D01*
X129507258Y-153490359D01*
X129619699Y-153716573D01*
X129810150Y-153882539D01*
X130049616Y-153962988D01*
X130301641Y-153945674D01*
X133779621Y-153002031D01*
X133862758Y-153057582D01*
X134485515Y-153181456D01*
X142035267Y-153181456D01*
X142245542Y-153223282D01*
X142455817Y-153181456D01*
X142455821Y-153181456D01*
X143078578Y-153057582D01*
X143784791Y-152585705D01*
X143903906Y-152407437D01*
X144223816Y-152087527D01*
X144413720Y-152277431D01*
X144794126Y-152435000D01*
X145205874Y-152435000D01*
X145586280Y-152277431D01*
X145877431Y-151986280D01*
X145951916Y-151806456D01*
X281813852Y-151806456D01*
X289698359Y-153945674D01*
X289950384Y-153962988D01*
X290189850Y-153882539D01*
X290380301Y-153716573D01*
X290492742Y-153490359D01*
X291016447Y-151560144D01*
X291033761Y-151308119D01*
X290953312Y-151068653D01*
X290787346Y-150878202D01*
X290561132Y-150765761D01*
X280910053Y-148147238D01*
X280658028Y-148129924D01*
X280418562Y-148210373D01*
X280228111Y-148376339D01*
X280115670Y-148602553D01*
X279658794Y-150286456D01*
X151269770Y-150286456D01*
X151292013Y-150232757D01*
X151411126Y-150054492D01*
X151452953Y-149844213D01*
X151535000Y-149646134D01*
X151535000Y-149431735D01*
X151576827Y-149221456D01*
X151535000Y-149011177D01*
X151535000Y-148796778D01*
X151452953Y-148598699D01*
X151411126Y-148388420D01*
X151292013Y-148210155D01*
X151209966Y-148012076D01*
X151058362Y-147860472D01*
X150939249Y-147682207D01*
X150760984Y-147563094D01*
X150744400Y-147546510D01*
X261806096Y-147546510D01*
X261822569Y-147586280D01*
X262113720Y-147877431D01*
X262494126Y-148035000D01*
X262905874Y-148035000D01*
X263286280Y-147877431D01*
X263577431Y-147586280D01*
X263735000Y-147205874D01*
X263735000Y-147183539D01*
X280513564Y-147183539D01*
X280545750Y-147434099D01*
X280671371Y-147653269D01*
X280871303Y-147807682D01*
X281115108Y-147873831D01*
X285542966Y-149075194D01*
X285621705Y-149030063D01*
X285982883Y-149030063D01*
X286094525Y-149224843D01*
X290522383Y-150426206D01*
X290766188Y-150492355D01*
X291016748Y-150460168D01*
X291235917Y-150334546D01*
X291390331Y-150134615D01*
X291610433Y-149323384D01*
X291498791Y-149128604D01*
X286336187Y-147727891D01*
X285982883Y-149030063D01*
X285621705Y-149030063D01*
X285737746Y-148963552D01*
X286091050Y-147661380D01*
X285432689Y-147482754D01*
X286402698Y-147482754D01*
X291565302Y-148883467D01*
X291760082Y-148771825D01*
X291980184Y-147960595D01*
X291947998Y-147710035D01*
X291822377Y-147490865D01*
X291622445Y-147336452D01*
X291378640Y-147270303D01*
X286950782Y-146068940D01*
X286756002Y-146180582D01*
X286402698Y-147482754D01*
X285432689Y-147482754D01*
X280928446Y-146260667D01*
X280733666Y-146372309D01*
X280513564Y-147183539D01*
X263735000Y-147183539D01*
X263735000Y-146794126D01*
X263577431Y-146413720D01*
X263286280Y-146122569D01*
X262905874Y-145965000D01*
X262494126Y-145965000D01*
X262345627Y-146026510D01*
X145135000Y-146026510D01*
X145135000Y-145820750D01*
X280883315Y-145820750D01*
X280994957Y-146015530D01*
X286157561Y-147416243D01*
X286510865Y-146114071D01*
X286399223Y-145919291D01*
X281971365Y-144717928D01*
X281727560Y-144651779D01*
X281477000Y-144683966D01*
X281257831Y-144809588D01*
X281103417Y-145009519D01*
X280883315Y-145820750D01*
X145135000Y-145820750D01*
X145135000Y-145794126D01*
X144977431Y-145413720D01*
X144686280Y-145122569D01*
X144305874Y-144965000D01*
X143894126Y-144965000D01*
X143513720Y-145122569D01*
X143396289Y-145240000D01*
X139793553Y-145240000D01*
X139041769Y-144488217D01*
X138999367Y-144424758D01*
X138747975Y-144256783D01*
X138526290Y-144212687D01*
X138526285Y-144212687D01*
X138451438Y-144197799D01*
X138376591Y-144212687D01*
X134317585Y-144212687D01*
X134242738Y-144197799D01*
X134167891Y-144212687D01*
X134167887Y-144212687D01*
X133946202Y-144256783D01*
X133946200Y-144256784D01*
X133946201Y-144256784D01*
X133758265Y-144382358D01*
X133758263Y-144382360D01*
X133694810Y-144424758D01*
X133652412Y-144488211D01*
X131866002Y-146274623D01*
X131865996Y-146274627D01*
X131725394Y-146415229D01*
X128496200Y-147291372D01*
X128269986Y-147403813D01*
X128104020Y-147594264D01*
X128023571Y-147833730D01*
X122070011Y-147833730D01*
X120840535Y-143303547D01*
X121932672Y-143076530D01*
X123709483Y-142717175D01*
X125475894Y-142367885D01*
X127189978Y-142040475D01*
X127189980Y-142040475D01*
X129031684Y-141688688D01*
X130818239Y-141359323D01*
X132532802Y-141051087D01*
X134374704Y-140719958D01*
X136160967Y-140410606D01*
X137947622Y-140111167D01*
X139726060Y-139821422D01*
X141513458Y-139531844D01*
X143310028Y-139252377D01*
X145096714Y-138982877D01*
X146949198Y-138713802D01*
X146949200Y-138713801D01*
X148672837Y-138463441D01*
X150468977Y-138213977D01*
X152265695Y-137974415D01*
X154052573Y-137744815D01*
X155851844Y-137514908D01*
X157648195Y-137295354D01*
X159444786Y-137085751D01*
X161178278Y-136893141D01*
X161178279Y-136893141D01*
X163040958Y-136686176D01*
X164837288Y-136496564D01*
X166580810Y-136323174D01*
X166580992Y-136323192D01*
X166645882Y-136316703D01*
X166709996Y-136310327D01*
X166710169Y-136310274D01*
X168443690Y-136136922D01*
X170250016Y-135967267D01*
X172046483Y-135807581D01*
X173852768Y-135657889D01*
X175651329Y-135518001D01*
X177459127Y-135378171D01*
X179332117Y-135243647D01*
X179332119Y-135243647D01*
X181073720Y-135118560D01*
X182872034Y-135008662D01*
X184678294Y-134898890D01*
X186484695Y-134799089D01*
X188357699Y-134705957D01*
X188357701Y-134705957D01*
X190100965Y-134619275D01*
X191907354Y-134539435D01*
X193723641Y-134469579D01*
X195596833Y-134407484D01*
X195596834Y-134407484D01*
X197340083Y-134349697D01*
X199146353Y-134299800D01*
X200952741Y-134259879D01*
X202766744Y-134229813D01*
X204577264Y-134199970D01*
X206320486Y-134190338D01*
X206322294Y-134190677D01*
X206385445Y-134189979D01*
X206448648Y-134189630D01*
X206450451Y-134189261D01*
X208193599Y-134170000D01*
X211806453Y-134170000D01*
X213559571Y-134189265D01*
X213559571Y-134189265D01*
G37*
X213559571Y-134189265D02*
X213561352Y-134189630D01*
X213624488Y-134189979D01*
X213687746Y-134190674D01*
X213689537Y-134190338D01*
X215432713Y-134199970D01*
X217174067Y-134228832D01*
X217174069Y-134228832D01*
X219047243Y-134259879D01*
X220863534Y-134299797D01*
X222669922Y-134349697D01*
X224413166Y-134407484D01*
X224413167Y-134407484D01*
X226286432Y-134469581D01*
X228092678Y-134539437D01*
X229899035Y-134619275D01*
X231642299Y-134705957D01*
X231642301Y-134705957D01*
X233515305Y-134799089D01*
X235321706Y-134898890D01*
X237065080Y-135004841D01*
X237065081Y-135004841D01*
X238936329Y-135118563D01*
X240742824Y-135248311D01*
X242540749Y-135378161D01*
X244413911Y-135523047D01*
X244413912Y-135523047D01*
X246157256Y-135657891D01*
X247953570Y-135807585D01*
X249759907Y-135967261D01*
X251556469Y-136136937D01*
X253365612Y-136316852D01*
X255162441Y-136496535D01*
X256959060Y-136686178D01*
X258821720Y-136893141D01*
X258821722Y-136893141D01*
X260555233Y-137085754D01*
X262351826Y-137295356D01*
X264148176Y-137514911D01*
X266010825Y-137752916D01*
X266010826Y-137752916D01*
X267744643Y-137974459D01*
X269540721Y-138213936D01*
X271326808Y-138463389D01*
X273051064Y-138713840D01*
X273051311Y-138713927D01*
X273114990Y-138723125D01*
X273179457Y-138732489D01*
X273179722Y-138732475D01*
X274911838Y-138982670D01*
X276635574Y-139252305D01*
X276637285Y-139252922D01*
X276699795Y-139262351D01*
X276762222Y-139272116D01*
X276764038Y-139272041D01*
X278487987Y-139532078D01*
X280210283Y-139811109D01*
X282062753Y-140111230D01*
X283848856Y-140410578D01*
X285625268Y-140719952D01*
X287413736Y-141039678D01*
X289191440Y-141359266D01*
X290968098Y-141688647D01*
X292810019Y-142040475D01*
X292810022Y-142040475D01*
X294524443Y-142367949D01*
X296301012Y-142717275D01*
X298077101Y-143076484D01*
X299159671Y-143302784D01*
X297106074Y-150869569D01*
X294992303Y-150293750D01*
X293469505Y-148944205D01*
X293411117Y-148877256D01*
X293313616Y-148828840D01*
X293219620Y-148773918D01*
X293196684Y-148770777D01*
X293175950Y-148760481D01*
X293067336Y-148753062D01*
X292959485Y-148738292D01*
X292937095Y-148744167D01*
X292913996Y-148742589D01*
X292810808Y-148777301D01*
X292705517Y-148804927D01*
X292687078Y-148818924D01*
X292665136Y-148826305D01*
X292583093Y-148897858D01*
X292496381Y-148963679D01*
X292484702Y-148983667D01*
X292467255Y-148998883D01*
X292418834Y-149096396D01*
X292363918Y-149190380D01*
X292351866Y-149278384D01*
X291433863Y-152667181D01*
X291399750Y-152749989D01*
X291399958Y-152858116D01*
X291392589Y-152966003D01*
X291400208Y-152988652D01*
X291400254Y-153012551D01*
X291441830Y-153112380D01*
X291476305Y-153214863D01*
X291492012Y-153232872D01*
X291501200Y-153254935D01*
X291577811Y-153331251D01*
X291648883Y-153412744D01*
X291670288Y-153423373D01*
X291687218Y-153440238D01*
X291787196Y-153481425D01*
X291884050Y-153529519D01*
X291907894Y-153531148D01*
X291929989Y-153540250D01*
X292038120Y-153540042D01*
X292146003Y-153547411D01*
X292230895Y-153518853D01*
X294228150Y-153117579D01*
X296339780Y-153685535D01*
X294265159Y-161329787D01*
X293263121Y-161125779D01*
X293260996Y-161124905D01*
X293199359Y-161112798D01*
X293137973Y-161100300D01*
X293135682Y-161100290D01*
X291517474Y-160782428D01*
X289909468Y-160464677D01*
X289907349Y-160463820D01*
X289845794Y-160452095D01*
X289784175Y-160439919D01*
X289781884Y-160439922D01*
X288225466Y-160143461D01*
X288223687Y-160142753D01*
X288161660Y-160131308D01*
X288099639Y-160119494D01*
X288097723Y-160119510D01*
X286479655Y-159820937D01*
X284872133Y-159522535D01*
X284870013Y-159521705D01*
X284808201Y-159510667D01*
X284746545Y-159499222D01*
X284744271Y-159499251D01*
X283187790Y-159221308D01*
X283185689Y-159220502D01*
X283123913Y-159209901D01*
X283062031Y-159198851D01*
X283059775Y-159198895D01*
X281431826Y-158919543D01*
X279814425Y-158640349D01*
X279812622Y-158639667D01*
X279750374Y-158629292D01*
X279688212Y-158618562D01*
X279686286Y-158618611D01*
X278130411Y-158359298D01*
X278128312Y-158358521D01*
X278066362Y-158348624D01*
X278004384Y-158338294D01*
X278002144Y-158338364D01*
X276374753Y-158078367D01*
X274756703Y-157818323D01*
X274754604Y-157817559D01*
X274692497Y-157808004D01*
X274630548Y-157798048D01*
X274628319Y-157798131D01*
X273062699Y-157557266D01*
X273060885Y-157556618D01*
X272998498Y-157547389D01*
X272936110Y-157537791D01*
X272934184Y-157537875D01*
X271369245Y-157306375D01*
X271367687Y-157305827D01*
X271305057Y-157296880D01*
X271242278Y-157287593D01*
X271240623Y-157287675D01*
X269687414Y-157065788D01*
X269687153Y-157065696D01*
X269622911Y-157056573D01*
X269558988Y-157047441D01*
X269558713Y-157047456D01*
X267994980Y-156825387D01*
X267992903Y-156824674D01*
X267930626Y-156816248D01*
X267868439Y-156807417D01*
X267866248Y-156807538D01*
X266228392Y-156585946D01*
X264599571Y-156364272D01*
X264595892Y-156363053D01*
X264535196Y-156355511D01*
X264474592Y-156347263D01*
X264470724Y-156347500D01*
X262843244Y-156145269D01*
X261215584Y-155933384D01*
X261211672Y-155932116D01*
X261151120Y-155924992D01*
X261090739Y-155917132D01*
X261086642Y-155917407D01*
X259446561Y-155724456D01*
X257819969Y-155531960D01*
X257817909Y-155531305D01*
X257755471Y-155524327D01*
X257693012Y-155516935D01*
X257690855Y-155517105D01*
X256116188Y-155341112D01*
X256114538Y-155340597D01*
X256051657Y-155333900D01*
X255988707Y-155326864D01*
X255986982Y-155327011D01*
X254424330Y-155160575D01*
X254424135Y-155160514D01*
X254360256Y-155153750D01*
X254295263Y-155146828D01*
X254295056Y-155146847D01*
X252720280Y-154980106D01*
X252716561Y-154978995D01*
X252655629Y-154973260D01*
X252594852Y-154966825D01*
X252590992Y-154967177D01*
X250953683Y-154813077D01*
X249316489Y-154649358D01*
X249312761Y-154648268D01*
X249251824Y-154642891D01*
X249190992Y-154636808D01*
X249187128Y-154637183D01*
X247483259Y-154486841D01*
X247483257Y-154486841D01*
X245910823Y-154348097D01*
X245908953Y-154347562D01*
X245846112Y-154342387D01*
X245783259Y-154336841D01*
X245781324Y-154337051D01*
X244208954Y-154207562D01*
X244208953Y-154207562D01*
X242507012Y-154067402D01*
X242505137Y-154066878D01*
X242442242Y-154062068D01*
X242379386Y-154056892D01*
X242377452Y-154057114D01*
X240803190Y-153936729D01*
X240801314Y-153936216D01*
X240738531Y-153931784D01*
X240675510Y-153926965D01*
X240673571Y-153927199D01*
X239099243Y-153816070D01*
X239097237Y-153815535D01*
X239034415Y-153811494D01*
X238971631Y-153807062D01*
X238969572Y-153807323D01*
X237322834Y-153701392D01*
X235685535Y-153595449D01*
X235683647Y-153594957D01*
X235620698Y-153591254D01*
X235557750Y-153587181D01*
X235555815Y-153587437D01*
X233981594Y-153494835D01*
X233979602Y-153494329D01*
X233916736Y-153491020D01*
X233853866Y-153487322D01*
X233851829Y-153487604D01*
X232203852Y-153400868D01*
X230567762Y-153314252D01*
X230565775Y-153313759D01*
X230502817Y-153310814D01*
X230439981Y-153307487D01*
X230437958Y-153307779D01*
X228853911Y-153233672D01*
X228852101Y-153233234D01*
X228789043Y-153230637D01*
X228725912Y-153227684D01*
X228724068Y-153227962D01*
X227152018Y-153163230D01*
X227151943Y-153163212D01*
X227089040Y-153160637D01*
X227022206Y-153157885D01*
X227022125Y-153157898D01*
X225440067Y-153093135D01*
X225438241Y-153092704D01*
X225375160Y-153090478D01*
X225312047Y-153087894D01*
X225310192Y-153088185D01*
X223736228Y-153032633D01*
X223734265Y-153032182D01*
X223671305Y-153030341D01*
X223608318Y-153028118D01*
X223606329Y-153028441D01*
X222022368Y-152982127D01*
X222020510Y-152981712D01*
X221957312Y-152980225D01*
X221894315Y-152978383D01*
X221892444Y-152978699D01*
X220320464Y-152941711D01*
X220320419Y-152941701D01*
X220255432Y-152940181D01*
X220190541Y-152938654D01*
X220190496Y-152938662D01*
X218608509Y-152901657D01*
X218606638Y-152901250D01*
X218543491Y-152900136D01*
X218480450Y-152898661D01*
X218478567Y-152898990D01*
X216906603Y-152871249D01*
X216906570Y-152871242D01*
X216842201Y-152870113D01*
X216776653Y-152868956D01*
X216776619Y-152868962D01*
X215192676Y-152841174D01*
X215188861Y-152840392D01*
X215127714Y-152840034D01*
X215066585Y-152838962D01*
X215062753Y-152839655D01*
X213430920Y-152830112D01*
X211778874Y-152820395D01*
X211778861Y-152820392D01*
X211704551Y-152819957D01*
X211648881Y-152819630D01*
X211648871Y-152819632D01*
X210064966Y-152810369D01*
X210061142Y-152809632D01*
X210000000Y-152809990D01*
X209938858Y-152809632D01*
X209935034Y-152810369D01*
X208351129Y-152819632D01*
X208351119Y-152819630D01*
X208295444Y-152819957D01*
X208221139Y-152820392D01*
X208221126Y-152820395D01*
X206568912Y-152830113D01*
X204937247Y-152839655D01*
X204933415Y-152838962D01*
X204872286Y-152840034D01*
X204811139Y-152840392D01*
X204807324Y-152841174D01*
X203223381Y-152868962D01*
X203223347Y-152868956D01*
X203157799Y-152870113D01*
X203093430Y-152871242D01*
X203093397Y-152871249D01*
X201521434Y-152898990D01*
X201519551Y-152898661D01*
X201456513Y-152900136D01*
X201393362Y-152901250D01*
X201391491Y-152901657D01*
X199809505Y-152938662D01*
X199809460Y-152938654D01*
X199744727Y-152940177D01*
X199679581Y-152941701D01*
X199679536Y-152941711D01*
X198107556Y-152978699D01*
X198105685Y-152978383D01*
X198042688Y-152980225D01*
X197979490Y-152981712D01*
X197977632Y-152982127D01*
X196393738Y-153028439D01*
X196391819Y-153028127D01*
X196328831Y-153030337D01*
X196265735Y-153032182D01*
X196263837Y-153032618D01*
X194679796Y-153088198D01*
X194677794Y-153087885D01*
X194614820Y-153090478D01*
X194551894Y-153092686D01*
X194549924Y-153093150D01*
X192914830Y-153160478D01*
X191265919Y-153227978D01*
X191263906Y-153227675D01*
X191200986Y-153230636D01*
X191138057Y-153233212D01*
X191136079Y-153233690D01*
X189561956Y-153307767D01*
X189560020Y-153307487D01*
X189496989Y-153310824D01*
X189434045Y-153313786D01*
X189432150Y-153314257D01*
X187796148Y-153400868D01*
X186148171Y-153487604D01*
X186146134Y-153487322D01*
X186083256Y-153491021D01*
X186020399Y-153494329D01*
X186018407Y-153494835D01*
X184444312Y-153587430D01*
X184442499Y-153587189D01*
X184379344Y-153591252D01*
X184316353Y-153594957D01*
X184314588Y-153595417D01*
X182732374Y-153697197D01*
X182732250Y-153697181D01*
X182667683Y-153701359D01*
X182602763Y-153705535D01*
X182602642Y-153705567D01*
X181030302Y-153807307D01*
X181028369Y-153807062D01*
X180965538Y-153811497D01*
X180902516Y-153815575D01*
X180900629Y-153816079D01*
X179326423Y-153927199D01*
X179324489Y-153926966D01*
X179261621Y-153931774D01*
X179198686Y-153936216D01*
X179196806Y-153936730D01*
X177622549Y-154057114D01*
X177620614Y-154056892D01*
X177557752Y-154062069D01*
X177494863Y-154066878D01*
X177492988Y-154067402D01*
X175791047Y-154207562D01*
X175791046Y-154207562D01*
X174218676Y-154337051D01*
X174216741Y-154336841D01*
X174153888Y-154342387D01*
X174091047Y-154347562D01*
X174089177Y-154348097D01*
X172516743Y-154486841D01*
X172516741Y-154486841D01*
X170812872Y-154637183D01*
X170809008Y-154636808D01*
X170748176Y-154642891D01*
X170687239Y-154648268D01*
X170683511Y-154649358D01*
X169046334Y-154813075D01*
X167409008Y-154967177D01*
X167405147Y-154966825D01*
X167344362Y-154973261D01*
X167283439Y-154978995D01*
X167279720Y-154980106D01*
X165704944Y-155146847D01*
X165704737Y-155146828D01*
X165639756Y-155153749D01*
X165575865Y-155160514D01*
X165575670Y-155160575D01*
X164013019Y-155327011D01*
X164011292Y-155326864D01*
X163948303Y-155333904D01*
X163885463Y-155340597D01*
X163883814Y-155341112D01*
X162309145Y-155517105D01*
X162306987Y-155516935D01*
X162244512Y-155524328D01*
X162182091Y-155531305D01*
X162180032Y-155531959D01*
X160553596Y-155724437D01*
X158913358Y-155917407D01*
X158909260Y-155917132D01*
X158848871Y-155924993D01*
X158788328Y-155932116D01*
X158784417Y-155933384D01*
X157156775Y-156145266D01*
X155529534Y-156347467D01*
X155525927Y-156347244D01*
X155465047Y-156355481D01*
X155404108Y-156363053D01*
X155400679Y-156364189D01*
X153825668Y-156577279D01*
X153825407Y-156577263D01*
X153761377Y-156585977D01*
X153697096Y-156594674D01*
X153696848Y-156594759D01*
X152133493Y-156807524D01*
X152131560Y-156807417D01*
X152069015Y-156816299D01*
X152006589Y-156824795D01*
X152004763Y-156825424D01*
X150441560Y-157047417D01*
X148749365Y-157287729D01*
X148747150Y-157287621D01*
X148685021Y-157296866D01*
X148622846Y-157305696D01*
X148620754Y-157306430D01*
X147065530Y-157537863D01*
X147063889Y-157537791D01*
X147001153Y-157547443D01*
X146938561Y-157556757D01*
X146937019Y-157557309D01*
X145371985Y-157798084D01*
X145370065Y-157798011D01*
X145307846Y-157807951D01*
X145245396Y-157817559D01*
X145243586Y-157818218D01*
X143679762Y-158068060D01*
X143679451Y-158068048D01*
X143615148Y-158078382D01*
X143551688Y-158088521D01*
X143551400Y-158088628D01*
X141997546Y-158338354D01*
X141995615Y-158338294D01*
X141933341Y-158348673D01*
X141871094Y-158358677D01*
X141869285Y-158359349D01*
X140314043Y-158618556D01*
X140312443Y-158618514D01*
X140249786Y-158629266D01*
X140187379Y-158639667D01*
X140185889Y-158640230D01*
X138622119Y-158908570D01*
X138621787Y-158908562D01*
X138557760Y-158919614D01*
X138494311Y-158930502D01*
X138494004Y-158930620D01*
X136939893Y-159198889D01*
X136937969Y-159198851D01*
X136875837Y-159209946D01*
X136813677Y-159220676D01*
X136811882Y-159221366D01*
X135256080Y-159499189D01*
X135254160Y-159499162D01*
X135192099Y-159510614D01*
X135129988Y-159521705D01*
X135128201Y-159522404D01*
X133573811Y-159809227D01*
X133573454Y-159809222D01*
X133509711Y-159821055D01*
X133446313Y-159832753D01*
X133445983Y-159832884D01*
X131901923Y-160119507D01*
X131900361Y-160119494D01*
X131837921Y-160131387D01*
X131775632Y-160142950D01*
X131774186Y-160143527D01*
X130218117Y-160439922D01*
X130215825Y-160439919D01*
X130154181Y-160452100D01*
X130092652Y-160463820D01*
X130090534Y-160464677D01*
X128482849Y-160782364D01*
X126864318Y-161100290D01*
X126862025Y-161100300D01*
X126800587Y-161112808D01*
X126739004Y-161124905D01*
X126736881Y-161125778D01*
X125734841Y-161329787D01*
X123660219Y-153685535D01*
X125771852Y-153117579D01*
X127769102Y-153518853D01*
X127853996Y-153547411D01*
X127961880Y-153540042D01*
X128070012Y-153540250D01*
X128092108Y-153531147D01*
X128115950Y-153529519D01*
X128212802Y-153481426D01*
X128312782Y-153440238D01*
X128329712Y-153423373D01*
X128351117Y-153412744D01*
X128422189Y-153331251D01*
X128498800Y-153254935D01*
X128507988Y-153232872D01*
X128523695Y-153214863D01*
X128558170Y-153112380D01*
X128599746Y-153012551D01*
X128599792Y-152988652D01*
X128607411Y-152966003D01*
X128600043Y-152858124D01*
X128600251Y-152749988D01*
X128566134Y-152667173D01*
X127648137Y-149278399D01*
X127636083Y-149190380D01*
X127581157Y-149096378D01*
X127532744Y-148998883D01*
X127515299Y-148983669D01*
X127503619Y-148963679D01*
X127416900Y-148897852D01*
X127334863Y-148826305D01*
X127312923Y-148818924D01*
X127294483Y-148804927D01*
X127189180Y-148777298D01*
X127086003Y-148742589D01*
X127062909Y-148744166D01*
X127040516Y-148738291D01*
X126932651Y-148753063D01*
X126824050Y-148760481D01*
X126803318Y-148770776D01*
X126780380Y-148773917D01*
X126686379Y-148828843D01*
X126588883Y-148877256D01*
X126530495Y-148944205D01*
X125007698Y-150293749D01*
X122893926Y-150869570D01*
X122070011Y-147833730D01*
X128023571Y-147833730D01*
X128040884Y-148085754D01*
X128564588Y-150015970D01*
X128677030Y-150242185D01*
X128867481Y-150408151D01*
X129106947Y-150488600D01*
X129358972Y-150471286D01*
X133219404Y-149423876D01*
X133445618Y-149311435D01*
X133611584Y-149120984D01*
X133692033Y-148881518D01*
X133674720Y-148629494D01*
X133244905Y-147045323D01*
X133827936Y-146462292D01*
X133831532Y-146514640D01*
X134355236Y-148444856D01*
X134467678Y-148671071D01*
X134658129Y-148837037D01*
X134879646Y-148911456D01*
X134485515Y-148911456D01*
X133862758Y-149035330D01*
X133156545Y-149507207D01*
X132952611Y-149812415D01*
X129438868Y-150765761D01*
X129212654Y-150878202D01*
X129046688Y-151068653D01*
X128966239Y-151308119D01*
X128983553Y-151560144D01*
X129507258Y-153490359D01*
X129619699Y-153716573D01*
X129810150Y-153882539D01*
X130049616Y-153962988D01*
X130301641Y-153945674D01*
X133779621Y-153002031D01*
X133862758Y-153057582D01*
X134485515Y-153181456D01*
X142035267Y-153181456D01*
X142245542Y-153223282D01*
X142455817Y-153181456D01*
X142455821Y-153181456D01*
X143078578Y-153057582D01*
X143784791Y-152585705D01*
X143903906Y-152407437D01*
X144223816Y-152087527D01*
X144413720Y-152277431D01*
X144794126Y-152435000D01*
X145205874Y-152435000D01*
X145586280Y-152277431D01*
X145877431Y-151986280D01*
X145951916Y-151806456D01*
X281813852Y-151806456D01*
X289698359Y-153945674D01*
X289950384Y-153962988D01*
X290189850Y-153882539D01*
X290380301Y-153716573D01*
X290492742Y-153490359D01*
X291016447Y-151560144D01*
X291033761Y-151308119D01*
X290953312Y-151068653D01*
X290787346Y-150878202D01*
X290561132Y-150765761D01*
X280910053Y-148147238D01*
X280658028Y-148129924D01*
X280418562Y-148210373D01*
X280228111Y-148376339D01*
X280115670Y-148602553D01*
X279658794Y-150286456D01*
X151269770Y-150286456D01*
X151292013Y-150232757D01*
X151411126Y-150054492D01*
X151452953Y-149844213D01*
X151535000Y-149646134D01*
X151535000Y-149431735D01*
X151576827Y-149221456D01*
X151535000Y-149011177D01*
X151535000Y-148796778D01*
X151452953Y-148598699D01*
X151411126Y-148388420D01*
X151292013Y-148210155D01*
X151209966Y-148012076D01*
X151058362Y-147860472D01*
X150939249Y-147682207D01*
X150760984Y-147563094D01*
X150744400Y-147546510D01*
X261806096Y-147546510D01*
X261822569Y-147586280D01*
X262113720Y-147877431D01*
X262494126Y-148035000D01*
X262905874Y-148035000D01*
X263286280Y-147877431D01*
X263577431Y-147586280D01*
X263735000Y-147205874D01*
X263735000Y-147183539D01*
X280513564Y-147183539D01*
X280545750Y-147434099D01*
X280671371Y-147653269D01*
X280871303Y-147807682D01*
X281115108Y-147873831D01*
X285542966Y-149075194D01*
X285621705Y-149030063D01*
X285982883Y-149030063D01*
X286094525Y-149224843D01*
X290522383Y-150426206D01*
X290766188Y-150492355D01*
X291016748Y-150460168D01*
X291235917Y-150334546D01*
X291390331Y-150134615D01*
X291610433Y-149323384D01*
X291498791Y-149128604D01*
X286336187Y-147727891D01*
X285982883Y-149030063D01*
X285621705Y-149030063D01*
X285737746Y-148963552D01*
X286091050Y-147661380D01*
X285432689Y-147482754D01*
X286402698Y-147482754D01*
X291565302Y-148883467D01*
X291760082Y-148771825D01*
X291980184Y-147960595D01*
X291947998Y-147710035D01*
X291822377Y-147490865D01*
X291622445Y-147336452D01*
X291378640Y-147270303D01*
X286950782Y-146068940D01*
X286756002Y-146180582D01*
X286402698Y-147482754D01*
X285432689Y-147482754D01*
X280928446Y-146260667D01*
X280733666Y-146372309D01*
X280513564Y-147183539D01*
X263735000Y-147183539D01*
X263735000Y-146794126D01*
X263577431Y-146413720D01*
X263286280Y-146122569D01*
X262905874Y-145965000D01*
X262494126Y-145965000D01*
X262345627Y-146026510D01*
X145135000Y-146026510D01*
X145135000Y-145820750D01*
X280883315Y-145820750D01*
X280994957Y-146015530D01*
X286157561Y-147416243D01*
X286510865Y-146114071D01*
X286399223Y-145919291D01*
X281971365Y-144717928D01*
X281727560Y-144651779D01*
X281477000Y-144683966D01*
X281257831Y-144809588D01*
X281103417Y-145009519D01*
X280883315Y-145820750D01*
X145135000Y-145820750D01*
X145135000Y-145794126D01*
X144977431Y-145413720D01*
X144686280Y-145122569D01*
X144305874Y-144965000D01*
X143894126Y-144965000D01*
X143513720Y-145122569D01*
X143396289Y-145240000D01*
X139793553Y-145240000D01*
X139041769Y-144488217D01*
X138999367Y-144424758D01*
X138747975Y-144256783D01*
X138526290Y-144212687D01*
X138526285Y-144212687D01*
X138451438Y-144197799D01*
X138376591Y-144212687D01*
X134317585Y-144212687D01*
X134242738Y-144197799D01*
X134167891Y-144212687D01*
X134167887Y-144212687D01*
X133946202Y-144256783D01*
X133946200Y-144256784D01*
X133946201Y-144256784D01*
X133758265Y-144382358D01*
X133758263Y-144382360D01*
X133694810Y-144424758D01*
X133652412Y-144488211D01*
X131866002Y-146274623D01*
X131865996Y-146274627D01*
X131725394Y-146415229D01*
X128496200Y-147291372D01*
X128269986Y-147403813D01*
X128104020Y-147594264D01*
X128023571Y-147833730D01*
X122070011Y-147833730D01*
X120840535Y-143303547D01*
X121932672Y-143076530D01*
X123709483Y-142717175D01*
X125475894Y-142367885D01*
X127189978Y-142040475D01*
X127189980Y-142040475D01*
X129031684Y-141688688D01*
X130818239Y-141359323D01*
X132532802Y-141051087D01*
X134374704Y-140719958D01*
X136160967Y-140410606D01*
X137947622Y-140111167D01*
X139726060Y-139821422D01*
X141513458Y-139531844D01*
X143310028Y-139252377D01*
X145096714Y-138982877D01*
X146949198Y-138713802D01*
X146949200Y-138713801D01*
X148672837Y-138463441D01*
X150468977Y-138213977D01*
X152265695Y-137974415D01*
X154052573Y-137744815D01*
X155851844Y-137514908D01*
X157648195Y-137295354D01*
X159444786Y-137085751D01*
X161178278Y-136893141D01*
X161178279Y-136893141D01*
X163040958Y-136686176D01*
X164837288Y-136496564D01*
X166580810Y-136323174D01*
X166580992Y-136323192D01*
X166645882Y-136316703D01*
X166709996Y-136310327D01*
X166710169Y-136310274D01*
X168443690Y-136136922D01*
X170250016Y-135967267D01*
X172046483Y-135807581D01*
X173852768Y-135657889D01*
X175651329Y-135518001D01*
X177459127Y-135378171D01*
X179332117Y-135243647D01*
X179332119Y-135243647D01*
X181073720Y-135118560D01*
X182872034Y-135008662D01*
X184678294Y-134898890D01*
X186484695Y-134799089D01*
X188357699Y-134705957D01*
X188357701Y-134705957D01*
X190100965Y-134619275D01*
X191907354Y-134539435D01*
X193723641Y-134469579D01*
X195596833Y-134407484D01*
X195596834Y-134407484D01*
X197340083Y-134349697D01*
X199146353Y-134299800D01*
X200952741Y-134259879D01*
X202766744Y-134229813D01*
X204577264Y-134199970D01*
X206320486Y-134190338D01*
X206322294Y-134190677D01*
X206385445Y-134189979D01*
X206448648Y-134189630D01*
X206450451Y-134189261D01*
X208193599Y-134170000D01*
X211806453Y-134170000D01*
X213559571Y-134189265D01*
G04 #@! TD*
M02*
