G04 #@! TF.GenerationSoftware,KiCad,Pcbnew,(5.0.1)-4*
G04 #@! TF.CreationDate,2018-11-24T23:15:51-05:00*
G04 #@! TF.ProjectId,strutA,7374727574412E6B696361645F706362,rev?*
G04 #@! TF.SameCoordinates,Original*
G04 #@! TF.FileFunction,Soldermask,Bot*
G04 #@! TF.FilePolarity,Negative*
%FSLAX46Y46*%
G04 Gerber Fmt 4.6, Leading zero omitted, Abs format (unit mm)*
G04 Created by KiCad (PCBNEW (5.0.1)-4) date 2018-11-24 11:15:51 PM*
%MOMM*%
%LPD*%
G01*
G04 APERTURE LIST*
%ADD10C,0.100000*%
G04 APERTURE END LIST*
D10*
G36*
X139295347Y-148709512D02*
X139295348Y-148709512D01*
X139620795Y-149909011D01*
X139845761Y-150738168D01*
X130096241Y-153383401D01*
X130096241Y-153383400D01*
X130096240Y-153383400D01*
X129545827Y-151354744D01*
X139295347Y-148709511D01*
X139295347Y-148709512D01*
X139295347Y-148709512D01*
G37*
G36*
X290454173Y-151354744D02*
X289903760Y-153383400D01*
X289903759Y-153383400D01*
X289903759Y-153383401D01*
X280154239Y-150738168D01*
X280379205Y-149909011D01*
X280704652Y-148709512D01*
X280704653Y-148709512D01*
X280704653Y-148709511D01*
X290454173Y-151354744D01*
X290454173Y-151354744D01*
G37*
G36*
X133112445Y-148834893D02*
X133112445Y-148834894D01*
X129153573Y-149909012D01*
X129153572Y-149909012D01*
X128603159Y-147880355D01*
X128603159Y-147880354D01*
X132562031Y-146806236D01*
X132562032Y-146806236D01*
X133112445Y-148834893D01*
X133112445Y-148834893D01*
G37*
G36*
X291396837Y-147880354D02*
X291396841Y-147880355D01*
X290846428Y-149909011D01*
X290846427Y-149909011D01*
X290846427Y-149909012D01*
X281096907Y-147263779D01*
X281221047Y-146806236D01*
X281647320Y-145235123D01*
X281647321Y-145235123D01*
X281647321Y-145235122D01*
X291396837Y-147880354D01*
X291396837Y-147880354D01*
G37*
G36*
X138903093Y-147263779D02*
X138903093Y-147263780D01*
X134944221Y-148337898D01*
X134944220Y-148337898D01*
X134393807Y-146309241D01*
X134393807Y-146309240D01*
X138352679Y-145235122D01*
X138352680Y-145235122D01*
X138903093Y-147263779D01*
X138903093Y-147263779D01*
G37*
M02*
